<svg xmlns="http://www.w3.org/2000/svg" xmlns:xlink="http://www.w3.org/1999/xlink" xmlns:lucid="lucid" width="620" height="320"><g transform="translate(-60 -120)" lucid:page-tab-id="VTwpRpIF1cUR"><path d="M0 0h1760v1360H0z" fill="#fff"/><path d="M370 280c0 77.32-44.77 140-100 140s-100-62.68-100-140 44.77-140 100-140 100 62.68 100 140z" fill="#fff"/><path d="M368.84 301.05l-.37 3.5-1.16 7.83-1.44 7.62-.43 1.85m-2.6 10.2l-.68 2.42-2.2 6.8-2.43 6.5-1.74 4.16m-4.48 9.54l-2 3.85-3 5.17-3.06 4.83-2.88 4.15m-6.52 8.28l-.13.15-3.22 3.6-3.23 3.3-3.23 3.04-3.22 2.78-2.16 1.7m-8.66 6.02l-1.88 1.14-3.12 1.72-3.1 1.54-3.08 1.37-3.06 1.22-3.04 1.06-1.9.57m-10.3 2.28l-2.9.37-3.03.26-3.04.12-1.53.02-3.05-.06-3.03-.2-3.02-.3-1.4-.22m-10.3-2.26l-.38-.1-3.04-1-3.05-1.13-3.07-1.3-3.1-1.44-3.1-1.64-3.13-1.8-.32-.2m-8.64-6.02l-.56-.43-3.2-2.65-3.24-2.9-3.23-3.17-3.23-3.44-1.72-2m-6.52-8.28l-1.34-1.84-3.1-4.67-3.03-5-2.95-5.35-.56-1.13m-4.5-9.54l-.45-1.03-2.5-6.34-2.32-6.66-1.76-5.83m-2.6-10.22l-1.2-5.64-1.3-7.7-.94-7.45m-.82-10.5l-.26-6.37L170 280l.17-8.33.14-2.2m.86-10.52l.37-3.5 1.16-7.83 1.44-7.62.43-1.85m2.6-10.2l.68-2.42 2.2-6.8 2.43-6.5 1.74-4.16m4.48-9.54l2-3.85 3-5.17 3.06-4.83 2.88-4.15m6.52-8.28l.13-.15 3.22-3.6 3.23-3.3 3.23-3.04 3.22-2.78 2.16-1.7m8.66-6.02l1.88-1.14 3.12-1.72 3.1-1.54 3.08-1.37 3.06-1.22 3.04-1.06 1.9-.57m10.3-2.28l2.9-.37 3.03-.26 3.04-.12L270 140l3.05.06 3.03.2 3.02.3 1.4.22m10.3 2.26l.38.1 3.04 1 3.05 1.13 3.07 1.3 3.1 1.44 3.1 1.64 3.13 1.8.32.2m8.64 6.02l.56.43 3.2 2.65 3.24 2.9 3.23 3.17 3.23 3.44 1.72 2m6.52 8.28l1.34 1.84 3.1 4.67 3.03 5 2.95 5.35.56 1.13m4.5 9.54l.45 1.03 2.5 6.34 2.32 6.66 1.76 5.83m2.6 10.22l1.2 5.64 1.3 7.7.94 7.45m.82 10.5l.26 6.37.04 4.18-.17 8.33-.14 2.2" stroke="#000" stroke-width="2" fill="none"/><use xlink:href="#a" transform="matrix(1,0,0,1,175,145) translate(83.525 136.74375)"/><path d="M160 280c0 22.1-17.9 40-40 40s-40-17.9-40-40 17.9-40 40-40 40 17.9 40 40z" stroke="#000" stroke-width="2" fill="#fff"/><use xlink:href="#b" transform="matrix(1,0,0,1,85,245) translate(29 38.4625)"/><path d="M320 200c0 22.1-17.9 40-40 40s-40-17.9-40-40 17.9-40 40-40 40 17.9 40 40z" stroke="#000" stroke-width="2" fill="#fff"/><use xlink:href="#c" transform="matrix(1,0,0,1,245,165) translate(23.525 38.4625)"/><path d="M320 360c0 22.1-17.9 40-40 40s-40-17.9-40-40 17.9-40 40-40 40 17.9 40 40z" stroke="#000" stroke-width="2" fill="#fff"/><use xlink:href="#d" transform="matrix(1,0,0,1,245,325) translate(23.525 38.4625)"/><path d="M201 281h-39v-2h37v-28.2h2zm19.5-80H201v28.2h-2V199h21.5z"/><path d="M162.03 281h-1.1l.07-1-.03-1h1.06zM235.76 200l-14.26 4.64v-9.28z"/><path d="M239 200l-18.5 6v-12zm-16.5 3.26l10.03-3.26-10.03-3.26z"/><use xlink:href="#e" transform="matrix(1,0,0,1,195,229.2) translate(0 14.4)"/><path d="M201 359h19.5v2H199v-30.2h2zm0-49.8h-2V281h-37v-2h39z"/><path d="M162.03 281h-1.1l.07-1-.03-1h1.06zM235.76 360l-14.26 4.64v-9.28z"/><path d="M239 360l-18.5 6v-12zm-16.5 3.26l10.03-3.26-10.03-3.26z"/><use xlink:href="#f" transform="matrix(1,0,0,1,195,309.2) translate(0 14.4)"/><path d="M380 212.8h280v139.6H380z" stroke="#000" stroke-opacity="0" stroke-width="2" fill="#fff" fill-opacity="0"/><use xlink:href="#g" transform="matrix(1,0,0,1,385,217.79999999999995) translate(29.875 14.4)"/><use xlink:href="#h" transform="matrix(1,0,0,1,385,217.79999999999995) translate(57.825 14.4)"/><use xlink:href="#i" transform="matrix(1,0,0,1,385,217.79999999999995) translate(73.325 14.4)"/><use xlink:href="#j" transform="matrix(1,0,0,1,385,217.79999999999995) translate(114.225 14.4)"/><use xlink:href="#k" transform="matrix(1,0,0,1,385,217.79999999999995) translate(191.125 14.4)"/><use xlink:href="#l" transform="matrix(1,0,0,1,385,217.79999999999995) translate(230.125 14.4)"/><use xlink:href="#m" transform="matrix(1,0,0,1,385,217.79999999999995) translate(68.125 36)"/><use xlink:href="#n" transform="matrix(1,0,0,1,385,217.79999999999995) translate(141.075 36)"/><use xlink:href="#o" transform="matrix(1,0,0,1,385,217.79999999999995) translate(27.375 57.6)"/><use xlink:href="#h" transform="matrix(1,0,0,1,385,217.79999999999995) translate(60.325 57.6)"/><use xlink:href="#i" transform="matrix(1,0,0,1,385,217.79999999999995) translate(75.825 57.6)"/><use xlink:href="#j" transform="matrix(1,0,0,1,385,217.79999999999995) translate(116.725 57.6)"/><use xlink:href="#k" transform="matrix(1,0,0,1,385,217.79999999999995) translate(193.625 57.6)"/><use xlink:href="#p" transform="matrix(1,0,0,1,385,217.79999999999995) translate(232.625 57.6)"/><use xlink:href="#m" transform="matrix(1,0,0,1,385,217.79999999999995) translate(68.125 79.20000000000002)"/><use xlink:href="#n" transform="matrix(1,0,0,1,385,217.79999999999995) translate(141.075 79.20000000000002)"/><use xlink:href="#q" transform="matrix(1,0,0,1,385,217.79999999999995) translate(27.94999999999999 100.80000000000001)"/><use xlink:href="#h" transform="matrix(1,0,0,1,385,217.79999999999995) translate(55.89999999999999 100.80000000000001)"/><use xlink:href="#i" transform="matrix(1,0,0,1,385,217.79999999999995) translate(71.39999999999999 100.80000000000001)"/><use xlink:href="#j" transform="matrix(1,0,0,1,385,217.79999999999995) translate(112.29999999999998 100.80000000000001)"/><use xlink:href="#r" transform="matrix(1,0,0,1,385,217.79999999999995) translate(189.2 100.80000000000001)"/><use xlink:href="#m" transform="matrix(1,0,0,1,385,217.79999999999995) translate(68.125 122.4)"/><use xlink:href="#s" transform="matrix(1,0,0,1,385,217.79999999999995) translate(141.075 122.4)"/><defs><path d="M212-179c-10-28-35-45-73-45-59 0-87 40-87 99 0 60 29 101 89 101 43 0 62-24 78-52l27 14C228-24 195 4 139 4 59 4 22-46 18-125c-6-104 99-153 187-111 19 9 31 26 39 46" id="t"/><path d="M126-127c33 6 58 20 58 59 0 88-139 92-164 29-3-8-5-16-6-25l32-3c6 27 21 44 54 44 32 0 52-15 52-46 0-38-36-46-79-43v-28c39 1 72-4 72-42 0-27-17-43-46-43-28 0-47 15-49 41l-32-3c6-42 35-63 81-64 48-1 79 21 79 65 0 36-21 52-52 59" id="u"/><g id="a"><use transform="matrix(0.05,0,0,0.05,0,0)" xlink:href="#t"/><use transform="matrix(0.05,0,0,0.05,12.950000000000001,0)" xlink:href="#u"/></g><path d="M185-189c-5-48-123-54-124 2 14 75 158 14 163 119 3 78-121 87-175 55-17-10-28-26-33-46l33-7c5 56 141 63 141-1 0-78-155-14-162-118-5-82 145-84 179-34 5 7 8 16 11 25" id="v"/><use transform="matrix(0.05,0,0,0.05,0,0)" xlink:href="#v" id="b"/><path d="M27 0v-27h64v-190l-56 39v-29l58-41h29v221h61V0H27" id="w"/><g id="c"><use transform="matrix(0.05,0,0,0.05,0,0)" xlink:href="#t"/><use transform="matrix(0.05,0,0,0.05,12.950000000000001,0)" xlink:href="#w"/></g><path d="M101-251c82-7 93 87 43 132L82-64C71-53 59-42 53-27h129V0H18c2-99 128-94 128-182 0-28-16-43-45-43s-46 15-49 41l-32-3c6-41 34-60 81-64" id="x"/><g id="d"><use transform="matrix(0.05,0,0,0.05,0,0)" xlink:href="#t"/><use transform="matrix(0.05,0,0,0.05,12.950000000000001,0)" xlink:href="#x"/></g><use transform="matrix(0.05,0,0,0.05,0,0)" xlink:href="#w" id="e"/><use transform="matrix(0.05,0,0,0.05,0,0)" xlink:href="#x" id="f"/><g id="g"><use transform="matrix(0.05,0,0,0.05,0,0)" xlink:href="#t"/><use transform="matrix(0.05,0,0,0.05,12.950000000000001,0)" xlink:href="#w"/></g><path d="M18-150v-26h174v26H18zm0 90v-26h174v26H18" id="y"/><use transform="matrix(0.05,0,0,0.05,0,0)" xlink:href="#y" id="h"/><path d="M266 0h-40l-56-210L115 0H75L2-248h35L96-30l15-64 43-154h32l59 218 59-218h35" id="z"/><path d="M24-231v-30h32v30H24zM24 0v-190h32V0H24" id="A"/><path d="M59-47c-2 24 18 29 38 22v24C64 9 27 4 27-40v-127H5v-23h24l9-43h21v43h35v23H59v120" id="B"/><path d="M106-169C34-169 62-67 57 0H25v-261h32l-1 103c12-21 28-36 61-36 89 0 53 116 60 194h-32v-121c2-32-8-49-39-48" id="C"/><g id="i"><use transform="matrix(0.05,0,0,0.05,0,0)" xlink:href="#z"/><use transform="matrix(0.05,0,0,0.05,16.95,0)" xlink:href="#A"/><use transform="matrix(0.05,0,0,0.05,20.9,0)" xlink:href="#B"/><use transform="matrix(0.05,0,0,0.05,25.899999999999995,0)" xlink:href="#C"/></g><path d="M96-169c-40 0-48 33-48 73s9 75 48 75c24 0 41-14 43-38l32 2c-6 37-31 61-74 61-59 0-76-41-82-99-10-93 101-131 147-64 4 7 5 14 7 22l-32 3c-4-21-16-35-41-35" id="D"/><path d="M100-194c62-1 85 37 85 99 1 63-27 99-86 99S16-35 15-95c0-66 28-99 85-99zM99-20c44 1 53-31 53-75 0-43-8-75-51-75s-53 32-53 75 10 74 51 75" id="E"/><path d="M117-194c89-4 53 116 60 194h-32v-121c0-31-8-49-39-48C34-167 62-67 57 0H25l-1-190h30c1 10-1 24 2 32 11-22 29-35 61-36" id="F"/><path d="M85-194c31 0 48 13 60 33l-1-100h32l1 261h-30c-2-10 0-23-3-31C134-8 116 4 85 4 32 4 16-35 15-94c0-66 23-100 70-100zm9 24c-40 0-46 34-46 75 0 40 6 74 45 74 42 0 51-32 51-76 0-42-9-74-50-73" id="G"/><g id="j"><use transform="matrix(0.05,0,0,0.05,0,0)" xlink:href="#D"/><use transform="matrix(0.05,0,0,0.05,9,0)" xlink:href="#E"/><use transform="matrix(0.05,0,0,0.05,19,0)" xlink:href="#F"/><use transform="matrix(0.05,0,0,0.05,29,0)" xlink:href="#G"/><use transform="matrix(0.05,0,0,0.05,39,0)" xlink:href="#A"/><use transform="matrix(0.05,0,0,0.05,42.95,0)" xlink:href="#B"/><use transform="matrix(0.05,0,0,0.05,47.95,0)" xlink:href="#A"/><use transform="matrix(0.05,0,0,0.05,51.900000000000006,0)" xlink:href="#E"/><use transform="matrix(0.05,0,0,0.05,61.900000000000006,0)" xlink:href="#F"/></g><path d="M179-190L93 31C79 59 56 82 12 73V49c39 6 53-20 64-50L1-190h34L92-34l54-156h33" id="H"/><path d="M115-194c55 1 70 41 70 98S169 2 115 4C84 4 66-9 55-30l1 105H24l-1-265h31l2 30c10-21 28-34 59-34zm-8 174c40 0 45-34 45-75s-6-73-45-74c-42 0-51 32-51 76 0 43 10 73 51 73" id="I"/><path d="M100-194c63 0 86 42 84 106H49c0 40 14 67 53 68 26 1 43-12 49-29l28 8c-11 28-37 45-77 45C44 4 14-33 15-96c1-61 26-98 85-98zm52 81c6-60-76-77-97-28-3 7-6 17-6 28h103" id="J"/><g id="k"><use transform="matrix(0.05,0,0,0.05,0,0)" xlink:href="#B"/><use transform="matrix(0.05,0,0,0.05,5,0)" xlink:href="#H"/><use transform="matrix(0.05,0,0,0.05,14,0)" xlink:href="#I"/><use transform="matrix(0.05,0,0,0.05,24,0)" xlink:href="#J"/></g><use transform="matrix(0.05,0,0,0.05,0,0)" xlink:href="#w" id="l"/><path d="M141-36C126-15 110 5 73 4 37 3 15-17 15-53c-1-64 63-63 125-63 3-35-9-54-41-54-24 1-41 7-42 31l-33-3c5-37 33-52 76-52 45 0 72 20 72 64v82c-1 20 7 32 28 27v20c-31 9-61-2-59-35zM48-53c0 20 12 33 32 33 41-3 63-29 60-74-43 2-92-5-92 41" id="K"/><path d="M115-194c53 0 69 39 70 98 0 66-23 100-70 100C84 3 66-7 56-30L54 0H23l1-261h32v101c10-23 28-34 59-34zm-8 174c40 0 45-34 45-75 0-40-5-75-45-74-42 0-51 32-51 76 0 43 10 73 51 73" id="L"/><path d="M135-143c-3-34-86-38-87 0 15 53 115 12 119 90S17 21 10-45l28-5c4 36 97 45 98 0-10-56-113-15-118-90-4-57 82-63 122-42 12 7 21 19 24 35" id="M"/><g id="m"><use transform="matrix(0.05,0,0,0.05,0,0)" xlink:href="#G"/><use transform="matrix(0.05,0,0,0.05,10,0)" xlink:href="#A"/><use transform="matrix(0.05,0,0,0.05,13.949999999999998,0)" xlink:href="#K"/><use transform="matrix(0.05,0,0,0.05,23.95,0)" xlink:href="#L"/><use transform="matrix(0.05,0,0,0.05,33.95,0)" xlink:href="#J"/><use transform="matrix(0.05,0,0,0.05,43.95,0)" xlink:href="#B"/><use transform="matrix(0.05,0,0,0.05,48.95,0)" xlink:href="#J"/><use transform="matrix(0.05,0,0,0.05,58.95,0)" xlink:href="#M"/></g><path d="M210-169c-67 3-38 105-44 169h-31v-121c0-29-5-50-35-48C34-165 62-65 56 0H25l-1-190h30c1 10-1 24 2 32 10-44 99-50 107 0 11-21 27-35 58-36 85-2 47 119 55 194h-31v-121c0-29-5-49-35-48" id="N"/><path d="M24 0v-261h32V0H24" id="O"/><path d="M84 4C-5 8 30-112 23-190h32v120c0 31 7 50 39 49 72-2 45-101 50-169h31l1 190h-30c-1-10 1-25-2-33-11 22-28 36-60 37" id="P"/><g id="n"><use transform="matrix(0.05,0,0,0.05,0,0)" xlink:href="#N"/><use transform="matrix(0.05,0,0,0.05,14.950000000000001,0)" xlink:href="#J"/><use transform="matrix(0.05,0,0,0.05,24.950000000000003,0)" xlink:href="#O"/><use transform="matrix(0.05,0,0,0.05,28.900000000000002,0)" xlink:href="#O"/><use transform="matrix(0.05,0,0,0.05,32.85,0)" xlink:href="#A"/><use transform="matrix(0.05,0,0,0.05,36.800000000000004,0)" xlink:href="#B"/><use transform="matrix(0.05,0,0,0.05,41.800000000000004,0)" xlink:href="#P"/><use transform="matrix(0.05,0,0,0.05,51.800000000000004,0)" xlink:href="#M"/></g><g id="o"><use transform="matrix(0.05,0,0,0.05,0,0)" xlink:href="#t"/><use transform="matrix(0.05,0,0,0.05,12.950000000000001,0)" xlink:href="#x"/></g><use transform="matrix(0.05,0,0,0.05,0,0)" xlink:href="#x" id="p"/><g id="q"><use transform="matrix(0.05,0,0,0.05,0,0)" xlink:href="#t"/><use transform="matrix(0.05,0,0,0.05,12.950000000000001,0)" xlink:href="#u"/></g><path d="M108 0H70L1-190h34L89-25l56-165h34" id="Q"/><path d="M114-163C36-179 61-72 57 0H25l-1-190h30c1 12-1 29 2 39 6-27 23-49 58-41v29" id="R"/><g id="r"><use transform="matrix(0.05,0,0,0.05,0,0)" xlink:href="#E"/><use transform="matrix(0.05,0,0,0.05,10,0)" xlink:href="#Q"/><use transform="matrix(0.05,0,0,0.05,19,0)" xlink:href="#J"/><use transform="matrix(0.05,0,0,0.05,29,0)" xlink:href="#R"/><use transform="matrix(0.05,0,0,0.05,34.95,0)" xlink:href="#K"/><use transform="matrix(0.05,0,0,0.05,44.95,0)" xlink:href="#O"/><use transform="matrix(0.05,0,0,0.05,48.900000000000006,0)" xlink:href="#O"/></g><g id="s"><use transform="matrix(0.05,0,0,0.05,0,0)" xlink:href="#N"/><use transform="matrix(0.05,0,0,0.05,14.950000000000001,0)" xlink:href="#J"/><use transform="matrix(0.05,0,0,0.05,24.950000000000003,0)" xlink:href="#O"/><use transform="matrix(0.05,0,0,0.05,28.900000000000002,0)" xlink:href="#O"/><use transform="matrix(0.05,0,0,0.05,32.85,0)" xlink:href="#A"/><use transform="matrix(0.05,0,0,0.05,36.800000000000004,0)" xlink:href="#B"/><use transform="matrix(0.05,0,0,0.05,41.800000000000004,0)" xlink:href="#P"/><use transform="matrix(0.05,0,0,0.05,51.800000000000004,0)" xlink:href="#M"/></g></defs></g></svg>