<?xml version="1.0" encoding="UTF-8" standalone="no"?>
<!-- This is a Stata 15.1 generated SVG file (http://www.stata.com) -->

<svg version="1.1" width="5.50in" height="4.00in" viewBox="0 0 3960 2880" xmlns="http://www.w3.org/2000/svg" xmlns:xlink="http://www.w3.org/1999/xlink">
	<desc>Stata Graph - Graph</desc>
	<rect x="0" y="0" width="3960" height="2880" style="fill:#EAF2F3;stroke:none"/>
	<rect x="0.00" y="0.00" width="3959.88" height="2880.00" style="fill:#EAF2F3"/>
	<rect x="2.88" y="2.88" width="3954.12" height="2874.24" style="fill:none;stroke:#EAF2F3;stroke-width:5.76"/>
	<rect x="581.13" y="275.35" width="2827.69" height="2295.26" style="fill:#FFFFFF"/>
	<rect x="584.01" y="278.23" width="2821.93" height="2289.50" style="fill:none;stroke:#FFFFFF;stroke-width:5.76"/>
	<line x1="581.13" y1="573.72" x2="3408.82" y2="573.72" style="stroke:#C0C0C0;stroke-width:5.76"/>
	<rect x="1978.77" y="2031.80" width="159.61" height="159.62" style="fill:#B4B4B4"/>
	<rect x="1983.09" y="2036.12" width="150.97" height="150.98" style="fill:none;stroke:#B4B4B4;stroke-width:8.64"/>
	<rect x="2036.81" y="1955.69" width="128.18" height="128.19" style="fill:#B4B4B4"/>
	<rect x="2041.13" y="1960.01" width="119.54" height="119.55" style="fill:none;stroke:#B4B4B4;stroke-width:8.64"/>
	<rect x="1999.94" y="1844.07" width="168.03" height="168.03" style="fill:#B4B4B4"/>
	<rect x="2004.26" y="1848.39" width="159.39" height="159.39" style="fill:none;stroke:#B4B4B4;stroke-width:8.64"/>
	<rect x="2002.41" y="1747.66" width="177.19" height="177.19" style="fill:#B4B4B4"/>
	<rect x="2006.73" y="1751.98" width="168.55" height="168.55" style="fill:none;stroke:#B4B4B4;stroke-width:8.64"/>
	<rect x="2073.07" y="1417.74" width="102.44" height="102.45" style="fill:#B4B4B4"/>
	<rect x="2077.39" y="1422.06" width="93.80" height="93.81" style="fill:none;stroke:#B4B4B4;stroke-width:8.64"/>
	<rect x="2169.72" y="1351.90" width="50.47" height="50.47" style="fill:#B4B4B4"/>
	<rect x="2174.04" y="1356.22" width="41.83" height="41.83" style="fill:none;stroke:#B4B4B4;stroke-width:8.64"/>
	<rect x="2070.35" y="984.35" width="51.21" height="51.21" style="fill:#B4B4B4"/>
	<rect x="2074.67" y="988.67" width="42.57" height="42.57" style="fill:none;stroke:#B4B4B4;stroke-width:8.64"/>
	<rect x="2190.26" y="899.33" width="37.60" height="37.60" style="fill:#B4B4B4"/>
	<rect x="2194.58" y="903.65" width="28.96" height="28.96" style="fill:none;stroke:#B4B4B4;stroke-width:8.64"/>
	<rect x="1929.40" y="801.07" width="50.47" height="50.47" style="fill:#B4B4B4"/>
	<rect x="1933.72" y="805.39" width="41.83" height="41.83" style="fill:none;stroke:#B4B4B4;stroke-width:8.64"/>
	<rect x="2483.55" y="711.97" width="45.02" height="45.02" style="fill:#B4B4B4"/>
	<rect x="2487.87" y="716.29" width="36.38" height="36.38" style="fill:none;stroke:#B4B4B4;stroke-width:8.64"/>
	<line x1="2042.37" y1="2111.61" x2="2091.13" y2="2111.61" style="stroke:#000000;stroke-width:8.64"/>
	<line x1="2063.53" y1="2019.79" x2="2156.84" y2="2019.79" style="stroke:#000000;stroke-width:8.64"/>
	<line x1="2069.84" y1="1927.96" x2="2105.98" y2="1927.96" style="stroke:#000000;stroke-width:8.64"/>
	<line x1="2082.59" y1="1836.14" x2="2099.54" y2="1836.14" style="stroke:#000000;stroke-width:8.64"/>
	<line x1="2054.87" y1="1468.96" x2="2193.84" y2="1468.96" style="stroke:#000000;stroke-width:8.64"/>
	<line x1="2032.47" y1="1377.13" x2="2392.95" y2="1377.13" style="stroke:#000000;stroke-width:8.64"/>
	<line x1="1905.13" y1="1009.83" x2="2258.68" y2="1009.83" style="stroke:#000000;stroke-width:8.64"/>
	<line x1="1954.63" y1="918.01" x2="2484.90" y2="918.01" style="stroke:#000000;stroke-width:8.64"/>
	<line x1="1799.20" y1="826.18" x2="2159.68" y2="826.18" style="stroke:#000000;stroke-width:8.64"/>
	<line x1="2293.95" y1="734.36" x2="2711.11" y2="734.36" style="stroke:#000000;stroke-width:8.64"/>
	<line x1="2092.24" y1="2524.70" x2="2092.24" y2="2501.68" style="stroke:#90353B;stroke-width:5.76"/>
	<line x1="2092.24" y1="2481.51" x2="2092.24" y2="2458.49" style="stroke:#90353B;stroke-width:5.76"/>
	<line x1="2092.24" y1="2438.32" x2="2092.24" y2="2415.30" style="stroke:#90353B;stroke-width:5.76"/>
	<line x1="2092.24" y1="2395.13" x2="2092.24" y2="2372.11" style="stroke:#90353B;stroke-width:5.76"/>
	<line x1="2092.24" y1="2351.94" x2="2092.24" y2="2328.92" style="stroke:#90353B;stroke-width:5.76"/>
	<line x1="2092.24" y1="2308.75" x2="2092.24" y2="2285.73" style="stroke:#90353B;stroke-width:5.76"/>
	<line x1="2092.24" y1="2265.56" x2="2092.24" y2="2242.42" style="stroke:#90353B;stroke-width:5.76"/>
	<line x1="2092.24" y1="2222.37" x2="2092.24" y2="2199.23" style="stroke:#90353B;stroke-width:5.76"/>
	<line x1="2092.24" y1="2179.06" x2="2092.24" y2="2156.04" style="stroke:#90353B;stroke-width:5.76"/>
	<line x1="2092.24" y1="2135.87" x2="2092.24" y2="2112.85" style="stroke:#90353B;stroke-width:5.76"/>
	<line x1="2092.24" y1="2092.68" x2="2092.24" y2="2069.66" style="stroke:#90353B;stroke-width:5.76"/>
	<line x1="2092.24" y1="2049.49" x2="2092.24" y2="2026.47" style="stroke:#90353B;stroke-width:5.76"/>
	<line x1="2092.24" y1="2006.30" x2="2092.24" y2="1983.28" style="stroke:#90353B;stroke-width:5.76"/>
	<line x1="2092.24" y1="1963.11" x2="2092.24" y2="1940.09" style="stroke:#90353B;stroke-width:5.76"/>
	<line x1="2092.24" y1="1919.92" x2="2092.24" y2="1896.90" style="stroke:#90353B;stroke-width:5.76"/>
	<line x1="2092.24" y1="1876.73" x2="2092.24" y2="1853.71" style="stroke:#90353B;stroke-width:5.76"/>
	<line x1="2092.24" y1="1833.54" x2="2092.24" y2="1810.52" style="stroke:#90353B;stroke-width:5.76"/>
	<line x1="2092.24" y1="1790.35" x2="2092.24" y2="1767.33" style="stroke:#90353B;stroke-width:5.76"/>
	<line x1="2092.24" y1="1747.16" x2="2092.24" y2="1724.14" style="stroke:#90353B;stroke-width:5.76"/>
	<line x1="2092.24" y1="1703.97" x2="2092.24" y2="1680.95" style="stroke:#90353B;stroke-width:5.76"/>
	<line x1="2092.24" y1="1660.78" x2="2092.24" y2="1637.76" style="stroke:#90353B;stroke-width:5.76"/>
	<line x1="2092.24" y1="1617.59" x2="2092.24" y2="1594.57" style="stroke:#90353B;stroke-width:5.76"/>
	<line x1="2092.24" y1="1574.40" x2="2092.24" y2="1551.38" style="stroke:#90353B;stroke-width:5.76"/>
	<line x1="2092.24" y1="1531.21" x2="2092.24" y2="1508.19" style="stroke:#90353B;stroke-width:5.76"/>
	<line x1="2092.24" y1="1488.02" x2="2092.24" y2="1465.00" style="stroke:#90353B;stroke-width:5.76"/>
	<line x1="2092.24" y1="1444.83" x2="2092.24" y2="1421.81" style="stroke:#90353B;stroke-width:5.76"/>
	<line x1="2092.24" y1="1401.64" x2="2092.24" y2="1378.62" style="stroke:#90353B;stroke-width:5.76"/>
	<line x1="2092.24" y1="1358.45" x2="2092.24" y2="1335.43" style="stroke:#90353B;stroke-width:5.76"/>
	<line x1="2092.24" y1="1315.26" x2="2092.24" y2="1292.11" style="stroke:#90353B;stroke-width:5.76"/>
	<line x1="2092.24" y1="1272.07" x2="2092.24" y2="1248.92" style="stroke:#90353B;stroke-width:5.76"/>
	<line x1="2092.24" y1="1228.75" x2="2092.24" y2="1205.73" style="stroke:#90353B;stroke-width:5.76"/>
	<line x1="2092.24" y1="1185.56" x2="2092.24" y2="1162.54" style="stroke:#90353B;stroke-width:5.76"/>
	<line x1="2092.24" y1="1142.37" x2="2092.24" y2="1119.35" style="stroke:#90353B;stroke-width:5.76"/>
	<line x1="2092.24" y1="1099.18" x2="2092.24" y2="1076.16" style="stroke:#90353B;stroke-width:5.76"/>
	<line x1="2092.24" y1="1055.99" x2="2092.24" y2="1032.97" style="stroke:#90353B;stroke-width:5.76"/>
	<line x1="2092.24" y1="1012.80" x2="2092.24" y2="989.78" style="stroke:#90353B;stroke-width:5.76"/>
	<line x1="2092.24" y1="969.61" x2="2092.24" y2="946.59" style="stroke:#90353B;stroke-width:5.76"/>
	<line x1="2092.24" y1="926.42" x2="2092.24" y2="903.40" style="stroke:#90353B;stroke-width:5.76"/>
	<line x1="2092.24" y1="883.23" x2="2092.24" y2="860.21" style="stroke:#90353B;stroke-width:5.76"/>
	<line x1="2092.24" y1="840.04" x2="2092.24" y2="817.02" style="stroke:#90353B;stroke-width:5.76"/>
	<line x1="2092.24" y1="796.85" x2="2092.24" y2="773.83" style="stroke:#90353B;stroke-width:5.76"/>
	<line x1="2092.24" y1="753.66" x2="2092.24" y2="730.64" style="stroke:#90353B;stroke-width:5.76"/>
	<line x1="2092.24" y1="710.47" x2="2092.24" y2="688.57" style="stroke:#90353B;stroke-width:5.76"/>
	<path d=" M2032.35 2570.74 L2032.35 573.85" stroke-linecap="round" stroke-linejoin="round" style="fill:none;stroke:#000000;stroke-width:5.76"/>
	<defs>
		<path id="path_Hfyjdyie" d="M2068.36 2478.79 L2068.36 2478.79 L2092.24 2442.16 L2116.00 2478.79 L2116.00 2478.79 L2092.24 2515.54 L2068.36 2478.79 L2068.36 2478.79 Z" stroke-linecap="round"/>
	</defs>
	<use xlink:href="#path_Hfyjdyie" style="fill:none;stroke:#000064;stroke-width:8.64"/>
	<defs>
		<path id="path_OaXxkjhx" d="M2068.61 2203.44 L2068.61 2203.44 L2083.08 2166.68 L2097.69 2203.44 L2097.69 2203.44 L2083.08 2240.07 L2068.61 2203.44 L2068.61 2203.44 Z" stroke-linecap="round"/>
	</defs>
	<use xlink:href="#path_OaXxkjhx" style="fill:none;stroke:#000064;stroke-width:8.64"/>
	<defs>
		<path id="path_hfAawKug" d="M2068.61 1560.66 L2068.61 1560.66 L2133.45 1524.03 L2198.30 1560.66 L2198.30 1560.66 L2133.45 1597.41 L2068.61 1560.66 L2068.61 1560.66 Z" stroke-linecap="round"/>
	</defs>
	<use xlink:href="#path_hfAawKug" style="fill:none;stroke:#000064;stroke-width:8.64"/>
	<defs>
		<path id="path_bXMqbGKr" d="M1949.93 1101.66 L1949.93 1101.66 L2186.54 1064.90 L2423.27 1101.66 L2423.27 1101.66 L2186.54 1138.41 L1949.93 1101.66 L1949.93 1101.66 Z" stroke-linecap="round"/>
	</defs>
	<use xlink:href="#path_bXMqbGKr" style="fill:none;stroke:#000064;stroke-width:8.64"/>
	<polygon points="2041.83,2111.61 2058.58,2094.86 2075.33,2111.61 2058.58,2128.36" style="fill:#000000"/>
	<polygon points="2047.94,2111.61 2058.58,2100.97 2069.22,2111.61 2058.58,2122.25" style="fill:none;stroke:#000000;stroke-width:8.64"/>
	<polygon points="2084.15,2019.79 2100.90,2003.04 2117.66,2019.79 2100.90,2036.54" style="fill:#000000"/>
	<polygon points="2090.26,2019.79 2100.90,2009.14 2111.55,2019.79 2100.90,2030.43" style="fill:none;stroke:#000000;stroke-width:8.64"/>
	<polygon points="2067.20,1928.09 2083.95,1911.33 2100.70,1928.09 2083.95,1944.84" style="fill:#000000"/>
	<polygon points="2073.31,1928.09 2083.95,1917.44 2094.59,1928.09 2083.95,1938.73" style="fill:none;stroke:#000000;stroke-width:8.64"/>
	<polygon points="2074.25,1836.26 2091.00,1819.51 2107.76,1836.26 2091.00,1853.01" style="fill:#000000"/>
	<polygon points="2080.36,1836.26 2091.00,1825.62 2101.65,1836.26 2091.00,1846.90" style="fill:none;stroke:#000000;stroke-width:8.64"/>
	<polygon points="2107.54,1468.96 2124.29,1452.21 2141.04,1468.96 2124.29,1485.71" style="fill:#000000"/>
	<polygon points="2113.65,1468.96 2124.29,1458.32 2134.93,1468.96 2124.29,1479.60" style="fill:none;stroke:#000000;stroke-width:8.64"/>
	<polygon points="2178.20,1377.13 2194.95,1360.38 2211.71,1377.13 2194.95,1393.88" style="fill:#000000"/>
	<polygon points="2184.31,1377.13 2194.95,1366.49 2205.60,1377.13 2194.95,1387.78" style="fill:none;stroke:#000000;stroke-width:8.64"/>
	<polygon points="2079.20,1009.96 2095.95,993.20 2112.71,1009.96 2095.95,1026.71" style="fill:#000000"/>
	<polygon points="2085.31,1009.96 2095.95,999.31 2106.60,1009.96 2095.95,1020.60" style="fill:none;stroke:#000000;stroke-width:8.64"/>
	<polygon points="2192.31,918.13 2209.06,901.38 2225.81,918.13 2209.06,934.88" style="fill:#000000"/>
	<polygon points="2198.42,918.13 2209.06,907.49 2219.70,918.13 2209.06,928.77" style="fill:none;stroke:#000000;stroke-width:8.64"/>
	<polygon points="1937.88,826.30 1954.63,809.55 1971.38,826.30 1954.63,843.06" style="fill:#000000"/>
	<polygon points="1943.99,826.30 1954.63,815.66 1965.27,826.30 1954.63,836.95" style="fill:none;stroke:#000000;stroke-width:8.64"/>
	<polygon points="2489.31,734.48 2506.06,717.73 2522.81,734.48 2506.06,751.23" style="fill:#000000"/>
	<polygon points="2495.42,734.48 2506.06,723.84 2516.70,734.48 2506.06,745.12" style="fill:none;stroke:#000000;stroke-width:8.64"/>
	<text x="603.16" y="2495.63" style="fill:#000000">
		<tspan style="font-family:'Helvetica';font-size:48.02px">Overall, DL (I</tspan>
		<tspan dy="-25.15px" style="font-family:'Helvetica';font-size:27.99px">2</tspan>
		<tspan dy="25.15px" style="font-family:'Helvetica';font-size:48.02px"> = 67.1%, p = 0.001)</tspan>
	</text>
	<text x="603.16" y="2403.80" style="font-family:'Helvetica';font-size:48.02px;fill:#000000">Heterogeneity between groups: p = 0.234</text>
	<text x="603.16" y="2220.27" style="fill:#000000">
		<tspan style="font-family:'Helvetica';font-size:48.02px">Subgroup, DL (I</tspan>
		<tspan dy="-25.15px" style="font-family:'Helvetica';font-size:27.99px">2</tspan>
		<tspan dy="25.15px" style="font-family:'Helvetica';font-size:48.02px"> = 54.2%, p = 0.088)</tspan>
	</text>
	<text x="603.16" y="2128.45" style="font-family:'Helvetica';font-size:48.02px;fill:#000000">de Koning et al. 2014</text>
	<text x="603.16" y="2036.62" style="font-family:'Helvetica';font-size:48.02px;fill:#000000">Han et al. 2017</text>
	<text x="603.16" y="1944.80" style="font-family:'Helvetica';font-size:48.02px;fill:#000000">ten Haaf et al. 2020</text>
	<text x="603.16" y="1852.97" style="font-family:'Helvetica';font-size:48.02px;fill:#000000">Blom et al. 2020</text>
	<text x="603.16" y="1761.15" style="font-family:'Helvetica';font-size:48.02px;fill:#000000">Modeling Study</text>
	<text x="603.16" y="1577.50" style="fill:#000000">
		<tspan style="font-family:'Helvetica';font-size:48.02px">Subgroup, DL (I</tspan>
		<tspan dy="-25.15px" style="font-family:'Helvetica';font-size:27.99px">2</tspan>
		<tspan dy="25.15px" style="font-family:'Helvetica';font-size:48.02px"> = 0.0%, p = 0.473)</tspan>
	</text>
	<text x="603.16" y="1485.80" style="font-family:'Helvetica';font-size:48.02px;fill:#000000">Sone et al. 2007</text>
	<text x="603.16" y="1393.97" style="font-family:'Helvetica';font-size:48.02px;fill:#000000">Nawa et al. 2019</text>
	<text x="603.16" y="1302.14" style="font-family:'Helvetica';font-size:48.02px;fill:#000000">Cohort study</text>
	<text x="603.16" y="1118.49" style="fill:#000000">
		<tspan style="font-family:'Helvetica';font-size:48.02px">Subgroup, DL (I</tspan>
		<tspan dy="-25.15px" style="font-family:'Helvetica';font-size:27.99px">2</tspan>
		<tspan dy="25.15px" style="font-family:'Helvetica';font-size:48.02px"> = 81.5%, p = 0.001)</tspan>
	</text>
	<text x="603.16" y="1026.67" style="font-family:'Helvetica';font-size:48.02px;fill:#000000">NELSON (de Koning 2020)</text>
	<text x="603.16" y="934.84" style="font-family:'Helvetica';font-size:48.02px;fill:#000000">LUSI (Gonzalez Maldonado 2020)</text>
	<text x="603.16" y="843.02" style="font-family:'Helvetica';font-size:48.02px;fill:#000000">ITALUNG (Paci 2020)</text>
	<text x="603.16" y="751.19" style="font-family:'Helvetica';font-size:48.02px;fill:#000000">DLCST (Heleno et al. 2018)</text>
	<text x="603.16" y="659.49" style="font-family:'Helvetica';font-size:48.02px;fill:#000000">RCT</text>
	<text x="603.16" y="475.84" style="font-family:'Helvetica';font-size:48.02px;fill:#000000">Study design and Study</text>
	<text x="2788.21" y="2495.63" style="font-family:'Helvetica';font-size:48.02px;fill:#000000">0.08 (0.05, 0.12)</text>
	<text x="2788.21" y="2220.27" style="font-family:'Helvetica';font-size:48.02px;fill:#000000">0.07 (0.05, 0.09)</text>
	<text x="2788.21" y="2128.45" style="font-family:'Helvetica';font-size:48.02px;fill:#000000">0.04 (0.01, 0.08)</text>
	<text x="2788.21" y="2036.62" style="font-family:'Helvetica';font-size:48.02px;fill:#000000">0.10 (0.04, 0.18)</text>
	<text x="2788.21" y="1944.80" style="font-family:'Helvetica';font-size:48.02px;fill:#000000">0.07 (0.05, 0.10)</text>
	<text x="2788.21" y="1852.97" style="font-family:'Helvetica';font-size:48.02px;fill:#000000">0.08 (0.07, 0.10)</text>
	<text x="2788.21" y="1577.50" style="font-family:'Helvetica';font-size:48.02px;fill:#000000">0.14 (0.05, 0.23)</text>
	<text x="2788.21" y="1485.80" style="font-family:'Helvetica';font-size:48.02px;fill:#000000">0.13 (0.03, 0.23)</text>
	<text x="2788.21" y="1393.97" style="font-family:'Helvetica';font-size:48.02px;fill:#000000">0.23 (0.00, 0.51)</text>
	<text x="2788.21" y="1118.49" style="font-family:'Helvetica';font-size:48.02px;fill:#000000">0.22 (-0.12, 0.55)</text>
	<text x="2788.21" y="1026.67" style="font-family:'Helvetica';font-size:48.02px;fill:#000000">0.09 (-0.18, 0.32)</text>
	<text x="2788.21" y="934.84" style="font-family:'Helvetica';font-size:48.02px;fill:#000000">0.25 (-0.11, 0.64)</text>
	<text x="2788.21" y="843.02" style="font-family:'Helvetica';font-size:48.02px;fill:#000000">-0.11 (-0.33, 0.18)</text>
	<text x="2788.21" y="751.19" style="font-family:'Helvetica';font-size:48.02px;fill:#000000">0.67 (0.37, 0.96)</text>
	<text x="2788.21" y="475.84" style="font-family:'Helvetica';font-size:48.02px;fill:#000000">Effect (95% CI)</text>
	<text x="3230.00" y="2495.63" style="font-family:'Helvetica';font-size:48.02px;fill:#000000">100.00</text>
	<text x="3256.73" y="2220.27" style="font-family:'Helvetica';font-size:48.02px;fill:#000000">84.79</text>
	<text x="3256.73" y="2128.45" style="font-family:'Helvetica';font-size:48.02px;fill:#000000">21.28</text>
	<text x="3256.73" y="2036.62" style="font-family:'Helvetica';font-size:48.02px;fill:#000000">13.34</text>
	<text x="3256.73" y="1944.80" style="font-family:'Helvetica';font-size:48.02px;fill:#000000">23.68</text>
	<text x="3256.73" y="1852.97" style="font-family:'Helvetica';font-size:48.02px;fill:#000000">26.49</text>
	<text x="3283.58" y="1577.50" style="font-family:'Helvetica';font-size:48.02px;fill:#000000">9.85</text>
	<text x="3283.58" y="1485.80" style="font-family:'Helvetica';font-size:48.02px;fill:#000000">8.21</text>
	<text x="3283.58" y="1393.97" style="font-family:'Helvetica';font-size:48.02px;fill:#000000">1.64</text>
	<text x="3283.58" y="1118.49" style="font-family:'Helvetica';font-size:48.02px;fill:#000000">5.36</text>
	<text x="3283.58" y="1026.67" style="font-family:'Helvetica';font-size:48.02px;fill:#000000">1.70</text>
	<text x="3283.58" y="934.84" style="font-family:'Helvetica';font-size:48.02px;fill:#000000">0.78</text>
	<text x="3283.58" y="843.02" style="font-family:'Helvetica';font-size:48.02px;fill:#000000">1.64</text>
	<text x="3283.58" y="751.19" style="font-family:'Helvetica';font-size:48.02px;fill:#000000">1.24</text>
	<text x="3227.28" y="475.84" style="font-family:'Helvetica';font-size:48.02px;fill:#000000">Weight</text>
	<text x="3334.44" y="384.01" style="font-family:'Helvetica';font-size:48.02px;fill:#000000">%</text>
	<line x1="581.13" y1="2570.62" x2="3408.82" y2="2570.62" style="stroke:#000000;stroke-width:5.76"/>
	<line x1="1325.49" y1="2570.62" x2="1325.49" y2="2610.59" style="stroke:#000000;stroke-width:5.76"/>
	<text x="1325.49" y="2664.19" style="font-family:'Helvetica';font-size:48.02px;fill:#000000" text-anchor="middle">-1</text>
	<line x1="2032.47" y1="2570.62" x2="2032.47" y2="2610.59" style="stroke:#000000;stroke-width:5.76"/>
	<text x="2032.47" y="2664.19" style="font-family:'Helvetica';font-size:48.02px;fill:#000000" text-anchor="middle">0</text>
	<line x1="2739.33" y1="2570.62" x2="2739.33" y2="2610.59" style="stroke:#000000;stroke-width:5.76"/>
	<text x="2739.33" y="2664.19" style="font-family:'Helvetica';font-size:48.02px;fill:#000000" text-anchor="middle">1</text>
	<text x="598.33" y="2751.07" style="font-family:'Helvetica';font-size:36.01px;fill:#000000">NOTE: Weights and between-subgroup heterogeneity test are from random-effects model</text>
	<text x="1994.97" y="215.98" style="font-family:'Helvetica';font-size:139.96px;fill:#1E2D53" text-anchor="middle">Overdiagnosis Factor</text>
</svg>
