<svg xmlns="http://www.w3.org/2000/svg" xmlns:xlink="http://www.w3.org/1999/xlink" xmlns:lucid="lucid" width="940" height="646"><g transform="translate(0 -454)" lucid:page-tab-id="w5Hq-Ex0O7Du"><path d="M0 0h1760v1360H0z" fill="#fff"/><path d="M32 500h240v60H32z" stroke="#000" stroke-opacity="0" stroke-width="2" fill="#fff" fill-opacity="0"/><use xlink:href="#a" transform="matrix(1,0,0,1,37,505) translate(58.599999999999994 30.025)"/><use xlink:href="#b" transform="matrix(1,0,0,1,37,505) translate(98.5 30.025)"/><path d="M220 500h240v60H220z" stroke="#000" stroke-opacity="0" stroke-width="2" fill="#fff" fill-opacity="0"/><use xlink:href="#c" transform="matrix(1,0,0,1,225,505) translate(82.55 30.025)"/><path d="M440 500h240v60H440z" stroke="#000" stroke-opacity="0" stroke-width="2" fill="#fff" fill-opacity="0"/><use xlink:href="#d" transform="matrix(1,0,0,1,445,505) translate(82.025 30.025)"/><path d="M208 580c17.67 0 32 17.9 32 40s-14.33 40-32 40h-96c-17.67 0-32-17.9-32-40s14.33-40 32-40z" stroke="#000" stroke-width="2" fill="#fff"/><use xlink:href="#e" transform="matrix(1,0,0,1,85,585) translate(53.525 38.4625)"/><use xlink:href="#f" transform="matrix(1,0,0,1,85,585) translate(86.475 38.4625)"/><path d="M208 680c17.67 0 32 17.9 32 40s-14.33 40-32 40h-96c-17.67 0-32-17.9-32-40s14.33-40 32-40z" stroke="#000" stroke-width="2" fill="#fff"/><use xlink:href="#e" transform="matrix(1,0,0,1,85,685) translate(53.525 38.4625)"/><use xlink:href="#g" transform="matrix(1,0,0,1,85,685) translate(86.475 38.4625)"/><path d="M208 780c17.67 0 32 17.9 32 40s-14.33 40-32 40h-96c-17.67 0-32-17.9-32-40s14.33-40 32-40z" stroke="#000" stroke-width="2" fill="#fff"/><use xlink:href="#e" transform="matrix(1,0,0,1,85,785) translate(53.525 38.4625)"/><use xlink:href="#h" transform="matrix(1,0,0,1,85,785) translate(86.475 38.4625)"/><path d="M208 880c17.67 0 32 17.9 32 40s-14.33 40-32 40h-96c-17.67 0-32-17.9-32-40s14.33-40 32-40z" stroke="#000" stroke-width="2" fill="#fff"/><use xlink:href="#e" transform="matrix(1,0,0,1,85,885) translate(53.525 38.4625)"/><use xlink:href="#i" transform="matrix(1,0,0,1,85,885) translate(86.475 38.4625)"/><path d="M208 980c17.67 0 32 17.9 32 40s-14.33 40-32 40h-96c-17.67 0-32-17.9-32-40s14.33-40 32-40z" stroke="#000" stroke-width="2" fill="#fff"/><use xlink:href="#e" transform="matrix(1,0,0,1,85,985) translate(53.525 38.4625)"/><use xlink:href="#j" transform="matrix(1,0,0,1,85,985) translate(86.475 38.4625)"/><path d="M290 720h100v80H290z" stroke="#000" stroke-width="2" fill="#fff"/><use xlink:href="#k" transform="matrix(1,0,0,1,295,725) translate(38.525 38.4625)"/><path d="M380 620c0 22.1-17.9 40-40 40s-40-17.9-40-40 17.9-40 40-40 40 17.9 40 40z" stroke="#000" stroke-width="2" fill="#fff"/><use xlink:href="#l" transform="matrix(1,0,0,1,305,585) translate(29 38.4625)"/><path d="M298 620h-38.5" stroke="#000" stroke-width="2" fill="none"/><path d="M299 620l.03 1h-1.06v-2h1.1z"/><path d="M244.24 620l14.26-4.64v9.28z" stroke="#000" stroke-width="2"/><path d="M628 580c17.67 0 32 17.9 32 40s-14.33 40-32 40h-96c-17.67 0-32-17.9-32-40s14.33-40 32-40z" stroke="#000" stroke-width="2" fill="#fff"/><use xlink:href="#m" transform="matrix(1,0,0,1,505,585) translate(59.525 38.4625)"/><path d="M628 680c17.67 0 32 17.9 32 40s-14.33 40-32 40h-96c-17.67 0-32-17.9-32-40s14.33-40 32-40z" stroke="#000" stroke-width="2" fill="#fff"/><use xlink:href="#n" transform="matrix(1,0,0,1,505,685) translate(67.5 38.4625)"/><path d="M628 780c17.67 0 32 17.9 32 40s-14.33 40-32 40h-96c-17.67 0-32-17.9-32-40s14.33-40 32-40z" stroke="#000" stroke-width="2" fill="#fff"/><use xlink:href="#o" transform="matrix(1,0,0,1,505,785) translate(66.5 38.4625)"/><path d="M628 880c17.67 0 32 17.9 32 40s-14.33 40-32 40h-96c-17.67 0-32-17.9-32-40s14.33-40 32-40z" stroke="#000" stroke-width="2" fill="#fff"/><use xlink:href="#p" transform="matrix(1,0,0,1,505,885) translate(24.549999999999997 27.525)"/><use xlink:href="#q" transform="matrix(1,0,0,1,505,885) translate(41.55 27.525)"/><use xlink:href="#r" transform="matrix(1,0,0,1,505,885) translate(78.55 27.525)"/><use xlink:href="#s" transform="matrix(1,0,0,1,505,885) translate(47.599999999999994 49.125)"/><path d="M392 760h53V620h35.5" stroke="#000" stroke-width="2" fill="none"/><path d="M392.03 761H391v-2h1.03z"/><path d="M495.76 620l-14.26 4.64v-9.28z" stroke="#000" stroke-width="2"/><path d="M392 760h53v-40h35.5" stroke="#000" stroke-width="2" fill="none"/><path d="M392.03 761H391v-2h1.03z"/><path d="M495.76 720l-14.26 4.64v-9.28z" stroke="#000" stroke-width="2"/><path d="M392 760h53v60h35.5" stroke="#000" stroke-width="2" fill="none"/><path d="M392.03 761H391v-2h1.03z"/><path d="M495.76 820l-14.26 4.64v-9.28z" stroke="#000" stroke-width="2"/><path d="M392 760h53v160h35.5" stroke="#000" stroke-width="2" fill="none"/><path d="M392.03 761H391v-2h1.03z"/><path d="M495.76 920l-14.26 4.64v-9.28z" stroke="#000" stroke-width="2"/><path d="M340 662v38.5" stroke="#000" stroke-width="2" fill="none"/><path d="M340 661l1-.03v1.06h-2v-1.1z"/><path d="M340 715.76l-4.64-14.26h9.28z" stroke="#000" stroke-width="2"/><path d="M780 580h120v280H780z" fill="none"/><path d="M780 860c9.66 0 17.5-7.84 17.5-17.5v-105c0-9.66 7.84-17.5 17.5-17.5-9.66 0-17.5-7.84-17.5-17.5v-105c0-9.66-7.84-17.5-17.5-17.5" stroke="#000" stroke-width="2" fill="none"/><use xlink:href="#t" transform="matrix(1,0,0,1,837.5,585) translate(0 138.6)"/><path d="M780 880h80v80h-80z" fill="none"/><path d="M780 960c2.76 0 5-2.24 5-5v-30c0-2.76 2.24-5 5-5-2.76 0-5-2.24-5-5v-30c0-2.76-2.24-5-5-5" stroke="#000" stroke-width="2" fill="none"/><g><use xlink:href="#u" transform="matrix(1,0,0,1,800,885) translate(0 38.6)"/></g><path d="M288.5 645.2H268V1000h95.93v2H266V643.2h22.5zM581 1002h-72.93v-2H579v-38h2z"/><path d="M581 962.03h-2V961h2zM303.76 644.2l-14.27 4.63v-9.27z"/><path d="M307 644.2l-18.5 6v-12zm-16.5 3.26l10.02-3.26-10.03-3.26z"/><g><use xlink:href="#v" transform="matrix(1,0,0,1,363.925,990.2) translate(0 14.4)"/><use xlink:href="#w" transform="matrix(1,0,0,1,363.925,990.2) translate(59.95 14.4)"/></g><defs><path d="M233-177c-1 41-23 64-60 70L243 0h-38l-65-103H63V0H30v-248c88 3 205-21 203 71zM63-129c60-2 137 13 137-47 0-61-80-42-137-45v92" id="x"/><path d="M24-231v-30h32v30H24zM24 0v-190h32V0H24" id="y"/><path d="M135-143c-3-34-86-38-87 0 15 53 115 12 119 90S17 21 10-45l28-5c4 36 97 45 98 0-10-56-113-15-118-90-4-57 82-63 122-42 12 7 21 19 24 35" id="z"/><path d="M143 0L79-87 56-68V0H24v-261h32v163l83-92h37l-77 82L181 0h-38" id="A"/><g id="a"><use transform="matrix(0.05,0,0,0.05,0,0)" xlink:href="#x"/><use transform="matrix(0.05,0,0,0.05,12.950000000000001,0)" xlink:href="#y"/><use transform="matrix(0.05,0,0,0.05,16.900000000000002,0)" xlink:href="#z"/><use transform="matrix(0.05,0,0,0.05,25.900000000000002,0)" xlink:href="#A"/><path d="M-.9 1.25h41.7v1.32H-.9z"/></g><path d="M212-179c-10-28-35-45-73-45-59 0-87 40-87 99 0 60 29 101 89 101 43 0 62-24 78-52l27 14C228-24 195 4 139 4 59 4 22-46 18-125c-6-104 99-153 187-111 19 9 31 26 39 46" id="B"/><path d="M141-36C126-15 110 5 73 4 37 3 15-17 15-53c-1-64 63-63 125-63 3-35-9-54-41-54-24 1-41 7-42 31l-33-3c5-37 33-52 76-52 45 0 72 20 72 64v82c-1 20 7 32 28 27v20c-31 9-61-2-59-35zM48-53c0 20 12 33 32 33 41-3 63-29 60-74-43 2-92-5-92 41" id="C"/><path d="M59-47c-2 24 18 29 38 22v24C64 9 27 4 27-40v-127H5v-23h24l9-43h21v43h35v23H59v120" id="D"/><path d="M100-194c63 0 86 42 84 106H49c0 40 14 67 53 68 26 1 43-12 49-29l28 8c-11 28-37 45-77 45C44 4 14-33 15-96c1-61 26-98 85-98zm52 81c6-60-76-77-97-28-3 7-6 17-6 28h103" id="E"/><path d="M177-190C167-65 218 103 67 71c-23-6-38-20-44-43l32-5c15 47 100 32 89-28v-30C133-14 115 1 83 1 29 1 15-40 15-95c0-56 16-97 71-98 29-1 48 16 59 35 1-10 0-23 2-32h30zM94-22c36 0 50-32 50-73 0-42-14-75-50-75-39 0-46 34-46 75s6 73 46 73" id="F"/><path d="M100-194c62-1 85 37 85 99 1 63-27 99-86 99S16-35 15-95c0-66 28-99 85-99zM99-20c44 1 53-31 53-75 0-43-8-75-51-75s-53 32-53 75 10 74 51 75" id="G"/><path d="M114-163C36-179 61-72 57 0H25l-1-190h30c1 12-1 29 2 39 6-27 23-49 58-41v29" id="H"/><path d="M179-190L93 31C79 59 56 82 12 73V49c39 6 53-20 64-50L1-190h34L92-34l54-156h33" id="I"/><g id="b"><use transform="matrix(0.05,0,0,0.05,0,0)" xlink:href="#B"/><use transform="matrix(0.05,0,0,0.05,12.950000000000001,0)" xlink:href="#C"/><use transform="matrix(0.05,0,0,0.05,22.950000000000003,0)" xlink:href="#D"/><use transform="matrix(0.05,0,0,0.05,27.950000000000003,0)" xlink:href="#E"/><use transform="matrix(0.05,0,0,0.05,37.95,0)" xlink:href="#F"/><use transform="matrix(0.05,0,0,0.05,47.95,0)" xlink:href="#G"/><use transform="matrix(0.05,0,0,0.05,57.95,0)" xlink:href="#H"/><use transform="matrix(0.05,0,0,0.05,63.900000000000006,0)" xlink:href="#I"/><path d="M-.9 1.25h74.7v1.32H-.9z"/></g><path d="M30-248c118-7 216 8 213 122C240-48 200 0 122 0H30v-248zM63-27c89 8 146-16 146-99s-60-101-146-95v194" id="J"/><g id="c"><use transform="matrix(0.05,0,0,0.05,0,0)" xlink:href="#J"/><use transform="matrix(0.05,0,0,0.05,12.950000000000001,0)" xlink:href="#y"/><use transform="matrix(0.05,0,0,0.05,16.900000000000002,0)" xlink:href="#z"/><use transform="matrix(0.05,0,0,0.05,25.900000000000002,0)" xlink:href="#E"/><use transform="matrix(0.05,0,0,0.05,35.900000000000006,0)" xlink:href="#C"/><use transform="matrix(0.05,0,0,0.05,45.900000000000006,0)" xlink:href="#z"/><use transform="matrix(0.05,0,0,0.05,54.900000000000006,0)" xlink:href="#E"/><path d="M-.9 1.25h66.7v1.32H-.9z"/></g><path d="M185-189c-5-48-123-54-124 2 14 75 158 14 163 119 3 78-121 87-175 55-17-10-28-26-33-46l33-7c5 56 141 63 141-1 0-78-155-14-162-118-5-82 145-84 179-34 5 7 8 16 11 25" id="K"/><path d="M145-31C134-9 116 4 85 4 32 4 16-35 15-94c0-59 17-99 70-100 32-1 48 14 60 33 0-11-1-24 2-32h30l-1 268h-32zM93-21c41 0 51-33 51-76s-8-73-50-73c-40 0-46 35-46 75s5 74 45 74" id="L"/><path d="M84 4C-5 8 30-112 23-190h32v120c0 31 7 50 39 49 72-2 45-101 50-169h31l1 190h-30c-1-10 1-25-2-33-11 22-28 36-60 37" id="M"/><path d="M24 0v-261h32V0H24" id="N"/><g id="d"><use transform="matrix(0.05,0,0,0.05,0,0)" xlink:href="#K"/><use transform="matrix(0.05,0,0,0.05,12,0)" xlink:href="#E"/><use transform="matrix(0.05,0,0,0.05,22,0)" xlink:href="#L"/><use transform="matrix(0.05,0,0,0.05,32,0)" xlink:href="#M"/><use transform="matrix(0.05,0,0,0.05,42,0)" xlink:href="#E"/><use transform="matrix(0.05,0,0,0.05,52,0)" xlink:href="#N"/><use transform="matrix(0.05,0,0,0.05,55.95,0)" xlink:href="#C"/><path d="M-.9 1.25h67.75v1.32H-.9z"/></g><g id="e"><use transform="matrix(0.05,0,0,0.05,0,0)" xlink:href="#B"/><use transform="matrix(0.05,0,0,0.05,12.950000000000001,0)" xlink:href="#C"/><use transform="matrix(0.05,0,0,0.05,22.950000000000003,0)" xlink:href="#D"/></g><path d="M54-142c48-35 137-8 131 61C196 18 31 33 14-55l32-4c7 23 22 37 52 37 35-1 51-22 54-58 4-55-73-65-99-34H22l8-134h141v27H59" id="O"/><use transform="matrix(0.05,0,0,0.05,0,0)" xlink:href="#O" id="f"/><path d="M155-56V0h-30v-56H8v-25l114-167h33v167h35v25h-35zm-30-156c-27 46-58 90-88 131h88v-131" id="P"/><use transform="matrix(0.05,0,0,0.05,0,0)" xlink:href="#P" id="g"/><path d="M126-127c33 6 58 20 58 59 0 88-139 92-164 29-3-8-5-16-6-25l32-3c6 27 21 44 54 44 32 0 52-15 52-46 0-38-36-46-79-43v-28c39 1 72-4 72-42 0-27-17-43-46-43-28 0-47 15-49 41l-32-3c6-42 35-63 81-64 48-1 79 21 79 65 0 36-21 52-52 59" id="Q"/><use transform="matrix(0.05,0,0,0.05,0,0)" xlink:href="#Q" id="h"/><path d="M101-251c82-7 93 87 43 132L82-64C71-53 59-42 53-27h129V0H18c2-99 128-94 128-182 0-28-16-43-45-43s-46 15-49 41l-32-3c6-41 34-60 81-64" id="R"/><use transform="matrix(0.05,0,0,0.05,0,0)" xlink:href="#R" id="i"/><path d="M27 0v-27h64v-190l-56 39v-29l58-41h29v221h61V0H27" id="S"/><use transform="matrix(0.05,0,0,0.05,0,0)" xlink:href="#S" id="j"/><use transform="matrix(0.05,0,0,0.05,0,0)" xlink:href="#B" id="k"/><use transform="matrix(0.05,0,0,0.05,0,0)" xlink:href="#K" id="l"/><path d="M205 0l-28-72H64L36 0H1l101-248h38L239 0h-34zm-38-99l-47-123c-12 45-31 82-46 123h93" id="T"/><path d="M115-194c53 0 69 39 70 98 0 66-23 100-70 100C84 3 66-7 56-30L54 0H23l1-261h32v101c10-23 28-34 59-34zm-8 174c40 0 45-34 45-75 0-40-5-75-45-74-42 0-51 32-51 76 0 43 10 73 51 73" id="U"/><path d="M33 0v-38h34V0H33" id="V"/><g id="m"><use transform="matrix(0.05,0,0,0.05,0,0)" xlink:href="#T"/><use transform="matrix(0.05,0,0,0.05,12,0)" xlink:href="#N"/><use transform="matrix(0.05,0,0,0.05,15.949999999999998,0)" xlink:href="#U"/><use transform="matrix(0.05,0,0,0.05,25.950000000000003,0)" xlink:href="#V"/></g><path d="M33 0v-248h34V0H33" id="W"/><g id="n"><use transform="matrix(0.05,0,0,0.05,0,0)" xlink:href="#W"/><use transform="matrix(0.05,0,0,0.05,5,0)" xlink:href="#W"/><use transform="matrix(0.05,0,0,0.05,10,0)" xlink:href="#W"/></g><path d="M137 0h-34L2-248h35l83 218 83-218h36" id="X"/><g id="o"><use transform="matrix(0.05,0,0,0.05,0,0)" xlink:href="#W"/><use transform="matrix(0.05,0,0,0.05,5,0)" xlink:href="#X"/></g><use transform="matrix(0.05,0,0,0.05,0,0)" xlink:href="#X" id="p"/><path d="M30 0v-248h187v28H63v79h144v27H63v87h162V0H30" id="Y"/><path d="M117-194c89-4 53 116 60 194h-32v-121c0-31-8-49-39-48C34-167 62-67 57 0H25l-1-190h30c1 10-1 24 2 32 11-22 29-35 61-36" id="Z"/><path d="M85-194c31 0 48 13 60 33l-1-100h32l1 261h-30c-2-10 0-23-3-31C134-8 116 4 85 4 32 4 16-35 15-94c0-66 23-100 70-100zm9 24c-40 0-46 34-46 75 0 40 6 74 45 74 42 0 51-32 51-76 0-42-9-74-50-73" id="aa"/><g id="q"><use transform="matrix(0.05,0,0,0.05,0,0)" xlink:href="#Y"/><use transform="matrix(0.05,0,0,0.05,12,0)" xlink:href="#Z"/><use transform="matrix(0.05,0,0,0.05,22,0)" xlink:href="#aa"/></g><g id="r"><use transform="matrix(0.05,0,0,0.05,0,0)" xlink:href="#x"/><use transform="matrix(0.05,0,0,0.05,12.950000000000001,0)" xlink:href="#E"/><use transform="matrix(0.05,0,0,0.05,22.950000000000003,0)" xlink:href="#Z"/><use transform="matrix(0.05,0,0,0.05,32.95,0)" xlink:href="#C"/><use transform="matrix(0.05,0,0,0.05,42.95,0)" xlink:href="#N"/></g><path d="M63-220v92h138v28H63V0H30v-248h175v28H63" id="ab"/><g id="s"><use transform="matrix(0.05,0,0,0.05,0,0)" xlink:href="#ab"/><use transform="matrix(0.05,0,0,0.05,10.950000000000001,0)" xlink:href="#C"/><use transform="matrix(0.05,0,0,0.05,20.950000000000003,0)" xlink:href="#y"/><use transform="matrix(0.05,0,0,0.05,24.900000000000002,0)" xlink:href="#N"/><use transform="matrix(0.05,0,0,0.05,28.85,0)" xlink:href="#M"/><use transform="matrix(0.05,0,0,0.05,38.85,0)" xlink:href="#H"/><use transform="matrix(0.05,0,0,0.05,44.800000000000004,0)" xlink:href="#E"/></g><path d="M240 0l2-218c-23 76-54 145-80 218h-23L58-218 59 0H30v-248h44l77 211c21-75 51-140 76-211h43V0h-30" id="ac"/><g id="t"><use transform="matrix(0.05,0,0,0.05,0,0)" xlink:href="#ac"/><use transform="matrix(0.05,0,0,0.05,14.950000000000001,0)" xlink:href="#G"/><use transform="matrix(0.05,0,0,0.05,24.950000000000003,0)" xlink:href="#aa"/><use transform="matrix(0.05,0,0,0.05,34.95,0)" xlink:href="#E"/><use transform="matrix(0.05,0,0,0.05,44.95,0)" xlink:href="#H"/><use transform="matrix(0.05,0,0,0.05,50.900000000000006,0)" xlink:href="#C"/><use transform="matrix(0.05,0,0,0.05,60.900000000000006,0)" xlink:href="#D"/><use transform="matrix(0.05,0,0,0.05,65.9,0)" xlink:href="#E"/></g><path d="M108 0H70L1-190h34L89-25l56-165h34" id="ad"/><g id="u"><use transform="matrix(0.05,0,0,0.05,0,0)" xlink:href="#K"/><use transform="matrix(0.05,0,0,0.05,12,0)" xlink:href="#E"/><use transform="matrix(0.05,0,0,0.05,22,0)" xlink:href="#ad"/><use transform="matrix(0.05,0,0,0.05,31,0)" xlink:href="#E"/><use transform="matrix(0.05,0,0,0.05,41,0)" xlink:href="#H"/><use transform="matrix(0.05,0,0,0.05,46.95,0)" xlink:href="#E"/></g><path d="M194 0L95-120 63-95V0H30v-248h33v124l119-124h40L117-140 236 0h-42" id="ae"/><g id="v"><use transform="matrix(0.05,0,0,0.05,0,0)" xlink:href="#ae"/><use transform="matrix(0.05,0,0,0.05,12,0)" xlink:href="#y"/><use transform="matrix(0.05,0,0,0.05,15.949999999999998,0)" xlink:href="#aa"/><use transform="matrix(0.05,0,0,0.05,25.950000000000003,0)" xlink:href="#Z"/><use transform="matrix(0.05,0,0,0.05,35.95,0)" xlink:href="#E"/><use transform="matrix(0.05,0,0,0.05,45.95,0)" xlink:href="#I"/></g><path d="M127-220V0H93v-220H8v-28h204v28h-85" id="af"/><path d="M115-194c55 1 70 41 70 98S169 2 115 4C84 4 66-9 55-30l1 105H24l-1-265h31l2 30c10-21 28-34 59-34zm-8 174c40 0 45-34 45-75s-6-73-45-74c-42 0-51 32-51 76 0 43 10 73 51 73" id="ag"/><g id="w"><use transform="matrix(0.05,0,0,0.05,0,0)" xlink:href="#af"/><use transform="matrix(0.05,0,0,0.05,10.3,0)" xlink:href="#H"/><use transform="matrix(0.05,0,0,0.05,16.25,0)" xlink:href="#C"/><use transform="matrix(0.05,0,0,0.05,26.25,0)" xlink:href="#Z"/><use transform="matrix(0.05,0,0,0.05,36.25,0)" xlink:href="#z"/><use transform="matrix(0.05,0,0,0.05,45.25,0)" xlink:href="#ag"/><use transform="matrix(0.05,0,0,0.05,55.25,0)" xlink:href="#N"/><use transform="matrix(0.05,0,0,0.05,59.2,0)" xlink:href="#C"/><use transform="matrix(0.05,0,0,0.05,69.2,0)" xlink:href="#Z"/><use transform="matrix(0.05,0,0,0.05,79.2,0)" xlink:href="#D"/></g></defs></g></svg>