<svg xmlns="http://www.w3.org/2000/svg" xmlns:xlink="http://www.w3.org/1999/xlink" xmlns:lucid="lucid" width="577" height="758"><g transform="translate(-1041 -562)" lucid:page-tab-id="w5Hq-Ex0O7Du"><path d="M0 0h1760v1360H0z" fill="#fff"/><path d="M1245 1140h150v140h-150z" fill="#fff"/><path d="M1265 1140h20m10 0h20m10 0h20m10 0h20m10 0h10v9.33m0 9.34v18.66m0 9.34v18.66m0 9.34v18.66m0 9.34v18.66m0 9.34v9.33h-10m-10 0h-20m-10 0h-20m-10 0h-20m-10 0h-20m-10 0h-10v-9.33m0-9.34v-18.66m0-9.34v-18.66m0-9.34v-18.66m0-9.34v-18.66m0-9.34V1140h10" stroke="#000" stroke-width="2" fill="none"/><path d="M1245 710h150v420h-150z" fill="#fff"/><path d="M1265 710h20m10 0h20m10 0h20m10 0h20m10 0h10v10m0 10v20m0 10v20m0 10v20m0 10v20m0 10v20m0 10v20m0 10v20m0 10v20m0 10v20m0 10v20m0 10v20m0 10v20m0 10v20m0 10v10h-10m-10 0h-20m-10 0h-20m-10 0h-20m-10 0h-20m-10 0h-10v-10m0-10v-20m0-10v-20m0-10v-20m0-10v-20m0-10v-20m0-10v-20m0-10v-20m0-10v-20m0-10v-20m0-10v-20m0-10v-20m0-10v-20m0-10v-20m0-10v-10h10" stroke="#000" stroke-width="2" fill="none"/><path d="M990 570h240v60H990z" stroke="#000" stroke-opacity="0" stroke-width="2" fill="#fff" fill-opacity="0"/><use xlink:href="#a" transform="matrix(1,0,0,1,995,575) translate(82.55 30.025)"/><path d="M1390 570h240v60h-240z" stroke="#000" stroke-opacity="0" stroke-width="2" fill="#fff" fill-opacity="0"/><use xlink:href="#b" transform="matrix(1,0,0,1,1395,575) translate(97.55 30.025)"/><path d="M1150 660c0 22.1-17.9 40-40 40s-40-17.9-40-40 17.9-40 40-40 40 17.9 40 40z" stroke="#000" stroke-width="2" fill="#fff"/><use xlink:href="#c" transform="matrix(1,0,0,1,1075,625) translate(29 38.4625)"/><path d="M1440 620h140v80h-140z" stroke="#000" stroke-width="2" fill="#fff"/><use xlink:href="#d" transform="matrix(1,0,0,1,1445,625) translate(48 38.4625)"/><path d="M1438 660h-268.5" stroke="#000" stroke-width="2" fill="none"/><path d="M1439 661h-1.03v-2h1.03z"/><path d="M1154.24 660l14.26-4.64v9.28z" stroke="#000" stroke-width="2"/><path d="M1360 800c0 22.1-17.9 40-40 40s-40-17.9-40-40 17.9-40 40-40 40 17.9 40 40z" stroke="#000" stroke-width="2" fill="#fff"/><use xlink:href="#e" transform="matrix(1,0,0,1,1285,765) translate(29 38.4625)"/><path d="M1440 760h140v80h-140z" stroke="#000" stroke-width="2" fill="#fff"/><use xlink:href="#f" transform="matrix(1,0,0,1,1445,765) translate(48 38.4625)"/><path d="M1152 660h268.5" stroke="#000" stroke-width="2" fill="none"/><path d="M1152.03 661h-1.1l.07-1-.03-1h1.06z"/><path d="M1435.76 660l-14.26 4.64v-9.28z" stroke="#000" stroke-width="2"/><path d="M1438 800h-58.5" stroke="#000" stroke-width="2" fill="none"/><path d="M1439 801h-1.03v-2h1.03z"/><path d="M1364.24 800l14.26-4.64v9.28z" stroke="#000" stroke-width="2"/><path d="M1362 800h58.5" stroke="#000" stroke-width="2" fill="none"/><path d="M1362.03 801h-1.1l.07-1-.03-1h1.06z"/><path d="M1435.76 800l-14.26 4.64v-9.28z" stroke="#000" stroke-width="2"/><path d="M1360 940c0 22.1-17.9 40-40 40s-40-17.9-40-40 17.9-40 40-40 40 17.9 40 40z" stroke="#000" stroke-width="2" fill="#fff"/><use xlink:href="#g" transform="matrix(1,0,0,1,1285,905) translate(27.5 38.4625)"/><path d="M1440 900h140v80h-140z" stroke="#000" stroke-width="2" fill="#fff"/><use xlink:href="#h" transform="matrix(1,0,0,1,1445,905) translate(48 38.4625)"/><path d="M1438 940h-58.5" stroke="#000" stroke-width="2" fill="none"/><path d="M1439 941h-1.03v-2h1.03z"/><path d="M1364.24 940l14.26-4.64v9.28z" stroke="#000" stroke-width="2"/><path d="M1362 940h58.5" stroke="#000" stroke-width="2" fill="none"/><path d="M1362.03 941h-1.1l.07-1-.03-1h1.06z"/><path d="M1435.76 940l-14.26 4.64v-9.28z" stroke="#000" stroke-width="2"/><path d="M1360 1080c0 22.1-17.9 40-40 40s-40-17.9-40-40 17.9-40 40-40 40 17.9 40 40z" stroke="#000" stroke-width="2" fill="#fff"/><use xlink:href="#i" transform="matrix(1,0,0,1,1285,1045) translate(26.5 38.4625)"/><path d="M1440 1040h140v80h-140z" stroke="#000" stroke-width="2" fill="#fff"/><use xlink:href="#j" transform="matrix(1,0,0,1,1445,1045) translate(48 38.4625)"/><path d="M1438 1080h-58.5" stroke="#000" stroke-width="2" fill="none"/><path d="M1439 1081h-1.03v-2h1.03z"/><path d="M1364.24 1080l14.26-4.64v9.28z" stroke="#000" stroke-width="2"/><path d="M1362 1080h58.5" stroke="#000" stroke-width="2" fill="none"/><path d="M1362.03 1081h-1.1l.07-1-.03-1h1.06z"/><path d="M1435.76 1080l-14.26 4.64v-9.28z" stroke="#000" stroke-width="2"/><path d="M1360 1220c0 22.1-17.9 40-40 40s-40-17.9-40-40 17.9-40 40-40 40 17.9 40 40z" stroke="#000" stroke-width="2" fill="#fff"/><use xlink:href="#k" transform="matrix(1,0,0,1,1285,1185) translate(29 38.4625)"/><path d="M1440 1180h140v80h-140z" stroke="#000" stroke-width="2" fill="#fff"/><use xlink:href="#l" transform="matrix(1,0,0,1,1445,1185) translate(48 38.4625)"/><path d="M1438 1220h-58.5" stroke="#000" stroke-width="2" fill="none"/><path d="M1439 1221h-1.03v-2h1.03z"/><path d="M1364.24 1220l14.26-4.64v9.28z" stroke="#000" stroke-width="2"/><path d="M1362 1220h58.5" stroke="#000" stroke-width="2" fill="none"/><path d="M1362.03 1221h-1.1l.07-1-.03-1h1.06z"/><path d="M1435.76 1220l-14.26 4.64v-9.28z" stroke="#000" stroke-width="2"/><path d="M1200 700h240v60h-240z" stroke="#000" stroke-opacity="0" stroke-width="2" fill="#fff" fill-opacity="0"/><use xlink:href="#m" transform="matrix(1,0,0,1,1205,705) translate(107.525 30.025)"/><path d="M1195 1130h240v60h-240z" stroke="#000" stroke-opacity="0" stroke-width="2" fill="#fff" fill-opacity="0"/><use xlink:href="#n" transform="matrix(1,0,0,1,1200,1135) translate(99.5 30.025)"/><path d="M1110 702v378h150.5" stroke="#000" stroke-width="2" fill="none"/><path d="M1110 701l1-.03v1.06h-2v-1.1z"/><path d="M1275.76 1080l-14.26 4.64v-9.28z" stroke="#000" stroke-width="2"/><path d="M1110 702v98h150.5" stroke="#000" stroke-width="2" fill="none"/><path d="M1110 701l1-.03v1.06h-2v-1.1z"/><path d="M1275.76 800l-14.26 4.64v-9.28z" stroke="#000" stroke-width="2"/><path d="M1110 702v238h150.5" stroke="#000" stroke-width="2" fill="none"/><path d="M1110 701l1-.03v1.06h-2v-1.1z"/><path d="M1275.76 940l-14.26 4.64v-9.28z" stroke="#000" stroke-width="2"/><path d="M1110 702v518h150.5" stroke="#000" stroke-width="2" fill="none"/><path d="M1110 701l1-.03v1.06h-2v-1.1z"/><path d="M1275.76 1220l-14.26 4.64v-9.28z" stroke="#000" stroke-width="2"/><defs><path d="M30-248c118-7 216 8 213 122C240-48 200 0 122 0H30v-248zM63-27c89 8 146-16 146-99s-60-101-146-95v194" id="o"/><path d="M24-231v-30h32v30H24zM24 0v-190h32V0H24" id="p"/><path d="M135-143c-3-34-86-38-87 0 15 53 115 12 119 90S17 21 10-45l28-5c4 36 97 45 98 0-10-56-113-15-118-90-4-57 82-63 122-42 12 7 21 19 24 35" id="q"/><path d="M100-194c63 0 86 42 84 106H49c0 40 14 67 53 68 26 1 43-12 49-29l28 8c-11 28-37 45-77 45C44 4 14-33 15-96c1-61 26-98 85-98zm52 81c6-60-76-77-97-28-3 7-6 17-6 28h103" id="r"/><path d="M141-36C126-15 110 5 73 4 37 3 15-17 15-53c-1-64 63-63 125-63 3-35-9-54-41-54-24 1-41 7-42 31l-33-3c5-37 33-52 76-52 45 0 72 20 72 64v82c-1 20 7 32 28 27v20c-31 9-61-2-59-35zM48-53c0 20 12 33 32 33 41-3 63-29 60-74-43 2-92-5-92 41" id="s"/><g id="a"><use transform="matrix(0.05,0,0,0.05,0,0)" xlink:href="#o"/><use transform="matrix(0.05,0,0,0.05,12.950000000000001,0)" xlink:href="#p"/><use transform="matrix(0.05,0,0,0.05,16.900000000000002,0)" xlink:href="#q"/><use transform="matrix(0.05,0,0,0.05,25.900000000000002,0)" xlink:href="#r"/><use transform="matrix(0.05,0,0,0.05,35.900000000000006,0)" xlink:href="#s"/><use transform="matrix(0.05,0,0,0.05,45.900000000000006,0)" xlink:href="#q"/><use transform="matrix(0.05,0,0,0.05,54.900000000000006,0)" xlink:href="#r"/></g><path d="M233-177c-1 41-23 64-60 70L243 0h-38l-65-103H63V0H30v-248c88 3 205-21 203 71zM63-129c60-2 137 13 137-47 0-61-80-42-137-45v92" id="t"/><path d="M143 0L79-87 56-68V0H24v-261h32v163l83-92h37l-77 82L181 0h-38" id="u"/><g id="b"><use transform="matrix(0.05,0,0,0.05,0,0)" xlink:href="#t"/><use transform="matrix(0.05,0,0,0.05,12.950000000000001,0)" xlink:href="#p"/><use transform="matrix(0.05,0,0,0.05,16.900000000000002,0)" xlink:href="#q"/><use transform="matrix(0.05,0,0,0.05,25.900000000000002,0)" xlink:href="#u"/></g><path d="M185-189c-5-48-123-54-124 2 14 75 158 14 163 119 3 78-121 87-175 55-17-10-28-26-33-46l33-7c5 56 141 63 141-1 0-78-155-14-162-118-5-82 145-84 179-34 5 7 8 16 11 25" id="v"/><use transform="matrix(0.05,0,0,0.05,0,0)" xlink:href="#v" id="c"/><path d="M96-169c-40 0-48 33-48 73s9 75 48 75c24 0 41-14 43-38l32 2c-6 37-31 61-74 61-59 0-76-41-82-99-10-93 101-131 147-64 4 7 5 14 7 22l-32 3c-4-21-16-35-41-35" id="w"/><path d="M59-47c-2 24 18 29 38 22v24C64 9 27 4 27-40v-127H5v-23h24l9-43h21v43h35v23H59v120" id="x"/><path d="M54-142c48-35 137-8 131 61C196 18 31 33 14-55l32-4c7 23 22 37 52 37 35-1 51-22 54-58 4-55-73-65-99-34H22l8-134h141v27H59" id="y"/><g id="d"><use transform="matrix(0.05,0,0,0.05,0,0)" xlink:href="#w"/><use transform="matrix(0.05,0,0,0.05,9,0)" xlink:href="#s"/><use transform="matrix(0.05,0,0,0.05,19,0)" xlink:href="#x"/><use transform="matrix(0.05,0,0,0.05,24,0)" xlink:href="#y"/></g><path d="M205 0l-28-72H64L36 0H1l101-248h38L239 0h-34zm-38-99l-47-123c-12 45-31 82-46 123h93" id="z"/><use transform="matrix(0.05,0,0,0.05,0,0)" xlink:href="#z" id="e"/><path d="M155-56V0h-30v-56H8v-25l114-167h33v167h35v25h-35zm-30-156c-27 46-58 90-88 131h88v-131" id="A"/><g id="f"><use transform="matrix(0.05,0,0,0.05,0,0)" xlink:href="#w"/><use transform="matrix(0.05,0,0,0.05,9,0)" xlink:href="#s"/><use transform="matrix(0.05,0,0,0.05,19,0)" xlink:href="#x"/><use transform="matrix(0.05,0,0,0.05,24,0)" xlink:href="#A"/></g><path d="M33 0v-248h34V0H33" id="B"/><g id="g"><use transform="matrix(0.05,0,0,0.05,0,0)" xlink:href="#B"/><use transform="matrix(0.05,0,0,0.05,5,0)" xlink:href="#B"/><use transform="matrix(0.05,0,0,0.05,10,0)" xlink:href="#B"/></g><path d="M126-127c33 6 58 20 58 59 0 88-139 92-164 29-3-8-5-16-6-25l32-3c6 27 21 44 54 44 32 0 52-15 52-46 0-38-36-46-79-43v-28c39 1 72-4 72-42 0-27-17-43-46-43-28 0-47 15-49 41l-32-3c6-42 35-63 81-64 48-1 79 21 79 65 0 36-21 52-52 59" id="C"/><g id="h"><use transform="matrix(0.05,0,0,0.05,0,0)" xlink:href="#w"/><use transform="matrix(0.05,0,0,0.05,9,0)" xlink:href="#s"/><use transform="matrix(0.05,0,0,0.05,19,0)" xlink:href="#x"/><use transform="matrix(0.05,0,0,0.05,24,0)" xlink:href="#C"/></g><path d="M137 0h-34L2-248h35l83 218 83-218h36" id="D"/><g id="i"><use transform="matrix(0.05,0,0,0.05,0,0)" xlink:href="#B"/><use transform="matrix(0.05,0,0,0.05,5,0)" xlink:href="#D"/></g><path d="M101-251c82-7 93 87 43 132L82-64C71-53 59-42 53-27h129V0H18c2-99 128-94 128-182 0-28-16-43-45-43s-46 15-49 41l-32-3c6-41 34-60 81-64" id="E"/><g id="j"><use transform="matrix(0.05,0,0,0.05,0,0)" xlink:href="#w"/><use transform="matrix(0.05,0,0,0.05,9,0)" xlink:href="#s"/><use transform="matrix(0.05,0,0,0.05,19,0)" xlink:href="#x"/><use transform="matrix(0.05,0,0,0.05,24,0)" xlink:href="#E"/></g><use transform="matrix(0.05,0,0,0.05,0,0)" xlink:href="#D" id="k"/><path d="M27 0v-27h64v-190l-56 39v-29l58-41h29v221h61V0H27" id="F"/><g id="l"><use transform="matrix(0.05,0,0,0.05,0,0)" xlink:href="#w"/><use transform="matrix(0.05,0,0,0.05,9,0)" xlink:href="#s"/><use transform="matrix(0.05,0,0,0.05,19,0)" xlink:href="#x"/><use transform="matrix(0.05,0,0,0.05,24,0)" xlink:href="#F"/></g><path d="M240 0l2-218c-23 76-54 145-80 218h-23L58-218 59 0H30v-248h44l77 211c21-75 51-140 76-211h43V0h-30" id="G"/><use transform="matrix(0.05,0,0,0.05,0,0)" xlink:href="#G" id="m"/><path d="M108 0H70L1-190h34L89-25l56-165h34" id="H"/><g id="n"><use transform="matrix(0.05,0,0,0.05,0,0)" xlink:href="#v"/><use transform="matrix(0.05,0,0,0.05,12,0)" xlink:href="#r"/><use transform="matrix(0.05,0,0,0.05,22,0)" xlink:href="#H"/></g></defs></g></svg>