<svg xmlns="http://www.w3.org/2000/svg" xmlns:xlink="http://www.w3.org/1999/xlink" xmlns:lucid="lucid" width="1760.25" height="1320"><g transform="translate(0 -20)" lucid:page-tab-id="0_0"><path d="M0 0h1760v1360H0z" fill="#fff"/><path d="M340 218.1h160v80H340z" stroke="#000" stroke-width="2" fill="#fff"/><use xlink:href="#a" transform="matrix(1,0,0,1,345,223.09416761546208) translate(25.525 27.525)"/><use xlink:href="#b" transform="matrix(1,0,0,1,345,223.09416761546208) translate(54.525 27.525)"/><use xlink:href="#c" transform="matrix(1,0,0,1,345,223.09416761546208) translate(74.525 27.525)"/><use xlink:href="#d" transform="matrix(1,0,0,1,345,223.09416761546208) translate(4.125 49.125)"/><use xlink:href="#e" transform="matrix(1,0,0,1,345,223.09416761546208) translate(109.025 49.125)"/><path d="M502 258.1h71" stroke="#000" stroke-width="2" fill="none"/><path d="M502.03 259.1H501v-2h1.03z"/><path d="M588.27 258.1L574 262.72v-9.27z" stroke="#000" stroke-width="2"/><path d="M934.8 218.1h160v80h-160z" stroke="#000" stroke-width="2" fill="#fff"/><use xlink:href="#f" transform="matrix(1,0,0,1,939.791666666686,223.09416761546208) translate(21.324999999999996 38.4625)"/><use xlink:href="#g" transform="matrix(1,0,0,1,939.791666666686,223.09416761546208) translate(78.17500000000001 38.4625)"/><use xlink:href="#h" transform="matrix(1,0,0,1,939.791666666686,223.09416761546208) translate(93.67500000000001 38.4625)"/><path d="M811.14 259.1h-55.8v-2h55.8zm104.15 0H877v-2h38.3z"/><path d="M755.36 259.1h-2.03l1-1-1-1h2.03zM930.55 258.1l-14.26 4.63v-9.27z"/><path d="M933.8 258.1l-18.5 6V252.1zm-16.5 3.25l10.02-3.26-10.03-3.26z"/><use xlink:href="#i" transform="matrix(1,0,0,1,811.1362734478435,236.49416761551984) translate(18.255 14.4)"/><use xlink:href="#j" transform="matrix(1,0,0,1,811.1362734478435,236.49416761551984) translate(0.005000000000002558 36)"/><use xlink:href="#k" transform="matrix(1,0,0,1,811.1362734478435,236.49416761551984) translate(49.905 36)"/><path d="M1276.67 218.1h160v80h-160z" stroke="#000" stroke-width="2" fill="#fff"/><use xlink:href="#l" transform="matrix(1,0,0,1,1281.6666666667052,223.09416761551984) translate(49.375 38.4625)"/><path d="M1236.67 399.13h240v121.74h-240z" stroke="#7ab648" stroke-width="2" fill="#fff"/><use xlink:href="#m" transform="matrix(1,0,0,1,1241.6666666667052,404.13328) translate(51.125 38.9)"/><use xlink:href="#n" transform="matrix(1,0,0,1,1241.6666666667052,404.13328) translate(115.975 38.9)"/><use xlink:href="#o" transform="matrix(1,0,0,1,1241.6666666667052,404.13328) translate(77.1 60.5)"/><use xlink:href="#p" transform="matrix(1,0,0,1,1241.6666666667052,404.13328) translate(104.05 60.5)"/><use xlink:href="#q" transform="matrix(1,0,0,1,1241.6666666667052,404.13328) translate(82.075 82.10000000000001)"/><use xlink:href="#r" transform="matrix(1,0,0,1,1241.6666666667052,404.13328) translate(131.975 82.10000000000001)"/><path d="M1139.85 259.1h-43.06v-2h43.05zm117.3 0h-25.55v-2h25.56z"/><path d="M1096.82 259.1h-1.03v-2h1.02zM1272.43 258.1l-14.27 4.63v-9.27z"/><path d="M1275.67 258.1l-18.5 6V252.1zm-16.5 3.25l10.02-3.26-10.04-3.26z"/><use xlink:href="#i" transform="matrix(1,0,0,1,1139.8541666666956,236.4941676154621) translate(31.205000000000002 14.4)"/><use xlink:href="#s" transform="matrix(1,0,0,1,1139.8541666666956,236.4941676154621) translate(0.005000000000002558 36)"/><use xlink:href="#t" transform="matrix(1,0,0,1,1139.8541666666956,236.4941676154621) translate(46.855000000000004 36)"/><path d="M1357.67 379.63h-2v-9.42h2zm0-52.62h-2v-26.9h2z"/><path d="M1357.67 300.12h-2v-1.03h2zM1356.67 394.9l-4.64-14.27h9.27z"/><path d="M1356.67 398.13l-6.02-18.5h12.03zm-3.26-16.5l3.27 10.03 3.26-10.03z"/><use xlink:href="#i" transform="matrix(1,0,0,1,1323.7416666667052,327.0137238077599) translate(18.255 14.4)"/><use xlink:href="#j" transform="matrix(1,0,0,1,1323.7416666667052,327.0137238077599) translate(0.005000000000002558 36)"/><use xlink:href="#u" transform="matrix(1,0,0,1,1323.7416666667052,327.0137238077599) translate(49.905 36)"/><path d="M1276.67 681.98h160v80h-160z" stroke="#000" stroke-width="2" fill="#fff"/><use xlink:href="#v" transform="matrix(1,0,0,1,1281.6666666667052,686.9840571536138) translate(33.525 38.4625)"/><path d="M1466.22 722.98h-27.55v-2h27.55zm35.03 0h-12.08v-2h10.08v-58.85h2z"/><path d="M1438.7 722.98h-1.03v-2h1.02zM1504.9 661.13h-9.3l4.65-14.26z"/><path d="M1506.26 662.13h-12.02l6-18.5zm-9.27-2h6.5l-3.25-10.03z"/><use xlink:href="#w" transform="matrix(1,0,0,1,1466.224105954836,711.1840571536138) translate(0 14.4)"/><path d="M1420.25 562.63h160v80h-160z" stroke="#7ab648" stroke-width="2" fill="#fff"/><use xlink:href="#x" transform="matrix(1,0,0,1,1425.249999999884,567.6300714420172) translate(38.05 38.4625)"/><use xlink:href="#y" transform="matrix(1,0,0,1,1425.249999999884,567.6300714420172) translate(90 38.4625)"/><path d="M998.33 681.98h160v80h-160z" stroke="#000" stroke-width="2" fill="#fff"/><use xlink:href="#z" transform="matrix(1,0,0,1,1003.3333333333526,686.9840571536138) translate(36.025 38.4625)"/><use xlink:href="#A" transform="matrix(1,0,0,1,1003.3333333333526,686.9840571536138) translate(58.025 38.4625)"/><path d="M1250.23 603.63h-170.9v76.35h-2v-78.35h172.9zm150.52 0h-121.17v-2h121.17z"/><path d="M1079.33 680.98h-2v-1.02h2zM1416 602.63l-14.25 4.64V598z"/><path d="M1419.25 602.63l-18.5 6v-12zm-16.5 3.26l10.03-3.27-10.03-3.26z"/><use xlink:href="#B" transform="matrix(1,0,0,1,1250.2327168505562,591.8300714420172) translate(0 14.4)"/><path d="M1357.67 880.5h-2v-36.47h2zm0-79.67h-2v-36.85h2z"/><path d="M1357.67 764h-2V763h2zM1356.67 895.76l-4.64-14.26h9.27z"/><path d="M1356.67 899l-6.02-18.5h12.03zm-3.26-16.5l3.27 10.03 3.26-10.03z"/><use xlink:href="#i" transform="matrix(1,0,0,1,1323.7416666667052,800.8271267102912) translate(18.255 14.4)"/><use xlink:href="#j" transform="matrix(1,0,0,1,1323.7416666667052,800.8271267102912) translate(0.005000000000002558 36)"/><use xlink:href="#C" transform="matrix(1,0,0,1,1323.7416666667052,800.8271267102912) translate(49.905 36)"/><path d="M934.8 40h160v80h-160z" stroke="#c92d39" stroke-width="2" fill="#fff"/><use xlink:href="#D" transform="matrix(1,0,0,1,939.791666666686,45) translate(20.049999999999997 38.4625)"/><use xlink:href="#E" transform="matrix(1,0,0,1,939.791666666686,45) translate(57.05 38.4625)"/><use xlink:href="#F" transform="matrix(1,0,0,1,939.791666666686,45) translate(95.95 38.4625)"/><path d="M673.92 175.68h-2V163.6h2zM915.3 81H673.9v61h-2V79H915.3z"/><path d="M673.92 177.68l-1-1-1 1v-2.03h2zM930.56 80l-14.27 4.64v-9.28z"/><path d="M933.8 80l-18.5 6V74zm-16.5 3.26L927.3 80l-10.03-3.26z"/><use xlink:href="#w" transform="matrix(1,0,0,1,661.4416666666278,142.0019503291044) translate(0 14.4)"/><path d="M1015.8 216.1h-2v-36.25h2zm0-57.85h-2V139.5h2z"/><path d="M1015.8 217.1h-2v-1.03h2zM1019.43 138.5h-9.27l4.63-14.26z"/><path d="M1020.8 139.5h-12.02l6-18.5zm-9.27-2h6.52l-3.26-10.03z"/><use xlink:href="#w" transform="matrix(1,0,0,1,1003.3166666666859,158.24708380773103) translate(0 14.4)"/><path d="M1357.67 216.1h-2v-51.93h2zm0-73.53h-2V81H1114.3v-2h243.37z"/><path d="M1357.67 217.1h-2v-1.03h2zM1113.3 84.64L1099.02 80l14.26-4.64z"/><path d="M1114.3 86l-18.5-6 18.5-6zm-12.04-6l10.03 3.26v-6.52z"/><use xlink:href="#w" transform="matrix(1,0,0,1,1345.1916666667053,142.56746253784334) translate(0 14.4)"/><path d="M680 879.13h240v121.74H680z" stroke="#7ab648" stroke-width="2" fill="#fff"/><use xlink:href="#G" transform="matrix(1,0,0,1,685,884.13328) translate(55.3 28.4)"/><use xlink:href="#H" transform="matrix(1,0,0,1,685,884.13328) translate(127.8 28.4)"/><use xlink:href="#I" transform="matrix(1,0,0,1,685,884.13328) translate(168.75 28.4)"/><use xlink:href="#J" transform="matrix(1,0,0,1,685,884.13328) translate(53.099999999999994 50)"/><use xlink:href="#n" transform="matrix(1,0,0,1,685,884.13328) translate(114 50)"/><use xlink:href="#o" transform="matrix(1,0,0,1,685,884.13328) translate(77.1 71.60000000000001)"/><use xlink:href="#p" transform="matrix(1,0,0,1,685,884.13328) translate(104.05 71.60000000000001)"/><use xlink:href="#q" transform="matrix(1,0,0,1,685,884.13328) translate(82.075 93.20000000000002)"/><use xlink:href="#r" transform="matrix(1,0,0,1,685,884.13328) translate(131.975 93.20000000000002)"/><path d="M1560 1080h160v80h-160z" stroke="#c92d39" stroke-width="2" fill="#fff"/><use xlink:href="#K" transform="matrix(1,0,0,1,1565,1085) translate(36.599999999999994 27.525)"/><use xlink:href="#L" transform="matrix(1,0,0,1,1565,1085) translate(93.4 27.525)"/><use xlink:href="#M" transform="matrix(1,0,0,1,1565,1085) translate(30.049999999999997 49.125)"/><use xlink:href="#N" transform="matrix(1,0,0,1,1565,1085) translate(61 49.125)"/><path d="M720 681.98h160v80H720z" stroke="#000" stroke-width="2" fill="#fff"/><use xlink:href="#O" transform="matrix(1,0,0,1,725,686.9840571536138) translate(8.200000000000003 38.4625)"/><use xlink:href="#P" transform="matrix(1,0,0,1,725,686.9840571536138) translate(79.15 38.4625)"/><path d="M917.02 722.98H882v-2h35.02zm61.8 0h-38.85v-2h38.86z"/><path d="M882.03 722.98H881v-2h1.03zM994.1 721.98l-14.27 4.64v-9.27z"/><path d="M997.33 721.98l-18.5 6.02v-12.03zm-16.5 3.26l10.03-3.26-10.03-3.25z"/><use xlink:href="#w" transform="matrix(1,0,0,1,917.0217403901996,711.1840571536138) translate(0 14.4)"/><path d="M260 380l80 80-80 80-80-80z" stroke="#000" stroke-width="2" fill="#fff"/><use xlink:href="#Q" transform="matrix(1,0,0,1,185,385) translate(34.1161111111111 79.84722222222223)"/><use xlink:href="#R" transform="matrix(1,0,0,1,185,385) translate(58.758086419753084 79.84722222222223)"/><path d="M260 641.98l80 80-80 80-80-80z" stroke="#000" stroke-width="2" fill="#fff"/><use xlink:href="#S" transform="matrix(1,0,0,1,185,646.9840571536138) translate(32.53 65.9625)"/><use xlink:href="#T" transform="matrix(1,0,0,1,185,646.9840571536138) translate(34.58 87.5625)"/><use xlink:href="#U" transform="matrix(1,0,0,1,185,646.9840571536138) translate(85.43 87.5625)"/><path d="M100 178.1l80 80-80 80-80-80z" stroke="#000" stroke-width="2" fill="#fff"/><use xlink:href="#V" transform="matrix(1,0,0,1,25,183.09416761551984) translate(27.029999999999998 65.9625)"/><use xlink:href="#W" transform="matrix(1,0,0,1,25,183.09416761551984) translate(54.555 87.5625)"/><path d="M440 401.85h160v116.3H440z" stroke="#000" stroke-width="2" fill="#fff"/><use xlink:href="#X" transform="matrix(1,0,0,1,445,406.85069715361374) translate(25.525 34.4625)"/><use xlink:href="#Y" transform="matrix(1,0,0,1,445,406.85069715361374) translate(54.525 34.4625)"/><use xlink:href="#Z" transform="matrix(1,0,0,1,445,406.85069715361374) translate(74.525 34.4625)"/><use xlink:href="#aa" transform="matrix(1,0,0,1,445,406.85069715361374) translate(21.625 56.0625)"/><use xlink:href="#ab" transform="matrix(1,0,0,1,445,406.85069715361374) translate(66.575 56.0625)"/><use xlink:href="#ac" transform="matrix(1,0,0,1,445,406.85069715361374) translate(91.525 56.0625)"/><use xlink:href="#ad" transform="matrix(1,0,0,1,445,406.85069715361374) translate(11.624999999999993 77.66250000000001)"/><use xlink:href="#ae" transform="matrix(1,0,0,1,445,406.85069715361374) translate(86.525 77.66250000000001)"/><path d="M440 663.83h160v116.3H440z" stroke="#000" stroke-width="2" fill="#fff"/><use xlink:href="#X" transform="matrix(1,0,0,1,445,668.8347543072275) translate(25.525 34.4625)"/><use xlink:href="#Y" transform="matrix(1,0,0,1,445,668.8347543072275) translate(54.525 34.4625)"/><use xlink:href="#Z" transform="matrix(1,0,0,1,445,668.8347543072275) translate(74.525 34.4625)"/><use xlink:href="#af" transform="matrix(1,0,0,1,445,668.8347543072275) translate(15.674999999999997 56.0625)"/><use xlink:href="#ag" transform="matrix(1,0,0,1,445,668.8347543072275) translate(72.475 56.0625)"/><use xlink:href="#ac" transform="matrix(1,0,0,1,445,668.8347543072275) translate(97.475 56.0625)"/><use xlink:href="#ad" transform="matrix(1,0,0,1,445,668.8347543072275) translate(11.624999999999993 77.66250000000001)"/><use xlink:href="#ae" transform="matrix(1,0,0,1,445,668.8347543072275) translate(86.525 77.66250000000001)"/><path d="M216.86 259.1H182.4v-2h34.46zm103.64 0h-16.94v-2h16.94z"/><path d="M182.44 259.1h-2.03l1-1-1-1h2.04zM335.76 258.1l-14.26 4.63v-9.27z"/><path d="M339 258.1l-18.5 6V252.1zm-16.5 3.25l10.03-3.26-10.03-3.26z"/><use xlink:href="#i" transform="matrix(1,0,0,1,216.85710678118653,236.49416761551984) translate(28.680000000000003 14.4)"/><use xlink:href="#ah" transform="matrix(1,0,0,1,216.85710678118653,236.49416761551984) translate(0.005000000000002558 36)"/><path d="M101 175.68h-2v-37.55h2zM915.3 53.05H101v63.48h-2V51.05h816.3z"/><path d="M101 177.68l-1-1-1 1v-2.03h2zM930.56 52.05L916.3 56.7V47.4z"/><path d="M933.8 52.05l-18.5 6v-12zm-16.5 3.26l10.02-3.25-10.03-3.26z"/><use xlink:href="#w" transform="matrix(1,0,0,1,88.525,116.53067064855752) translate(0 14.4)"/><path d="M365.8 461h-23.4v-2h23.4zm54.7 0h-25.35v-2h25.35z"/><path d="M342.44 461h-2.03l1-1-1-1h2.04zM435.76 460l-14.26 4.64v-9.28z"/><path d="M439 460l-18.5 6v-12zm-16.5 3.26l10.03-3.26-10.03-3.26z"/><use xlink:href="#ai" transform="matrix(1,0,0,1,365.79586463201497,449.2) translate(0 14.4)"/><path d="M375.53 722.98H342.4v-2h33.13zm44.97 0h-15.62v-2h15.62z"/><path d="M342.44 722.98h-2.03l1-1-1-1h2.04zM435.76 721.98l-14.26 4.64v-9.27z"/><path d="M439 721.98L420.5 728v-12.03zm-16.5 3.26l10.03-3.26-10.03-3.25z"/><use xlink:href="#ai" transform="matrix(1,0,0,1,375.53210678118654,711.1840571536138) translate(0 14.4)"/><path d="M261 622.07h-2v-30.52h2zm0-52.12h-2V542.4h2z"/><path d="M261 542.44h-2v-2.03l1 1 1-1zM260 637.33l-4.64-14.26h9.28z"/><path d="M260 640.57l-6-18.5h12zm-3.26-16.5L260 634.1l3.26-10.03z"/><use xlink:href="#w" transform="matrix(1,0,0,1,248.525,569.9534221508382) translate(0 14.4)"/><path d="M101 720.98h76.6v2H99v-205.8h2zm0-225.4h-2V358h2z"/><path d="M178.6 721.98l1 1h-2.04v-2h2.03zM104.64 357h-9.28l4.64-14.26z"/><path d="M106 358H94l6-18.5zm-9.26-2h6.52L100 346z"/><use xlink:href="#w" transform="matrix(1,0,0,1,88.525,495.5696352712859) translate(0 14.4)"/><path d="M672.92 178.1l80 80-80 80-80-80z" stroke="#000" stroke-width="2" fill="#fff"/><use xlink:href="#aj" transform="matrix(1,0,0,1,597.9166666666279,183.09416761551984) translate(40.05499999999999 65.9625)"/><use xlink:href="#ak" transform="matrix(1,0,0,1,597.9166666666279,183.09416761551984) translate(44.07999999999999 87.5625)"/><path d="M602 721.98h98.5" stroke="#000" stroke-width="2" fill="none"/><path d="M602.03 722.98H601v-2h1.03z"/><path d="M715.76 721.98l-14.26 4.64v-9.27z" stroke="#000" stroke-width="2"/><path d="M801 859.63h-2v-17.47h2zm0-60.67h-2v-34.98h2z"/><path d="M801 764h-2V763h2zM800 874.9l-4.64-14.27h9.28z"/><path d="M800 878.13l-6-18.5h12zm-3.26-16.5l3.26 10.03 3.26-10.03z"/><use xlink:href="#i" transform="matrix(1,0,0,1,767.075,798.9586685768069) translate(18.255 14.4)"/><use xlink:href="#j" transform="matrix(1,0,0,1,767.075,798.9586685768069) translate(0.005000000000002558 36)"/><use xlink:href="#al" transform="matrix(1,0,0,1,767.075,798.9586685768069) translate(49.905 36)"/><path d="M1206.03 722.98h-45.7v-2h45.7zm51.13 0h-28.2v-2h28.2z"/><path d="M1160.36 722.98h-1.03v-2h1.03zM1272.43 721.98l-14.27 4.64v-9.27z"/><path d="M1275.67 721.98l-18.5 6.02v-12.03zm-16.5 3.26l10.02-3.26-10.04-3.25z"/><g><use xlink:href="#w" transform="matrix(1,0,0,1,1206.025000000029,711.1840571536138) translate(0 14.4)"/></g><path d="M1276.67 900h160v80h-160z" stroke="#000" stroke-width="2" fill="#fff"/><g><use xlink:href="#am" transform="matrix(1,0,0,1,1281.6666666667052,905) translate(6.625 27.525)"/><use xlink:href="#an" transform="matrix(1,0,0,1,1281.6666666667052,905) translate(84.42500000000001 27.525)"/><use xlink:href="#ao" transform="matrix(1,0,0,1,1281.6666666667052,905) translate(109.42500000000001 27.525)"/><use xlink:href="#ap" transform="matrix(1,0,0,1,1281.6666666667052,905) translate(50.5 49.125)"/></g><path d="M1560 900h160v80h-160z" stroke="#000" stroke-width="2" fill="#fff"/><g><use xlink:href="#aq" transform="matrix(1,0,0,1,1565,905) translate(17.074999999999996 38.4625)"/><use xlink:href="#ar" transform="matrix(1,0,0,1,1565,905) translate(54.074999999999996 38.4625)"/></g><path d="M1483.66 941h-45v-2h45zm56.84 0H1513v-2h27.5z"/><path d="M1438.7 941h-1.03v-2h1.02zM1555.76 940l-14.26 4.64v-9.28z"/><path d="M1559 940l-18.5 6v-12zm-16.5 3.26l10.03-3.26-10.03-3.26z"/><g><use xlink:href="#ai" transform="matrix(1,0,0,1,1483.6583333333526,929.2) translate(0 14.4)"/></g><path d="M1276.67 1080h160v80h-160z" stroke="#000" stroke-width="2" fill="#fff"/><g><use xlink:href="#as" transform="matrix(1,0,0,1,1281.6666666667052,1085) translate(19.549999999999997 38.4625)"/><use xlink:href="#ap" transform="matrix(1,0,0,1,1281.6666666667052,1085) translate(81.45 38.4625)"/></g><path d="M720 1080h160v80H720z" stroke="#c92d39" stroke-width="2" fill="#fff"/><g><use xlink:href="#K" transform="matrix(1,0,0,1,725.0000000000001,1085) translate(36.599999999999994 27.525)"/><use xlink:href="#L" transform="matrix(1,0,0,1,725.0000000000001,1085) translate(93.4 27.525)"/><use xlink:href="#M" transform="matrix(1,0,0,1,725.0000000000001,1085) translate(30.049999999999997 49.125)"/><use xlink:href="#N" transform="matrix(1,0,0,1,725.0000000000001,1085) translate(61 49.125)"/></g><path d="M800 1002.87v57.63" stroke="#000" stroke-width="2" fill="none"/><path d="M801 1002.9h-2v-1.03h2z"/><path d="M800 1075.76l-4.64-14.26h9.28z" stroke="#000" stroke-width="2"/><path d="M1580.25 420h160v80h-160z" stroke="#c92d39" stroke-width="2" fill="#fff"/><g><use xlink:href="#K" transform="matrix(1,0,0,1,1585.249999999884,425) translate(36.599999999999994 27.525)"/><use xlink:href="#L" transform="matrix(1,0,0,1,1585.249999999884,425) translate(93.4 27.525)"/><use xlink:href="#M" transform="matrix(1,0,0,1,1585.249999999884,425) translate(30.049999999999997 49.125)"/><use xlink:href="#N" transform="matrix(1,0,0,1,1585.249999999884,425) translate(61 49.125)"/></g><path d="M1582.25 602.63h78V519.5" stroke="#000" stroke-width="2" fill="none"/><path d="M1582.28 603.63h-1.03v-2h1.03z"/><path d="M1660.25 504.24l4.64 14.26h-9.3z" stroke="#000" stroke-width="2"/><path d="M602 460h615.16" stroke="#000" stroke-width="2" fill="none"/><path d="M602.03 461H601v-2h1.03z"/><path d="M1232.43 460l-14.27 4.64v-9.28z" stroke="#000" stroke-width="2"/><path d="M1478.67 460h82.08" stroke="#000" stroke-width="2" fill="none"/><path d="M1478.7 461h-1.03v-2h1.02z"/><path d="M1576 460l-14.25 4.64v-9.28z" stroke="#000" stroke-width="2"/><path d="M1357.67 1060.5h-2v-19.7h2zm0-41.3h-2V982h2z"/><path d="M1357.67 982.03h-2V981h2zM1356.67 1075.76l-4.64-14.26h9.27z"/><path d="M1356.67 1079l-6.02-18.5h12.03zm-3.26-16.5l3.27 10.03 3.26-10.03z"/><g><use xlink:href="#w" transform="matrix(1,0,0,1,1345.1916666667053,1019.2) translate(0 14.4)"/></g><path d="M1483.66 1121h-45v-2h45zm56.84 0H1513v-2h27.5z"/><path d="M1438.7 1121h-1.03v-2h1.02zM1555.76 1120l-14.26 4.64v-9.28z"/><path d="M1559 1120l-18.5 6v-12zm-16.5 3.26l10.03-3.26-10.03-3.26z"/><g><use xlink:href="#ai" transform="matrix(1,0,0,1,1483.6583333333526,1109.2) translate(0 14.4)"/></g><path d="M1640 982v78.5" stroke="#000" stroke-width="2" fill="none"/><path d="M1641 982.03h-2V981h2z"/><path d="M1640 1075.76l-4.64-14.26h9.28z" stroke="#000" stroke-width="2"/><path d="M1276.67 1240h160v80h-160z" stroke="#000" stroke-width="2" fill="#fff"/><g><use xlink:href="#aq" transform="matrix(1,0,0,1,1281.6666666667052,1245) translate(17.074999999999996 38.4625)"/><use xlink:href="#ar" transform="matrix(1,0,0,1,1281.6666666667052,1245) translate(54.074999999999996 38.4625)"/></g><path d="M1357.67 1220.5h-2v-9.7h2zm0-31.3h-2V1162h2z"/><path d="M1357.67 1162.03h-2V1161h2zM1356.67 1235.76l-4.64-14.26h9.27z"/><path d="M1356.67 1239l-6.02-18.5h12.03zm-3.26-16.5l3.27 10.03 3.26-10.03z"/><g><use xlink:href="#w" transform="matrix(1,0,0,1,1345.1916666667053,1189.2) translate(0 14.4)"/></g><path d="M1641 1281h-202.33v-2H1639v-99.5h2z"/><path d="M1438.7 1281h-1.03v-2h1.02zM1644.64 1178.5h-9.28l4.64-14.26z"/><path d="M1646 1179.5h-12l6-18.5zm-9.26-2h6.52l-3.26-10.03z"/><path d="M67.08 1000H600v161.2H67.08z" stroke="#000" stroke-width="2" fill="#fff"/><g><use xlink:href="#at" transform="matrix(1,0,0,1,72.08333333337214,1005) translate(73.52499999999998 14.4)"/><use xlink:href="#au" transform="matrix(1,0,0,1,72.08333333337214,1005) translate(117.47499999999998 14.4)"/><use xlink:href="#av" transform="matrix(1,0,0,1,72.08333333337214,1005) translate(132.47499999999997 14.4)"/><use xlink:href="#aw" transform="matrix(1,0,0,1,72.08333333337214,1005) translate(147.97499999999997 14.4)"/><use xlink:href="#ax" transform="matrix(1,0,0,1,72.08333333337214,1005) translate(234.77499999999998 14.4)"/><use xlink:href="#ay" transform="matrix(1,0,0,1,72.08333333337214,1005) translate(254.77499999999998 14.4)"/><use xlink:href="#az" transform="matrix(1,0,0,1,72.08333333337214,1005) translate(312.72499999999997 14.4)"/><use xlink:href="#aA" transform="matrix(1,0,0,1,72.08333333337214,1005) translate(369.575 14.4)"/><use xlink:href="#at" transform="matrix(1,0,0,1,72.08333333337214,1005) translate(88.025 36)"/><use xlink:href="#aB" transform="matrix(1,0,0,1,72.08333333337214,1005) translate(131.97500000000002 36)"/><use xlink:href="#av" transform="matrix(1,0,0,1,72.08333333337214,1005) translate(146.97500000000002 36)"/><use xlink:href="#aw" transform="matrix(1,0,0,1,72.08333333337214,1005) translate(162.47500000000002 36)"/><use xlink:href="#ax" transform="matrix(1,0,0,1,72.08333333337214,1005) translate(249.275 36)"/><use xlink:href="#aC" transform="matrix(1,0,0,1,72.08333333337214,1005) translate(269.275 36)"/><use xlink:href="#aD" transform="matrix(1,0,0,1,72.08333333337214,1005) translate(296.225 36)"/><use xlink:href="#aE" transform="matrix(1,0,0,1,72.08333333337214,1005) translate(344.17499999999995 36)"/><use xlink:href="#aF" transform="matrix(1,0,0,1,72.08333333337214,1005) translate(383.125 36)"/><use xlink:href="#at" transform="matrix(1,0,0,1,72.08333333337214,1005) translate(73.5 57.6)"/><use xlink:href="#aG" transform="matrix(1,0,0,1,72.08333333337214,1005) translate(117.45 57.6)"/><use xlink:href="#av" transform="matrix(1,0,0,1,72.08333333337214,1005) translate(132.45 57.6)"/><use xlink:href="#aw" transform="matrix(1,0,0,1,72.08333333337214,1005) translate(147.95 57.6)"/><use xlink:href="#ax" transform="matrix(1,0,0,1,72.08333333337214,1005) translate(234.75 57.6)"/><use xlink:href="#aH" transform="matrix(1,0,0,1,72.08333333337214,1005) translate(254.75 57.6)"/><use xlink:href="#aI" transform="matrix(1,0,0,1,72.08333333337214,1005) translate(328.65 57.6)"/><use xlink:href="#aD" transform="matrix(1,0,0,1,72.08333333337214,1005) translate(379.6 57.6)"/><use xlink:href="#aJ" transform="matrix(1,0,0,1,72.08333333337214,1005) translate(427.55 57.6)"/><use xlink:href="#at" transform="matrix(1,0,0,1,72.08333333337214,1005) translate(110.92500000000001 79.20000000000002)"/><use xlink:href="#aK" transform="matrix(1,0,0,1,72.08333333337214,1005) translate(154.875 79.20000000000002)"/><use xlink:href="#av" transform="matrix(1,0,0,1,72.08333333337214,1005) translate(169.875 79.20000000000002)"/><use xlink:href="#aw" transform="matrix(1,0,0,1,72.08333333337214,1005) translate(185.375 79.20000000000002)"/><use xlink:href="#ax" transform="matrix(1,0,0,1,72.08333333337214,1005) translate(272.175 79.20000000000002)"/><use xlink:href="#aL" transform="matrix(1,0,0,1,72.08333333337214,1005) translate(292.175 79.20000000000002)"/><use xlink:href="#aM" transform="matrix(1,0,0,1,72.08333333337214,1005) translate(341.125 79.20000000000002)"/><use xlink:href="#at" transform="matrix(1,0,0,1,72.08333333337214,1005) translate(31.67500000000001 100.80000000000001)"/><use xlink:href="#aN" transform="matrix(1,0,0,1,72.08333333337214,1005) translate(75.62500000000001 100.80000000000001)"/><use xlink:href="#av" transform="matrix(1,0,0,1,72.08333333337214,1005) translate(90.62500000000001 100.80000000000001)"/><use xlink:href="#aw" transform="matrix(1,0,0,1,72.08333333337214,1005) translate(106.12500000000001 100.80000000000001)"/><use xlink:href="#ax" transform="matrix(1,0,0,1,72.08333333337214,1005) translate(192.925 100.80000000000001)"/><use xlink:href="#aO" transform="matrix(1,0,0,1,72.08333333337214,1005) translate(212.925 100.80000000000001)"/><use xlink:href="#aP" transform="matrix(1,0,0,1,72.08333333337214,1005) translate(271.875 100.80000000000001)"/><use xlink:href="#aQ" transform="matrix(1,0,0,1,72.08333333337214,1005) translate(306.875 100.80000000000001)"/><use xlink:href="#aR" transform="matrix(1,0,0,1,72.08333333337214,1005) translate(347.825 100.80000000000001)"/><use xlink:href="#aS" transform="matrix(1,0,0,1,72.08333333337214,1005) translate(365.47499999999997 100.80000000000001)"/><use xlink:href="#aT" transform="matrix(1,0,0,1,72.08333333337214,1005) translate(452.325 100.80000000000001)"/><use xlink:href="#at" transform="matrix(1,0,0,1,72.08333333337214,1005) translate(18.575000000000017 122.4)"/><use xlink:href="#aU" transform="matrix(1,0,0,1,72.08333333337214,1005) translate(62.52500000000002 122.4)"/><use xlink:href="#av" transform="matrix(1,0,0,1,72.08333333337214,1005) translate(77.52500000000002 122.4)"/><use xlink:href="#aV" transform="matrix(1,0,0,1,72.08333333337214,1005) translate(93.02500000000002 122.4)"/><use xlink:href="#aW" transform="matrix(1,0,0,1,72.08333333337214,1005) translate(153.925 122.4)"/><use xlink:href="#aX" transform="matrix(1,0,0,1,72.08333333337214,1005) translate(234.82500000000002 122.4)"/><use xlink:href="#aY" transform="matrix(1,0,0,1,72.08333333337214,1005) translate(302.725 122.4)"/><use xlink:href="#aZ" transform="matrix(1,0,0,1,72.08333333337214,1005) translate(313.67499999999995 122.4)"/><use xlink:href="#ba" transform="matrix(1,0,0,1,72.08333333337214,1005) translate(405.475 122.4)"/><use xlink:href="#aQ" transform="matrix(1,0,0,1,72.08333333337214,1005) translate(429.475 122.4)"/><use xlink:href="#bb" transform="matrix(1,0,0,1,72.08333333337214,1005) translate(470.42499999999995 122.4)"/><use xlink:href="#at" transform="matrix(1,0,0,1,72.08333333337214,1005) translate(130.07500000000002 144)"/><use xlink:href="#bc" transform="matrix(1,0,0,1,72.08333333337214,1005) translate(174.02500000000003 144)"/><use xlink:href="#av" transform="matrix(1,0,0,1,72.08333333337214,1005) translate(189.02500000000003 144)"/><use xlink:href="#aw" transform="matrix(1,0,0,1,72.08333333337214,1005) translate(204.52500000000003 144)"/><use xlink:href="#ax" transform="matrix(1,0,0,1,72.08333333337214,1005) translate(291.32500000000005 144)"/><use xlink:href="#bd" transform="matrix(1,0,0,1,72.08333333337214,1005) translate(311.32500000000005 144)"/><use xlink:href="#be" transform="matrix(1,0,0,1,72.08333333337214,1005) translate(349.275 144)"/></g><defs><path d="M143 4C61 4 22-44 18-125c-5-107 100-154 193-111 17 8 29 25 37 43l-32 9c-13-25-37-40-76-40-61 0-88 39-88 99 0 61 29 100 91 101 35 0 62-11 79-27v-45h-74v-28h105v86C228-13 192 4 143 4" id="bf"/><path d="M100-194c62-1 85 37 85 99 1 63-27 99-86 99S16-35 15-95c0-66 28-99 85-99zM99-20c44 1 53-31 53-75 0-43-8-75-51-75s-53 32-53 75 10 74 51 75" id="bg"/><g id="a"><use transform="matrix(0.05,0,0,0.05,0,0)" xlink:href="#bf"/><use transform="matrix(0.05,0,0,0.05,14,0)" xlink:href="#bg"/></g><path d="M59-47c-2 24 18 29 38 22v24C64 9 27 4 27-40v-127H5v-23h24l9-43h21v43h35v23H59v120" id="bh"/><g id="b"><use transform="matrix(0.05,0,0,0.05,0,0)" xlink:href="#bh"/><use transform="matrix(0.05,0,0,0.05,5,0)" xlink:href="#bg"/></g><path d="M85-194c31 0 48 13 60 33l-1-100h32l1 261h-30c-2-10 0-23-3-31C134-8 116 4 85 4 32 4 16-35 15-94c0-66 23-100 70-100zm9 24c-40 0-46 34-46 75 0 40 6 74 45 74 42 0 51-32 51-76 0-42-9-74-50-73" id="bi"/><path d="M96-169c-40 0-48 33-48 73s9 75 48 75c24 0 41-14 43-38l32 2c-6 37-31 61-74 61-59 0-76-41-82-99-10-93 101-131 147-64 4 7 5 14 7 22l-32 3c-4-21-16-35-41-35" id="bj"/><path d="M114-163C36-179 61-72 57 0H25l-1-190h30c1 12-1 29 2 39 6-27 23-49 58-41v29" id="bk"/><g id="c"><use transform="matrix(0.05,0,0,0.05,0,0)" xlink:href="#bi"/><use transform="matrix(0.05,0,0,0.05,10,0)" xlink:href="#bg"/><use transform="matrix(0.05,0,0,0.05,20,0)" xlink:href="#bj"/><use transform="matrix(0.05,0,0,0.05,29,0)" xlink:href="#bh"/><use transform="matrix(0.05,0,0,0.05,34,0)" xlink:href="#bg"/><use transform="matrix(0.05,0,0,0.05,44,0)" xlink:href="#bk"/></g><path d="M87 75C49 33 22-17 22-94c0-76 28-126 65-167h31c-38 41-64 92-64 168S80 34 118 75H87" id="bl"/><path d="M115-194c53 0 69 39 70 98 0 66-23 100-70 100C84 3 66-7 56-30L54 0H23l1-261h32v101c10-23 28-34 59-34zm-8 174c40 0 45-34 45-75 0-40-5-75-45-74-42 0-51 32-51 76 0 43 10 73 51 73" id="bm"/><path d="M141-36C126-15 110 5 73 4 37 3 15-17 15-53c-1-64 63-63 125-63 3-35-9-54-41-54-24 1-41 7-42 31l-33-3c5-37 33-52 76-52 45 0 72 20 72 64v82c-1 20 7 32 28 27v20c-31 9-61-2-59-35zM48-53c0 20 12 33 32 33 41-3 63-29 60-74-43 2-92-5-92 41" id="bn"/><path d="M143 0L79-87 56-68V0H24v-261h32v163l83-92h37l-77 82L181 0h-38" id="bo"/><path d="M177-190C167-65 218 103 67 71c-23-6-38-20-44-43l32-5c15 47 100 32 89-28v-30C133-14 115 1 83 1 29 1 15-40 15-95c0-56 16-97 71-98 29-1 48 16 59 35 1-10 0-23 2-32h30zM94-22c36 0 50-32 50-73 0-42-14-75-50-75-39 0-46 34-46 75s6 73 46 73" id="bp"/><path d="M84 4C-5 8 30-112 23-190h32v120c0 31 7 50 39 49 72-2 45-101 50-169h31l1 190h-30c-1-10 1-25-2-33-11 22-28 36-60 37" id="bq"/><path d="M117-194c89-4 53 116 60 194h-32v-121c0-31-8-49-39-48C34-167 62-67 57 0H25l-1-190h30c1 10-1 24 2 32 11-22 29-35 61-36" id="br"/><g id="d"><use transform="matrix(0.05,0,0,0.05,0,0)" xlink:href="#bl"/><use transform="matrix(0.05,0,0,0.05,5.95,0)" xlink:href="#bm"/><use transform="matrix(0.05,0,0,0.05,15.949999999999998,0)" xlink:href="#bn"/><use transform="matrix(0.05,0,0,0.05,25.950000000000003,0)" xlink:href="#bj"/><use transform="matrix(0.05,0,0,0.05,34.95,0)" xlink:href="#bo"/><use transform="matrix(0.05,0,0,0.05,43.95,0)" xlink:href="#bp"/><use transform="matrix(0.05,0,0,0.05,53.95,0)" xlink:href="#bk"/><use transform="matrix(0.05,0,0,0.05,59.900000000000006,0)" xlink:href="#bg"/><use transform="matrix(0.05,0,0,0.05,69.9,0)" xlink:href="#bq"/><use transform="matrix(0.05,0,0,0.05,79.9,0)" xlink:href="#br"/><use transform="matrix(0.05,0,0,0.05,89.9,0)" xlink:href="#bi"/></g><path d="M108 0H70L1-190h34L89-25l56-165h34" id="bs"/><path d="M24-231v-30h32v30H24zM24 0v-190h32V0H24" id="bt"/><path d="M135-143c-3-34-86-38-87 0 15 53 115 12 119 90S17 21 10-45l28-5c4 36 97 45 98 0-10-56-113-15-118-90-4-57 82-63 122-42 12 7 21 19 24 35" id="bu"/><path d="M33-261c38 41 65 92 65 168S71 34 33 75H2C39 34 66-17 66-93S39-220 2-261h31" id="bv"/><g id="e"><use transform="matrix(0.05,0,0,0.05,0,0)" xlink:href="#bs"/><use transform="matrix(0.05,0,0,0.05,9,0)" xlink:href="#bt"/><use transform="matrix(0.05,0,0,0.05,12.949999999999998,0)" xlink:href="#bu"/><use transform="matrix(0.05,0,0,0.05,21.95,0)" xlink:href="#bt"/><use transform="matrix(0.05,0,0,0.05,25.899999999999995,0)" xlink:href="#bh"/><use transform="matrix(0.05,0,0,0.05,30.899999999999995,0)" xlink:href="#bv"/></g><path d="M30 0v-248h33v221h125V0H30" id="bw"/><path d="M30-248c118-7 216 8 213 122C240-48 200 0 122 0H30v-248zM63-27c89 8 146-16 146-99s-60-101-146-95v194" id="bx"/><path d="M16-82v-28h88v28H16" id="by"/><path d="M212-179c-10-28-35-45-73-45-59 0-87 40-87 99 0 60 29 101 89 101 43 0 62-24 78-52l27 14C228-24 195 4 139 4 59 4 22-46 18-125c-6-104 99-153 187-111 19 9 31 26 39 46" id="bz"/><g id="f"><use transform="matrix(0.05,0,0,0.05,0,0)" xlink:href="#bw"/><use transform="matrix(0.05,0,0,0.05,10,0)" xlink:href="#bx"/><use transform="matrix(0.05,0,0,0.05,22.950000000000003,0)" xlink:href="#bw"/><use transform="matrix(0.05,0,0,0.05,32.95,0)" xlink:href="#by"/><use transform="matrix(0.05,0,0,0.05,38.900000000000006,0)" xlink:href="#bz"/></g><path d="M18-27v-27l151-64-151-65v-27l175 74v36" id="bA"/><use transform="matrix(0.05,0,0,0.05,0,0)" xlink:href="#bA" id="g"/><path d="M155-56V0h-30v-56H8v-25l114-167h33v167h35v25h-35zm-30-156c-27 46-58 90-88 131h88v-131" id="bB"/><path d="M33 0v-38h34V0H33" id="bC"/><path d="M99-251c64 0 84 50 84 122C183-37 130 33 47-8c-14-7-20-23-25-40l30-5c6 39 69 39 84 7 9-19 16-44 16-74-10 22-31 35-62 35-49 0-73-33-73-83 0-54 28-83 82-83zm-1 141c31-1 51-18 51-49 0-36-14-67-51-67-34 0-49 23-49 58 0 34 15 58 49 58" id="bD"/><path d="M103-251c84 0 111 97 45 133-19 10-37 24-39 52H78c0-63 77-55 77-114 0-30-21-42-52-43-32 0-53 17-56 46l-32-2c7-45 34-72 88-72zM77 0v-35h34V0H77" id="bE"/><g id="h"><use transform="matrix(0.05,0,0,0.05,0,0)" xlink:href="#bB"/><use transform="matrix(0.05,0,0,0.05,10,0)" xlink:href="#bC"/><use transform="matrix(0.05,0,0,0.05,15,0)" xlink:href="#bD"/><use transform="matrix(0.05,0,0,0.05,25,0)" xlink:href="#bE"/></g><path d="M137-103V0h-34v-103L8-248h37l75 118 75-118h37" id="bF"/><path d="M100-194c63 0 86 42 84 106H49c0 40 14 67 53 68 26 1 43-12 49-29l28 8c-11 28-37 45-77 45C44 4 14-33 15-96c1-61 26-98 85-98zm52 81c6-60-76-77-97-28-3 7-6 17-6 28h103" id="bG"/><g id="i"><use transform="matrix(0.05,0,0,0.05,0,0)" xlink:href="#bF"/><use transform="matrix(0.05,0,0,0.05,10.35,0)" xlink:href="#bG"/><use transform="matrix(0.05,0,0,0.05,20.35,0)" xlink:href="#bu"/></g><path d="M24 0v-261h32V0H24" id="bH"/><g id="j"><use transform="matrix(0.05,0,0,0.05,0,0)" xlink:href="#bl"/><use transform="matrix(0.05,0,0,0.05,5.95,0)" xlink:href="#bh"/><use transform="matrix(0.05,0,0,0.05,10.95,0)" xlink:href="#bn"/><use transform="matrix(0.05,0,0,0.05,20.95,0)" xlink:href="#bm"/><use transform="matrix(0.05,0,0,0.05,30.950000000000003,0)" xlink:href="#bH"/><use transform="matrix(0.05,0,0,0.05,34.9,0)" xlink:href="#bG"/></g><path d="M27 0v-27h64v-190l-56 39v-29l58-41h29v221h61V0H27" id="bI"/><g id="k"><use transform="matrix(0.05,0,0,0.05,0,0)" xlink:href="#bI"/><use transform="matrix(0.05,0,0,0.05,10,0)" xlink:href="#bv"/></g><path d="M127-220V0H93v-220H8v-28h204v28h-85" id="bJ"/><g id="l"><use transform="matrix(0.05,0,0,0.05,0,0)" xlink:href="#bJ"/><use transform="matrix(0.05,0,0,0.05,10.3,0)" xlink:href="#bk"/><use transform="matrix(0.05,0,0,0.05,16.25,0)" xlink:href="#bG"/><use transform="matrix(0.05,0,0,0.05,26.25,0)" xlink:href="#bn"/><use transform="matrix(0.05,0,0,0.05,36.25,0)" xlink:href="#bh"/><use transform="matrix(0.05,0,0,0.05,41.25,0)" xlink:href="#bE"/></g><g id="m"><use transform="matrix(0.05,0,0,0.05,0,0)" xlink:href="#bz"/><use transform="matrix(0.05,0,0,0.05,12.950000000000001,0)" xlink:href="#bq"/><use transform="matrix(0.05,0,0,0.05,22.950000000000003,0)" xlink:href="#bk"/><use transform="matrix(0.05,0,0,0.05,28.900000000000002,0)" xlink:href="#bk"/><use transform="matrix(0.05,0,0,0.05,34.85,0)" xlink:href="#bG"/><use transform="matrix(0.05,0,0,0.05,44.85,0)" xlink:href="#br"/><use transform="matrix(0.05,0,0,0.05,54.85,0)" xlink:href="#bh"/></g><path d="M115-194c55 1 70 41 70 98S169 2 115 4C84 4 66-9 55-30l1 105H24l-1-265h31l2 30c10-21 28-34 59-34zm-8 174c40 0 45-34 45-75s-6-73-45-74c-42 0-51 32-51 76 0 43 10 73 51 73" id="bK"/><g id="n"><use transform="matrix(0.05,0,0,0.05,0,0)" xlink:href="#bK"/><use transform="matrix(0.05,0,0,0.05,10,0)" xlink:href="#bk"/><use transform="matrix(0.05,0,0,0.05,15.949999999999998,0)" xlink:href="#bn"/><use transform="matrix(0.05,0,0,0.05,25.950000000000003,0)" xlink:href="#bj"/><use transform="matrix(0.05,0,0,0.05,34.95,0)" xlink:href="#bh"/><use transform="matrix(0.05,0,0,0.05,39.95,0)" xlink:href="#bt"/><use transform="matrix(0.05,0,0,0.05,43.900000000000006,0)" xlink:href="#bj"/><use transform="matrix(0.05,0,0,0.05,52.900000000000006,0)" xlink:href="#bG"/></g><path d="M233-177c-1 41-23 64-60 70L243 0h-38l-65-103H63V0H30v-248c88 3 205-21 203 71zM63-129c60-2 137 13 137-47 0-61-80-42-137-45v92" id="bL"/><path d="M141 0L90-78 38 0H4l68-98-65-92h35l48 74 47-74h35l-64 92 68 98h-35" id="bM"/><g id="o"><use transform="matrix(0.05,0,0,0.05,0,0)" xlink:href="#bL"/><use transform="matrix(0.05,0,0,0.05,12.950000000000001,0)" xlink:href="#bM"/></g><path d="M101-234c-31-9-42 10-38 44h38v23H63V0H32v-167H5v-23h27c-7-52 17-82 69-68v24" id="bN"/><g id="p"><use transform="matrix(0.05,0,0,0.05,0,0)" xlink:href="#bK"/><use transform="matrix(0.05,0,0,0.05,10,0)" xlink:href="#bk"/><use transform="matrix(0.05,0,0,0.05,15.949999999999998,0)" xlink:href="#bg"/><use transform="matrix(0.05,0,0,0.05,25.950000000000003,0)" xlink:href="#bN"/><use transform="matrix(0.05,0,0,0.05,30.950000000000003,0)" xlink:href="#bt"/><use transform="matrix(0.05,0,0,0.05,34.9,0)" xlink:href="#bH"/><use transform="matrix(0.05,0,0,0.05,38.85,0)" xlink:href="#bG"/></g><g id="q"><use transform="matrix(0.05,0,0,0.05,0,0)" xlink:href="#bl"/><use transform="matrix(0.05,0,0,0.05,5.95,0)" xlink:href="#bh"/><use transform="matrix(0.05,0,0,0.05,10.95,0)" xlink:href="#bn"/><use transform="matrix(0.05,0,0,0.05,20.95,0)" xlink:href="#bm"/><use transform="matrix(0.05,0,0,0.05,30.950000000000003,0)" xlink:href="#bH"/><use transform="matrix(0.05,0,0,0.05,34.9,0)" xlink:href="#bG"/></g><path d="M110-160c48 1 74 30 74 79 0 53-28 85-80 85-65 0-83-55-86-122-5-90 50-162 133-122 14 7 22 21 27 39l-31 6c-5-40-67-38-82-6-9 19-15 44-15 74 11-20 30-34 60-33zm-7 138c34 0 49-23 49-58s-16-56-50-56c-29 0-50 16-49 49 1 36 15 65 50 65" id="bO"/><g id="r"><use transform="matrix(0.05,0,0,0.05,0,0)" xlink:href="#bO"/><use transform="matrix(0.05,0,0,0.05,10,0)" xlink:href="#bv"/></g><path d="M210-169c-67 3-38 105-44 169h-31v-121c0-29-5-50-35-48C34-165 62-65 56 0H25l-1-190h30c1 10-1 24 2 32 10-44 99-50 107 0 11-21 27-35 58-36 85-2 47 119 55 194h-31v-121c0-29-5-49-35-48" id="bP"/><g id="s"><use transform="matrix(0.05,0,0,0.05,0,0)" xlink:href="#bl"/><use transform="matrix(0.05,0,0,0.05,5.95,0)" xlink:href="#bN"/><use transform="matrix(0.05,0,0,0.05,10.95,0)" xlink:href="#bk"/><use transform="matrix(0.05,0,0,0.05,16.9,0)" xlink:href="#bg"/><use transform="matrix(0.05,0,0,0.05,26.899999999999995,0)" xlink:href="#bP"/></g><path d="M160-131c35 5 61 23 61 61C221 17 115-2 30 0v-248c76 3 177-17 177 60 0 33-19 50-47 57zm-97-11c50-1 110 9 110-42 0-47-63-36-110-37v79zm0 115c55-2 124 14 124-45 0-56-70-42-124-44v89" id="bQ"/><g id="t"><use transform="matrix(0.05,0,0,0.05,0,0)" xlink:href="#bf"/><use transform="matrix(0.05,0,0,0.05,14,0)" xlink:href="#bQ"/><use transform="matrix(0.05,0,0,0.05,26,0)" xlink:href="#bx"/><use transform="matrix(0.05,0,0,0.05,38.95,0)" xlink:href="#bv"/></g><path d="M101-251c82-7 93 87 43 132L82-64C71-53 59-42 53-27h129V0H18c2-99 128-94 128-182 0-28-16-43-45-43s-46 15-49 41l-32-3c6-41 34-60 81-64" id="bR"/><g id="u"><use transform="matrix(0.05,0,0,0.05,0,0)" xlink:href="#bR"/><use transform="matrix(0.05,0,0,0.05,10,0)" xlink:href="#bv"/></g><path d="M205 0l-28-72H64L36 0H1l101-248h38L239 0h-34zm-38-99l-47-123c-12 45-31 82-46 123h93" id="bS"/><path d="M106-169C34-169 62-67 57 0H25v-261h32l-1 103c12-21 28-36 61-36 89 0 53 116 60 194h-32v-121c2-32-8-49-39-48" id="bT"/><g id="v"><use transform="matrix(0.05,0,0,0.05,0,0)" xlink:href="#bS"/><use transform="matrix(0.05,0,0,0.05,12,0)" xlink:href="#bi"/><use transform="matrix(0.05,0,0,0.05,22,0)" xlink:href="#bT"/><use transform="matrix(0.05,0,0,0.05,32,0)" xlink:href="#bG"/><use transform="matrix(0.05,0,0,0.05,42,0)" xlink:href="#bk"/><use transform="matrix(0.05,0,0,0.05,47.95,0)" xlink:href="#bG"/><use transform="matrix(0.05,0,0,0.05,57.95,0)" xlink:href="#br"/><use transform="matrix(0.05,0,0,0.05,67.95,0)" xlink:href="#bh"/><use transform="matrix(0.05,0,0,0.05,72.95,0)" xlink:href="#bE"/></g><path d="M190 0L58-211 59 0H30v-248h39L202-35l-2-213h31V0h-41" id="bU"/><g id="w"><use transform="matrix(0.05,0,0,0.05,0,0)" xlink:href="#bU"/><use transform="matrix(0.05,0,0,0.05,12.950000000000001,0)" xlink:href="#bg"/></g><path d="M185-189c-5-48-123-54-124 2 14 75 158 14 163 119 3 78-121 87-175 55-17-10-28-26-33-46l33-7c5 56 141 63 141-1 0-78-155-14-162-118-5-82 145-84 179-34 5 7 8 16 11 25" id="bV"/><g id="x"><use transform="matrix(0.05,0,0,0.05,0,0)" xlink:href="#bV"/><use transform="matrix(0.05,0,0,0.05,12,0)" xlink:href="#bn"/><use transform="matrix(0.05,0,0,0.05,22,0)" xlink:href="#bP"/><use transform="matrix(0.05,0,0,0.05,36.95,0)" xlink:href="#bG"/></g><g id="y"><use transform="matrix(0.05,0,0,0.05,0,0)" xlink:href="#bL"/><use transform="matrix(0.05,0,0,0.05,12.950000000000001,0)" xlink:href="#bM"/></g><g id="z"><use transform="matrix(0.05,0,0,0.05,0,0)" xlink:href="#bS"/><use transform="matrix(0.05,0,0,0.05,12,0)" xlink:href="#bh"/></g><g id="A"><use transform="matrix(0.05,0,0,0.05,0,0)" xlink:href="#bh"/><use transform="matrix(0.05,0,0,0.05,5,0)" xlink:href="#bn"/><use transform="matrix(0.05,0,0,0.05,15,0)" xlink:href="#bk"/><use transform="matrix(0.05,0,0,0.05,20.95,0)" xlink:href="#bp"/><use transform="matrix(0.05,0,0,0.05,30.950000000000003,0)" xlink:href="#bG"/><use transform="matrix(0.05,0,0,0.05,40.95,0)" xlink:href="#bh"/><use transform="matrix(0.05,0,0,0.05,45.95,0)" xlink:href="#bE"/></g><g id="B"><use transform="matrix(0.05,0,0,0.05,0,0)" xlink:href="#bF"/><use transform="matrix(0.05,0,0,0.05,10.35,0)" xlink:href="#bG"/><use transform="matrix(0.05,0,0,0.05,20.35,0)" xlink:href="#bu"/></g><g id="C"><use transform="matrix(0.05,0,0,0.05,0,0)" xlink:href="#bB"/><use transform="matrix(0.05,0,0,0.05,10,0)" xlink:href="#bv"/></g><path d="M30 0v-248h187v28H63v79h144v27H63v87h162V0H30" id="bW"/><g id="D"><use transform="matrix(0.05,0,0,0.05,0,0)" xlink:href="#bW"/><use transform="matrix(0.05,0,0,0.05,12,0)" xlink:href="#br"/><use transform="matrix(0.05,0,0,0.05,22,0)" xlink:href="#bi"/></g><g id="E"><use transform="matrix(0.05,0,0,0.05,0,0)" xlink:href="#bh"/><use transform="matrix(0.05,0,0,0.05,5,0)" xlink:href="#bt"/><use transform="matrix(0.05,0,0,0.05,8.95,0)" xlink:href="#bP"/><use transform="matrix(0.05,0,0,0.05,23.9,0)" xlink:href="#bG"/></g><g id="F"><use transform="matrix(0.05,0,0,0.05,0,0)" xlink:href="#bu"/><use transform="matrix(0.05,0,0,0.05,9,0)" xlink:href="#bh"/><use transform="matrix(0.05,0,0,0.05,14,0)" xlink:href="#bG"/><use transform="matrix(0.05,0,0,0.05,24,0)" xlink:href="#bK"/></g><g id="G"><use transform="matrix(0.05,0,0,0.05,0,0)" xlink:href="#bx"/><use transform="matrix(0.05,0,0,0.05,12.950000000000001,0)" xlink:href="#bt"/><use transform="matrix(0.05,0,0,0.05,16.900000000000002,0)" xlink:href="#bN"/><use transform="matrix(0.05,0,0,0.05,21.55,0)" xlink:href="#bN"/><use transform="matrix(0.05,0,0,0.05,26.55,0)" xlink:href="#bG"/><use transform="matrix(0.05,0,0,0.05,36.55,0)" xlink:href="#bk"/><use transform="matrix(0.05,0,0,0.05,42.5,0)" xlink:href="#bG"/><use transform="matrix(0.05,0,0,0.05,52.5,0)" xlink:href="#br"/><use transform="matrix(0.05,0,0,0.05,62.5,0)" xlink:href="#bh"/></g><g id="H"><use transform="matrix(0.05,0,0,0.05,0,0)" xlink:href="#bi"/><use transform="matrix(0.05,0,0,0.05,10,0)" xlink:href="#bk"/><use transform="matrix(0.05,0,0,0.05,15.949999999999998,0)" xlink:href="#bq"/><use transform="matrix(0.05,0,0,0.05,25.950000000000003,0)" xlink:href="#bp"/></g><use transform="matrix(0.05,0,0,0.05,0,0)" xlink:href="#by" id="I"/><g id="J"><use transform="matrix(0.05,0,0,0.05,0,0)" xlink:href="#bj"/><use transform="matrix(0.05,0,0,0.05,9,0)" xlink:href="#bq"/><use transform="matrix(0.05,0,0,0.05,19,0)" xlink:href="#bk"/><use transform="matrix(0.05,0,0,0.05,24.95,0)" xlink:href="#bk"/><use transform="matrix(0.05,0,0,0.05,30.899999999999995,0)" xlink:href="#bG"/><use transform="matrix(0.05,0,0,0.05,40.9,0)" xlink:href="#br"/><use transform="matrix(0.05,0,0,0.05,50.9,0)" xlink:href="#bh"/></g><path d="M63-220v92h138v28H63V0H30v-248h175v28H63" id="bX"/><path d="M206 0h-36l-40-164L89 0H53L-1-190h32L70-26l43-164h34l41 164 42-164h31" id="bY"/><g id="K"><use transform="matrix(0.05,0,0,0.05,0,0)" xlink:href="#bX"/><use transform="matrix(0.05,0,0,0.05,10.950000000000001,0)" xlink:href="#bg"/><use transform="matrix(0.05,0,0,0.05,20.950000000000003,0)" xlink:href="#bH"/><use transform="matrix(0.05,0,0,0.05,24.900000000000002,0)" xlink:href="#bH"/><use transform="matrix(0.05,0,0,0.05,28.85,0)" xlink:href="#bg"/><use transform="matrix(0.05,0,0,0.05,38.85,0)" xlink:href="#bY"/></g><g id="L"><use transform="matrix(0.05,0,0,0.05,0,0)" xlink:href="#bq"/><use transform="matrix(0.05,0,0,0.05,10,0)" xlink:href="#bK"/></g><path d="M126-127c33 6 58 20 58 59 0 88-139 92-164 29-3-8-5-16-6-25l32-3c6 27 21 44 54 44 32 0 52-15 52-46 0-38-36-46-79-43v-28c39 1 72-4 72-42 0-27-17-43-46-43-28 0-47 15-49 41l-32-3c6-42 35-63 81-64 48-1 79 21 79 65 0 36-21 52-52 59" id="bZ"/><g id="M"><use transform="matrix(0.05,0,0,0.05,0,0)" xlink:href="#bZ"/><use transform="matrix(0.05,0,0,0.05,10,0)" xlink:href="#by"/><use transform="matrix(0.05,0,0,0.05,15.949999999999998,0)" xlink:href="#bO"/></g><g id="N"><use transform="matrix(0.05,0,0,0.05,0,0)" xlink:href="#bP"/><use transform="matrix(0.05,0,0,0.05,14.950000000000001,0)" xlink:href="#bg"/><use transform="matrix(0.05,0,0,0.05,24.950000000000003,0)" xlink:href="#br"/><use transform="matrix(0.05,0,0,0.05,34.95,0)" xlink:href="#bh"/><use transform="matrix(0.05,0,0,0.05,39.95,0)" xlink:href="#bT"/><use transform="matrix(0.05,0,0,0.05,49.95,0)" xlink:href="#bu"/></g><g id="O"><use transform="matrix(0.05,0,0,0.05,0,0)" xlink:href="#bS"/><use transform="matrix(0.05,0,0,0.05,12,0)" xlink:href="#bi"/><use transform="matrix(0.05,0,0,0.05,22,0)" xlink:href="#bs"/><use transform="matrix(0.05,0,0,0.05,31,0)" xlink:href="#bG"/><use transform="matrix(0.05,0,0,0.05,41,0)" xlink:href="#bk"/><use transform="matrix(0.05,0,0,0.05,46.95,0)" xlink:href="#bu"/><use transform="matrix(0.05,0,0,0.05,55.95,0)" xlink:href="#bG"/></g><g id="P"><use transform="matrix(0.05,0,0,0.05,0,0)" xlink:href="#bG"/><use transform="matrix(0.05,0,0,0.05,10,0)" xlink:href="#bN"/><use transform="matrix(0.05,0,0,0.05,14.65,0)" xlink:href="#bN"/><use transform="matrix(0.05,0,0,0.05,19.65,0)" xlink:href="#bG"/><use transform="matrix(0.05,0,0,0.05,29.649999999999995,0)" xlink:href="#bj"/><use transform="matrix(0.05,0,0,0.05,38.65,0)" xlink:href="#bh"/><use transform="matrix(0.05,0,0,0.05,43.65,0)" xlink:href="#bu"/><use transform="matrix(0.05,0,0,0.05,52.650000000000006,0)" xlink:href="#bE"/></g><path d="M230 0l2-204L168 0h-37L68-204 70 0H24v-248h70l56 185 57-185h69V0h-46" id="ca"/><path d="M24 0v-248h52V0H24" id="cb"/><g id="Q"><use transform="matrix(0.04938271604938272,0,0,0.04938271604938272,0,0)" xlink:href="#ca"/><use transform="matrix(0.04938271604938272,0,0,0.04938271604938272,14.765432098765434,0)" xlink:href="#cb"/></g><path d="M185-48c-13 30-37 53-82 52C43 2 14-33 14-96s30-98 90-98c62 0 83 45 84 108H66c0 31 8 55 39 56 18 0 30-7 34-22zm-45-69c5-46-57-63-70-21-2 6-4 13-4 21h74" id="cc"/><path d="M128 0H69L1-190h53L99-40l48-150h52" id="cd"/><path d="M135-194c87-1 58 113 63 194h-50c-7-57 23-157-34-157-59 0-34 97-39 157H25l-1-190h47c2 12-1 28 3 38 12-26 28-41 61-42" id="ce"/><path d="M115-3C79 11 28 4 28-45v-112H4v-33h27l15-45h31v45h36v33H77v99c-1 23 16 31 38 25v30" id="cf"/><path d="M110-251c83-7 118 89 53 130-17 10-36 21-38 46H78c2-56 65-53 71-103 2-21-15-35-38-34-25 1-41 14-44 38l-50-2c6-48 39-70 93-75zM77 0v-47h51V0H77" id="cg"/><g id="R"><use transform="matrix(0.04938271604938272,0,0,0.04938271604938272,0,0)" xlink:href="#cc"/><use transform="matrix(0.04938271604938272,0,0,0.04938271604938272,9.876543209876544,0)" xlink:href="#cd"/><use transform="matrix(0.04938271604938272,0,0,0.04938271604938272,19.75308641975309,0)" xlink:href="#cc"/><use transform="matrix(0.04938271604938272,0,0,0.04938271604938272,29.629629629629633,0)" xlink:href="#ce"/><use transform="matrix(0.04938271604938272,0,0,0.04938271604938272,40.44444444444445,0)" xlink:href="#cf"/><use transform="matrix(0.04938271604938272,0,0,0.04938271604938272,46.320987654320994,0)" xlink:href="#cg"/></g><g id="S"><use transform="matrix(0.05,0,0,0.05,0,0)" xlink:href="#bV"/><use transform="matrix(0.05,0,0,0.05,12,0)" xlink:href="#bj"/><use transform="matrix(0.05,0,0,0.05,21,0)" xlink:href="#bT"/><use transform="matrix(0.05,0,0,0.05,31,0)" xlink:href="#bG"/><use transform="matrix(0.05,0,0,0.05,41,0)" xlink:href="#bi"/><use transform="matrix(0.05,0,0,0.05,51,0)" xlink:href="#bq"/><use transform="matrix(0.05,0,0,0.05,61,0)" xlink:href="#bH"/><use transform="matrix(0.05,0,0,0.05,64.95,0)" xlink:href="#bG"/><use transform="matrix(0.05,0,0,0.05,74.95,0)" xlink:href="#bi"/></g><g id="T"><use transform="matrix(0.05,0,0,0.05,0,0)" xlink:href="#bN"/><use transform="matrix(0.05,0,0,0.05,5,0)" xlink:href="#bg"/><use transform="matrix(0.05,0,0,0.05,15,0)" xlink:href="#bH"/><use transform="matrix(0.05,0,0,0.05,18.95,0)" xlink:href="#bH"/><use transform="matrix(0.05,0,0,0.05,22.9,0)" xlink:href="#bg"/><use transform="matrix(0.05,0,0,0.05,32.9,0)" xlink:href="#bY"/></g><g id="U"><use transform="matrix(0.05,0,0,0.05,0,0)" xlink:href="#bq"/><use transform="matrix(0.05,0,0,0.05,10,0)" xlink:href="#bK"/><use transform="matrix(0.05,0,0,0.05,20,0)" xlink:href="#bE"/></g><g id="V"><use transform="matrix(0.05,0,0,0.05,0,0)" xlink:href="#bQ"/><use transform="matrix(0.05,0,0,0.05,12,0)" xlink:href="#bn"/><use transform="matrix(0.05,0,0,0.05,22,0)" xlink:href="#bj"/><use transform="matrix(0.05,0,0,0.05,31,0)" xlink:href="#bo"/><use transform="matrix(0.05,0,0,0.05,40,0)" xlink:href="#bp"/><use transform="matrix(0.05,0,0,0.05,50,0)" xlink:href="#bk"/><use transform="matrix(0.05,0,0,0.05,55.95,0)" xlink:href="#bg"/><use transform="matrix(0.05,0,0,0.05,65.95,0)" xlink:href="#bq"/><use transform="matrix(0.05,0,0,0.05,75.95,0)" xlink:href="#br"/><use transform="matrix(0.05,0,0,0.05,85.95,0)" xlink:href="#bi"/></g><g id="W"><use transform="matrix(0.05,0,0,0.05,0,0)" xlink:href="#bs"/><use transform="matrix(0.05,0,0,0.05,9,0)" xlink:href="#bt"/><use transform="matrix(0.05,0,0,0.05,12.949999999999998,0)" xlink:href="#bu"/><use transform="matrix(0.05,0,0,0.05,21.95,0)" xlink:href="#bt"/><use transform="matrix(0.05,0,0,0.05,25.899999999999995,0)" xlink:href="#bh"/><use transform="matrix(0.05,0,0,0.05,30.899999999999995,0)" xlink:href="#bE"/></g><g id="X"><use transform="matrix(0.05,0,0,0.05,0,0)" xlink:href="#bf"/><use transform="matrix(0.05,0,0,0.05,14,0)" xlink:href="#bg"/></g><g id="Y"><use transform="matrix(0.05,0,0,0.05,0,0)" xlink:href="#bh"/><use transform="matrix(0.05,0,0,0.05,5,0)" xlink:href="#bg"/></g><g id="Z"><use transform="matrix(0.05,0,0,0.05,0,0)" xlink:href="#bi"/><use transform="matrix(0.05,0,0,0.05,10,0)" xlink:href="#bg"/><use transform="matrix(0.05,0,0,0.05,20,0)" xlink:href="#bj"/><use transform="matrix(0.05,0,0,0.05,29,0)" xlink:href="#bh"/><use transform="matrix(0.05,0,0,0.05,34,0)" xlink:href="#bg"/><use transform="matrix(0.05,0,0,0.05,44,0)" xlink:href="#bk"/></g><g id="aa"><use transform="matrix(0.05,0,0,0.05,0,0)" xlink:href="#bl"/><use transform="matrix(0.05,0,0,0.05,5.95,0)" xlink:href="#bK"/><use transform="matrix(0.05,0,0,0.05,15.949999999999998,0)" xlink:href="#bg"/><use transform="matrix(0.05,0,0,0.05,25.950000000000003,0)" xlink:href="#bu"/><use transform="matrix(0.05,0,0,0.05,34.95,0)" xlink:href="#bh"/></g><path d="M240 0l2-218c-23 76-54 145-80 218h-23L58-218 59 0H30v-248h44l77 211c21-75 51-140 76-211h43V0h-30" id="ch"/><path d="M33 0v-248h34V0H33" id="ci"/><g id="ab"><use transform="matrix(0.05,0,0,0.05,0,0)" xlink:href="#ch"/><use transform="matrix(0.05,0,0,0.05,14.950000000000001,0)" xlink:href="#ci"/></g><g id="ac"><use transform="matrix(0.05,0,0,0.05,0,0)" xlink:href="#bs"/><use transform="matrix(0.05,0,0,0.05,9,0)" xlink:href="#bt"/><use transform="matrix(0.05,0,0,0.05,12.949999999999998,0)" xlink:href="#bu"/><use transform="matrix(0.05,0,0,0.05,21.95,0)" xlink:href="#bt"/><use transform="matrix(0.05,0,0,0.05,25.899999999999995,0)" xlink:href="#bh"/><use transform="matrix(0.05,0,0,0.05,30.899999999999995,0)" xlink:href="#bv"/></g><g id="ad"><use transform="matrix(0.05,0,0,0.05,0,0)" xlink:href="#bP"/><use transform="matrix(0.05,0,0,0.05,14.950000000000001,0)" xlink:href="#bG"/><use transform="matrix(0.05,0,0,0.05,24.950000000000003,0)" xlink:href="#bn"/><use transform="matrix(0.05,0,0,0.05,34.95,0)" xlink:href="#bu"/><use transform="matrix(0.05,0,0,0.05,43.95,0)" xlink:href="#bq"/><use transform="matrix(0.05,0,0,0.05,53.95,0)" xlink:href="#bk"/><use transform="matrix(0.05,0,0,0.05,59.900000000000006,0)" xlink:href="#bG"/></g><g id="ae"><use transform="matrix(0.05,0,0,0.05,0,0)" xlink:href="#bw"/><use transform="matrix(0.05,0,0,0.05,10,0)" xlink:href="#bx"/><use transform="matrix(0.05,0,0,0.05,22.950000000000003,0)" xlink:href="#bw"/><use transform="matrix(0.05,0,0,0.05,32.95,0)" xlink:href="#by"/><use transform="matrix(0.05,0,0,0.05,38.900000000000006,0)" xlink:href="#bz"/></g><g id="af"><use transform="matrix(0.05,0,0,0.05,0,0)" xlink:href="#bl"/><use transform="matrix(0.05,0,0,0.05,5.95,0)" xlink:href="#bN"/><use transform="matrix(0.05,0,0,0.05,10.95,0)" xlink:href="#bg"/><use transform="matrix(0.05,0,0,0.05,20.95,0)" xlink:href="#bH"/><use transform="matrix(0.05,0,0,0.05,24.9,0)" xlink:href="#bH"/><use transform="matrix(0.05,0,0,0.05,28.849999999999994,0)" xlink:href="#bg"/><use transform="matrix(0.05,0,0,0.05,38.849999999999994,0)" xlink:href="#bY"/></g><g id="ag"><use transform="matrix(0.05,0,0,0.05,0,0)" xlink:href="#bq"/><use transform="matrix(0.05,0,0,0.05,10,0)" xlink:href="#bK"/></g><path d="M9 0v-24l116-142H16v-24h144v24L44-24h123V0H9" id="cj"/><g id="ah"><use transform="matrix(0.05,0,0,0.05,0,0)" xlink:href="#bl"/><use transform="matrix(0.05,0,0,0.05,5.95,0)" xlink:href="#bq"/><use transform="matrix(0.05,0,0,0.05,15.949999999999998,0)" xlink:href="#bh"/><use transform="matrix(0.05,0,0,0.05,20.95,0)" xlink:href="#bt"/><use transform="matrix(0.05,0,0,0.05,24.9,0)" xlink:href="#bH"/><use transform="matrix(0.05,0,0,0.05,28.849999999999994,0)" xlink:href="#bt"/><use transform="matrix(0.05,0,0,0.05,32.8,0)" xlink:href="#cj"/><use transform="matrix(0.05,0,0,0.05,41.8,0)" xlink:href="#bn"/><use transform="matrix(0.05,0,0,0.05,51.79999999999999,0)" xlink:href="#bh"/><use transform="matrix(0.05,0,0,0.05,56.79999999999999,0)" xlink:href="#bt"/><use transform="matrix(0.05,0,0,0.05,60.75,0)" xlink:href="#bg"/><use transform="matrix(0.05,0,0,0.05,70.75,0)" xlink:href="#br"/><use transform="matrix(0.05,0,0,0.05,80.75,0)" xlink:href="#bv"/></g><g id="ai"><use transform="matrix(0.05,0,0,0.05,0,0)" xlink:href="#bF"/><use transform="matrix(0.05,0,0,0.05,10.35,0)" xlink:href="#bG"/><use transform="matrix(0.05,0,0,0.05,20.35,0)" xlink:href="#bu"/></g><g id="aj"><use transform="matrix(0.05,0,0,0.05,0,0)" xlink:href="#ch"/><use transform="matrix(0.05,0,0,0.05,14.950000000000001,0)" xlink:href="#bG"/><use transform="matrix(0.05,0,0,0.05,24.950000000000003,0)" xlink:href="#bn"/><use transform="matrix(0.05,0,0,0.05,34.95,0)" xlink:href="#bu"/><use transform="matrix(0.05,0,0,0.05,43.95,0)" xlink:href="#bq"/><use transform="matrix(0.05,0,0,0.05,53.95,0)" xlink:href="#bk"/><use transform="matrix(0.05,0,0,0.05,59.900000000000006,0)" xlink:href="#bG"/></g><g id="ak"><use transform="matrix(0.05,0,0,0.05,0,0)" xlink:href="#bw"/><use transform="matrix(0.05,0,0,0.05,10,0)" xlink:href="#bx"/><use transform="matrix(0.05,0,0,0.05,22.950000000000003,0)" xlink:href="#bw"/><use transform="matrix(0.05,0,0,0.05,32.95,0)" xlink:href="#by"/><use transform="matrix(0.05,0,0,0.05,38.900000000000006,0)" xlink:href="#bz"/><use transform="matrix(0.05,0,0,0.05,51.85,0)" xlink:href="#bE"/></g><path d="M64 0c3-98 48-159 88-221H18v-27h164v26C143-157 98-101 97 0H64" id="ck"/><g id="al"><use transform="matrix(0.05,0,0,0.05,0,0)" xlink:href="#ck"/><use transform="matrix(0.05,0,0,0.05,10,0)" xlink:href="#bv"/></g><path d="M179-190L93 31C79 59 56 82 12 73V49c39 6 53-20 64-50L1-190h34L92-34l54-156h33" id="cl"/><g id="am"><use transform="matrix(0.05,0,0,0.05,0,0)" xlink:href="#bz"/><use transform="matrix(0.05,0,0,0.05,12.950000000000001,0)" xlink:href="#bq"/><use transform="matrix(0.05,0,0,0.05,22.950000000000003,0)" xlink:href="#bk"/><use transform="matrix(0.05,0,0,0.05,28.900000000000002,0)" xlink:href="#bk"/><use transform="matrix(0.05,0,0,0.05,34.85,0)" xlink:href="#bG"/><use transform="matrix(0.05,0,0,0.05,44.85,0)" xlink:href="#br"/><use transform="matrix(0.05,0,0,0.05,54.85,0)" xlink:href="#bh"/><use transform="matrix(0.05,0,0,0.05,59.85,0)" xlink:href="#bH"/><use transform="matrix(0.05,0,0,0.05,63.800000000000004,0)" xlink:href="#cl"/></g><g id="an"><use transform="matrix(0.05,0,0,0.05,0,0)" xlink:href="#bg"/><use transform="matrix(0.05,0,0,0.05,10,0)" xlink:href="#br"/></g><g id="ao"><use transform="matrix(0.05,0,0,0.05,0,0)" xlink:href="#bP"/><use transform="matrix(0.05,0,0,0.05,14.950000000000001,0)" xlink:href="#bn"/><use transform="matrix(0.05,0,0,0.05,24.950000000000003,0)" xlink:href="#bM"/></g><g id="ap"><use transform="matrix(0.05,0,0,0.05,0,0)" xlink:href="#bi"/><use transform="matrix(0.05,0,0,0.05,10,0)" xlink:href="#bg"/><use transform="matrix(0.05,0,0,0.05,20,0)" xlink:href="#bu"/><use transform="matrix(0.05,0,0,0.05,29,0)" xlink:href="#bG"/><use transform="matrix(0.05,0,0,0.05,39,0)" xlink:href="#bE"/></g><g id="aq"><use transform="matrix(0.05,0,0,0.05,0,0)" xlink:href="#bS"/><use transform="matrix(0.05,0,0,0.05,12,0)" xlink:href="#bi"/><use transform="matrix(0.05,0,0,0.05,22,0)" xlink:href="#bi"/></g><g id="ar"><use transform="matrix(0.05,0,0,0.05,0,0)" xlink:href="#bW"/><use transform="matrix(0.05,0,0,0.05,12,0)" xlink:href="#cj"/><use transform="matrix(0.05,0,0,0.05,21,0)" xlink:href="#bG"/><use transform="matrix(0.05,0,0,0.05,31,0)" xlink:href="#bh"/><use transform="matrix(0.05,0,0,0.05,36,0)" xlink:href="#bt"/><use transform="matrix(0.05,0,0,0.05,39.95,0)" xlink:href="#bP"/><use transform="matrix(0.05,0,0,0.05,54.900000000000006,0)" xlink:href="#bt"/><use transform="matrix(0.05,0,0,0.05,58.85,0)" xlink:href="#bm"/><use transform="matrix(0.05,0,0,0.05,68.85000000000001,0)" xlink:href="#bG"/></g><g id="as"><use transform="matrix(0.05,0,0,0.05,0,0)" xlink:href="#bx"/><use transform="matrix(0.05,0,0,0.05,12.950000000000001,0)" xlink:href="#bg"/><use transform="matrix(0.05,0,0,0.05,22.950000000000003,0)" xlink:href="#bq"/><use transform="matrix(0.05,0,0,0.05,32.95,0)" xlink:href="#bm"/><use transform="matrix(0.05,0,0,0.05,42.95,0)" xlink:href="#bH"/><use transform="matrix(0.05,0,0,0.05,46.900000000000006,0)" xlink:href="#bG"/></g><g id="at"><use transform="matrix(0.05,0,0,0.05,0,0)" xlink:href="#bh"/><use transform="matrix(0.05,0,0,0.05,5,0)" xlink:href="#bn"/><use transform="matrix(0.05,0,0,0.05,15,0)" xlink:href="#bm"/><use transform="matrix(0.05,0,0,0.05,25,0)" xlink:href="#bH"/><use transform="matrix(0.05,0,0,0.05,28.950000000000003,0)" xlink:href="#bG"/></g><use transform="matrix(0.05,0,0,0.05,0,0)" xlink:href="#bI" id="au"/><path d="M18-150v-26h174v26H18zm0 90v-26h174v26H18" id="cm"/><use transform="matrix(0.05,0,0,0.05,0,0)" xlink:href="#cm" id="av"/><g id="aw"><use transform="matrix(0.05,0,0,0.05,0,0)" xlink:href="#bK"/><use transform="matrix(0.05,0,0,0.05,10,0)" xlink:href="#bk"/><use transform="matrix(0.05,0,0,0.05,15.949999999999998,0)" xlink:href="#bg"/><use transform="matrix(0.05,0,0,0.05,25.950000000000003,0)" xlink:href="#bm"/><use transform="matrix(0.05,0,0,0.05,35.95,0)" xlink:href="#bn"/><use transform="matrix(0.05,0,0,0.05,45.95,0)" xlink:href="#bm"/><use transform="matrix(0.05,0,0,0.05,55.95,0)" xlink:href="#bt"/><use transform="matrix(0.05,0,0,0.05,59.900000000000006,0)" xlink:href="#bH"/><use transform="matrix(0.05,0,0,0.05,63.85,0)" xlink:href="#bt"/><use transform="matrix(0.05,0,0,0.05,67.80000000000001,0)" xlink:href="#bh"/><use transform="matrix(0.05,0,0,0.05,72.80000000000001,0)" xlink:href="#cl"/></g><g id="ax"><use transform="matrix(0.05,0,0,0.05,0,0)" xlink:href="#bg"/><use transform="matrix(0.05,0,0,0.05,10,0)" xlink:href="#bN"/></g><g id="ay"><use transform="matrix(0.05,0,0,0.05,0,0)" xlink:href="#bT"/><use transform="matrix(0.05,0,0,0.05,10,0)" xlink:href="#bn"/><use transform="matrix(0.05,0,0,0.05,20,0)" xlink:href="#bs"/><use transform="matrix(0.05,0,0,0.05,29,0)" xlink:href="#bt"/><use transform="matrix(0.05,0,0,0.05,32.95,0)" xlink:href="#br"/><use transform="matrix(0.05,0,0,0.05,42.95,0)" xlink:href="#bp"/></g><g id="az"><use transform="matrix(0.05,0,0,0.05,0,0)" xlink:href="#bw"/><use transform="matrix(0.05,0,0,0.05,10,0)" xlink:href="#bx"/><use transform="matrix(0.05,0,0,0.05,22.950000000000003,0)" xlink:href="#bw"/><use transform="matrix(0.05,0,0,0.05,32.95,0)" xlink:href="#by"/><use transform="matrix(0.05,0,0,0.05,38.900000000000006,0)" xlink:href="#bz"/></g><g id="aA"><use transform="matrix(0.05,0,0,0.05,0,0)" xlink:href="#bP"/><use transform="matrix(0.05,0,0,0.05,14.950000000000001,0)" xlink:href="#bG"/><use transform="matrix(0.05,0,0,0.05,24.950000000000003,0)" xlink:href="#bn"/><use transform="matrix(0.05,0,0,0.05,34.95,0)" xlink:href="#bu"/><use transform="matrix(0.05,0,0,0.05,43.95,0)" xlink:href="#bq"/><use transform="matrix(0.05,0,0,0.05,53.95,0)" xlink:href="#bk"/><use transform="matrix(0.05,0,0,0.05,59.900000000000006,0)" xlink:href="#bG"/><use transform="matrix(0.05,0,0,0.05,69.9,0)" xlink:href="#bi"/></g><use transform="matrix(0.05,0,0,0.05,0,0)" xlink:href="#bR" id="aB"/><g id="aC"><use transform="matrix(0.05,0,0,0.05,0,0)" xlink:href="#bL"/><use transform="matrix(0.05,0,0,0.05,12.950000000000001,0)" xlink:href="#bM"/></g><g id="aD"><use transform="matrix(0.05,0,0,0.05,0,0)" xlink:href="#bp"/><use transform="matrix(0.05,0,0,0.05,10,0)" xlink:href="#bt"/><use transform="matrix(0.05,0,0,0.05,13.949999999999998,0)" xlink:href="#bs"/><use transform="matrix(0.05,0,0,0.05,22.95,0)" xlink:href="#bG"/><use transform="matrix(0.05,0,0,0.05,32.95,0)" xlink:href="#br"/></g><g id="aE"><use transform="matrix(0.05,0,0,0.05,0,0)" xlink:href="#bT"/><use transform="matrix(0.05,0,0,0.05,10,0)" xlink:href="#bt"/><use transform="matrix(0.05,0,0,0.05,13.949999999999998,0)" xlink:href="#bp"/><use transform="matrix(0.05,0,0,0.05,23.95,0)" xlink:href="#bT"/></g><g id="aF"><use transform="matrix(0.05,0,0,0.05,0,0)" xlink:href="#bw"/><use transform="matrix(0.05,0,0,0.05,10,0)" xlink:href="#bx"/><use transform="matrix(0.05,0,0,0.05,22.950000000000003,0)" xlink:href="#bw"/><use transform="matrix(0.05,0,0,0.05,32.95,0)" xlink:href="#by"/><use transform="matrix(0.05,0,0,0.05,38.900000000000006,0)" xlink:href="#bz"/></g><use transform="matrix(0.05,0,0,0.05,0,0)" xlink:href="#bZ" id="aG"/><g id="aH"><use transform="matrix(0.05,0,0,0.05,0,0)" xlink:href="#bk"/><use transform="matrix(0.05,0,0,0.05,5.95,0)" xlink:href="#bG"/><use transform="matrix(0.05,0,0,0.05,15.949999999999998,0)" xlink:href="#bn"/><use transform="matrix(0.05,0,0,0.05,25.950000000000003,0)" xlink:href="#bj"/><use transform="matrix(0.05,0,0,0.05,34.95,0)" xlink:href="#bT"/><use transform="matrix(0.05,0,0,0.05,44.95,0)" xlink:href="#bt"/><use transform="matrix(0.05,0,0,0.05,48.900000000000006,0)" xlink:href="#br"/><use transform="matrix(0.05,0,0,0.05,58.900000000000006,0)" xlink:href="#bp"/></g><g id="aI"><use transform="matrix(0.05,0,0,0.05,0,0)" xlink:href="#bh"/><use transform="matrix(0.05,0,0,0.05,5,0)" xlink:href="#bn"/><use transform="matrix(0.05,0,0,0.05,15,0)" xlink:href="#bk"/><use transform="matrix(0.05,0,0,0.05,20.95,0)" xlink:href="#bp"/><use transform="matrix(0.05,0,0,0.05,30.950000000000003,0)" xlink:href="#bG"/><use transform="matrix(0.05,0,0,0.05,40.95,0)" xlink:href="#bh"/></g><g id="aJ"><use transform="matrix(0.05,0,0,0.05,0,0)" xlink:href="#bL"/><use transform="matrix(0.05,0,0,0.05,12.950000000000001,0)" xlink:href="#bM"/></g><use transform="matrix(0.05,0,0,0.05,0,0)" xlink:href="#bB" id="aK"/><g id="aL"><use transform="matrix(0.05,0,0,0.05,0,0)" xlink:href="#bm"/><use transform="matrix(0.05,0,0,0.05,10,0)" xlink:href="#bG"/><use transform="matrix(0.05,0,0,0.05,20,0)" xlink:href="#bt"/><use transform="matrix(0.05,0,0,0.05,23.95,0)" xlink:href="#br"/><use transform="matrix(0.05,0,0,0.05,33.95,0)" xlink:href="#bp"/></g><g id="aM"><use transform="matrix(0.05,0,0,0.05,0,0)" xlink:href="#bn"/><use transform="matrix(0.05,0,0,0.05,10,0)" xlink:href="#bi"/><use transform="matrix(0.05,0,0,0.05,20,0)" xlink:href="#bT"/><use transform="matrix(0.05,0,0,0.05,30,0)" xlink:href="#bG"/><use transform="matrix(0.05,0,0,0.05,40,0)" xlink:href="#bk"/><use transform="matrix(0.05,0,0,0.05,45.95,0)" xlink:href="#bG"/><use transform="matrix(0.05,0,0,0.05,55.95,0)" xlink:href="#br"/><use transform="matrix(0.05,0,0,0.05,65.95,0)" xlink:href="#bh"/></g><path d="M54-142c48-35 137-8 131 61C196 18 31 33 14-55l32-4c7 23 22 37 52 37 35-1 51-22 54-58 4-55-73-65-99-34H22l8-134h141v27H59" id="cn"/><use transform="matrix(0.05,0,0,0.05,0,0)" xlink:href="#cn" id="aN"/><g id="aO"><use transform="matrix(0.05,0,0,0.05,0,0)" xlink:href="#bn"/><use transform="matrix(0.05,0,0,0.05,10,0)" xlink:href="#bi"/><use transform="matrix(0.05,0,0,0.05,20,0)" xlink:href="#bi"/><use transform="matrix(0.05,0,0,0.05,30,0)" xlink:href="#bt"/><use transform="matrix(0.05,0,0,0.05,33.95,0)" xlink:href="#br"/><use transform="matrix(0.05,0,0,0.05,43.95,0)" xlink:href="#bp"/></g><g id="aP"><use transform="matrix(0.05,0,0,0.05,0,0)" xlink:href="#bR"/><use transform="matrix(0.05,0,0,0.05,10,0)" xlink:href="#br"/><use transform="matrix(0.05,0,0,0.05,20,0)" xlink:href="#bi"/></g><g id="aQ"><use transform="matrix(0.05,0,0,0.05,0,0)" xlink:href="#bi"/><use transform="matrix(0.05,0,0,0.05,10,0)" xlink:href="#bk"/><use transform="matrix(0.05,0,0,0.05,15.949999999999998,0)" xlink:href="#bq"/><use transform="matrix(0.05,0,0,0.05,25.950000000000003,0)" xlink:href="#bp"/></g><g id="aR"><use transform="matrix(0.05,0,0,0.05,0,0)" xlink:href="#bs"/><use transform="matrix(0.05,0,0,0.05,7.65,0)" xlink:href="#bC"/></g><g id="aS"><use transform="matrix(0.05,0,0,0.05,0,0)" xlink:href="#bt"/><use transform="matrix(0.05,0,0,0.05,3.95,0)" xlink:href="#br"/><use transform="matrix(0.05,0,0,0.05,13.949999999999998,0)" xlink:href="#bj"/><use transform="matrix(0.05,0,0,0.05,22.95,0)" xlink:href="#bk"/><use transform="matrix(0.05,0,0,0.05,28.899999999999995,0)" xlink:href="#bG"/><use transform="matrix(0.05,0,0,0.05,38.9,0)" xlink:href="#bn"/><use transform="matrix(0.05,0,0,0.05,48.9,0)" xlink:href="#bu"/><use transform="matrix(0.05,0,0,0.05,57.900000000000006,0)" xlink:href="#bt"/><use transform="matrix(0.05,0,0,0.05,61.85,0)" xlink:href="#br"/><use transform="matrix(0.05,0,0,0.05,71.85,0)" xlink:href="#bp"/></g><g id="aT"><use transform="matrix(0.05,0,0,0.05,0,0)" xlink:href="#bi"/><use transform="matrix(0.05,0,0,0.05,10,0)" xlink:href="#bg"/><use transform="matrix(0.05,0,0,0.05,20,0)" xlink:href="#bu"/><use transform="matrix(0.05,0,0,0.05,29,0)" xlink:href="#bG"/></g><use transform="matrix(0.05,0,0,0.05,0,0)" xlink:href="#bO" id="aU"/><g id="aV"><use transform="matrix(0.05,0,0,0.05,0,0)" xlink:href="#bj"/><use transform="matrix(0.05,0,0,0.05,9,0)" xlink:href="#bq"/><use transform="matrix(0.05,0,0,0.05,19,0)" xlink:href="#bk"/><use transform="matrix(0.05,0,0,0.05,24.95,0)" xlink:href="#bk"/><use transform="matrix(0.05,0,0,0.05,30.899999999999995,0)" xlink:href="#bG"/><use transform="matrix(0.05,0,0,0.05,40.9,0)" xlink:href="#br"/><use transform="matrix(0.05,0,0,0.05,50.9,0)" xlink:href="#bh"/></g><g id="aW"><use transform="matrix(0.05,0,0,0.05,0,0)" xlink:href="#bh"/><use transform="matrix(0.05,0,0,0.05,5,0)" xlink:href="#bk"/><use transform="matrix(0.05,0,0,0.05,10.95,0)" xlink:href="#bG"/><use transform="matrix(0.05,0,0,0.05,20.95,0)" xlink:href="#bn"/><use transform="matrix(0.05,0,0,0.05,30.950000000000003,0)" xlink:href="#bh"/><use transform="matrix(0.05,0,0,0.05,35.95,0)" xlink:href="#bP"/><use transform="matrix(0.05,0,0,0.05,50.900000000000006,0)" xlink:href="#bG"/><use transform="matrix(0.05,0,0,0.05,60.900000000000006,0)" xlink:href="#br"/><use transform="matrix(0.05,0,0,0.05,70.9,0)" xlink:href="#bh"/></g><g id="aX"><use transform="matrix(0.05,0,0,0.05,0,0)" xlink:href="#bK"/><use transform="matrix(0.05,0,0,0.05,10,0)" xlink:href="#bk"/><use transform="matrix(0.05,0,0,0.05,15.949999999999998,0)" xlink:href="#bn"/><use transform="matrix(0.05,0,0,0.05,25.950000000000003,0)" xlink:href="#bj"/><use transform="matrix(0.05,0,0,0.05,34.95,0)" xlink:href="#bh"/><use transform="matrix(0.05,0,0,0.05,39.95,0)" xlink:href="#bt"/><use transform="matrix(0.05,0,0,0.05,43.900000000000006,0)" xlink:href="#bj"/><use transform="matrix(0.05,0,0,0.05,52.900000000000006,0)" xlink:href="#bG"/></g><use transform="matrix(0.05,0,0,0.05,0,0)" xlink:href="#by" id="aY"/><g id="aZ"><use transform="matrix(0.05,0,0,0.05,0,0)" xlink:href="#bi"/><use transform="matrix(0.05,0,0,0.05,10,0)" xlink:href="#bt"/><use transform="matrix(0.05,0,0,0.05,13.949999999999998,0)" xlink:href="#bu"/><use transform="matrix(0.05,0,0,0.05,22.95,0)" xlink:href="#bh"/><use transform="matrix(0.05,0,0,0.05,27.950000000000003,0)" xlink:href="#bk"/><use transform="matrix(0.05,0,0,0.05,33.9,0)" xlink:href="#bt"/><use transform="matrix(0.05,0,0,0.05,37.85,0)" xlink:href="#bm"/><use transform="matrix(0.05,0,0,0.05,47.85,0)" xlink:href="#bq"/><use transform="matrix(0.05,0,0,0.05,57.85,0)" xlink:href="#bh"/><use transform="matrix(0.05,0,0,0.05,62.85,0)" xlink:href="#bt"/><use transform="matrix(0.05,0,0,0.05,66.8,0)" xlink:href="#bg"/><use transform="matrix(0.05,0,0,0.05,76.8,0)" xlink:href="#br"/></g><g id="ba"><use transform="matrix(0.05,0,0,0.05,0,0)" xlink:href="#bm"/><use transform="matrix(0.05,0,0,0.05,10,0)" xlink:href="#cl"/></g><g id="bb"><use transform="matrix(0.05,0,0,0.05,0,0)" xlink:href="#bh"/><use transform="matrix(0.05,0,0,0.05,5,0)" xlink:href="#cl"/><use transform="matrix(0.05,0,0,0.05,14,0)" xlink:href="#bK"/><use transform="matrix(0.05,0,0,0.05,24,0)" xlink:href="#bG"/></g><use transform="matrix(0.05,0,0,0.05,0,0)" xlink:href="#ck" id="bc"/><g id="bd"><use transform="matrix(0.05,0,0,0.05,0,0)" xlink:href="#bu"/><use transform="matrix(0.05,0,0,0.05,9,0)" xlink:href="#bt"/><use transform="matrix(0.05,0,0,0.05,12.949999999999998,0)" xlink:href="#bi"/><use transform="matrix(0.05,0,0,0.05,22.95,0)" xlink:href="#bG"/></g><g id="be"><use transform="matrix(0.05,0,0,0.05,0,0)" xlink:href="#bG"/><use transform="matrix(0.05,0,0,0.05,10,0)" xlink:href="#bN"/><use transform="matrix(0.05,0,0,0.05,14.65,0)" xlink:href="#bN"/><use transform="matrix(0.05,0,0,0.05,19.65,0)" xlink:href="#bG"/><use transform="matrix(0.05,0,0,0.05,29.649999999999995,0)" xlink:href="#bj"/><use transform="matrix(0.05,0,0,0.05,38.65,0)" xlink:href="#bh"/></g></defs></g></svg>