<svg xmlns="http://www.w3.org/2000/svg" xmlns:xlink="http://www.w3.org/1999/xlink" xmlns:lucid="lucid" width="1971" height="620"><g transform="translate(-1160 -360)" lucid:page-tab-id="0_0"><path d="M0 0h4292v2777.17H0z" fill="#fff"/><path d="M1180 580h160v160h-160z" stroke="#000" stroke-width="2" fill="#fff"/><use xlink:href="#a" transform="matrix(1,0,0,1,1185,585) translate(32.55 23.775)"/><use xlink:href="#b" transform="matrix(1,0,0,1,1185,585) translate(75 45.375)"/><use xlink:href="#c" transform="matrix(1,0,0,1,1185,585) translate(49.074999999999996 66.97500000000001)"/><use xlink:href="#d" transform="matrix(1,0,0,1,1185,585) translate(57 88.57500000000002)"/><use xlink:href="#e" transform="matrix(1,0,0,1,1185,585) translate(56.525 110.17500000000001)"/><use xlink:href="#f" transform="matrix(1,0,0,1,1185,585) translate(40 131.775)"/><use xlink:href="#g" transform="matrix(1,0,0,1,1185,585) translate(82 131.775)"/><path d="M1420 580h160v160h-160z" stroke="#000" stroke-width="2" fill="#fff"/><use xlink:href="#h" transform="matrix(1,0,0,1,1425,585) translate(30.599999999999994 80.025)"/><use xlink:href="#i" transform="matrix(1,0,0,1,1425,585) translate(88.5 80.025)"/><path d="M1260 742v38.5" stroke="#000" stroke-width="2" fill="none"/><path d="M1261 742.03h-2V741h2z"/><path d="M1260 795.76l-4.64-14.26h9.28z" stroke="#000" stroke-width="2"/><path d="M1660 580h160v160h-160z" stroke="#000" stroke-width="2" fill="#fff"/><use xlink:href="#j" transform="matrix(1,0,0,1,1665,585) translate(11.624999999999993 80.025)"/><use xlink:href="#k" transform="matrix(1,0,0,1,1665,585) translate(86.525 80.025)"/><path d="M1582 660h58.5" stroke="#000" stroke-width="2" fill="none"/><path d="M1582.03 661H1581v-2h1.03z"/><path d="M1655.76 660l-14.26 4.64v-9.28z" stroke="#000" stroke-width="2"/><path d="M1822 660h58.5" stroke="#000" stroke-width="2" fill="none"/><path d="M1822.03 661H1821v-2h1.03z"/><path d="M1895.76 660l-14.26 4.64v-9.28z" stroke="#000" stroke-width="2"/><path d="M1900 580h160v160h-160z" stroke="#000" stroke-width="2" fill="#fff"/><use xlink:href="#l" transform="matrix(1,0,0,1,1905,585) translate(14.875 65.9625)"/><use xlink:href="#m" transform="matrix(1,0,0,1,1905,585) translate(61.125 65.9625)"/><use xlink:href="#n" transform="matrix(1,0,0,1,1905,585) translate(115.125 65.9625)"/><use xlink:href="#o" transform="matrix(1,0,0,1,1905,585) translate(13.099999999999994 87.5625)"/><use xlink:href="#p" transform="matrix(1,0,0,1,1905,585) translate(74 87.5625)"/><path d="M2671.5 580h160v160h-160z" stroke="#000" stroke-width="2" fill="#fff"/><use xlink:href="#q" transform="matrix(1,0,0,1,2676.4939759036142,585) translate(9.125 65.9625)"/><use xlink:href="#r" transform="matrix(1,0,0,1,2676.4939759036142,585) translate(65.92500000000001 65.9625)"/><use xlink:href="#s" transform="matrix(1,0,0,1,2676.4939759036142,585) translate(90.92500000000001 65.9625)"/><use xlink:href="#i" transform="matrix(1,0,0,1,2676.4939759036142,585) translate(59.55 87.5625)"/><path d="M2593.5 610.5h38v-.5h20.5" stroke="#000" stroke-width="2" fill="none"/><path d="M2593.52 611.5h-1.03v-2h1.02z"/><path d="M2667.26 610l-14.27 4.64v-9.28z" stroke="#000" stroke-width="2"/><path d="M2920.5 679.5h160v60h-160z" stroke="#000" stroke-width="2" fill="#fff"/><use xlink:href="#t" transform="matrix(1,0,0,1,2925.4939759036142,684.5060240963855) translate(25.549999999999997 30.025)"/><use xlink:href="#u" transform="matrix(1,0,0,1,2925.4939759036142,684.5060240963855) translate(58.5 30.025)"/><use xlink:href="#v" transform="matrix(1,0,0,1,2925.4939759036142,684.5060240963855) translate(78.5 30.025)"/><path d="M2920.5 580h160v60h-160z" stroke="#000" stroke-width="2" fill="#fff"/><use xlink:href="#w" transform="matrix(1,0,0,1,2925.4939759036142,585) translate(41.025 30.025)"/><use xlink:href="#v" transform="matrix(1,0,0,1,2925.4939759036142,585) translate(63.025 30.025)"/><path d="M2832.5 612.9h68.5M2832.52 612.9h-1.03" stroke="#000" stroke-width="2" fill="none"/><path d="M2916.26 612.9l-14.27 4.63v-9.27z" stroke="#000" stroke-width="2"/><path d="M2832.5 707.27h68.5M2832.52 707.27h-1.03" stroke="#000" stroke-width="2" fill="none"/><path d="M2916.26 707.27L2902 711.9v-9.27z" stroke="#000" stroke-width="2"/><path d="M1180 800h160v160h-160z" stroke="#000" stroke-width="2" fill="#fff"/><use xlink:href="#x" transform="matrix(1,0,0,1,1185,805) translate(26.099999999999994 65.9625)"/><use xlink:href="#n" transform="matrix(1,0,0,1,1185,805) translate(103.9 65.9625)"/><use xlink:href="#y" transform="matrix(1,0,0,1,1185,805) translate(37.05 87.5625)"/><path d="M1342 660h58.5" stroke="#000" stroke-width="2" fill="none"/><path d="M1342.03 661H1341v-2h1.03z"/><path d="M1415.76 660l-14.26 4.64v-9.28z" stroke="#000" stroke-width="2"/><path d="M2920.5 480h160v60h-160z" stroke="#000" stroke-width="2" fill="#fff"/><use xlink:href="#z" transform="matrix(1,0,0,1,2925.4939759036142,485) translate(23.549999999999997 17.525)"/><use xlink:href="#A" transform="matrix(1,0,0,1,2925.4939759036142,485) translate(70.55 17.525)"/><use xlink:href="#y" transform="matrix(1,0,0,1,2925.4939759036142,485) translate(37.05 39.125)"/><path d="M3000.5 578v-18.5" stroke="#000" stroke-width="2" fill="none"/><path d="M3001.5 579h-2v-1.03h2z"/><path d="M3000.5 544.24l4.63 14.26h-9.27z" stroke="#000" stroke-width="2"/><path d="M2918.5 510h-167v50.5" stroke="#000" stroke-width="2" fill="none"/><path d="M2919.5 511h-1.03v-2h1.02z"/><path d="M2751.5 575.76l-4.64-14.26h9.27z" stroke="#000" stroke-width="2"/><path d="M1660 380h160v100h-160z" stroke="#000" stroke-width="2" fill="#fff"/><use xlink:href="#B" transform="matrix(1,0,0,1,1665,385) translate(0.6499999999999915 48.15)"/><use xlink:href="#C" transform="matrix(1,0,0,1,1665,385) translate(100.5 48.15)"/><path d="M1740 578v-78.5" stroke="#000" stroke-width="2" fill="none"/><path d="M1741 579h-2v-1.03h2z"/><path d="M1740 484.24l4.64 14.26h-9.28z" stroke="#000" stroke-width="2"/><path d="M1658 430h-158v130.5" stroke="#000" stroke-width="2" fill="none"/><path d="M1659 431h-1.03v-2h1.03z"/><path d="M1500 575.76l-4.64-14.26h9.28z" stroke="#000" stroke-width="2"/><path d="M2191.5 500h160v80h-160z" stroke="#000" stroke-width="2" fill="#fff"/><use xlink:href="#t" transform="matrix(1,0,0,1,2196.4939759036142,505) translate(23.049999999999997 38.4625)"/><use xlink:href="#D" transform="matrix(1,0,0,1,2196.4939759036142,505) translate(56 38.4625)"/><path d="M2062 636.24h63.75V540H2172" stroke="#000" stroke-width="2" fill="none"/><path d="M2062.03 637.24H2061v-2h1.03z"/><path d="M2187.26 540l-14.27 4.64v-9.28z" stroke="#000" stroke-width="2"/><path d="M2191.5 625.5h160v80h-160z" stroke="#000" stroke-width="2" fill="#fff"/><use xlink:href="#E" transform="matrix(1,0,0,1,2196.4939759036142,630.4939759036145) translate(38.525 27.525)"/><use xlink:href="#F" transform="matrix(1,0,0,1,2196.4939759036142,630.4939759036145) translate(38.574999999999996 49.125)"/><use xlink:href="#G" transform="matrix(1,0,0,1,2196.4939759036142,630.4939759036145) translate(83.525 49.125)"/><path d="M2062 664.74h110" stroke="#000" stroke-width="2" fill="none"/><path d="M2062.03 665.74H2061v-2h1.03z"/><path d="M2187.26 664.74l-14.27 4.63v-9.27z" stroke="#000" stroke-width="2"/><path d="M2593.5 720.5h38v-.5h20.5" stroke="#000" stroke-width="2" fill="none"/><path d="M2593.52 721.5h-1.03v-2h1.02z"/><path d="M2667.26 720l-14.27 4.64v-9.28z" stroke="#000" stroke-width="2"/><path d="M2431.5 680.5h160v80h-160z" stroke="#000" stroke-width="2" fill="#fff"/><g><use xlink:href="#H" transform="matrix(1,0,0,1,2436.4939759036142,685.4939759036145) translate(4.549999999999997 38.4625)"/><use xlink:href="#I" transform="matrix(1,0,0,1,2436.4939759036142,685.4939759036145) translate(32.5 38.4625)"/><use xlink:href="#J" transform="matrix(1,0,0,1,2436.4939759036142,685.4939759036145) translate(101.45 38.4625)"/></g><path d="M2431.5 570.5h160v80h-160z" stroke="#000" stroke-width="2" fill="#fff"/><g><use xlink:href="#K" transform="matrix(1,0,0,1,2436.4939759036142,575.4939759036145) translate(17.525 38.4625)"/><use xlink:href="#J" transform="matrix(1,0,0,1,2436.4939759036142,575.4939759036145) translate(88.475 38.4625)"/></g><path d="M2353.5 641.02h38V610.5h20.5" stroke="#000" stroke-width="2" fill="none"/><path d="M2353.52 642.02h-1.03v-2h1.02z"/><path d="M2427.26 610.5l-14.27 4.63v-9.27z" stroke="#000" stroke-width="2"/><path d="M2353.5 689.94h38v30.55h20.5" stroke="#000" stroke-width="2" fill="none"/><path d="M2353.52 690.94h-1.03v-2h1.02z"/><path d="M2427.26 720.5l-14.27 4.63v-9.27z" stroke="#000" stroke-width="2"/><path d="M2353.5 540h354.43v20.5" stroke="#000" stroke-width="2" fill="none"/><path d="M2353.52 541h-1.03v-2h1.02z"/><path d="M2707.93 575.76l-4.63-14.26h9.27z" stroke="#000" stroke-width="2"/><path d="M3082.5 709.5h37.5V450H1980v110.5" stroke="#000" stroke-width="2" fill="none"/><path d="M3082.52 710.5h-1.03v-2h1.02z"/><path d="M1980 575.76l-4.64-14.26h9.28z" stroke="#000" stroke-width="2"/><path d="M1342 880h1407.3V759.5" stroke="#000" stroke-width="2" fill="none"/><path d="M1342.03 881H1341v-2h1.03z"/><path d="M2749.3 744.24l4.63 14.26h-9.27z" stroke="#000" stroke-width="2"/><defs><path d="M30-248c87 1 191-15 191 75 0 78-77 80-158 76V0H30v-248zm33 125c57 0 124 11 124-50 0-59-68-47-124-48v98" id="L"/><path d="M100-194c62-1 85 37 85 99 1 63-27 99-86 99S16-35 15-95c0-66 28-99 85-99zM99-20c44 1 53-31 53-75 0-43-8-75-51-75s-53 32-53 75 10 74 51 75" id="M"/><path d="M115-194c55 1 70 41 70 98S169 2 115 4C84 4 66-9 55-30l1 105H24l-1-265h31l2 30c10-21 28-34 59-34zm-8 174c40 0 45-34 45-75s-6-73-45-74c-42 0-51 32-51 76 0 43 10 73 51 73" id="N"/><path d="M84 4C-5 8 30-112 23-190h32v120c0 31 7 50 39 49 72-2 45-101 50-169h31l1 190h-30c-1-10 1-25-2-33-11 22-28 36-60 37" id="O"/><path d="M24 0v-261h32V0H24" id="P"/><path d="M141-36C126-15 110 5 73 4 37 3 15-17 15-53c-1-64 63-63 125-63 3-35-9-54-41-54-24 1-41 7-42 31l-33-3c5-37 33-52 76-52 45 0 72 20 72 64v82c-1 20 7 32 28 27v20c-31 9-61-2-59-35zM48-53c0 20 12 33 32 33 41-3 63-29 60-74-43 2-92-5-92 41" id="Q"/><path d="M59-47c-2 24 18 29 38 22v24C64 9 27 4 27-40v-127H5v-23h24l9-43h21v43h35v23H59v120" id="R"/><path d="M24-231v-30h32v30H24zM24 0v-190h32V0H24" id="S"/><path d="M117-194c89-4 53 116 60 194h-32v-121c0-31-8-49-39-48C34-167 62-67 57 0H25l-1-190h30c1 10-1 24 2 32 11-22 29-35 61-36" id="T"/><g id="a"><use transform="matrix(0.05,0,0,0.05,0,0)" xlink:href="#L"/><use transform="matrix(0.05,0,0,0.05,12,0)" xlink:href="#M"/><use transform="matrix(0.05,0,0,0.05,22,0)" xlink:href="#N"/><use transform="matrix(0.05,0,0,0.05,32,0)" xlink:href="#O"/><use transform="matrix(0.05,0,0,0.05,42,0)" xlink:href="#P"/><use transform="matrix(0.05,0,0,0.05,45.95,0)" xlink:href="#Q"/><use transform="matrix(0.05,0,0,0.05,55.95,0)" xlink:href="#R"/><use transform="matrix(0.05,0,0,0.05,60.95,0)" xlink:href="#S"/><use transform="matrix(0.05,0,0,0.05,64.9,0)" xlink:href="#M"/><use transform="matrix(0.05,0,0,0.05,74.9,0)" xlink:href="#T"/></g><path d="M30 0v-248h33v221h125V0H30" id="U"/><path d="M30-248c118-7 216 8 213 122C240-48 200 0 122 0H30v-248zM63-27c89 8 146-16 146-99s-60-101-146-95v194" id="V"/><path d="M16-82v-28h88v28H16" id="W"/><path d="M212-179c-10-28-35-45-73-45-59 0-87 40-87 99 0 60 29 101 89 101 43 0 62-24 78-52l27 14C228-24 195 4 139 4 59 4 22-46 18-125c-6-104 99-153 187-111 19 9 31 26 39 46" id="X"/><g id="c"><use transform="matrix(0.05,0,0,0.05,0,0)" xlink:href="#U"/><use transform="matrix(0.05,0,0,0.05,10,0)" xlink:href="#V"/><use transform="matrix(0.05,0,0,0.05,22.950000000000003,0)" xlink:href="#U"/><use transform="matrix(0.05,0,0,0.05,32.95,0)" xlink:href="#W"/><use transform="matrix(0.05,0,0,0.05,38.900000000000006,0)" xlink:href="#X"/></g><path d="M185-189c-5-48-123-54-124 2 14 75 158 14 163 119 3 78-121 87-175 55-17-10-28-26-33-46l33-7c5 56 141 63 141-1 0-78-155-14-162-118-5-82 145-84 179-34 5 7 8 16 11 25" id="Y"/><path d="M160-131c35 5 61 23 61 61C221 17 115-2 30 0v-248c76 3 177-17 177 60 0 33-19 50-47 57zm-97-11c50-1 110 9 110-42 0-47-63-36-110-37v79zm0 115c55-2 124 14 124-45 0-56-70-42-124-44v89" id="Z"/><g id="d"><use transform="matrix(0.05,0,0,0.05,0,0)" xlink:href="#Y"/><use transform="matrix(0.05,0,0,0.05,12,0)" xlink:href="#Z"/><use transform="matrix(0.05,0,0,0.05,24,0)" xlink:href="#L"/></g><path d="M63-220v92h138v28H63V0H30v-248h175v28H63" id="aa"/><path d="M143 4C61 4 22-44 18-125c-5-107 100-154 193-111 17 8 29 25 37 43l-32 9c-13-25-37-40-76-40-61 0-88 39-88 99 0 61 29 100 91 101 35 0 62-11 79-27v-45h-74v-28h105v86C228-13 192 4 143 4" id="ab"/><g id="e"><use transform="matrix(0.05,0,0,0.05,0,0)" xlink:href="#aa"/><use transform="matrix(0.05,0,0,0.05,10.950000000000001,0)" xlink:href="#Z"/><use transform="matrix(0.05,0,0,0.05,22.950000000000003,0)" xlink:href="#ab"/></g><path d="M205 0l-28-72H64L36 0H1l101-248h38L239 0h-34zm-38-99l-47-123c-12 45-31 82-46 123h93" id="ac"/><path d="M177-190C167-65 218 103 67 71c-23-6-38-20-44-43l32-5c15 47 100 32 89-28v-30C133-14 115 1 83 1 29 1 15-40 15-95c0-56 16-97 71-98 29-1 48 16 59 35 1-10 0-23 2-32h30zM94-22c36 0 50-32 50-73 0-42-14-75-50-75-39 0-46 34-46 75s6 73 46 73" id="ad"/><path d="M100-194c63 0 86 42 84 106H49c0 40 14 67 53 68 26 1 43-12 49-29l28 8c-11 28-37 45-77 45C44 4 14-33 15-96c1-61 26-98 85-98zm52 81c6-60-76-77-97-28-3 7-6 17-6 28h103" id="ae"/><path d="M68-38c1 34 0 65-14 84H32c9-13 17-26 17-46H33v-38h35" id="af"/><g id="f"><use transform="matrix(0.05,0,0,0.05,0,0)" xlink:href="#ac"/><use transform="matrix(0.05,0,0,0.05,12,0)" xlink:href="#ad"/><use transform="matrix(0.05,0,0,0.05,22,0)" xlink:href="#ae"/><use transform="matrix(0.05,0,0,0.05,32,0)" xlink:href="#af"/></g><path d="M135-143c-3-34-86-38-87 0 15 53 115 12 119 90S17 21 10-45l28-5c4 36 97 45 98 0-10-56-113-15-118-90-4-57 82-63 122-42 12 7 21 19 24 35" id="ag"/><path d="M141 0L90-78 38 0H4l68-98-65-92h35l48 74 47-74h35l-64 92 68 98h-35" id="ah"/><g id="g"><use transform="matrix(0.05,0,0,0.05,0,0)" xlink:href="#ag"/><use transform="matrix(0.05,0,0,0.05,9,0)" xlink:href="#ae"/><use transform="matrix(0.05,0,0,0.05,19,0)" xlink:href="#ah"/></g><path d="M96-169c-40 0-48 33-48 73s9 75 48 75c24 0 41-14 43-38l32 2c-6 37-31 61-74 61-59 0-76-41-82-99-10-93 101-131 147-64 4 7 5 14 7 22l-32 3c-4-21-16-35-41-35" id="ai"/><path d="M114-163C36-179 61-72 57 0H25l-1-190h30c1 12-1 29 2 39 6-27 23-49 58-41v29" id="aj"/><g id="h"><use transform="matrix(0.05,0,0,0.05,0,0)" xlink:href="#V"/><use transform="matrix(0.05,0,0,0.05,12.950000000000001,0)" xlink:href="#M"/><use transform="matrix(0.05,0,0,0.05,22.950000000000003,0)" xlink:href="#ai"/><use transform="matrix(0.05,0,0,0.05,31.950000000000003,0)" xlink:href="#R"/><use transform="matrix(0.05,0,0,0.05,36.95,0)" xlink:href="#M"/><use transform="matrix(0.05,0,0,0.05,46.95,0)" xlink:href="#aj"/></g><path d="M108 0H70L1-190h34L89-25l56-165h34" id="ak"/><g id="i"><use transform="matrix(0.05,0,0,0.05,0,0)" xlink:href="#ak"/><use transform="matrix(0.05,0,0,0.05,9,0)" xlink:href="#S"/><use transform="matrix(0.05,0,0,0.05,12.949999999999998,0)" xlink:href="#ag"/><use transform="matrix(0.05,0,0,0.05,21.95,0)" xlink:href="#S"/><use transform="matrix(0.05,0,0,0.05,25.899999999999995,0)" xlink:href="#R"/></g><path d="M240 0l2-218c-23 76-54 145-80 218h-23L58-218 59 0H30v-248h44l77 211c21-75 51-140 76-211h43V0h-30" id="al"/><g id="j"><use transform="matrix(0.05,0,0,0.05,0,0)" xlink:href="#al"/><use transform="matrix(0.05,0,0,0.05,14.950000000000001,0)" xlink:href="#ae"/><use transform="matrix(0.05,0,0,0.05,24.950000000000003,0)" xlink:href="#Q"/><use transform="matrix(0.05,0,0,0.05,34.95,0)" xlink:href="#ag"/><use transform="matrix(0.05,0,0,0.05,43.95,0)" xlink:href="#O"/><use transform="matrix(0.05,0,0,0.05,53.95,0)" xlink:href="#aj"/><use transform="matrix(0.05,0,0,0.05,59.900000000000006,0)" xlink:href="#ae"/></g><g id="k"><use transform="matrix(0.05,0,0,0.05,0,0)" xlink:href="#U"/><use transform="matrix(0.05,0,0,0.05,10,0)" xlink:href="#V"/><use transform="matrix(0.05,0,0,0.05,22.950000000000003,0)" xlink:href="#U"/><use transform="matrix(0.05,0,0,0.05,32.95,0)" xlink:href="#W"/><use transform="matrix(0.05,0,0,0.05,38.900000000000006,0)" xlink:href="#X"/></g><path d="M127-220V0H93v-220H8v-28h204v28h-85" id="am"/><g id="l"><use transform="matrix(0.05,0,0,0.05,0,0)" xlink:href="#am"/><use transform="matrix(0.05,0,0,0.05,10.3,0)" xlink:href="#aj"/><use transform="matrix(0.05,0,0,0.05,16.25,0)" xlink:href="#ae"/><use transform="matrix(0.05,0,0,0.05,26.25,0)" xlink:href="#Q"/><use transform="matrix(0.05,0,0,0.05,36.25,0)" xlink:href="#R"/></g><path d="M115-194c53 0 69 39 70 98 0 66-23 100-70 100C84 3 66-7 56-30L54 0H23l1-261h32v101c10-23 28-34 59-34zm-8 174c40 0 45-34 45-75 0-40-5-75-45-74-42 0-51 32-51 76 0 43 10 73 51 73" id="an"/><path d="M85-194c31 0 48 13 60 33l-1-100h32l1 261h-30c-2-10 0-23-3-31C134-8 116 4 85 4 32 4 16-35 15-94c0-66 23-100 70-100zm9 24c-40 0-46 34-46 75 0 40 6 74 45 74 42 0 51-32 51-76 0-42-9-74-50-73" id="ao"/><g id="m"><use transform="matrix(0.05,0,0,0.05,0,0)" xlink:href="#an"/><use transform="matrix(0.05,0,0,0.05,10,0)" xlink:href="#Q"/><use transform="matrix(0.05,0,0,0.05,20,0)" xlink:href="#ag"/><use transform="matrix(0.05,0,0,0.05,29,0)" xlink:href="#ae"/><use transform="matrix(0.05,0,0,0.05,39,0)" xlink:href="#ao"/></g><g id="n"><use transform="matrix(0.05,0,0,0.05,0,0)" xlink:href="#M"/><use transform="matrix(0.05,0,0,0.05,10,0)" xlink:href="#T"/></g><g id="o"><use transform="matrix(0.05,0,0,0.05,0,0)" xlink:href="#ai"/><use transform="matrix(0.05,0,0,0.05,9,0)" xlink:href="#O"/><use transform="matrix(0.05,0,0,0.05,19,0)" xlink:href="#aj"/><use transform="matrix(0.05,0,0,0.05,24.95,0)" xlink:href="#aj"/><use transform="matrix(0.05,0,0,0.05,30.899999999999995,0)" xlink:href="#ae"/><use transform="matrix(0.05,0,0,0.05,40.9,0)" xlink:href="#T"/><use transform="matrix(0.05,0,0,0.05,50.9,0)" xlink:href="#R"/></g><g id="p"><use transform="matrix(0.05,0,0,0.05,0,0)" xlink:href="#N"/><use transform="matrix(0.05,0,0,0.05,10,0)" xlink:href="#aj"/><use transform="matrix(0.05,0,0,0.05,15.949999999999998,0)" xlink:href="#Q"/><use transform="matrix(0.05,0,0,0.05,25.950000000000003,0)" xlink:href="#ai"/><use transform="matrix(0.05,0,0,0.05,34.95,0)" xlink:href="#R"/><use transform="matrix(0.05,0,0,0.05,39.95,0)" xlink:href="#S"/><use transform="matrix(0.05,0,0,0.05,43.900000000000006,0)" xlink:href="#ai"/><use transform="matrix(0.05,0,0,0.05,52.900000000000006,0)" xlink:href="#ae"/></g><path d="M206 0h-36l-40-164L89 0H53L-1-190h32L70-26l43-164h34l41 164 42-164h31" id="ap"/><g id="q"><use transform="matrix(0.05,0,0,0.05,0,0)" xlink:href="#aa"/><use transform="matrix(0.05,0,0,0.05,10.950000000000001,0)" xlink:href="#M"/><use transform="matrix(0.05,0,0,0.05,20.950000000000003,0)" xlink:href="#P"/><use transform="matrix(0.05,0,0,0.05,24.900000000000002,0)" xlink:href="#P"/><use transform="matrix(0.05,0,0,0.05,28.85,0)" xlink:href="#M"/><use transform="matrix(0.05,0,0,0.05,38.85,0)" xlink:href="#ap"/></g><g id="r"><use transform="matrix(0.05,0,0,0.05,0,0)" xlink:href="#O"/><use transform="matrix(0.05,0,0,0.05,10,0)" xlink:href="#N"/></g><g id="s"><use transform="matrix(0.05,0,0,0.05,0,0)" xlink:href="#ao"/><use transform="matrix(0.05,0,0,0.05,10,0)" xlink:href="#M"/><use transform="matrix(0.05,0,0,0.05,20,0)" xlink:href="#ai"/><use transform="matrix(0.05,0,0,0.05,29,0)" xlink:href="#R"/><use transform="matrix(0.05,0,0,0.05,34,0)" xlink:href="#M"/><use transform="matrix(0.05,0,0,0.05,44,0)" xlink:href="#aj"/></g><path d="M190 0L58-211 59 0H30v-248h39L202-35l-2-213h31V0h-41" id="aq"/><g id="t"><use transform="matrix(0.05,0,0,0.05,0,0)" xlink:href="#aq"/><use transform="matrix(0.05,0,0,0.05,12.950000000000001,0)" xlink:href="#M"/><use transform="matrix(0.05,0,0,0.05,22.950000000000003,0)" xlink:href="#R"/></g><g id="u"><use transform="matrix(0.05,0,0,0.05,0,0)" xlink:href="#Q"/><use transform="matrix(0.05,0,0,0.05,10,0)" xlink:href="#R"/></g><g id="v"><use transform="matrix(0.05,0,0,0.05,0,0)" xlink:href="#R"/><use transform="matrix(0.05,0,0,0.05,5,0)" xlink:href="#Q"/><use transform="matrix(0.05,0,0,0.05,15,0)" xlink:href="#aj"/><use transform="matrix(0.05,0,0,0.05,20.95,0)" xlink:href="#ad"/><use transform="matrix(0.05,0,0,0.05,30.950000000000003,0)" xlink:href="#ae"/><use transform="matrix(0.05,0,0,0.05,40.95,0)" xlink:href="#R"/></g><g id="w"><use transform="matrix(0.05,0,0,0.05,0,0)" xlink:href="#ac"/><use transform="matrix(0.05,0,0,0.05,12,0)" xlink:href="#R"/></g><path d="M179-190L93 31C79 59 56 82 12 73V49c39 6 53-20 64-50L1-190h34L92-34l54-156h33" id="ar"/><g id="x"><use transform="matrix(0.05,0,0,0.05,0,0)" xlink:href="#X"/><use transform="matrix(0.05,0,0,0.05,12.950000000000001,0)" xlink:href="#O"/><use transform="matrix(0.05,0,0,0.05,22.950000000000003,0)" xlink:href="#aj"/><use transform="matrix(0.05,0,0,0.05,28.900000000000002,0)" xlink:href="#aj"/><use transform="matrix(0.05,0,0,0.05,34.85,0)" xlink:href="#ae"/><use transform="matrix(0.05,0,0,0.05,44.85,0)" xlink:href="#T"/><use transform="matrix(0.05,0,0,0.05,54.85,0)" xlink:href="#R"/><use transform="matrix(0.05,0,0,0.05,59.85,0)" xlink:href="#P"/><use transform="matrix(0.05,0,0,0.05,63.800000000000004,0)" xlink:href="#ar"/></g><path d="M210-169c-67 3-38 105-44 169h-31v-121c0-29-5-50-35-48C34-165 62-65 56 0H25l-1-190h30c1 10-1 24 2 32 10-44 99-50 107 0 11-21 27-35 58-36 85-2 47 119 55 194h-31v-121c0-29-5-49-35-48" id="as"/><g id="y"><use transform="matrix(0.05,0,0,0.05,0,0)" xlink:href="#R"/><use transform="matrix(0.05,0,0,0.05,5,0)" xlink:href="#aj"/><use transform="matrix(0.05,0,0,0.05,10.95,0)" xlink:href="#ae"/><use transform="matrix(0.05,0,0,0.05,20.95,0)" xlink:href="#Q"/><use transform="matrix(0.05,0,0,0.05,30.950000000000003,0)" xlink:href="#R"/><use transform="matrix(0.05,0,0,0.05,35.95,0)" xlink:href="#as"/><use transform="matrix(0.05,0,0,0.05,50.900000000000006,0)" xlink:href="#ae"/><use transform="matrix(0.05,0,0,0.05,60.900000000000006,0)" xlink:href="#T"/><use transform="matrix(0.05,0,0,0.05,70.9,0)" xlink:href="#R"/></g><path d="M194 0L95-120 63-95V0H30v-248h33v124l119-124h40L117-140 236 0h-42" id="at"/><g id="z"><use transform="matrix(0.05,0,0,0.05,0,0)" xlink:href="#at"/><use transform="matrix(0.05,0,0,0.05,12,0)" xlink:href="#ae"/><use transform="matrix(0.05,0,0,0.05,22,0)" xlink:href="#ae"/><use transform="matrix(0.05,0,0,0.05,32,0)" xlink:href="#N"/></g><g id="A"><use transform="matrix(0.05,0,0,0.05,0,0)" xlink:href="#ai"/><use transform="matrix(0.05,0,0,0.05,9,0)" xlink:href="#O"/><use transform="matrix(0.05,0,0,0.05,19,0)" xlink:href="#aj"/><use transform="matrix(0.05,0,0,0.05,24.95,0)" xlink:href="#aj"/><use transform="matrix(0.05,0,0,0.05,30.899999999999995,0)" xlink:href="#ae"/><use transform="matrix(0.05,0,0,0.05,40.9,0)" xlink:href="#T"/><use transform="matrix(0.05,0,0,0.05,50.9,0)" xlink:href="#R"/></g><path d="M106-169C34-169 62-67 57 0H25v-261h32l-1 103c12-21 28-36 61-36 89 0 53 116 60 194h-32v-121c2-32-8-49-39-48" id="au"/><g id="B"><use transform="matrix(0.05,0,0,0.05,0,0)" xlink:href="#am"/><use transform="matrix(0.05,0,0,0.05,10.950000000000001,0)" xlink:href="#au"/><use transform="matrix(0.05,0,0,0.05,20.950000000000003,0)" xlink:href="#ae"/><use transform="matrix(0.05,0,0,0.05,30.950000000000003,0)" xlink:href="#aj"/><use transform="matrix(0.05,0,0,0.05,36.900000000000006,0)" xlink:href="#Q"/><use transform="matrix(0.05,0,0,0.05,46.900000000000006,0)" xlink:href="#N"/><use transform="matrix(0.05,0,0,0.05,56.900000000000006,0)" xlink:href="#ae"/><use transform="matrix(0.05,0,0,0.05,66.9,0)" xlink:href="#O"/><use transform="matrix(0.05,0,0,0.05,76.9,0)" xlink:href="#R"/><use transform="matrix(0.05,0,0,0.05,81.9,0)" xlink:href="#S"/><use transform="matrix(0.05,0,0,0.05,85.85000000000001,0)" xlink:href="#ai"/></g><g id="C"><use transform="matrix(0.05,0,0,0.05,0,0)" xlink:href="#S"/><use transform="matrix(0.05,0,0,0.05,3.95,0)" xlink:href="#T"/><use transform="matrix(0.05,0,0,0.05,13.949999999999998,0)" xlink:href="#ae"/><use transform="matrix(0.05,0,0,0.05,23.95,0)" xlink:href="#aj"/><use transform="matrix(0.05,0,0,0.05,29.899999999999995,0)" xlink:href="#R"/><use transform="matrix(0.05,0,0,0.05,34.9,0)" xlink:href="#S"/><use transform="matrix(0.05,0,0,0.05,38.85,0)" xlink:href="#Q"/></g><g id="D"><use transform="matrix(0.05,0,0,0.05,0,0)" xlink:href="#Q"/><use transform="matrix(0.05,0,0,0.05,10,0)" xlink:href="#ao"/><use transform="matrix(0.05,0,0,0.05,20,0)" xlink:href="#au"/><use transform="matrix(0.05,0,0,0.05,30,0)" xlink:href="#ae"/><use transform="matrix(0.05,0,0,0.05,40,0)" xlink:href="#aj"/><use transform="matrix(0.05,0,0,0.05,45.95,0)" xlink:href="#ae"/><use transform="matrix(0.05,0,0,0.05,55.95,0)" xlink:href="#T"/><use transform="matrix(0.05,0,0,0.05,65.95,0)" xlink:href="#R"/></g><g id="E"><use transform="matrix(0.05,0,0,0.05,0,0)" xlink:href="#ac"/><use transform="matrix(0.05,0,0,0.05,12,0)" xlink:href="#ao"/><use transform="matrix(0.05,0,0,0.05,22,0)" xlink:href="#au"/><use transform="matrix(0.05,0,0,0.05,32,0)" xlink:href="#ae"/><use transform="matrix(0.05,0,0,0.05,42,0)" xlink:href="#aj"/><use transform="matrix(0.05,0,0,0.05,47.95,0)" xlink:href="#ae"/><use transform="matrix(0.05,0,0,0.05,57.95,0)" xlink:href="#T"/><use transform="matrix(0.05,0,0,0.05,67.95,0)" xlink:href="#R"/></g><path d="M87 75C49 33 22-17 22-94c0-76 28-126 65-167h31c-38 41-64 92-64 168S80 34 118 75H87" id="av"/><path d="M143 0L79-87 56-68V0H24v-261h32v163l83-92h37l-77 82L181 0h-38" id="aw"/><g id="F"><use transform="matrix(0.05,0,0,0.05,0,0)" xlink:href="#av"/><use transform="matrix(0.05,0,0,0.05,5.95,0)" xlink:href="#R"/><use transform="matrix(0.05,0,0,0.05,10.95,0)" xlink:href="#Q"/><use transform="matrix(0.05,0,0,0.05,20.95,0)" xlink:href="#aw"/><use transform="matrix(0.05,0,0,0.05,29.950000000000003,0)" xlink:href="#ae"/></g><path d="M233-177c-1 41-23 64-60 70L243 0h-38l-65-103H63V0H30v-248c88 3 205-21 203 71zM63-129c60-2 137 13 137-47 0-61-80-42-137-45v92" id="ax"/><path d="M33-261c38 41 65 92 65 168S71 34 33 75H2C39 34 66-17 66-93S39-220 2-261h31" id="ay"/><g id="G"><use transform="matrix(0.05,0,0,0.05,0,0)" xlink:href="#ax"/><use transform="matrix(0.05,0,0,0.05,12.950000000000001,0)" xlink:href="#ah"/><use transform="matrix(0.05,0,0,0.05,21.950000000000003,0)" xlink:href="#ay"/></g><g id="H"><use transform="matrix(0.05,0,0,0.05,0,0)" xlink:href="#aq"/><use transform="matrix(0.05,0,0,0.05,12.950000000000001,0)" xlink:href="#M"/></g><g id="I"><use transform="matrix(0.05,0,0,0.05,0,0)" xlink:href="#Q"/><use transform="matrix(0.05,0,0,0.05,10,0)" xlink:href="#ao"/><use transform="matrix(0.05,0,0,0.05,20,0)" xlink:href="#ak"/><use transform="matrix(0.05,0,0,0.05,29,0)" xlink:href="#ae"/><use transform="matrix(0.05,0,0,0.05,39,0)" xlink:href="#aj"/><use transform="matrix(0.05,0,0,0.05,44.95,0)" xlink:href="#ag"/><use transform="matrix(0.05,0,0,0.05,53.95,0)" xlink:href="#ae"/></g><g id="J"><use transform="matrix(0.05,0,0,0.05,0,0)" xlink:href="#ae"/><use transform="matrix(0.05,0,0,0.05,10,0)" xlink:href="#ak"/><use transform="matrix(0.05,0,0,0.05,19,0)" xlink:href="#ae"/><use transform="matrix(0.05,0,0,0.05,29,0)" xlink:href="#T"/><use transform="matrix(0.05,0,0,0.05,39,0)" xlink:href="#R"/></g><g id="K"><use transform="matrix(0.05,0,0,0.05,0,0)" xlink:href="#ac"/><use transform="matrix(0.05,0,0,0.05,12,0)" xlink:href="#ao"/><use transform="matrix(0.05,0,0,0.05,22,0)" xlink:href="#ak"/><use transform="matrix(0.05,0,0,0.05,31,0)" xlink:href="#ae"/><use transform="matrix(0.05,0,0,0.05,41,0)" xlink:href="#aj"/><use transform="matrix(0.05,0,0,0.05,46.95,0)" xlink:href="#ag"/><use transform="matrix(0.05,0,0,0.05,55.95,0)" xlink:href="#ae"/></g></defs></g></svg>