<svg xmlns="http://www.w3.org/2000/svg" xmlns:xlink="http://www.w3.org/1999/xlink" xmlns:lucid="lucid" width="1543" height="1370"><g transform="translate(-1913 0)" lucid:page-tab-id="0_0"><path d="M0 0h3456v3952H0z" fill="#fff"/><path d="M2880 230h160v160h-160z" stroke="#000" stroke-width="2" fill="#fff"/><use xlink:href="#a" transform="matrix(1,0,0,1,2885,235) translate(59.55 80.025)"/><path d="M2880 450h160v160h-160z" stroke="#000" stroke-width="2" fill="#fff"/><use xlink:href="#b" transform="matrix(1,0,0,1,2885,455) translate(12.574999999999996 80.025)"/><use xlink:href="#c" transform="matrix(1,0,0,1,2885,455) translate(88.475 80.025)"/><path d="M2880 670h160v160h-160z" stroke="#000" stroke-width="2" fill="#fff"/><use xlink:href="#d" transform="matrix(1,0,0,1,2885,675) translate(39.55 80.025)"/><path d="M2880 890h160v160h-160z" stroke="#000" stroke-width="2" fill="#fff"/><use xlink:href="#e" transform="matrix(1,0,0,1,2885,895) translate(56.05 80.025)"/><path d="M2540 230h160v160h-160z" stroke="#000" stroke-width="2" fill="#fff"/><use xlink:href="#f" transform="matrix(1,0,0,1,2545,235) translate(49.074999999999996 80.025)"/><path d="M2540 450h160v160h-160z" stroke="#000" stroke-width="2" fill="#fff"/><use xlink:href="#g" transform="matrix(1,0,0,1,2545,455) translate(57 80.025)"/><path d="M2540 670h160v160h-160z" stroke="#000" stroke-width="2" fill="#fff"/><use xlink:href="#h" transform="matrix(1,0,0,1,2545,675) translate(56.525 80.025)"/><path d="M2540 890h160v160h-160z" stroke="#000" stroke-width="2" fill="#fff"/><use xlink:href="#i" transform="matrix(1,0,0,1,2545,895) translate(61.025 80.025)"/><path d="M3180 550h160v160h-160z" stroke="#000" stroke-width="2" fill="#fff"/><use xlink:href="#j" transform="matrix(1,0,0,1,3185,555) translate(38.599999999999994 65.9625)"/><use xlink:href="#k" transform="matrix(1,0,0,1,3185,555) translate(41.099999999999994 87.5625)"/><path d="M2702 310h158.5" stroke="#000" stroke-width="2" fill="none"/><path d="M2702.03 311H2701v-2h1.03z"/><path d="M2875.76 310l-14.26 4.64v-9.28z" stroke="#000" stroke-width="2"/><path d="M2702 330.02l1.74.04 2.64.16 2.56.27 2.48.36 2.43.46 2.38.56 2.34.65 2.32.76 2.3.84 2.3.97 2.3 1.1 2.32 1.2 2.34 1.36 2.4 1.52 2.42 1.7 2.5 1.9 2.6 2.13 2.7 2.44 2.83 2.78 3 3.2 3.23 3.74 3.52 4.44 3.92 5.4 4.53 6.84 5.6 9.26 8.27 15.14 28.34 54.66 5.6 9.26 4.53 6.83 3.92 5.4 3.52 4.44 3.22 3.74 3 3.2 2.83 2.78 2.7 2.43 2.58 2.13 2.52 1.9 2.43 1.7 2.4 1.5 2.33 1.36 2.32 1.2 2.3 1.1 2.3.96 2.3.85 1.68.55" stroke="#000" stroke-width="2" fill="none"/><path d="M2702.05 329.02l-.04 2-1-.02v-2z"/><path d="M2875.8 507.52l-14.8 2.46 1.38-9.17z" stroke="#000" stroke-width="2"/><path d="M2702 530h158.5" stroke="#000" stroke-width="2" fill="none"/><path d="M2702.03 531H2701v-2h1.03z"/><path d="M2875.76 530l-14.26 4.64v-9.28z" stroke="#000" stroke-width="2"/><path d="M2702 505.98l1.74-.04 2.64-.16 2.56-.27 2.48-.36 2.43-.46 2.38-.56 2.34-.65 2.32-.76 2.3-.84 2.3-.97 2.3-1.1 2.32-1.2 2.34-1.36 2.4-1.52 2.42-1.7 2.5-1.9 2.6-2.13 2.7-2.44 2.83-2.78 3-3.2 3.23-3.74 3.52-4.44 3.92-5.4 4.53-6.84 5.6-9.26 8.27-15.14 28.34-54.66 5.6-9.26 4.53-6.83 3.92-5.4 3.52-4.44 3.22-3.74 3-3.2 2.83-2.78 2.7-2.43 2.58-2.13 2.52-1.9 2.43-1.7 2.4-1.5 2.33-1.36 2.32-1.2 2.3-1.1 2.3-.96 2.3-.85 1.68-.55" stroke="#000" stroke-width="2" fill="none"/><path d="M2702.05 506.98l-1.05.02v-2l1-.02z"/><path d="M2875.8 328.48l-13.42 6.7-1.38-9.16z" stroke="#000" stroke-width="2"/><path d="M2702 559.35l2 .05 2.87.18 2.77.3 2.7.38 2.6.5 2.56.6 2.5.7 2.5.8 2.44.92 2.45 1.03 2.44 1.16 2.45 1.3 2.48 1.42 2.52 1.6 2.58 1.8 2.64 2 2.74 2.27 2.86 2.58 3 2.95 3.22 3.42 3.48 4.03 3.84 4.86 4.4 6.05 5.34 8.05 7.57 12.56 29.63 52.17 5.34 8.06 4.4 6.04 3.84 4.86 3.48 4.03 3.2 3.42 3.02 2.95 2.86 2.58 2.74 2.27 2.64 2 2.58 1.8 2.52 1.6 2.5 1.43 2.44 1.3 2.45 1.14 2.46 1.03 2.45.9 2.5.82.73.2" stroke="#000" stroke-width="2" fill="none"/><path d="M2702.05 558.35l-.04 2-1-.02v-2z"/><path d="M2875.8 721.56l-14.77 2.64 1.27-9.2z" stroke="#000" stroke-width="2"/><path d="M2702 750h158.5" stroke="#000" stroke-width="2" fill="none"/><path d="M2702.03 751H2701v-2h1.03z"/><path d="M2875.76 750l-14.26 4.64v-9.28z" stroke="#000" stroke-width="2"/><path d="M2702 779.35l2.1.05 2.96.18 2.85.3 2.78.4 2.68.52 2.63.62 2.56.72 2.54.82 2.52.94 2.5 1.05 2.5 1.18 2.5 1.3 2.55 1.48 2.57 1.64 2.63 1.83 2.7 2.05 2.8 2.32 2.93 2.63 3.08 3.03 3.3 3.5 3.6 4.17 3.98 5.05 4.63 6.38 5.8 8.77 9.55 15.87 23.05 39.6 5.8 8.76 4.64 6.38 4 5.05 3.58 4.16 3.3 3.5 3.08 3.03 2.92 2.63 2.8 2.32 2.7 2.05 2.64 1.83 2.57 1.63 2.54 1.46 2.5 1.3 2.5 1.2 2.5 1.04 2.53.94 2.54.82 1.28.36" stroke="#000" stroke-width="2" fill="none"/><path d="M2702.05 778.35l-.04 2-1-.02v-2z"/><path d="M2875.8 936.24l-14.76 2.7 1.23-9.2z" stroke="#000" stroke-width="2"/><path d="M2702 692.65h.44l1.4-.1 1.4-.15 1.38-.2 1.37-.26 1.35-.32 1.37-.38 1.37-.45 1.37-.52 1.4-.6 1.42-.66 1.44-.76 1.48-.85 1.52-.96 1.57-1.1 1.64-1.23 1.7-1.4 1.78-1.6 1.87-1.83 1.97-2.1 2.1-2.46 2.27-2.85 2.44-3.36 2.67-4.03 2.94-4.86 3.27-5.97 3.72-7.5 4.3-9.75 5.22-13.18 6.68-19.28 10.28-34.4 35.92-130.77 6.68-19.28 5.2-13.18 4.33-9.75 3.73-7.52 3.28-5.97 2.95-4.86 2.67-4.02 2.44-3.37 2.26-2.84 2.1-2.45 2-2.1 1.86-1.83 1.78-1.6 1.7-1.4 1.63-1.25 1.56-1.1 1.52-.96.6-.35" stroke="#000" stroke-width="2" fill="none"/><path d="M2702.05 693.64l-1.05.03v-2l1-.02z"/><path d="M2875.88 350.87l-12.5 8.3-2.48-8.94z" stroke="#000" stroke-width="2"/><path d="M2702 721.98l2.26-.05 3.1-.2 3-.3 2.9-.43 2.8-.54 2.72-.64 2.68-.75 2.64-.85 2.6-.97 2.6-1.1 2.58-1.2 2.6-1.37 2.62-1.5 2.66-1.7 2.72-1.9 2.8-2.1 2.9-2.4 3.02-2.74 3.2-3.14 3.45-3.68 3.8-4.4 4.27-5.4 5.12-7.07 7.02-10.6 30.9-49.84 5.12-7.06 4.28-5.4 3.8-4.4 3.43-3.67 3.2-3.14 3.03-2.74 2.9-2.4 2.8-2.12 2.7-1.9 2.67-1.68 2.62-1.5 2.6-1.37 2.58-1.22 2.6-1.08 2.6-.97 2.64-.86 2.16-.6" stroke="#000" stroke-width="2" fill="none"/><path d="M2702.05 722.98l-1.05.02v-2l1-.02z"/><path d="M2875.8 573.07l-13.58 6.4-1.17-9.2z" stroke="#000" stroke-width="2"/><path d="M2702 970h158.5" stroke="#000" stroke-width="2" fill="none"/><path d="M2702.03 971H2701v-2h1.03z"/><path d="M2875.76 970l-14.26 4.64v-9.28z" stroke="#000" stroke-width="2"/><path d="M2702 941.98h.42l1.4-.1 1.36-.14 1.36-.2 1.35-.26 1.33-.32 1.35-.37 1.35-.45 1.37-.5 1.38-.6 1.4-.65 1.43-.75 1.47-.84 1.5-.95 1.56-1.08 1.62-1.22 1.68-1.4 1.75-1.58 1.86-1.8 1.96-2.1 2.08-2.43 2.24-2.83 2.43-3.32 2.64-3.98 2.9-4.8 3.24-5.93 3.7-7.44 4.26-9.62 5.12-12.98 6.54-18.86 9.78-32.7 38.1-140.22 6.54-18.86 5.12-13 4.27-9.6 3.7-7.45 3.23-5.92 2.9-4.8 2.65-3.98 2.43-3.33 2.24-2.84 2.08-2.43 1.96-2.1 1.86-1.8 1.75-1.58 1.68-1.4 1.62-1.22 1.55-1.08 1.5-.96.4-.23" stroke="#000" stroke-width="2" fill="none"/><path d="M2702.05 942.98l-1.05.02v-2l1-.02z"/><path d="M2875.9 594.88l-12.48 8.34-2.52-8.92z" stroke="#000" stroke-width="2"/><path d="M2702 909.98l.84-.06.9-.1.9-.13.9-.18.92-.2.92-.27.92-.3.94-.35.96-.4.98-.46 1-.53 1.04-.6 1.07-.67 1.1-.77 1.17-.9 1.22-1 1.28-1.16 1.37-1.34 1.45-1.55 1.56-1.8 1.68-2.12 1.83-2.53 2-3.02 2.23-3.67 2.48-4.52 2.8-5.66 3.22-7.24 3.75-9.5 4.5-12.97 5.57-18.54 7.33-28.77 11.22-53.53 47.08-259.8 7.33-28.76 5.57-18.54 4.5-12.96 3.75-9.5 3.22-7.25 2.8-5.66 2.48-4.52 2.22-3.67 2-3.02 1.84-2.53 1.68-2.12 1.56-1.8 1.45-1.56 1.37-1.34 1.3-1.16.04-.05" stroke="#000" stroke-width="2" fill="none"/><path d="M2702.05 910.98l-1.05.02v-2l1-.02z"/><path d="M2876 375.23l-11.42 9.72-3.53-8.57z" stroke="#000" stroke-width="2"/><path d="M3042 310.02h.1l1.06.07 1.06.1 1.04.16 1.04.2 1.04.24 1.03.3 1.04.32 1.06.4 1.07.44 1.08.5 1.1.6 1.14.64 1.16.74 1.2.83 1.24.94 1.3 1.08 1.35 1.23 1.42 1.4 1.5 1.62 1.62 1.86 1.73 2.2 1.86 2.56 2.04 3.07 2.24 3.72 2.52 4.57 2.84 5.72 3.3 7.4 3.93 10 5 14.47 7.4 24.73 30.4 112.48 5 14.47 3.95 10 3.3 7.4 2.83 5.74 2.5 4.58 2.25 3.7 2.04 3.08 1.86 2.57 1.73 2.2 1.6 1.85 1.52 1.6 1.43 1.4 1.37 1.24 1.3 1.07.37.28" stroke="#000" stroke-width="2" fill="none"/><path d="M3042.05 309.02l-.04 2-1-.02v-2z"/><path d="M3175.96 580.9l-15-.54 3.2-8.7z" stroke="#000" stroke-width="2"/><path d="M3042 530.02l1.9.04 2.77.17 2.64.28 2.54.38 2.44.47 2.37.56 2.32.65 2.26.74 2.23.82 2.2.93 2.2 1.03 2.22 1.16 2.22 1.28 2.26 1.44 2.3 1.6 2.4 1.8 2.5 2.07 2.62 2.38 2.83 2.78 3.15 3.35 3.62 4.2 4.56 5.76 8.36 11.6 14.57 20.6 4.56 5.78 3.62 4.2 3.14 3.34 2.82 2.77 2.63 2.37 2.5 2.06 2.38 1.8 2.3 1.6 2.27 1.45 2.22 1.28 2.2 1.16 2.2 1.03 2.22.93 2.23.83 2 .66" stroke="#000" stroke-width="2" fill="none"/><path d="M3042.05 529.02l-.04 2-1-.02v-2z"/><path d="M3175.8 629.54l-14.8 2.54 1.34-9.18z" stroke="#000" stroke-width="2"/><path d="M3042 749.98l2.25-.05 3.06-.2 2.92-.3 2.77-.4 2.66-.5 2.57-.62 2.5-.7 2.45-.78 2.4-.9 2.38-1 2.36-1.1 2.37-1.24 2.37-1.38 2.43-1.54 2.5-1.73 2.6-1.97 2.72-2.26 2.94-2.65 3.26-3.2 3.8-4.06 5-5.8 24.36-30.33 3.8-4.05 3.26-3.2 2.94-2.65 2.73-2.26 2.6-1.96 2.5-1.73 2.43-1.53 2.38-1.38 2.38-1.25 2.36-1.1 2.38-1 2.4-.9 2.44-.8 1.45-.4" stroke="#000" stroke-width="2" fill="none"/><path d="M3042.05 750.98l-1.05.02v-2l1-.02z"/><path d="M3175.8 661.08l-13.56 6.44-1.2-9.2z" stroke="#000" stroke-width="2"/><path d="M3042 960.65h.13l1.1-.08 1.1-.1 1.08-.17 1.08-.2 1.07-.26 1.07-.3 1.07-.34 1.07-.4 1.1-.47 1.1-.52 1.14-.58 1.16-.67 1.2-.76 1.22-.86 1.28-.97 1.32-1.1 1.4-1.25 1.45-1.43 1.55-1.66 1.65-1.9 1.76-2.24 1.9-2.63 2.08-3.14 2.3-3.8 2.56-4.66 2.9-5.87 3.4-7.62 4.07-10.33 5.28-15.2 8.32-27.86 26.52-95.78 5.27-15.2 4.07-10.34 3.38-7.6 2.9-5.9 2.57-4.65 2.3-3.8 2.08-3.13 1.9-2.63 1.77-2.24 1.65-1.9 1.55-1.65 1.46-1.44 1.4-1.25 1.3-1.1.84-.63" stroke="#000" stroke-width="2" fill="none"/><path d="M3042.05 961.64l-1.05.03v-2l1-.02z"/><path d="M3175.95 699.08l-11.9 9.13-3.1-8.73z" stroke="#000" stroke-width="2"/><path d="M2120 235l80 75-80 75-80-75z" stroke="#000" stroke-width="2" fill="#fff"/><use xlink:href="#l" transform="matrix(1,0,0,1,2045,240) translate(28.054999999999993 75.65)"/><path d="M2280 100h160v100h-160z" stroke="#000" stroke-width="2" fill="#fff"/><use xlink:href="#m" transform="matrix(1,0,0,1,2285,105) translate(36.125 48.15)"/><path d="M2280 260h160v100h-160z" stroke="#000" stroke-width="2" fill="#fff"/><use xlink:href="#n" transform="matrix(1,0,0,1,2285,265) translate(36.05 48.15)"/><path d="M2360 202v38.5" stroke="#000" stroke-width="2" fill="none"/><path d="M2361 202.03h-2V201h2z"/><path d="M2360 255.76l-4.64-14.26h9.28z" stroke="#000" stroke-width="2"/><path d="M2202.46 310h58.04" stroke="#000" stroke-width="2" fill="none"/><path d="M2202.5 311h-2.1l1.06-1-1.06-1h2.1z"/><path d="M2275.76 310l-14.26 4.64v-9.28z" stroke="#000" stroke-width="2"/><path d="M2442 310h78.5" stroke="#000" stroke-width="2" fill="none"/><path d="M2442.03 311H2441v-2h1.03z"/><path d="M2535.76 310l-14.26 4.64v-9.28z" stroke="#000" stroke-width="2"/><defs><path d="M33 0v-248h34V0H33" id="o"/><path d="M197 0v-115H63V0H30v-248h33v105h134v-105h34V0h-34" id="p"/><path d="M30-248c118-7 216 8 213 122C240-48 200 0 122 0H30v-248zM63-27c89 8 146-16 146-99s-60-101-146-95v194" id="q"/><g id="a"><use transform="matrix(0.05,0,0,0.05,0,0)" xlink:href="#o"/><use transform="matrix(0.05,0,0,0.05,5,0)" xlink:href="#p"/><use transform="matrix(0.05,0,0,0.05,17.950000000000003,0)" xlink:href="#q"/></g><path d="M135-143c-3-34-86-38-87 0 15 53 115 12 119 90S17 21 10-45l28-5c4 36 97 45 98 0-10-56-113-15-118-90-4-57 82-63 122-42 12 7 21 19 24 35" id="r"/><path d="M96-169c-40 0-48 33-48 73s9 75 48 75c24 0 41-14 43-38l32 2c-6 37-31 61-74 61-59 0-76-41-82-99-10-93 101-131 147-64 4 7 5 14 7 22l-32 3c-4-21-16-35-41-35" id="s"/><path d="M106-169C34-169 62-67 57 0H25v-261h32l-1 103c12-21 28-36 61-36 89 0 53 116 60 194h-32v-121c2-32-8-49-39-48" id="t"/><path d="M100-194c63 0 86 42 84 106H49c0 40 14 67 53 68 26 1 43-12 49-29l28 8c-11 28-37 45-77 45C44 4 14-33 15-96c1-61 26-98 85-98zm52 81c6-60-76-77-97-28-3 7-6 17-6 28h103" id="u"/><path d="M210-169c-67 3-38 105-44 169h-31v-121c0-29-5-50-35-48C34-165 62-65 56 0H25l-1-190h30c1 10-1 24 2 32 10-44 99-50 107 0 11-21 27-35 58-36 85-2 47 119 55 194h-31v-121c0-29-5-49-35-48" id="v"/><path d="M24-231v-30h32v30H24zM24 0v-190h32V0H24" id="w"/><g id="b"><use transform="matrix(0.05,0,0,0.05,0,0)" xlink:href="#o"/><use transform="matrix(0.05,0,0,0.05,5,0)" xlink:href="#r"/><use transform="matrix(0.05,0,0,0.05,14,0)" xlink:href="#s"/><use transform="matrix(0.05,0,0,0.05,23,0)" xlink:href="#t"/><use transform="matrix(0.05,0,0,0.05,33,0)" xlink:href="#u"/><use transform="matrix(0.05,0,0,0.05,43,0)" xlink:href="#v"/><use transform="matrix(0.05,0,0,0.05,57.95,0)" xlink:href="#w"/><use transform="matrix(0.05,0,0,0.05,61.900000000000006,0)" xlink:href="#s"/></g><path d="M59-47c-2 24 18 29 38 22v24C64 9 27 4 27-40v-127H5v-23h24l9-43h21v43h35v23H59v120" id="x"/><path d="M114-163C36-179 61-72 57 0H25l-1-190h30c1 12-1 29 2 39 6-27 23-49 58-41v29" id="y"/><path d="M100-194c62-1 85 37 85 99 1 63-27 99-86 99S16-35 15-95c0-66 28-99 85-99zM99-20c44 1 53-31 53-75 0-43-8-75-51-75s-53 32-53 75 10 74 51 75" id="z"/><path d="M143 0L79-87 56-68V0H24v-261h32v163l83-92h37l-77 82L181 0h-38" id="A"/><g id="c"><use transform="matrix(0.05,0,0,0.05,0,0)" xlink:href="#r"/><use transform="matrix(0.05,0,0,0.05,9,0)" xlink:href="#x"/><use transform="matrix(0.05,0,0,0.05,14,0)" xlink:href="#y"/><use transform="matrix(0.05,0,0,0.05,19.95,0)" xlink:href="#z"/><use transform="matrix(0.05,0,0,0.05,29.950000000000003,0)" xlink:href="#A"/><use transform="matrix(0.05,0,0,0.05,38.95,0)" xlink:href="#u"/></g><path d="M141-36C126-15 110 5 73 4 37 3 15-17 15-53c-1-64 63-63 125-63 3-35-9-54-41-54-24 1-41 7-42 31l-33-3c5-37 33-52 76-52 45 0 72 20 72 64v82c-1 20 7 32 28 27v20c-31 9-61-2-59-35zM48-53c0 20 12 33 32 33 41-3 63-29 60-74-43 2-92-5-92 41" id="B"/><path d="M115-194c53 0 69 39 70 98 0 66-23 100-70 100C84 3 66-7 56-30L54 0H23l1-261h32v101c10-23 28-34 59-34zm-8 174c40 0 45-34 45-75 0-40-5-75-45-74-42 0-51 32-51 76 0 43 10 73 51 73" id="C"/><g id="d"><use transform="matrix(0.05,0,0,0.05,0,0)" xlink:href="#q"/><use transform="matrix(0.05,0,0,0.05,12.950000000000001,0)" xlink:href="#w"/><use transform="matrix(0.05,0,0,0.05,16.900000000000002,0)" xlink:href="#B"/><use transform="matrix(0.05,0,0,0.05,26.900000000000002,0)" xlink:href="#C"/><use transform="matrix(0.05,0,0,0.05,36.900000000000006,0)" xlink:href="#u"/><use transform="matrix(0.05,0,0,0.05,46.900000000000006,0)" xlink:href="#x"/><use transform="matrix(0.05,0,0,0.05,51.900000000000006,0)" xlink:href="#u"/><use transform="matrix(0.05,0,0,0.05,61.900000000000006,0)" xlink:href="#r"/></g><path d="M212-179c-10-28-35-45-73-45-59 0-87 40-87 99 0 60 29 101 89 101 43 0 62-24 78-52l27 14C228-24 195 4 139 4 59 4 22-46 18-125c-6-104 99-153 187-111 19 9 31 26 39 46" id="D"/><path d="M194 0L95-120 63-95V0H30v-248h33v124l119-124h40L117-140 236 0h-42" id="E"/><g id="e"><use transform="matrix(0.05,0,0,0.05,0,0)" xlink:href="#D"/><use transform="matrix(0.05,0,0,0.05,12.950000000000001,0)" xlink:href="#E"/><use transform="matrix(0.05,0,0,0.05,24.950000000000003,0)" xlink:href="#q"/></g><path d="M30 0v-248h33v221h125V0H30" id="F"/><path d="M16-82v-28h88v28H16" id="G"/><g id="f"><use transform="matrix(0.05,0,0,0.05,0,0)" xlink:href="#F"/><use transform="matrix(0.05,0,0,0.05,10,0)" xlink:href="#q"/><use transform="matrix(0.05,0,0,0.05,22.950000000000003,0)" xlink:href="#F"/><use transform="matrix(0.05,0,0,0.05,32.95,0)" xlink:href="#G"/><use transform="matrix(0.05,0,0,0.05,38.900000000000006,0)" xlink:href="#D"/></g><path d="M185-189c-5-48-123-54-124 2 14 75 158 14 163 119 3 78-121 87-175 55-17-10-28-26-33-46l33-7c5 56 141 63 141-1 0-78-155-14-162-118-5-82 145-84 179-34 5 7 8 16 11 25" id="H"/><path d="M160-131c35 5 61 23 61 61C221 17 115-2 30 0v-248c76 3 177-17 177 60 0 33-19 50-47 57zm-97-11c50-1 110 9 110-42 0-47-63-36-110-37v79zm0 115c55-2 124 14 124-45 0-56-70-42-124-44v89" id="I"/><path d="M30-248c87 1 191-15 191 75 0 78-77 80-158 76V0H30v-248zm33 125c57 0 124 11 124-50 0-59-68-47-124-48v98" id="J"/><g id="g"><use transform="matrix(0.05,0,0,0.05,0,0)" xlink:href="#H"/><use transform="matrix(0.05,0,0,0.05,12,0)" xlink:href="#I"/><use transform="matrix(0.05,0,0,0.05,24,0)" xlink:href="#J"/></g><path d="M63-220v92h138v28H63V0H30v-248h175v28H63" id="K"/><path d="M143 4C61 4 22-44 18-125c-5-107 100-154 193-111 17 8 29 25 37 43l-32 9c-13-25-37-40-76-40-61 0-88 39-88 99 0 61 29 100 91 101 35 0 62-11 79-27v-45h-74v-28h105v86C228-13 192 4 143 4" id="L"/><g id="h"><use transform="matrix(0.05,0,0,0.05,0,0)" xlink:href="#K"/><use transform="matrix(0.05,0,0,0.05,10.950000000000001,0)" xlink:href="#J"/><use transform="matrix(0.05,0,0,0.05,22.950000000000003,0)" xlink:href="#L"/></g><g id="i"><use transform="matrix(0.05,0,0,0.05,0,0)" xlink:href="#o"/><use transform="matrix(0.05,0,0,0.05,5,0)" xlink:href="#E"/><use transform="matrix(0.05,0,0,0.05,17,0)" xlink:href="#K"/></g><path d="M240 0l2-218c-23 76-54 145-80 218h-23L58-218 59 0H30v-248h44l77 211c21-75 51-140 76-211h43V0h-30" id="M"/><path d="M85-194c31 0 48 13 60 33l-1-100h32l1 261h-30c-2-10 0-23-3-31C134-8 116 4 85 4 32 4 16-35 15-94c0-66 23-100 70-100zm9 24c-40 0-46 34-46 75 0 40 6 74 45 74 42 0 51-32 51-76 0-42-9-74-50-73" id="N"/><path d="M179-190L93 31C79 59 56 82 12 73V49c39 6 53-20 64-50L1-190h34L92-34l54-156h33" id="O"/><g id="j"><use transform="matrix(0.05,0,0,0.05,0,0)" xlink:href="#M"/><use transform="matrix(0.05,0,0,0.05,14.950000000000001,0)" xlink:href="#z"/><use transform="matrix(0.05,0,0,0.05,24.950000000000003,0)" xlink:href="#y"/><use transform="matrix(0.05,0,0,0.05,30.900000000000002,0)" xlink:href="#C"/><use transform="matrix(0.05,0,0,0.05,40.900000000000006,0)" xlink:href="#w"/><use transform="matrix(0.05,0,0,0.05,44.85000000000001,0)" xlink:href="#N"/><use transform="matrix(0.05,0,0,0.05,54.85,0)" xlink:href="#w"/><use transform="matrix(0.05,0,0,0.05,58.80000000000001,0)" xlink:href="#x"/><use transform="matrix(0.05,0,0,0.05,63.80000000000001,0)" xlink:href="#O"/></g><path d="M24 0v-261h32V0H24" id="P"/><g id="k"><use transform="matrix(0.05,0,0,0.05,0,0)" xlink:href="#M"/><use transform="matrix(0.05,0,0,0.05,14.950000000000001,0)" xlink:href="#z"/><use transform="matrix(0.05,0,0,0.05,24.950000000000003,0)" xlink:href="#y"/><use transform="matrix(0.05,0,0,0.05,30.900000000000002,0)" xlink:href="#x"/><use transform="matrix(0.05,0,0,0.05,35.900000000000006,0)" xlink:href="#B"/><use transform="matrix(0.05,0,0,0.05,45.900000000000006,0)" xlink:href="#P"/><use transform="matrix(0.05,0,0,0.05,49.85000000000001,0)" xlink:href="#w"/><use transform="matrix(0.05,0,0,0.05,53.80000000000001,0)" xlink:href="#x"/><use transform="matrix(0.05,0,0,0.05,58.80000000000001,0)" xlink:href="#O"/></g><path d="M117-194c89-4 53 116 60 194h-32v-121c0-31-8-49-39-48C34-167 62-67 57 0H25l-1-190h30c1 10-1 24 2 32 11-22 29-35 61-36" id="Q"/><path d="M108 0H70L1-190h34L89-25l56-165h34" id="R"/><g id="l"><use transform="matrix(0.05,0,0,0.05,0,0)" xlink:href="#o"/><use transform="matrix(0.05,0,0,0.05,5,0)" xlink:href="#Q"/><use transform="matrix(0.05,0,0,0.05,15,0)" xlink:href="#x"/><use transform="matrix(0.05,0,0,0.05,20,0)" xlink:href="#u"/><use transform="matrix(0.05,0,0,0.05,30,0)" xlink:href="#y"/><use transform="matrix(0.05,0,0,0.05,35.95,0)" xlink:href="#R"/><use transform="matrix(0.05,0,0,0.05,44.95,0)" xlink:href="#u"/><use transform="matrix(0.05,0,0,0.05,54.95,0)" xlink:href="#Q"/><use transform="matrix(0.05,0,0,0.05,64.95,0)" xlink:href="#x"/><use transform="matrix(0.05,0,0,0.05,69.95,0)" xlink:href="#w"/><use transform="matrix(0.05,0,0,0.05,73.9,0)" xlink:href="#z"/><use transform="matrix(0.05,0,0,0.05,83.9,0)" xlink:href="#Q"/></g><path d="M232-93c-1 65-40 97-104 97C67 4 28-28 28-90v-158h33c8 89-33 224 67 224 102 0 64-133 71-224h33v155" id="S"/><path d="M9 0v-24l116-142H16v-24h144v24L44-24h123V0H9" id="T"/><g id="m"><use transform="matrix(0.05,0,0,0.05,0,0)" xlink:href="#S"/><use transform="matrix(0.05,0,0,0.05,12.950000000000001,0)" xlink:href="#x"/><use transform="matrix(0.05,0,0,0.05,17.950000000000003,0)" xlink:href="#w"/><use transform="matrix(0.05,0,0,0.05,21.900000000000002,0)" xlink:href="#P"/><use transform="matrix(0.05,0,0,0.05,25.85,0)" xlink:href="#w"/><use transform="matrix(0.05,0,0,0.05,29.8,0)" xlink:href="#T"/><use transform="matrix(0.05,0,0,0.05,38.8,0)" xlink:href="#B"/><use transform="matrix(0.05,0,0,0.05,48.8,0)" xlink:href="#x"/><use transform="matrix(0.05,0,0,0.05,53.79999999999999,0)" xlink:href="#w"/><use transform="matrix(0.05,0,0,0.05,57.75,0)" xlink:href="#z"/><use transform="matrix(0.05,0,0,0.05,67.75,0)" xlink:href="#Q"/></g><path d="M177-190C167-65 218 103 67 71c-23-6-38-20-44-43l32-5c15 47 100 32 89-28v-30C133-14 115 1 83 1 29 1 15-40 15-95c0-56 16-97 71-98 29-1 48 16 59 35 1-10 0-23 2-32h30zM94-22c36 0 50-32 50-73 0-42-14-75-50-75-39 0-46 34-46 75s6 73 46 73" id="U"/><g id="n"><use transform="matrix(0.05,0,0,0.05,0,0)" xlink:href="#D"/><use transform="matrix(0.05,0,0,0.05,12.950000000000001,0)" xlink:href="#z"/><use transform="matrix(0.05,0,0,0.05,22.950000000000003,0)" xlink:href="#R"/><use transform="matrix(0.05,0,0,0.05,31.950000000000003,0)" xlink:href="#u"/><use transform="matrix(0.05,0,0,0.05,41.95,0)" xlink:href="#y"/><use transform="matrix(0.05,0,0,0.05,47.900000000000006,0)" xlink:href="#B"/><use transform="matrix(0.05,0,0,0.05,57.900000000000006,0)" xlink:href="#U"/><use transform="matrix(0.05,0,0,0.05,67.9,0)" xlink:href="#u"/></g></defs></g></svg>