<svg xmlns="http://www.w3.org/2000/svg" xmlns:xlink="http://www.w3.org/1999/xlink" xmlns:lucid="lucid" width="440" height="500"><g transform="translate(-300 -60)" lucid:page-tab-id="0_0"><path d="M0 0h1760v1360H0z" fill="#fff"/><path d="M560 80h160v80H560z" stroke="#000" stroke-width="2" fill="#fff"/><use xlink:href="#a" transform="matrix(1,0,0,1,565,85) translate(34.05 38.4625)"/><use xlink:href="#b" transform="matrix(1,0,0,1,565,85) translate(58.949999999999996 38.4625)"/><path d="M480 220h160v80H480z" stroke="#000" stroke-width="2" fill="#fff"/><use xlink:href="#c" transform="matrix(1,0,0,1,485,225) translate(-2.3499999999999943 27.799999999999997)"/><use xlink:href="#d" transform="matrix(1,0,0,1,485,225) translate(39.525 49.4)"/><path d="M400 340h160v80H400z" stroke="#000" stroke-width="2" fill="#fff"/><use xlink:href="#e" transform="matrix(1,0,0,1,405,345) translate(15.124999999999993 27.525)"/><use xlink:href="#d" transform="matrix(1,0,0,1,405,345) translate(39.525 49.125)"/><path d="M320 460h160v80H320z" stroke="#000" stroke-width="2" fill="#fff"/><use xlink:href="#f" transform="matrix(1,0,0,1,325,465) translate(16.574999999999996 27.525)"/><use xlink:href="#g" transform="matrix(1,0,0,1,325,465) translate(92.475 27.525)"/><use xlink:href="#h" transform="matrix(1,0,0,1,325,465) translate(44.025 49.125)"/><path d="M640 162v28h-80v10.5" stroke="#000" stroke-width="2" fill="none"/><path d="M641 162.03h-2V161h2z"/><path d="M560 215.76l-4.64-14.26h9.28z" stroke="#000" stroke-width="2"/><path d="M560 302v18h-80v.5" stroke="#000" stroke-width="2" fill="none"/><path d="M561 302.03h-2V301h2z"/><path d="M480 335.76l-4.64-14.26h9.28z" stroke="#000" stroke-width="2"/><path d="M480 422v18h-80v.5" stroke="#000" stroke-width="2" fill="none"/><path d="M481 422.03h-2V421h2z"/><path d="M400 455.76l-4.64-14.26h9.28z" stroke="#000" stroke-width="2"/><defs><path d="M205 0l-28-72H64L36 0H1l101-248h38L239 0h-34zm-38-99l-47-123c-12 45-31 82-46 123h93" id="i"/><path d="M24 0v-261h32V0H24" id="j"/><g id="a"><use transform="matrix(0.05,0,0,0.05,0,0)" xlink:href="#i"/><use transform="matrix(0.05,0,0,0.05,12,0)" xlink:href="#j"/><use transform="matrix(0.05,0,0,0.05,15.949999999999998,0)" xlink:href="#j"/></g><path d="M96-169c-40 0-48 33-48 73s9 75 48 75c24 0 41-14 43-38l32 2c-6 37-31 61-74 61-59 0-76-41-82-99-10-93 101-131 147-64 4 7 5 14 7 22l-32 3c-4-21-16-35-41-35" id="k"/><path d="M141-36C126-15 110 5 73 4 37 3 15-17 15-53c-1-64 63-63 125-63 3-35-9-54-41-54-24 1-41 7-42 31l-33-3c5-37 33-52 76-52 45 0 72 20 72 64v82c-1 20 7 32 28 27v20c-31 9-61-2-59-35zM48-53c0 20 12 33 32 33 41-3 63-29 60-74-43 2-92-5-92 41" id="l"/><path d="M84 4C-5 8 30-112 23-190h32v120c0 31 7 50 39 49 72-2 45-101 50-169h31l1 190h-30c-1-10 1-25-2-33-11 22-28 36-60 37" id="m"/><path d="M135-143c-3-34-86-38-87 0 15 53 115 12 119 90S17 21 10-45l28-5c4 36 97 45 98 0-10-56-113-15-118-90-4-57 82-63 122-42 12 7 21 19 24 35" id="n"/><path d="M100-194c63 0 86 42 84 106H49c0 40 14 67 53 68 26 1 43-12 49-29l28 8c-11 28-37 45-77 45C44 4 14-33 15-96c1-61 26-98 85-98zm52 81c6-60-76-77-97-28-3 7-6 17-6 28h103" id="o"/><g id="b"><use transform="matrix(0.05,0,0,0.05,0,0)" xlink:href="#k"/><use transform="matrix(0.05,0,0,0.05,9,0)" xlink:href="#l"/><use transform="matrix(0.05,0,0,0.05,19,0)" xlink:href="#m"/><use transform="matrix(0.05,0,0,0.05,29,0)" xlink:href="#n"/><use transform="matrix(0.05,0,0,0.05,38,0)" xlink:href="#o"/><use transform="matrix(0.05,0,0,0.05,48,0)" xlink:href="#n"/></g><path d="M190 0L58-211 59 0H30v-248h39L202-35l-2-213h31V0h-41" id="p"/><path d="M100-194c62-1 85 37 85 99 1 63-27 99-86 99S16-35 15-95c0-66 28-99 85-99zM99-20c44 1 53-31 53-75 0-43-8-75-51-75s-53 32-53 75 10 74 51 75" id="q"/><path d="M117-194c89-4 53 116 60 194h-32v-121c0-31-8-49-39-48C34-167 62-67 57 0H25l-1-190h30c1 10-1 24 2 32 11-22 29-35 61-36" id="r"/><path d="M16-82v-28h88v28H16" id="s"/><path d="M210-169c-67 3-38 105-44 169h-31v-121c0-29-5-50-35-48C34-165 62-65 56 0H25l-1-190h30c1 10-1 24 2 32 10-44 99-50 107 0 11-21 27-35 58-36 85-2 47 119 55 194h-31v-121c0-29-5-49-35-48" id="t"/><path d="M24-231v-30h32v30H24zM24 0v-190h32V0H24" id="u"/><path d="M115-194c53 0 69 39 70 98 0 66-23 100-70 100C84 3 66-7 56-30L54 0H23l1-261h32v101c10-23 28-34 59-34zm-8 174c40 0 45-34 45-75 0-40-5-75-45-74-42 0-51 32-51 76 0 43 10 73 51 73" id="v"/><g id="c"><use transform="matrix(0.05,0,0,0.05,0,0)" xlink:href="#p"/><use transform="matrix(0.05,0,0,0.05,12.950000000000001,0)" xlink:href="#q"/><use transform="matrix(0.05,0,0,0.05,22.950000000000003,0)" xlink:href="#r"/><use transform="matrix(0.05,0,0,0.05,32.95,0)" xlink:href="#s"/><use transform="matrix(0.05,0,0,0.05,38.900000000000006,0)" xlink:href="#k"/><use transform="matrix(0.05,0,0,0.05,47.900000000000006,0)" xlink:href="#q"/><use transform="matrix(0.05,0,0,0.05,57.900000000000006,0)" xlink:href="#t"/><use transform="matrix(0.05,0,0,0.05,72.85000000000001,0)" xlink:href="#t"/><use transform="matrix(0.05,0,0,0.05,87.80000000000001,0)" xlink:href="#m"/><use transform="matrix(0.05,0,0,0.05,97.80000000000001,0)" xlink:href="#r"/><use transform="matrix(0.05,0,0,0.05,107.80000000000001,0)" xlink:href="#u"/><use transform="matrix(0.05,0,0,0.05,111.75,0)" xlink:href="#k"/><use transform="matrix(0.05,0,0,0.05,120.75,0)" xlink:href="#l"/><use transform="matrix(0.05,0,0,0.05,130.75,0)" xlink:href="#v"/><use transform="matrix(0.05,0,0,0.05,140.75,0)" xlink:href="#j"/><use transform="matrix(0.05,0,0,0.05,144.7,0)" xlink:href="#o"/></g><path d="M85-194c31 0 48 13 60 33l-1-100h32l1 261h-30c-2-10 0-23-3-31C134-8 116 4 85 4 32 4 16-35 15-94c0-66 23-100 70-100zm9 24c-40 0-46 34-46 75 0 40 6 74 45 74 42 0 51-32 51-76 0-42-9-74-50-73" id="w"/><g id="d"><use transform="matrix(0.05,0,0,0.05,0,0)" xlink:href="#w"/><use transform="matrix(0.05,0,0,0.05,10,0)" xlink:href="#u"/><use transform="matrix(0.05,0,0,0.05,13.949999999999998,0)" xlink:href="#n"/><use transform="matrix(0.05,0,0,0.05,22.95,0)" xlink:href="#o"/><use transform="matrix(0.05,0,0,0.05,32.95,0)" xlink:href="#l"/><use transform="matrix(0.05,0,0,0.05,42.95,0)" xlink:href="#n"/><use transform="matrix(0.05,0,0,0.05,51.95,0)" xlink:href="#o"/><use transform="matrix(0.05,0,0,0.05,61.95,0)" xlink:href="#n"/></g><path d="M212-179c-10-28-35-45-73-45-59 0-87 40-87 99 0 60 29 101 89 101 43 0 62-24 78-52l27 14C228-24 195 4 139 4 59 4 22-46 18-125c-6-104 99-153 187-111 19 9 31 26 39 46" id="x"/><path d="M114-163C36-179 61-72 57 0H25l-1-190h30c1 12-1 29 2 39 6-27 23-49 58-41v29" id="y"/><path d="M108 0H70L1-190h34L89-25l56-165h34" id="z"/><g id="e"><use transform="matrix(0.05,0,0,0.05,0,0)" xlink:href="#x"/><use transform="matrix(0.05,0,0,0.05,12.950000000000001,0)" xlink:href="#l"/><use transform="matrix(0.05,0,0,0.05,22.950000000000003,0)" xlink:href="#y"/><use transform="matrix(0.05,0,0,0.05,28.900000000000002,0)" xlink:href="#w"/><use transform="matrix(0.05,0,0,0.05,38.900000000000006,0)" xlink:href="#u"/><use transform="matrix(0.05,0,0,0.05,42.85000000000001,0)" xlink:href="#q"/><use transform="matrix(0.05,0,0,0.05,52.85,0)" xlink:href="#z"/><use transform="matrix(0.05,0,0,0.05,61.85,0)" xlink:href="#l"/><use transform="matrix(0.05,0,0,0.05,71.85000000000001,0)" xlink:href="#n"/><use transform="matrix(0.05,0,0,0.05,80.85000000000001,0)" xlink:href="#k"/><use transform="matrix(0.05,0,0,0.05,89.85000000000001,0)" xlink:href="#m"/><use transform="matrix(0.05,0,0,0.05,99.85000000000001,0)" xlink:href="#j"/><use transform="matrix(0.05,0,0,0.05,103.80000000000001,0)" xlink:href="#l"/><use transform="matrix(0.05,0,0,0.05,113.80000000000001,0)" xlink:href="#y"/></g><path d="M33 0v-248h34V0H33" id="A"/><path d="M106-169C34-169 62-67 57 0H25v-261h32l-1 103c12-21 28-36 61-36 89 0 53 116 60 194h-32v-121c2-32-8-49-39-48" id="B"/><g id="f"><use transform="matrix(0.05,0,0,0.05,0,0)" xlink:href="#A"/><use transform="matrix(0.05,0,0,0.05,5,0)" xlink:href="#n"/><use transform="matrix(0.05,0,0,0.05,14,0)" xlink:href="#k"/><use transform="matrix(0.05,0,0,0.05,23,0)" xlink:href="#B"/><use transform="matrix(0.05,0,0,0.05,33,0)" xlink:href="#o"/><use transform="matrix(0.05,0,0,0.05,43,0)" xlink:href="#t"/><use transform="matrix(0.05,0,0,0.05,57.95,0)" xlink:href="#u"/><use transform="matrix(0.05,0,0,0.05,61.900000000000006,0)" xlink:href="#k"/></g><path d="M59-47c-2 24 18 29 38 22v24C64 9 27 4 27-40v-127H5v-23h24l9-43h21v43h35v23H59v120" id="C"/><g id="g"><use transform="matrix(0.05,0,0,0.05,0,0)" xlink:href="#B"/><use transform="matrix(0.05,0,0,0.05,10,0)" xlink:href="#o"/><use transform="matrix(0.05,0,0,0.05,20,0)" xlink:href="#l"/><use transform="matrix(0.05,0,0,0.05,30,0)" xlink:href="#y"/><use transform="matrix(0.05,0,0,0.05,35.95,0)" xlink:href="#C"/></g><g id="h"><use transform="matrix(0.05,0,0,0.05,0,0)" xlink:href="#w"/><use transform="matrix(0.05,0,0,0.05,10,0)" xlink:href="#u"/><use transform="matrix(0.05,0,0,0.05,13.949999999999998,0)" xlink:href="#n"/><use transform="matrix(0.05,0,0,0.05,22.95,0)" xlink:href="#o"/><use transform="matrix(0.05,0,0,0.05,32.95,0)" xlink:href="#l"/><use transform="matrix(0.05,0,0,0.05,42.95,0)" xlink:href="#n"/><use transform="matrix(0.05,0,0,0.05,51.95,0)" xlink:href="#o"/></g></defs></g></svg>