<svg xmlns="http://www.w3.org/2000/svg" xmlns:xlink="http://www.w3.org/1999/xlink" xmlns:lucid="lucid" width="1130" height="815.2"><g transform="translate(-80 20)" lucid:page-tab-id="0_0"><path d="M0 0h1760v1360H0z" fill="#fff"/><path d="M980 560h180v180H980z" fill="#fff"/><path d="M1000 560h20m10 0h20m10 0h20m10 0h20m10 0h20m10 0h10v10m0 10v20m0 10v20m0 10v20m0 10v20m0 10v20m0 10v10h-10m-10 0h-20m-10 0h-20m-10 0h-20m-10 0h-20m-10 0h-20m-10 0h-10v-10m0-10v-20m0-10v-20m0-10v-20m0-10v-20m0-10v-20m0-10v-10h10" stroke="#000" stroke-width="2" fill="none"/><path d="M712 0c4.42 0 8 3.58 8 8v64c0 4.42-3.58 8-8 8H568c-4.42 0-8-3.58-8-8V8c0-4.42 3.58-8 8-8zM612 140c4.42 0 8 3.58 8 8v64c0 4.42-3.58 8-8 8H468c-4.42 0-8-3.58-8-8v-64c0-4.42 3.58-8 8-8z" stroke="#000" stroke-width="2" fill="#fff"/><use xlink:href="#a" transform="matrix(1,0,0,1,480,140) translate(-17.349999999999994 32.8)"/><use xlink:href="#b" transform="matrix(1,0,0,1,480,140) translate(24.525 54.4)"/><path d="M812 140c4.42 0 8 3.58 8 8v64c0 4.42-3.58 8-8 8H668c-4.42 0-8-3.58-8-8v-64c0-4.42 3.58-8 8-8z" stroke="#000" stroke-width="2" fill="#fff"/><use xlink:href="#c" transform="matrix(1,0,0,1,680,140) translate(37.525 43.6)"/><path d="M640 82v28H540v10.5" stroke="#000" stroke-width="2" fill="none"/><path d="M641 82.03h-2V81h2z"/><path d="M540 135.76l-4.64-14.26h9.28z" stroke="#000" stroke-width="2"/><path d="M640 82v28h100v10.5" stroke="#000" stroke-width="2" fill="none"/><path d="M641 82.03h-2V81h2z"/><path d="M740 135.76l-4.64-14.26h9.28z" stroke="#000" stroke-width="2"/><path d="M512 280c4.42 0 8 3.58 8 8v64c0 4.42-3.58 8-8 8H368c-4.42 0-8-3.58-8-8v-64c0-4.42 3.58-8 8-8z" stroke="#000" stroke-width="2" fill="#fff"/><use xlink:href="#d" transform="matrix(1,0,0,1,380,280) translate(0.1249999999999929 32.8)"/><use xlink:href="#b" transform="matrix(1,0,0,1,380,280) translate(24.525 54.4)"/><path d="M540 222v28H440v10.5" stroke="#000" stroke-width="2" fill="none"/><path d="M541 222.03h-2V221h2z"/><path d="M440 275.76l-4.64-14.26h9.28z" stroke="#000" stroke-width="2"/><path d="M712 280c4.42 0 8 3.58 8 8v64c0 4.42-3.58 8-8 8H568c-4.42 0-8-3.58-8-8v-64c0-4.42 3.58-8 8-8z" stroke="#000" stroke-width="2" fill="#fff"/><use xlink:href="#c" transform="matrix(1,0,0,1,580,280) translate(37.525 43.6)"/><path d="M540 222v28h100v10.5" stroke="#000" stroke-width="2" fill="none"/><path d="M541 222.03h-2V221h2z"/><path d="M640 275.76l-4.64-14.26h9.28z" stroke="#000" stroke-width="2"/><path d="M412 420c4.42 0 8 3.58 8 8v64c0 4.42-3.58 8-8 8H268c-4.42 0-8-3.58-8-8v-64c0-4.42 3.58-8 8-8z" stroke="#000" stroke-width="2" fill="#fff"/><use xlink:href="#e" transform="matrix(1,0,0,1,280,420) translate(1.5749999999999957 32.8)"/><use xlink:href="#f" transform="matrix(1,0,0,1,280,420) translate(77.475 32.8)"/><use xlink:href="#g" transform="matrix(1,0,0,1,280,420) translate(29.025 54.4)"/><path d="M440 362v28H340v10.5" stroke="#000" stroke-width="2" fill="none"/><path d="M441 362.03h-2V361h2z"/><path d="M340 415.76l-4.64-14.26h9.28z" stroke="#000" stroke-width="2"/><path d="M612 420c4.42 0 8 3.58 8 8v64c0 4.42-3.58 8-8 8H468c-4.42 0-8-3.58-8-8v-64c0-4.42 3.58-8 8-8z" stroke="#000" stroke-width="2" fill="#fff"/><use xlink:href="#c" transform="matrix(1,0,0,1,480,420) translate(37.525 43.6)"/><path d="M440 362v28h100v10.5" stroke="#000" stroke-width="2" fill="none"/><path d="M441 362.03h-2V361h2z"/><path d="M540 415.76l-4.64-14.26h9.28z" stroke="#000" stroke-width="2"/><path d="M520 10h240v60H520z" stroke="#000" stroke-opacity="0" stroke-width="2" fill="#fff" fill-opacity="0"/><use xlink:href="#h" transform="matrix(1,0,0,1,525,15) translate(74.05 17.525)"/><use xlink:href="#i" transform="matrix(1,0,0,1,525,15) translate(98.94999999999999 17.525)"/><use xlink:href="#j" transform="matrix(1,0,0,1,525,15) translate(84.55 39.125)"/><path d="M100 560h180v180H100z" fill="#fff"/><path d="M120 560h20m10 0h20m10 0h20m10 0h20m10 0h20m10 0h10v10m0 10v20m0 10v20m0 10v20m0 10v20m0 10v20m0 10v10h-10m-10 0h-20m-10 0h-20m-10 0h-20m-10 0h-20m-10 0h-20m-10 0h-10v-10m0-10v-20m0-10v-20m0-10v-20m0-10v-20m0-10v-20m0-10v-10h10" stroke="#000" stroke-width="2" fill="none"/><path d="M100 560h180v99H100z" stroke="#000" stroke-opacity="0" stroke-width="2" fill="#fff" fill-opacity="0"/><use xlink:href="#k" transform="matrix(1,0,0,1,105,565) translate(38.525 14.4)"/><use xlink:href="#l" transform="matrix(1,0,0,1,105,565) translate(53.525 14.4)"/><use xlink:href="#m" transform="matrix(1,0,0,1,105,565) translate(85 36)"/><use xlink:href="#n" transform="matrix(1,0,0,1,105,565) translate(3.125 57.6)"/><use xlink:href="#o" transform="matrix(1,0,0,1,105,565) translate(52.125 57.6)"/><use xlink:href="#p" transform="matrix(1,0,0,1,105,565) translate(77.075 57.6)"/><use xlink:href="#q" transform="matrix(1,0,0,1,105,565) translate(113.975 57.6)"/><use xlink:href="#r" transform="matrix(1,0,0,1,105,565) translate(137.975 57.6)"/><use xlink:href="#s" transform="matrix(1,0,0,1,105,565) translate(18.025000000000006 79.20000000000002)"/><use xlink:href="#t" transform="matrix(1,0,0,1,105,565) translate(33.025000000000006 79.20000000000002)"/><use xlink:href="#u" transform="matrix(1,0,0,1,105,565) translate(76.025 79.20000000000002)"/><use xlink:href="#v" transform="matrix(1,0,0,1,105,565) translate(111.025 79.20000000000002)"/><use xlink:href="#w" transform="matrix(1,0,0,1,105,565) translate(131.97500000000002 79.20000000000002)"/><use xlink:href="#x" transform="matrix(1,0,0,1,105,565) translate(66 100.80000000000001)"/><use xlink:href="#m" transform="matrix(1,0,0,1,105,565) translate(85 122.4)"/><use xlink:href="#y" transform="matrix(1,0,0,1,105,565) translate(31 144)"/><use xlink:href="#z" transform="matrix(1,0,0,1,105,565) translate(90 144)"/><path d="M340 502v28.5H190v11" stroke="#000" stroke-width="2" fill="none"/><path d="M341 502.03h-2V501h2z"/><path d="M190 556.76l-4.64-14.26h9.28z" stroke="#000" stroke-width="2"/><path d="M320 560h180v180H320z" fill="#fff"/><path d="M340 560h20m10 0h20m10 0h20m10 0h20m10 0h20m10 0h10v10m0 10v20m0 10v20m0 10v20m0 10v20m0 10v20m0 10v10h-10m-10 0h-20m-10 0h-20m-10 0h-20m-10 0h-20m-10 0h-20m-10 0h-10v-10m0-10v-20m0-10v-20m0-10v-20m0-10v-20m0-10v-20m0-10v-10h10" stroke="#000" stroke-width="2" fill="none"/><path d="M320 560h180v182.8H320z" stroke="#000" stroke-opacity="0" stroke-width="2" fill="#fff" fill-opacity="0"/><use xlink:href="#A" transform="matrix(1,0,0,1,325,565) translate(38.525 14.4)"/><use xlink:href="#l" transform="matrix(1,0,0,1,325,565) translate(53.525 14.4)"/><use xlink:href="#m" transform="matrix(1,0,0,1,325,565) translate(85 36)"/><use xlink:href="#B" transform="matrix(1,0,0,1,325,565) translate(29.099999999999994 57.6)"/><use xlink:href="#C" transform="matrix(1,0,0,1,325,565) translate(66.94999999999999 57.6)"/><use xlink:href="#D" transform="matrix(1,0,0,1,325,565) translate(86.94999999999999 57.6)"/><use xlink:href="#E" transform="matrix(1,0,0,1,325,565) translate(12.574999999999989 79.20000000000002)"/><use xlink:href="#F" transform="matrix(1,0,0,1,325,565) translate(71.52499999999999 79.20000000000002)"/><use xlink:href="#C" transform="matrix(1,0,0,1,325,565) translate(106.52499999999999 79.20000000000002)"/><use xlink:href="#G" transform="matrix(1,0,0,1,325,565) translate(126.52499999999999 79.20000000000002)"/><use xlink:href="#m" transform="matrix(1,0,0,1,325,565) translate(85 100.80000000000001)"/><use xlink:href="#m" transform="matrix(1,0,0,1,325,565) translate(85 122.4)"/><use xlink:href="#m" transform="matrix(1,0,0,1,325,565) translate(85 144)"/><use xlink:href="#H" transform="matrix(1,0,0,1,325,565) translate(1.5 165.6)"/><use xlink:href="#I" transform="matrix(1,0,0,1,325,565) translate(60.5 165.6)"/><use xlink:href="#J" transform="matrix(1,0,0,1,325,565) translate(119.5 165.6)"/><path d="M540 560h180v180H540z" fill="#fff"/><path d="M560 560h20m10 0h20m10 0h20m10 0h20m10 0h20m10 0h10v10m0 10v20m0 10v20m0 10v20m0 10v20m0 10v20m0 10v10h-10m-10 0h-20m-10 0h-20m-10 0h-20m-10 0h-20m-10 0h-20m-10 0h-10v-10m0-10v-20m0-10v-20m0-10v-20m0-10v-20m0-10v-20m0-10v-10h10" stroke="#000" stroke-width="2" fill="none"/><path d="M510 570.8h240v204.4H510z" stroke="#000" stroke-opacity="0" stroke-width="2" fill="#fff" fill-opacity="0"/><g><use xlink:href="#A" transform="matrix(1,0,0,1,515,575.8) translate(68.525 20.49375)"/><use xlink:href="#l" transform="matrix(1,0,0,1,515,575.8) translate(83.525 20.49375)"/><use xlink:href="#m" transform="matrix(1,0,0,1,515,575.8) translate(115 42.09375)"/><use xlink:href="#B" transform="matrix(1,0,0,1,515,575.8) translate(36.125 63.69375)"/><use xlink:href="#C" transform="matrix(1,0,0,1,515,575.8) translate(73.975 63.69375)"/><use xlink:href="#K" transform="matrix(1,0,0,1,515,575.8) translate(93.975 63.69375)"/><use xlink:href="#L" transform="matrix(1,0,0,1,515,575.8) translate(152.925 63.69375)"/><use xlink:href="#M" transform="matrix(1,0,0,1,515,575.8) translate(45.125 85.29375000000002)"/><use xlink:href="#F" transform="matrix(1,0,0,1,515,575.8) translate(98.975 85.29375000000002)"/><use xlink:href="#C" transform="matrix(1,0,0,1,515,575.8) translate(133.975 85.29375000000002)"/><use xlink:href="#G" transform="matrix(1,0,0,1,515,575.8) translate(153.975 85.29375000000002)"/><use xlink:href="#m" transform="matrix(1,0,0,1,515,575.8) translate(115 106.89375000000001)"/><use xlink:href="#m" transform="matrix(1,0,0,1,515,575.8) translate(115 128.49375)"/><use xlink:href="#N" transform="matrix(1,0,0,1,515,575.8) translate(31.5 150.09375)"/><use xlink:href="#O" transform="matrix(1,0,0,1,515,575.8) translate(90.5 150.09375)"/><use xlink:href="#P" transform="matrix(1,0,0,1,515,575.8) translate(149.5 150.09375)"/><use xlink:href="#m" transform="matrix(1,0,0,1,515,575.8) translate(115 171.69375)"/><use xlink:href="#Q" transform="matrix(1,0,0,1,515,575.8) translate(115 193.29375)"/></g><path d="M760 560h180v180H760z" fill="#fff"/><path d="M780 560h20m10 0h20m10 0h20m10 0h20m10 0h20m10 0h10v10m0 10v20m0 10v20m0 10v20m0 10v20m0 10v20m0 10v10h-10m-10 0h-20m-10 0h-20m-10 0h-20m-10 0h-20m-10 0h-20m-10 0h-10v-10m0-10v-20m0-10v-20m0-10v-20m0-10v-20m0-10v-20m0-10v-10h10" stroke="#000" stroke-width="2" fill="none"/><path d="M730 560h240v182.8H730z" stroke="#000" stroke-opacity="0" stroke-width="2" fill="#fff" fill-opacity="0"/><g><use xlink:href="#R" transform="matrix(1,0,0,1,735,565) translate(73.525 14.4)"/><use xlink:href="#S" transform="matrix(1,0,0,1,735,565) translate(88.525 14.4)"/><use xlink:href="#m" transform="matrix(1,0,0,1,735,565) translate(115 36)"/><use xlink:href="#T" transform="matrix(1,0,0,1,735,565) translate(30.099999999999994 57.6)"/><use xlink:href="#U" transform="matrix(1,0,0,1,735,565) translate(145.95 57.6)"/><use xlink:href="#V" transform="matrix(1,0,0,1,735,565) translate(72.05 79.20000000000002)"/><use xlink:href="#C" transform="matrix(1,0,0,1,735,565) translate(107.05 79.20000000000002)"/><use xlink:href="#G" transform="matrix(1,0,0,1,735,565) translate(127.05 79.20000000000002)"/><use xlink:href="#m" transform="matrix(1,0,0,1,735,565) translate(115 100.80000000000001)"/><use xlink:href="#m" transform="matrix(1,0,0,1,735,565) translate(115 122.4)"/><use xlink:href="#m" transform="matrix(1,0,0,1,735,565) translate(115 144)"/><use xlink:href="#W" transform="matrix(1,0,0,1,735,565) translate(90.5 165.6)"/></g><path d="M950 557.2h240V740H950z" stroke="#000" stroke-opacity="0" stroke-width="2" fill="#fff" fill-opacity="0"/><g><use xlink:href="#R" transform="matrix(1,0,0,1,955,562.2) translate(73.525 14.4)"/><use xlink:href="#S" transform="matrix(1,0,0,1,955,562.2) translate(88.525 14.4)"/><use xlink:href="#m" transform="matrix(1,0,0,1,955,562.2) translate(115 36)"/><use xlink:href="#T" transform="matrix(1,0,0,1,955,562.2) translate(41.625 57.6)"/><use xlink:href="#X" transform="matrix(1,0,0,1,955,562.2) translate(157.47500000000002 57.6)"/><use xlink:href="#Y" transform="matrix(1,0,0,1,955,562.2) translate(67.625 79.20000000000002)"/><use xlink:href="#Z" transform="matrix(1,0,0,1,955,562.2) translate(142.425 79.20000000000002)"/><use xlink:href="#m" transform="matrix(1,0,0,1,955,562.2) translate(115 100.80000000000001)"/><use xlink:href="#m" transform="matrix(1,0,0,1,955,562.2) translate(115 122.4)"/><use xlink:href="#m" transform="matrix(1,0,0,1,955,562.2) translate(115 144)"/><use xlink:href="#aa" transform="matrix(1,0,0,1,955,562.2) translate(85.5 165.6)"/></g><path d="M340 502v28.5h70v11" stroke="#000" stroke-width="2" fill="none"/><path d="M341 502.03h-2V501h2z"/><path d="M410 556.76l-4.64-14.26h9.28z" stroke="#000" stroke-width="2"/><path d="M340 502v28h730v10.5" stroke="#000" stroke-width="2" fill="none"/><path d="M341 502.03h-2V501h2z"/><path d="M1070 555.76l-4.64-14.26h9.28z" stroke="#000" stroke-width="2"/><path d="M340 502v28h510v10.5" stroke="#000" stroke-width="2" fill="none"/><path d="M341 502.03h-2V501h2z"/><path d="M850 555.76l-4.64-14.26h9.28z" stroke="#000" stroke-width="2"/><path d="M340 502v28h290v10.5" stroke="#000" stroke-width="2" fill="none"/><path d="M341 502.03h-2V501h2z"/><path d="M630 555.76l-4.64-14.26h9.28z" stroke="#000" stroke-width="2"/><defs><path d="M190 0L58-211 59 0H30v-248h39L202-35l-2-213h31V0h-41" id="ab"/><path d="M100-194c62-1 85 37 85 99 1 63-27 99-86 99S16-35 15-95c0-66 28-99 85-99zM99-20c44 1 53-31 53-75 0-43-8-75-51-75s-53 32-53 75 10 74 51 75" id="ac"/><path d="M117-194c89-4 53 116 60 194h-32v-121c0-31-8-49-39-48C34-167 62-67 57 0H25l-1-190h30c1 10-1 24 2 32 11-22 29-35 61-36" id="ad"/><path d="M16-82v-28h88v28H16" id="ae"/><path d="M96-169c-40 0-48 33-48 73s9 75 48 75c24 0 41-14 43-38l32 2c-6 37-31 61-74 61-59 0-76-41-82-99-10-93 101-131 147-64 4 7 5 14 7 22l-32 3c-4-21-16-35-41-35" id="af"/><path d="M210-169c-67 3-38 105-44 169h-31v-121c0-29-5-50-35-48C34-165 62-65 56 0H25l-1-190h30c1 10-1 24 2 32 10-44 99-50 107 0 11-21 27-35 58-36 85-2 47 119 55 194h-31v-121c0-29-5-49-35-48" id="ag"/><path d="M84 4C-5 8 30-112 23-190h32v120c0 31 7 50 39 49 72-2 45-101 50-169h31l1 190h-30c-1-10 1-25-2-33-11 22-28 36-60 37" id="ah"/><path d="M24-231v-30h32v30H24zM24 0v-190h32V0H24" id="ai"/><path d="M141-36C126-15 110 5 73 4 37 3 15-17 15-53c-1-64 63-63 125-63 3-35-9-54-41-54-24 1-41 7-42 31l-33-3c5-37 33-52 76-52 45 0 72 20 72 64v82c-1 20 7 32 28 27v20c-31 9-61-2-59-35zM48-53c0 20 12 33 32 33 41-3 63-29 60-74-43 2-92-5-92 41" id="aj"/><path d="M115-194c53 0 69 39 70 98 0 66-23 100-70 100C84 3 66-7 56-30L54 0H23l1-261h32v101c10-23 28-34 59-34zm-8 174c40 0 45-34 45-75 0-40-5-75-45-74-42 0-51 32-51 76 0 43 10 73 51 73" id="ak"/><path d="M24 0v-261h32V0H24" id="al"/><path d="M100-194c63 0 86 42 84 106H49c0 40 14 67 53 68 26 1 43-12 49-29l28 8c-11 28-37 45-77 45C44 4 14-33 15-96c1-61 26-98 85-98zm52 81c6-60-76-77-97-28-3 7-6 17-6 28h103" id="am"/><g id="a"><use transform="matrix(0.05,0,0,0.05,0,0)" xlink:href="#ab"/><use transform="matrix(0.05,0,0,0.05,12.950000000000001,0)" xlink:href="#ac"/><use transform="matrix(0.05,0,0,0.05,22.950000000000003,0)" xlink:href="#ad"/><use transform="matrix(0.05,0,0,0.05,32.95,0)" xlink:href="#ae"/><use transform="matrix(0.05,0,0,0.05,38.900000000000006,0)" xlink:href="#af"/><use transform="matrix(0.05,0,0,0.05,47.900000000000006,0)" xlink:href="#ac"/><use transform="matrix(0.05,0,0,0.05,57.900000000000006,0)" xlink:href="#ag"/><use transform="matrix(0.05,0,0,0.05,72.85000000000001,0)" xlink:href="#ag"/><use transform="matrix(0.05,0,0,0.05,87.80000000000001,0)" xlink:href="#ah"/><use transform="matrix(0.05,0,0,0.05,97.80000000000001,0)" xlink:href="#ad"/><use transform="matrix(0.05,0,0,0.05,107.80000000000001,0)" xlink:href="#ai"/><use transform="matrix(0.05,0,0,0.05,111.75,0)" xlink:href="#af"/><use transform="matrix(0.05,0,0,0.05,120.75,0)" xlink:href="#aj"/><use transform="matrix(0.05,0,0,0.05,130.75,0)" xlink:href="#ak"/><use transform="matrix(0.05,0,0,0.05,140.75,0)" xlink:href="#al"/><use transform="matrix(0.05,0,0,0.05,144.7,0)" xlink:href="#am"/></g><path d="M85-194c31 0 48 13 60 33l-1-100h32l1 261h-30c-2-10 0-23-3-31C134-8 116 4 85 4 32 4 16-35 15-94c0-66 23-100 70-100zm9 24c-40 0-46 34-46 75 0 40 6 74 45 74 42 0 51-32 51-76 0-42-9-74-50-73" id="an"/><path d="M135-143c-3-34-86-38-87 0 15 53 115 12 119 90S17 21 10-45l28-5c4 36 97 45 98 0-10-56-113-15-118-90-4-57 82-63 122-42 12 7 21 19 24 35" id="ao"/><g id="b"><use transform="matrix(0.05,0,0,0.05,0,0)" xlink:href="#an"/><use transform="matrix(0.05,0,0,0.05,10,0)" xlink:href="#ai"/><use transform="matrix(0.05,0,0,0.05,13.949999999999998,0)" xlink:href="#ao"/><use transform="matrix(0.05,0,0,0.05,22.95,0)" xlink:href="#am"/><use transform="matrix(0.05,0,0,0.05,32.95,0)" xlink:href="#aj"/><use transform="matrix(0.05,0,0,0.05,42.95,0)" xlink:href="#ao"/><use transform="matrix(0.05,0,0,0.05,51.95,0)" xlink:href="#am"/><use transform="matrix(0.05,0,0,0.05,61.95,0)" xlink:href="#ao"/></g><path d="M140-251c81 0 123 46 123 126C263-46 219 4 140 4 59 4 17-45 17-125s42-126 123-126zm0 227c63 0 89-41 89-101s-29-99-89-99c-61 0-89 39-89 99S79-25 140-24" id="ap"/><path d="M59-47c-2 24 18 29 38 22v24C64 9 27 4 27-40v-127H5v-23h24l9-43h21v43h35v23H59v120" id="aq"/><path d="M106-169C34-169 62-67 57 0H25v-261h32l-1 103c12-21 28-36 61-36 89 0 53 116 60 194h-32v-121c2-32-8-49-39-48" id="ar"/><path d="M114-163C36-179 61-72 57 0H25l-1-190h30c1 12-1 29 2 39 6-27 23-49 58-41v29" id="as"/><g id="c"><use transform="matrix(0.05,0,0,0.05,0,0)" xlink:href="#ap"/><use transform="matrix(0.05,0,0,0.05,14,0)" xlink:href="#aq"/><use transform="matrix(0.05,0,0,0.05,19,0)" xlink:href="#ar"/><use transform="matrix(0.05,0,0,0.05,29,0)" xlink:href="#am"/><use transform="matrix(0.05,0,0,0.05,39,0)" xlink:href="#as"/></g><path d="M212-179c-10-28-35-45-73-45-59 0-87 40-87 99 0 60 29 101 89 101 43 0 62-24 78-52l27 14C228-24 195 4 139 4 59 4 22-46 18-125c-6-104 99-153 187-111 19 9 31 26 39 46" id="at"/><path d="M108 0H70L1-190h34L89-25l56-165h34" id="au"/><g id="d"><use transform="matrix(0.05,0,0,0.05,0,0)" xlink:href="#at"/><use transform="matrix(0.05,0,0,0.05,12.950000000000001,0)" xlink:href="#aj"/><use transform="matrix(0.05,0,0,0.05,22.950000000000003,0)" xlink:href="#as"/><use transform="matrix(0.05,0,0,0.05,28.900000000000002,0)" xlink:href="#an"/><use transform="matrix(0.05,0,0,0.05,38.900000000000006,0)" xlink:href="#ai"/><use transform="matrix(0.05,0,0,0.05,42.85000000000001,0)" xlink:href="#ac"/><use transform="matrix(0.05,0,0,0.05,52.85,0)" xlink:href="#au"/><use transform="matrix(0.05,0,0,0.05,61.85,0)" xlink:href="#aj"/><use transform="matrix(0.05,0,0,0.05,71.85000000000001,0)" xlink:href="#ao"/><use transform="matrix(0.05,0,0,0.05,80.85000000000001,0)" xlink:href="#af"/><use transform="matrix(0.05,0,0,0.05,89.85000000000001,0)" xlink:href="#ah"/><use transform="matrix(0.05,0,0,0.05,99.85000000000001,0)" xlink:href="#al"/><use transform="matrix(0.05,0,0,0.05,103.80000000000001,0)" xlink:href="#aj"/><use transform="matrix(0.05,0,0,0.05,113.80000000000001,0)" xlink:href="#as"/></g><path d="M33 0v-248h34V0H33" id="av"/><g id="e"><use transform="matrix(0.05,0,0,0.05,0,0)" xlink:href="#av"/><use transform="matrix(0.05,0,0,0.05,5,0)" xlink:href="#ao"/><use transform="matrix(0.05,0,0,0.05,14,0)" xlink:href="#af"/><use transform="matrix(0.05,0,0,0.05,23,0)" xlink:href="#ar"/><use transform="matrix(0.05,0,0,0.05,33,0)" xlink:href="#am"/><use transform="matrix(0.05,0,0,0.05,43,0)" xlink:href="#ag"/><use transform="matrix(0.05,0,0,0.05,57.95,0)" xlink:href="#ai"/><use transform="matrix(0.05,0,0,0.05,61.900000000000006,0)" xlink:href="#af"/></g><g id="f"><use transform="matrix(0.05,0,0,0.05,0,0)" xlink:href="#ar"/><use transform="matrix(0.05,0,0,0.05,10,0)" xlink:href="#am"/><use transform="matrix(0.05,0,0,0.05,20,0)" xlink:href="#aj"/><use transform="matrix(0.05,0,0,0.05,30,0)" xlink:href="#as"/><use transform="matrix(0.05,0,0,0.05,35.95,0)" xlink:href="#aq"/></g><g id="g"><use transform="matrix(0.05,0,0,0.05,0,0)" xlink:href="#an"/><use transform="matrix(0.05,0,0,0.05,10,0)" xlink:href="#ai"/><use transform="matrix(0.05,0,0,0.05,13.949999999999998,0)" xlink:href="#ao"/><use transform="matrix(0.05,0,0,0.05,22.95,0)" xlink:href="#am"/><use transform="matrix(0.05,0,0,0.05,32.95,0)" xlink:href="#aj"/><use transform="matrix(0.05,0,0,0.05,42.95,0)" xlink:href="#ao"/><use transform="matrix(0.05,0,0,0.05,51.95,0)" xlink:href="#am"/></g><path d="M205 0l-28-72H64L36 0H1l101-248h38L239 0h-34zm-38-99l-47-123c-12 45-31 82-46 123h93" id="aw"/><g id="h"><use transform="matrix(0.05,0,0,0.05,0,0)" xlink:href="#aw"/><use transform="matrix(0.05,0,0,0.05,12,0)" xlink:href="#al"/><use transform="matrix(0.05,0,0,0.05,15.949999999999998,0)" xlink:href="#al"/></g><g id="i"><use transform="matrix(0.05,0,0,0.05,0,0)" xlink:href="#af"/><use transform="matrix(0.05,0,0,0.05,9,0)" xlink:href="#aj"/><use transform="matrix(0.05,0,0,0.05,19,0)" xlink:href="#ah"/><use transform="matrix(0.05,0,0,0.05,29,0)" xlink:href="#ao"/><use transform="matrix(0.05,0,0,0.05,38,0)" xlink:href="#am"/><use transform="matrix(0.05,0,0,0.05,48,0)" xlink:href="#ao"/></g><path d="M87 75C49 33 22-17 22-94c0-76 28-126 65-167h31c-38 41-64 92-64 168S80 34 118 75H87" id="ax"/><path d="M-5 72V49h209v23H-5" id="ay"/><path d="M101-251c82-7 93 87 43 132L82-64C71-53 59-42 53-27h129V0H18c2-99 128-94 128-182 0-28-16-43-45-43s-46 15-49 41l-32-3c6-41 34-60 81-64" id="az"/><path d="M99-251c64 0 84 50 84 122C183-37 130 33 47-8c-14-7-20-23-25-40l30-5c6 39 69 39 84 7 9-19 16-44 16-74-10 22-31 35-62 35-49 0-73-33-73-83 0-54 28-83 82-83zm-1 141c31-1 51-18 51-49 0-36-14-67-51-67-34 0-49 23-49 58 0 34 15 58 49 58" id="aA"/><path d="M155-56V0h-30v-56H8v-25l114-167h33v167h35v25h-35zm-30-156c-27 46-58 90-88 131h88v-131" id="aB"/><path d="M33-261c38 41 65 92 65 168S71 34 33 75H2C39 34 66-17 66-93S39-220 2-261h31" id="aC"/><g id="j"><use transform="matrix(0.05,0,0,0.05,0,0)" xlink:href="#ax"/><use transform="matrix(0.05,0,0,0.05,5.95,0)" xlink:href="#af"/><use transform="matrix(0.05,0,0,0.05,14.949999999999998,0)" xlink:href="#ay"/><use transform="matrix(0.05,0,0,0.05,24.95,0)" xlink:href="#az"/><use transform="matrix(0.05,0,0,0.05,34.95,0)" xlink:href="#aA"/><use transform="matrix(0.05,0,0,0.05,44.95,0)" xlink:href="#aB"/><use transform="matrix(0.05,0,0,0.05,54.95,0)" xlink:href="#aC"/></g><use transform="matrix(0.05,0,0,0.05,0,0)" xlink:href="#az" id="k"/><path d="M145-31C134-9 116 4 85 4 32 4 16-35 15-94c0-59 17-99 70-100 32-1 48 14 60 33 0-11-1-24 2-32h30l-1 268h-32zM93-21c41 0 51-33 51-76s-8-73-50-73c-40 0-46 35-46 75s5 74 45 74" id="aD"/><path d="M33-154v-36h34v36H33zM33 0v-36h34V0H33" id="aE"/><g id="l"><use transform="matrix(0.05,0,0,0.05,0,0)" xlink:href="#ao"/><use transform="matrix(0.05,0,0,0.05,9,0)" xlink:href="#am"/><use transform="matrix(0.05,0,0,0.05,19,0)" xlink:href="#aD"/><use transform="matrix(0.05,0,0,0.05,29,0)" xlink:href="#ah"/><use transform="matrix(0.05,0,0,0.05,39,0)" xlink:href="#am"/><use transform="matrix(0.05,0,0,0.05,49,0)" xlink:href="#al"/><use transform="matrix(0.05,0,0,0.05,52.95,0)" xlink:href="#aj"/><use transform="matrix(0.05,0,0,0.05,62.95,0)" xlink:href="#am"/><use transform="matrix(0.05,0,0,0.05,72.95,0)" xlink:href="#aE"/></g><g id="n"><use transform="matrix(0.05,0,0,0.05,0,0)" xlink:href="#aj"/><use transform="matrix(0.05,0,0,0.05,10,0)" xlink:href="#af"/><use transform="matrix(0.05,0,0,0.05,19,0)" xlink:href="#ah"/><use transform="matrix(0.05,0,0,0.05,29,0)" xlink:href="#aq"/><use transform="matrix(0.05,0,0,0.05,34,0)" xlink:href="#am"/></g><path d="M240 0l2-218c-23 76-54 145-80 218h-23L58-218 59 0H30v-248h44l77 211c21-75 51-140 76-211h43V0h-30" id="aF"/><g id="o"><use transform="matrix(0.05,0,0,0.05,0,0)" xlink:href="#aF"/><use transform="matrix(0.05,0,0,0.05,14.950000000000001,0)" xlink:href="#av"/></g><path d="M115-194c55 1 70 41 70 98S169 2 115 4C84 4 66-9 55-30l1 105H24l-1-265h31l2 30c10-21 28-34 59-34zm-8 174c40 0 45-34 45-75s-6-73-45-74c-42 0-51 32-51 76 0 43 10 73 51 73" id="aG"/><g id="p"><use transform="matrix(0.05,0,0,0.05,0,0)" xlink:href="#ao"/><use transform="matrix(0.05,0,0,0.05,9,0)" xlink:href="#aG"/><use transform="matrix(0.05,0,0,0.05,19,0)" xlink:href="#al"/><use transform="matrix(0.05,0,0,0.05,22.95,0)" xlink:href="#ai"/><use transform="matrix(0.05,0,0,0.05,26.899999999999995,0)" xlink:href="#aq"/></g><path d="M179-190L93 31C79 59 56 82 12 73V49c39 6 53-20 64-50L1-190h34L92-34l54-156h33" id="aH"/><g id="q"><use transform="matrix(0.05,0,0,0.05,0,0)" xlink:href="#ak"/><use transform="matrix(0.05,0,0,0.05,10,0)" xlink:href="#aH"/></g><path d="M101-234c-31-9-42 10-38 44h38v23H63V0H32v-167H5v-23h27c-7-52 17-82 69-68v24" id="aI"/><g id="r"><use transform="matrix(0.05,0,0,0.05,0,0)" xlink:href="#aI"/><use transform="matrix(0.05,0,0,0.05,5,0)" xlink:href="#ai"/><use transform="matrix(0.05,0,0,0.05,8.95,0)" xlink:href="#as"/><use transform="matrix(0.05,0,0,0.05,14.899999999999999,0)" xlink:href="#ao"/><use transform="matrix(0.05,0,0,0.05,23.9,0)" xlink:href="#aq"/></g><use transform="matrix(0.05,0,0,0.05,0,0)" xlink:href="#az" id="s"/><g id="t"><use transform="matrix(0.05,0,0,0.05,0,0)" xlink:href="#an"/><use transform="matrix(0.05,0,0,0.05,10,0)" xlink:href="#aj"/><use transform="matrix(0.05,0,0,0.05,20,0)" xlink:href="#aH"/><use transform="matrix(0.05,0,0,0.05,29,0)" xlink:href="#ao"/></g><g id="u"><use transform="matrix(0.05,0,0,0.05,0,0)" xlink:href="#aj"/><use transform="matrix(0.05,0,0,0.05,10,0)" xlink:href="#ad"/><use transform="matrix(0.05,0,0,0.05,20,0)" xlink:href="#an"/></g><path d="M126-127c33 6 58 20 58 59 0 88-139 92-164 29-3-8-5-16-6-25l32-3c6 27 21 44 54 44 32 0 52-15 52-46 0-38-36-46-79-43v-28c39 1 72-4 72-42 0-27-17-43-46-43-28 0-47 15-49 41l-32-3c6-42 35-63 81-64 48-1 79 21 79 65 0 36-21 52-52 59" id="aJ"/><g id="v"><use transform="matrix(0.05,0,0,0.05,0,0)" xlink:href="#aJ"/><use transform="matrix(0.05,0,0,0.05,10,0)" xlink:href="#ae"/></g><path d="M134-131c28 9 52 24 51 62-1 50-34 73-85 73S17-19 16-69c0-36 21-54 49-61-75-25-45-126 34-121 46 3 78 18 79 63 0 33-17 51-44 57zm-34-11c31 1 46-15 46-44 0-28-17-43-47-42-29 0-46 13-45 42 1 28 16 44 46 44zm1 122c35 0 51-18 51-52 0-30-18-46-53-46-33 0-51 17-51 47 0 34 19 51 53 51" id="aK"/><g id="w"><use transform="matrix(0.05,0,0,0.05,0,0)" xlink:href="#az"/><use transform="matrix(0.05,0,0,0.05,10,0)" xlink:href="#aK"/></g><g id="x"><use transform="matrix(0.05,0,0,0.05,0,0)" xlink:href="#an"/><use transform="matrix(0.05,0,0,0.05,10,0)" xlink:href="#aj"/><use transform="matrix(0.05,0,0,0.05,20,0)" xlink:href="#aH"/><use transform="matrix(0.05,0,0,0.05,29,0)" xlink:href="#ao"/></g><path d="M64 0c3-98 48-159 88-221H18v-27h164v26C143-157 98-101 97 0H64" id="aL"/><path d="M68-38c1 34 0 65-14 84H32c9-13 17-26 17-46H33v-38h35" id="aM"/><g id="y"><use transform="matrix(0.05,0,0,0.05,0,0)" xlink:href="#ao"/><use transform="matrix(0.05,0,0,0.05,9,0)" xlink:href="#ay"/><use transform="matrix(0.05,0,0,0.05,19,0)" xlink:href="#aJ"/><use transform="matrix(0.05,0,0,0.05,29,0)" xlink:href="#aL"/><use transform="matrix(0.05,0,0,0.05,39,0)" xlink:href="#aK"/><use transform="matrix(0.05,0,0,0.05,49,0)" xlink:href="#aM"/></g><g id="z"><use transform="matrix(0.05,0,0,0.05,0,0)" xlink:href="#ao"/><use transform="matrix(0.05,0,0,0.05,9,0)" xlink:href="#ay"/><use transform="matrix(0.05,0,0,0.05,19,0)" xlink:href="#aJ"/><use transform="matrix(0.05,0,0,0.05,29,0)" xlink:href="#aL"/><use transform="matrix(0.05,0,0,0.05,39,0)" xlink:href="#aA"/></g><use transform="matrix(0.05,0,0,0.05,0,0)" xlink:href="#aJ" id="A"/><g id="B"><use transform="matrix(0.05,0,0,0.05,0,0)" xlink:href="#ag"/><use transform="matrix(0.05,0,0,0.05,14.950000000000001,0)" xlink:href="#ai"/><use transform="matrix(0.05,0,0,0.05,18.900000000000002,0)" xlink:href="#al"/><use transform="matrix(0.05,0,0,0.05,22.85,0)" xlink:href="#an"/></g><g id="C"><use transform="matrix(0.05,0,0,0.05,0,0)" xlink:href="#aq"/><use transform="matrix(0.05,0,0,0.05,5,0)" xlink:href="#ac"/></g><g id="D"><use transform="matrix(0.05,0,0,0.05,0,0)" xlink:href="#ao"/><use transform="matrix(0.05,0,0,0.05,9,0)" xlink:href="#am"/><use transform="matrix(0.05,0,0,0.05,19,0)" xlink:href="#au"/><use transform="matrix(0.05,0,0,0.05,28,0)" xlink:href="#am"/><use transform="matrix(0.05,0,0,0.05,38,0)" xlink:href="#as"/><use transform="matrix(0.05,0,0,0.05,43.95,0)" xlink:href="#am"/></g><path d="M177-190C167-65 218 103 67 71c-23-6-38-20-44-43l32-5c15 47 100 32 89-28v-30C133-14 115 1 83 1 29 1 15-40 15-95c0-56 16-97 71-98 29-1 48 16 59 35 1-10 0-23 2-32h30zM94-22c36 0 50-32 50-73 0-42-14-75-50-75-39 0-46 34-46 75s6 73 46 73" id="aN"/><g id="E"><use transform="matrix(0.05,0,0,0.05,0,0)" xlink:href="#aj"/><use transform="matrix(0.05,0,0,0.05,10,0)" xlink:href="#ad"/><use transform="matrix(0.05,0,0,0.05,20,0)" xlink:href="#aN"/><use transform="matrix(0.05,0,0,0.05,30,0)" xlink:href="#ai"/><use transform="matrix(0.05,0,0,0.05,33.95,0)" xlink:href="#ad"/><use transform="matrix(0.05,0,0,0.05,43.95,0)" xlink:href="#aj"/></g><g id="F"><use transform="matrix(0.05,0,0,0.05,0,0)" xlink:href="#an"/><use transform="matrix(0.05,0,0,0.05,10,0)" xlink:href="#ah"/><use transform="matrix(0.05,0,0,0.05,20,0)" xlink:href="#am"/></g><path d="M197 0v-115H63V0H30v-248h33v105h134v-105h34V0h-34" id="aO"/><path d="M30-248c118-7 216 8 213 122C240-48 200 0 122 0H30v-248zM63-27c89 8 146-16 146-99s-60-101-146-95v194" id="aP"/><g id="G"><use transform="matrix(0.05,0,0,0.05,0,0)" xlink:href="#av"/><use transform="matrix(0.05,0,0,0.05,5,0)" xlink:href="#aO"/><use transform="matrix(0.05,0,0,0.05,17.950000000000003,0)" xlink:href="#aP"/></g><path d="M101-251c68 0 85 55 85 127S166 4 100 4C33 4 14-52 14-124c0-73 17-127 87-127zm-1 229c47 0 54-49 54-102s-4-102-53-102c-51 0-55 48-55 102 0 53 5 102 54 102" id="aQ"/><g id="H"><use transform="matrix(0.05,0,0,0.05,0,0)" xlink:href="#ao"/><use transform="matrix(0.05,0,0,0.05,9,0)" xlink:href="#ay"/><use transform="matrix(0.05,0,0,0.05,19,0)" xlink:href="#aJ"/><use transform="matrix(0.05,0,0,0.05,29,0)" xlink:href="#aK"/><use transform="matrix(0.05,0,0,0.05,39,0)" xlink:href="#aQ"/><use transform="matrix(0.05,0,0,0.05,49,0)" xlink:href="#aM"/></g><path d="M27 0v-27h64v-190l-56 39v-29l58-41h29v221h61V0H27" id="aR"/><g id="I"><use transform="matrix(0.05,0,0,0.05,0,0)" xlink:href="#ao"/><use transform="matrix(0.05,0,0,0.05,9,0)" xlink:href="#ay"/><use transform="matrix(0.05,0,0,0.05,19,0)" xlink:href="#aJ"/><use transform="matrix(0.05,0,0,0.05,29,0)" xlink:href="#aK"/><use transform="matrix(0.05,0,0,0.05,39,0)" xlink:href="#aR"/><use transform="matrix(0.05,0,0,0.05,49,0)" xlink:href="#aM"/></g><g id="J"><use transform="matrix(0.05,0,0,0.05,0,0)" xlink:href="#ao"/><use transform="matrix(0.05,0,0,0.05,9,0)" xlink:href="#ay"/><use transform="matrix(0.05,0,0,0.05,19,0)" xlink:href="#aJ"/><use transform="matrix(0.05,0,0,0.05,29,0)" xlink:href="#aK"/><use transform="matrix(0.05,0,0,0.05,39,0)" xlink:href="#az"/></g><g id="K"><use transform="matrix(0.05,0,0,0.05,0,0)" xlink:href="#ao"/><use transform="matrix(0.05,0,0,0.05,9,0)" xlink:href="#am"/><use transform="matrix(0.05,0,0,0.05,19,0)" xlink:href="#au"/><use transform="matrix(0.05,0,0,0.05,28,0)" xlink:href="#am"/><use transform="matrix(0.05,0,0,0.05,38,0)" xlink:href="#as"/><use transform="matrix(0.05,0,0,0.05,43.95,0)" xlink:href="#am"/></g><g id="L"><use transform="matrix(0.05,0,0,0.05,0,0)" xlink:href="#ar"/><use transform="matrix(0.05,0,0,0.05,10,0)" xlink:href="#am"/><use transform="matrix(0.05,0,0,0.05,20,0)" xlink:href="#aj"/><use transform="matrix(0.05,0,0,0.05,30,0)" xlink:href="#as"/><use transform="matrix(0.05,0,0,0.05,35.95,0)" xlink:href="#aq"/></g><g id="M"><use transform="matrix(0.05,0,0,0.05,0,0)" xlink:href="#aI"/><use transform="matrix(0.05,0,0,0.05,5,0)" xlink:href="#aj"/><use transform="matrix(0.05,0,0,0.05,15,0)" xlink:href="#ai"/><use transform="matrix(0.05,0,0,0.05,18.95,0)" xlink:href="#al"/><use transform="matrix(0.05,0,0,0.05,22.9,0)" xlink:href="#ah"/><use transform="matrix(0.05,0,0,0.05,32.9,0)" xlink:href="#as"/><use transform="matrix(0.05,0,0,0.05,38.85,0)" xlink:href="#am"/></g><g id="N"><use transform="matrix(0.05,0,0,0.05,0,0)" xlink:href="#ao"/><use transform="matrix(0.05,0,0,0.05,9,0)" xlink:href="#ay"/><use transform="matrix(0.05,0,0,0.05,19,0)" xlink:href="#aJ"/><use transform="matrix(0.05,0,0,0.05,29,0)" xlink:href="#aK"/><use transform="matrix(0.05,0,0,0.05,39,0)" xlink:href="#aJ"/><use transform="matrix(0.05,0,0,0.05,49,0)" xlink:href="#aM"/></g><g id="O"><use transform="matrix(0.05,0,0,0.05,0,0)" xlink:href="#ao"/><use transform="matrix(0.05,0,0,0.05,9,0)" xlink:href="#ay"/><use transform="matrix(0.05,0,0,0.05,19,0)" xlink:href="#aJ"/><use transform="matrix(0.05,0,0,0.05,29,0)" xlink:href="#aK"/><use transform="matrix(0.05,0,0,0.05,39,0)" xlink:href="#aB"/><use transform="matrix(0.05,0,0,0.05,49,0)" xlink:href="#aM"/></g><path d="M54-142c48-35 137-8 131 61C196 18 31 33 14-55l32-4c7 23 22 37 52 37 35-1 51-22 54-58 4-55-73-65-99-34H22l8-134h141v27H59" id="aS"/><g id="P"><use transform="matrix(0.05,0,0,0.05,0,0)" xlink:href="#ao"/><use transform="matrix(0.05,0,0,0.05,9,0)" xlink:href="#ay"/><use transform="matrix(0.05,0,0,0.05,19,0)" xlink:href="#aJ"/><use transform="matrix(0.05,0,0,0.05,29,0)" xlink:href="#aK"/><use transform="matrix(0.05,0,0,0.05,39,0)" xlink:href="#aS"/></g><use transform="matrix(0.05,0,0,0.05,0,0)" xlink:href="#aR" id="R"/><g id="S"><use transform="matrix(0.05,0,0,0.05,0,0)" xlink:href="#ao"/><use transform="matrix(0.05,0,0,0.05,9,0)" xlink:href="#am"/><use transform="matrix(0.05,0,0,0.05,19,0)" xlink:href="#aD"/><use transform="matrix(0.05,0,0,0.05,29,0)" xlink:href="#ah"/><use transform="matrix(0.05,0,0,0.05,39,0)" xlink:href="#am"/><use transform="matrix(0.05,0,0,0.05,49,0)" xlink:href="#al"/><use transform="matrix(0.05,0,0,0.05,52.95,0)" xlink:href="#aj"/><use transform="matrix(0.05,0,0,0.05,62.95,0)" xlink:href="#aE"/></g><g id="T"><use transform="matrix(0.05,0,0,0.05,0,0)" xlink:href="#aj"/><use transform="matrix(0.05,0,0,0.05,10,0)" xlink:href="#ao"/><use transform="matrix(0.05,0,0,0.05,19,0)" xlink:href="#aH"/><use transform="matrix(0.05,0,0,0.05,28,0)" xlink:href="#ag"/><use transform="matrix(0.05,0,0,0.05,42.95,0)" xlink:href="#aG"/><use transform="matrix(0.05,0,0,0.05,52.95,0)" xlink:href="#aq"/><use transform="matrix(0.05,0,0,0.05,57.95,0)" xlink:href="#ac"/><use transform="matrix(0.05,0,0,0.05,67.95,0)" xlink:href="#ag"/><use transform="matrix(0.05,0,0,0.05,82.9,0)" xlink:href="#aj"/><use transform="matrix(0.05,0,0,0.05,92.9,0)" xlink:href="#aq"/><use transform="matrix(0.05,0,0,0.05,97.9,0)" xlink:href="#ai"/><use transform="matrix(0.05,0,0,0.05,101.85000000000001,0)" xlink:href="#af"/></g><g id="U"><use transform="matrix(0.05,0,0,0.05,0,0)" xlink:href="#aj"/><use transform="matrix(0.05,0,0,0.05,10,0)" xlink:href="#ad"/><use transform="matrix(0.05,0,0,0.05,20,0)" xlink:href="#aN"/><use transform="matrix(0.05,0,0,0.05,30,0)" xlink:href="#ai"/><use transform="matrix(0.05,0,0,0.05,33.95,0)" xlink:href="#ad"/><use transform="matrix(0.05,0,0,0.05,43.95,0)" xlink:href="#aj"/></g><g id="V"><use transform="matrix(0.05,0,0,0.05,0,0)" xlink:href="#an"/><use transform="matrix(0.05,0,0,0.05,10,0)" xlink:href="#ah"/><use transform="matrix(0.05,0,0,0.05,20,0)" xlink:href="#am"/></g><g id="W"><use transform="matrix(0.05,0,0,0.05,0,0)" xlink:href="#ao"/><use transform="matrix(0.05,0,0,0.05,9,0)" xlink:href="#ay"/><use transform="matrix(0.05,0,0,0.05,19,0)" xlink:href="#aA"/><use transform="matrix(0.05,0,0,0.05,29,0)" xlink:href="#aS"/><use transform="matrix(0.05,0,0,0.05,39,0)" xlink:href="#aJ"/></g><g id="X"><use transform="matrix(0.05,0,0,0.05,0,0)" xlink:href="#av"/><use transform="matrix(0.05,0,0,0.05,5,0)" xlink:href="#aO"/><use transform="matrix(0.05,0,0,0.05,17.950000000000003,0)" xlink:href="#aP"/></g><path d="M206 0h-36l-40-164L89 0H53L-1-190h32L70-26l43-164h34l41 164 42-164h31" id="aT"/><g id="Y"><use transform="matrix(0.05,0,0,0.05,0,0)" xlink:href="#aI"/><use transform="matrix(0.05,0,0,0.05,5,0)" xlink:href="#ac"/><use transform="matrix(0.05,0,0,0.05,15,0)" xlink:href="#al"/><use transform="matrix(0.05,0,0,0.05,18.95,0)" xlink:href="#al"/><use transform="matrix(0.05,0,0,0.05,22.9,0)" xlink:href="#ac"/><use transform="matrix(0.05,0,0,0.05,32.9,0)" xlink:href="#aT"/><use transform="matrix(0.05,0,0,0.05,45.85,0)" xlink:href="#ai"/><use transform="matrix(0.05,0,0,0.05,49.800000000000004,0)" xlink:href="#ad"/><use transform="matrix(0.05,0,0,0.05,59.800000000000004,0)" xlink:href="#aN"/></g><g id="Z"><use transform="matrix(0.05,0,0,0.05,0,0)" xlink:href="#aF"/><use transform="matrix(0.05,0,0,0.05,14.950000000000001,0)" xlink:href="#av"/></g><g id="aa"><use transform="matrix(0.05,0,0,0.05,0,0)" xlink:href="#ao"/><use transform="matrix(0.05,0,0,0.05,9,0)" xlink:href="#ay"/><use transform="matrix(0.05,0,0,0.05,19,0)" xlink:href="#aR"/><use transform="matrix(0.05,0,0,0.05,29,0)" xlink:href="#aQ"/><use transform="matrix(0.05,0,0,0.05,39,0)" xlink:href="#aB"/><use transform="matrix(0.05,0,0,0.05,49,0)" xlink:href="#aQ"/></g></defs></g></svg>