<svg xmlns="http://www.w3.org/2000/svg" xmlns:xlink="http://www.w3.org/1999/xlink" xmlns:lucid="lucid" width="550" height="400"><g transform="translate(30 -60)" lucid:page-tab-id="U66s3SID5zgm"><path d="M-1696 0h3456v1360h-3456z" fill="#fff"/><path d="M192 360c4.42 0 8 3.58 8 8v64c0 4.42-3.58 8-8 8H28c-4.42 0-8-3.58-8-8v-64c0-4.42 3.58-8 8-8zM292 220c4.42 0 8 3.58 8 8v64c0 4.42-3.58 8-8 8H148c-4.42 0-8-3.58-8-8v-64c0-4.42 3.58-8 8-8z" stroke="#000" stroke-width="2" fill="#fff"/><path d="M100 220h240v60H100z" stroke="#000" stroke-opacity="0" stroke-width="2" fill="#fff" fill-opacity="0"/><use xlink:href="#a" transform="matrix(1,0,0,1,105,225) translate(53.12499999999999 17.525)"/><use xlink:href="#b" transform="matrix(1,0,0,1,105,225) translate(76.6 39.125)"/><use xlink:href="#c" transform="matrix(1,0,0,1,105,225) translate(147.45 39.125)"/><path d="M-10 370h240v60H-10z" stroke="#000" stroke-opacity="0" stroke-width="2" fill="#fff" fill-opacity="0"/><use xlink:href="#d" transform="matrix(1,0,0,1,-5,375) translate(35.650000000000006 17.525)"/><use xlink:href="#e" transform="matrix(1,0,0,1,-5,375) translate(79.1 39.125)"/><path d="M392 80c4.42 0 8 3.58 8 8v64c0 4.42-3.58 8-8 8H248c-4.42 0-8-3.58-8-8V88c0-4.42 3.58-8 8-8z" stroke="#000" stroke-width="2" fill="#fff"/><path d="M200 90h240v60H200z" stroke="#000" stroke-opacity="0" stroke-width="2" fill="#fff" fill-opacity="0"/><use xlink:href="#f" transform="matrix(1,0,0,1,205,95) translate(55.12499999999999 17.525)"/><use xlink:href="#g" transform="matrix(1,0,0,1,205,95) translate(79.1 39.125)"/><path d="M492 220c4.42 0 8 3.58 8 8v64c0 4.42-3.58 8-8 8H348c-4.42 0-8-3.58-8-8v-64c0-4.42 3.58-8 8-8z" stroke="#000" stroke-width="2" fill="#fff"/><use xlink:href="#h" transform="matrix(1,0,0,1,360,220) translate(39.525 43.6)"/><path d="M392 360c4.42 0 8 3.58 8 8v64c0 4.42-3.58 8-8 8H248c-4.42 0-8-3.58-8-8v-64c0-4.42 3.58-8 8-8z" stroke="#000" stroke-width="2" fill="#fff"/><use xlink:href="#h" transform="matrix(1,0,0,1,260,360) translate(39.525 43.6)"/><path d="M320 162v28H220v10.5" stroke="#000" stroke-width="2" fill="none"/><path d="M321 162.03h-2V161h2z"/><path d="M220 215.76l-4.64-14.26h9.28z" stroke="#000" stroke-width="2"/><path d="M320 162v28h100v10.5" stroke="#000" stroke-width="2" fill="none"/><path d="M321 162.03h-2V161h2z"/><path d="M420 215.76l-4.64-14.26h9.28z" stroke="#000" stroke-width="2"/><path d="M220 281v38.5H110v21" stroke="#000" stroke-width="2" fill="none"/><path d="M221 281.03h-2V280h2z"/><path d="M110 355.76l-4.64-14.26h9.28z" stroke="#000" stroke-width="2"/><path d="M220 281v38.5h100v21" stroke="#000" stroke-width="2" fill="none"/><path d="M221 281.03h-2V280h2z"/><path d="M320 355.76l-4.64-14.26h9.28z" stroke="#000" stroke-width="2"/><defs><path d="M210-169c-67 3-38 105-44 169h-31v-121c0-29-5-50-35-48C34-165 62-65 56 0H25l-1-190h30c1 10-1 24 2 32 10-44 99-50 107 0 11-21 27-35 58-36 85-2 47 119 55 194h-31v-121c0-29-5-49-35-48" id="i"/><path d="M100-194c63 0 86 42 84 106H49c0 40 14 67 53 68 26 1 43-12 49-29l28 8c-11 28-37 45-77 45C44 4 14-33 15-96c1-61 26-98 85-98zm52 81c6-60-76-77-97-28-3 7-6 17-6 28h103" id="j"/><path d="M59-47c-2 24 18 29 38 22v24C64 9 27 4 27-40v-127H5v-23h24l9-43h21v43h35v23H59v120" id="k"/><path d="M141-36C126-15 110 5 73 4 37 3 15-17 15-53c-1-64 63-63 125-63 3-35-9-54-41-54-24 1-41 7-42 31l-33-3c5-37 33-52 76-52 45 0 72 20 72 64v82c-1 20 7 32 28 27v20c-31 9-61-2-59-35zM48-53c0 20 12 33 32 33 41-3 63-29 60-74-43 2-92-5-92 41" id="l"/><path d="M115-194c53 0 69 39 70 98 0 66-23 100-70 100C84 3 66-7 56-30L54 0H23l1-261h32v101c10-23 28-34 59-34zm-8 174c40 0 45-34 45-75 0-40-5-75-45-74-42 0-51 32-51 76 0 43 10 73 51 73" id="m"/><path d="M100-194c62-1 85 37 85 99 1 63-27 99-86 99S16-35 15-95c0-66 28-99 85-99zM99-20c44 1 53-31 53-75 0-43-8-75-51-75s-53 32-53 75 10 74 51 75" id="n"/><path d="M24 0v-261h32V0H24" id="o"/><path d="M24-231v-30h32v30H24zM24 0v-190h32V0H24" id="p"/><path d="M96-169c-40 0-48 33-48 73s9 75 48 75c24 0 41-14 43-38l32 2c-6 37-31 61-74 61-59 0-76-41-82-99-10-93 101-131 147-64 4 7 5 14 7 22l-32 3c-4-21-16-35-41-35" id="q"/><path d="M-5 72V49h209v23H-5" id="r"/><path d="M114-163C36-179 61-72 57 0H25l-1-190h30c1 12-1 29 2 39 6-27 23-49 58-41v29" id="s"/><path d="M135-143c-3-34-86-38-87 0 15 53 115 12 119 90S17 21 10-45l28-5c4 36 97 45 98 0-10-56-113-15-118-90-4-57 82-63 122-42 12 7 21 19 24 35" id="t"/><path d="M143 0L79-87 56-68V0H24v-261h32v163l83-92h37l-77 82L181 0h-38" id="u"/><g id="a"><use transform="matrix(0.05,0,0,0.05,0,0)" xlink:href="#i"/><use transform="matrix(0.05,0,0,0.05,14.950000000000001,0)" xlink:href="#j"/><use transform="matrix(0.05,0,0,0.05,24.950000000000003,0)" xlink:href="#k"/><use transform="matrix(0.05,0,0,0.05,29.950000000000003,0)" xlink:href="#l"/><use transform="matrix(0.05,0,0,0.05,39.95,0)" xlink:href="#m"/><use transform="matrix(0.05,0,0,0.05,49.95,0)" xlink:href="#n"/><use transform="matrix(0.05,0,0,0.05,59.95,0)" xlink:href="#o"/><use transform="matrix(0.05,0,0,0.05,63.900000000000006,0)" xlink:href="#p"/><use transform="matrix(0.05,0,0,0.05,67.85000000000001,0)" xlink:href="#q"/><use transform="matrix(0.05,0,0,0.05,76.85000000000001,0)" xlink:href="#r"/><use transform="matrix(0.05,0,0,0.05,86.85000000000001,0)" xlink:href="#s"/><use transform="matrix(0.05,0,0,0.05,92.80000000000001,0)" xlink:href="#p"/><use transform="matrix(0.05,0,0,0.05,96.75000000000001,0)" xlink:href="#t"/><use transform="matrix(0.05,0,0,0.05,105.75,0)" xlink:href="#u"/><use transform="matrix(0.05,0,0,0.05,114.75,0)" xlink:href="#t"/></g><path d="M87 75C49 33 22-17 22-94c0-76 28-126 65-167h31c-38 41-64 92-64 168S80 34 118 75H87" id="v"/><path d="M27 0v-27h64v-190l-56 39v-29l58-41h29v221h61V0H27" id="w"/><path d="M101-251c68 0 85 55 85 127S166 4 100 4C33 4 14-52 14-124c0-73 17-127 87-127zm-1 229c47 0 54-49 54-102s-4-102-53-102c-51 0-55 48-55 102 0 53 5 102 54 102" id="x"/><path d="M155-56V0h-30v-56H8v-25l114-167h33v167h35v25h-35zm-30-156c-27 46-58 90-88 131h88v-131" id="y"/><g id="b"><use transform="matrix(0.05,0,0,0.05,0,0)" xlink:href="#v"/><use transform="matrix(0.05,0,0,0.05,5.95,0)" xlink:href="#s"/><use transform="matrix(0.05,0,0,0.05,11.9,0)" xlink:href="#j"/><use transform="matrix(0.05,0,0,0.05,21.9,0)" xlink:href="#p"/><use transform="matrix(0.05,0,0,0.05,25.849999999999994,0)" xlink:href="#r"/><use transform="matrix(0.05,0,0,0.05,35.849999999999994,0)" xlink:href="#w"/><use transform="matrix(0.05,0,0,0.05,45.849999999999994,0)" xlink:href="#x"/><use transform="matrix(0.05,0,0,0.05,55.849999999999994,0)" xlink:href="#y"/></g><path d="M33-261c38 41 65 92 65 168S71 34 33 75H2C39 34 66-17 66-93S39-220 2-261h31" id="z"/><use transform="matrix(0.05,0,0,0.05,0,0)" xlink:href="#z" id="c"/><path d="M106-169C34-169 62-67 57 0H25v-261h32l-1 103c12-21 28-36 61-36 89 0 53 116 60 194h-32v-121c2-32-8-49-39-48" id="A"/><path d="M177-190C167-65 218 103 67 71c-23-6-38-20-44-43l32-5c15 47 100 32 89-28v-30C133-14 115 1 83 1 29 1 15-40 15-95c0-56 16-97 71-98 29-1 48 16 59 35 1-10 0-23 2-32h30zM94-22c36 0 50-32 50-73 0-42-14-75-50-75-39 0-46 34-46 75s6 73 46 73" id="B"/><path d="M85-194c31 0 48 13 60 33l-1-100h32l1 261h-30c-2-10 0-23-3-31C134-8 116 4 85 4 32 4 16-35 15-94c0-66 23-100 70-100zm9 24c-40 0-46 34-46 75 0 40 6 74 45 74 42 0 51-32 51-76 0-42-9-74-50-73" id="C"/><g id="d"><use transform="matrix(0.05,0,0,0.05,0,0)" xlink:href="#A"/><use transform="matrix(0.05,0,0,0.05,10,0)" xlink:href="#p"/><use transform="matrix(0.05,0,0,0.05,13.949999999999998,0)" xlink:href="#B"/><use transform="matrix(0.05,0,0,0.05,23.95,0)" xlink:href="#A"/><use transform="matrix(0.05,0,0,0.05,33.95,0)" xlink:href="#r"/><use transform="matrix(0.05,0,0,0.05,43.95,0)" xlink:href="#o"/><use transform="matrix(0.05,0,0,0.05,47.900000000000006,0)" xlink:href="#C"/><use transform="matrix(0.05,0,0,0.05,57.900000000000006,0)" xlink:href="#o"/><use transform="matrix(0.05,0,0,0.05,61.85,0)" xlink:href="#r"/><use transform="matrix(0.05,0,0,0.05,71.85000000000001,0)" xlink:href="#q"/><use transform="matrix(0.05,0,0,0.05,80.85000000000001,0)" xlink:href="#A"/><use transform="matrix(0.05,0,0,0.05,90.85000000000001,0)" xlink:href="#n"/><use transform="matrix(0.05,0,0,0.05,100.85000000000001,0)" xlink:href="#o"/><use transform="matrix(0.05,0,0,0.05,104.80000000000001,0)" xlink:href="#j"/><use transform="matrix(0.05,0,0,0.05,114.80000000000001,0)" xlink:href="#t"/><use transform="matrix(0.05,0,0,0.05,123.80000000000001,0)" xlink:href="#k"/><use transform="matrix(0.05,0,0,0.05,128.8,0)" xlink:href="#j"/><use transform="matrix(0.05,0,0,0.05,138.8,0)" xlink:href="#s"/><use transform="matrix(0.05,0,0,0.05,144.75,0)" xlink:href="#n"/><use transform="matrix(0.05,0,0,0.05,154.75,0)" xlink:href="#o"/></g><path d="M126-127c33 6 58 20 58 59 0 88-139 92-164 29-3-8-5-16-6-25l32-3c6 27 21 44 54 44 32 0 52-15 52-46 0-38-36-46-79-43v-28c39 1 72-4 72-42 0-27-17-43-46-43-28 0-47 15-49 41l-32-3c6-42 35-63 81-64 48-1 79 21 79 65 0 36-21 52-52 59" id="D"/><path d="M110-160c48 1 74 30 74 79 0 53-28 85-80 85-65 0-83-55-86-122-5-90 50-162 133-122 14 7 22 21 27 39l-31 6c-5-40-67-38-82-6-9 19-15 44-15 74 11-20 30-34 60-33zm-7 138c34 0 49-23 49-58s-16-56-50-56c-29 0-50 16-49 49 1 36 15 65 50 65" id="E"/><path d="M64 0c3-98 48-159 88-221H18v-27h164v26C143-157 98-101 97 0H64" id="F"/><g id="e"><use transform="matrix(0.05,0,0,0.05,0,0)" xlink:href="#v"/><use transform="matrix(0.05,0,0,0.05,5.95,0)" xlink:href="#s"/><use transform="matrix(0.05,0,0,0.05,11.9,0)" xlink:href="#j"/><use transform="matrix(0.05,0,0,0.05,21.9,0)" xlink:href="#p"/><use transform="matrix(0.05,0,0,0.05,25.849999999999994,0)" xlink:href="#r"/><use transform="matrix(0.05,0,0,0.05,35.849999999999994,0)" xlink:href="#D"/><use transform="matrix(0.05,0,0,0.05,45.849999999999994,0)" xlink:href="#E"/><use transform="matrix(0.05,0,0,0.05,55.849999999999994,0)" xlink:href="#F"/><use transform="matrix(0.05,0,0,0.05,65.85,0)" xlink:href="#z"/></g><path d="M101-234c-31-9-42 10-38 44h38v23H63V0H32v-167H5v-23h27c-7-52 17-82 69-68v24" id="G"/><g id="f"><use transform="matrix(0.05,0,0,0.05,0,0)" xlink:href="#l"/><use transform="matrix(0.05,0,0,0.05,10,0)" xlink:href="#o"/><use transform="matrix(0.05,0,0,0.05,13.949999999999998,0)" xlink:href="#o"/><use transform="matrix(0.05,0,0,0.05,17.9,0)" xlink:href="#r"/><use transform="matrix(0.05,0,0,0.05,27.899999999999995,0)" xlink:href="#s"/><use transform="matrix(0.05,0,0,0.05,33.85,0)" xlink:href="#p"/><use transform="matrix(0.05,0,0,0.05,37.800000000000004,0)" xlink:href="#t"/><use transform="matrix(0.05,0,0,0.05,46.800000000000004,0)" xlink:href="#u"/><use transform="matrix(0.05,0,0,0.05,55.800000000000004,0)" xlink:href="#r"/><use transform="matrix(0.05,0,0,0.05,65.80000000000001,0)" xlink:href="#G"/><use transform="matrix(0.05,0,0,0.05,70.80000000000001,0)" xlink:href="#l"/><use transform="matrix(0.05,0,0,0.05,80.80000000000001,0)" xlink:href="#q"/><use transform="matrix(0.05,0,0,0.05,89.80000000000001,0)" xlink:href="#k"/><use transform="matrix(0.05,0,0,0.05,94.80000000000001,0)" xlink:href="#n"/><use transform="matrix(0.05,0,0,0.05,104.80000000000001,0)" xlink:href="#s"/><use transform="matrix(0.05,0,0,0.05,110.75,0)" xlink:href="#t"/></g><path d="M99-251c64 0 84 50 84 122C183-37 130 33 47-8c-14-7-20-23-25-40l30-5c6 39 69 39 84 7 9-19 16-44 16-74-10 22-31 35-62 35-49 0-73-33-73-83 0-54 28-83 82-83zm-1 141c31-1 51-18 51-49 0-36-14-67-51-67-34 0-49 23-49 58 0 34 15 58 49 58" id="H"/><g id="g"><use transform="matrix(0.05,0,0,0.05,0,0)" xlink:href="#v"/><use transform="matrix(0.05,0,0,0.05,5.95,0)" xlink:href="#s"/><use transform="matrix(0.05,0,0,0.05,11.9,0)" xlink:href="#j"/><use transform="matrix(0.05,0,0,0.05,21.9,0)" xlink:href="#p"/><use transform="matrix(0.05,0,0,0.05,25.849999999999994,0)" xlink:href="#r"/><use transform="matrix(0.05,0,0,0.05,35.849999999999994,0)" xlink:href="#w"/><use transform="matrix(0.05,0,0,0.05,45.849999999999994,0)" xlink:href="#E"/><use transform="matrix(0.05,0,0,0.05,55.849999999999994,0)" xlink:href="#H"/><use transform="matrix(0.05,0,0,0.05,65.85,0)" xlink:href="#z"/></g><g id="h"><use transform="matrix(0.05,0,0,0.05,0,0)" xlink:href="#n"/><use transform="matrix(0.05,0,0,0.05,10,0)" xlink:href="#k"/><use transform="matrix(0.05,0,0,0.05,15,0)" xlink:href="#A"/><use transform="matrix(0.05,0,0,0.05,25,0)" xlink:href="#j"/><use transform="matrix(0.05,0,0,0.05,35,0)" xlink:href="#s"/></g></defs></g></svg>