<svg xmlns="http://www.w3.org/2000/svg" xmlns:xlink="http://www.w3.org/1999/xlink" xmlns:lucid="lucid" width="255" height="407"><g transform="translate(0 -207)" lucid:page-tab-id="oJlts_yw18.n"><path d="M0 0h1760v1360H0z" fill="#fff"/><path d="M160 280c0 22.1-17.9 40-40 40s-40-17.9-40-40 17.9-40 40-40 40 17.9 40 40z" stroke="#000" stroke-width="2" fill="#fff"/><use xlink:href="#a" transform="matrix(1,0,0,1,85,245) translate(29 38.4625)"/><path d="M220 540c0 22.1-17.9 40-40 40s-40-17.9-40-40 17.9-40 40-40 40 17.9 40 40z" stroke="#000" stroke-width="2" fill="#fff"/><use xlink:href="#b" transform="matrix(1,0,0,1,145,505) translate(27.525 38.4625)"/><path d="M100 540c0 22.1-17.9 40-40 40s-40-17.9-40-40 17.9-40 40-40 40 17.9 40 40z" stroke="#000" stroke-width="2" fill="#fff"/><use xlink:href="#c" transform="matrix(1,0,0,1,25,505) translate(19.5 38.4625)"/><path d="M80 360h80v80H80z" fill="#fff"/><path d="M97.78 360h17.78m8.88 0h17.78m8.9 0H160v8.9m0 8.88v17.78m0 8.88v17.78m0 8.9V440h-8.9m-8.88 0h-17.78m-8.88 0H97.78m-8.9 0H80v-8.9m0-8.88v-17.78m0-8.88v-17.78m0-8.9V360h8.9" stroke="#000" stroke-width="2" fill="none"/><use xlink:href="#d" transform="matrix(1,0,0,1,85,365) translate(28.525 38.4625)"/><path d="M120 322v18.5" stroke="#000" stroke-width="2" fill="none"/><path d="M120 321l1-.03v1.06h-2v-1.1z"/><path d="M120 355.76l-4.64-14.26h9.28z" stroke="#000" stroke-width="2"/><path d="M120 442v28h60v10.5" stroke="#000" stroke-width="2" fill="none"/><path d="M121 442.03h-2V441h2z"/><path d="M180 495.76l-4.64-14.26h9.28z" stroke="#000" stroke-width="2"/><path d="M120 442v28H60v10.5" stroke="#000" stroke-width="2" fill="none"/><path d="M121 442.03h-2V441h2z"/><path d="M60 495.76l-4.64-14.26h9.28z" stroke="#000" stroke-width="2"/><defs><path d="M185-189c-5-48-123-54-124 2 14 75 158 14 163 119 3 78-121 87-175 55-17-10-28-26-33-46l33-7c5 56 141 63 141-1 0-78-155-14-162-118-5-82 145-84 179-34 5 7 8 16 11 25" id="e"/><use transform="matrix(0.05,0,0,0.05,0,0)" xlink:href="#e" id="a"/><path d="M240 0l2-218c-23 76-54 145-80 218h-23L58-218 59 0H30v-248h44l77 211c21-75 51-140 76-211h43V0h-30" id="f"/><use transform="matrix(0.05,0,0,0.05,0,0)" xlink:href="#f" id="b"/><path d="M100-194c63 0 86 42 84 106H49c0 40 14 67 53 68 26 1 43-12 49-29l28 8c-11 28-37 45-77 45C44 4 14-33 15-96c1-61 26-98 85-98zm52 81c6-60-76-77-97-28-3 7-6 17-6 28h103" id="g"/><path d="M108 0H70L1-190h34L89-25l56-165h34" id="h"/><g id="c"><use transform="matrix(0.05,0,0,0.05,0,0)" xlink:href="#e"/><use transform="matrix(0.05,0,0,0.05,12,0)" xlink:href="#g"/><use transform="matrix(0.05,0,0,0.05,22,0)" xlink:href="#h"/></g><path d="M212-179c-10-28-35-45-73-45-59 0-87 40-87 99 0 60 29 101 89 101 43 0 62-24 78-52l27 14C228-24 195 4 139 4 59 4 22-46 18-125c-6-104 99-153 187-111 19 9 31 26 39 46" id="i"/><use transform="matrix(0.05,0,0,0.05,0,0)" xlink:href="#i" id="d"/></defs></g></svg>