<svg xmlns="http://www.w3.org/2000/svg" xmlns:xlink="http://www.w3.org/1999/xlink" xmlns:lucid="lucid" width="440" height="280"><g transform="translate(-60 -140)" lucid:page-tab-id="oJlts_yw18.n"><path d="M0 0h1760v1360H0z" fill="#fff"/><path d="M160 280c0 22.1-17.9 40-40 40s-40-17.9-40-40 17.9-40 40-40 40 17.9 40 40z" stroke="#000" stroke-width="2" fill="#fff"/><use xlink:href="#a" transform="matrix(1,0,0,1,85,245) translate(29 38.4625)"/><path d="M182.45 281H162v-2h20.45zm38.05 0h-28.05v-2h28.05z"/><path d="M162.03 281h-1.1l.07-1-.03-1h1.06zM235.76 280l-14.26 4.64v-9.28z"/><path d="M239 280l-18.5 6v-12zm-16.5 3.26l10.03-3.26-10.03-3.26z"/><use xlink:href="#b" transform="matrix(1,0,0,1,182.44841812979706,269.2) translate(0 14.4)"/><path d="M240 240h80v80h-80z" fill="#fff"/><path d="M257.78 240h17.78m8.88 0h17.78m8.9 0H320v8.9m0 8.88v17.78m0 8.88v17.78m0 8.9V320h-8.9m-8.88 0h-17.78m-8.88 0h-17.78m-8.9 0H240v-8.9m0-8.88v-17.78m0-8.88v-17.78m0-8.9V240h8.9" stroke="#000" stroke-width="2" fill="none"/><use xlink:href="#c" transform="matrix(1,0,0,1,245,245) translate(28.525 38.4625)"/><path d="M480 200c0 22.1-17.9 40-40 40s-40-17.9-40-40 17.9-40 40-40 40 17.9 40 40z" stroke="#000" stroke-width="2" fill="#fff"/><use xlink:href="#d" transform="matrix(1,0,0,1,405,165) translate(27.525 38.4625)"/><path d="M480 360c0 22.1-17.9 40-40 40s-40-17.9-40-40 17.9-40 40-40 40 17.9 40 40z" stroke="#000" stroke-width="2" fill="#fff"/><use xlink:href="#e" transform="matrix(1,0,0,1,405,325) translate(19.5 38.4625)"/><path d="M361.03 281H322v-2h37.03v-27.23h2zm19.54-78.07h-19.54v27.24h-2v-29.24h21.54z"/><path d="M322.03 281H321v-2h1.03zM395.83 201.93l-14.26 4.64v-9.27z"/><path d="M399.07 201.93l-18.5 6v-12zm-16.5 3.26l10.03-3.27-10.03-3.26z"/><use xlink:href="#f" transform="matrix(1,0,0,1,355.0338181420102,230.16618185798978) translate(0 14.4)"/><path d="M361.06 357.12h19.55v2h-21.54v-29.26h2zm0-48.86h-2V281H322v-2h39.06z"/><path d="M322.03 281H321v-2h1.03zM395.88 358.12l-14.27 4.63v-9.27z"/><path d="M399.12 358.12l-18.5 6V352.1zm-16.5 3.25l10.02-3.25-10.03-3.26z"/><use xlink:href="#g" transform="matrix(1,0,0,1,355.05779562735614,308.25779562735613) translate(0 14.4)"/><defs><path d="M185-189c-5-48-123-54-124 2 14 75 158 14 163 119 3 78-121 87-175 55-17-10-28-26-33-46l33-7c5 56 141 63 141-1 0-78-155-14-162-118-5-82 145-84 179-34 5 7 8 16 11 25" id="h"/><use transform="matrix(0.05,0,0,0.05,0,0)" xlink:href="#h" id="a"/><path d="M27 0v-27h64v-190l-56 39v-29l58-41h29v221h61V0H27" id="i"/><use transform="matrix(0.05,0,0,0.05,0,0)" xlink:href="#i" id="b"/><path d="M212-179c-10-28-35-45-73-45-59 0-87 40-87 99 0 60 29 101 89 101 43 0 62-24 78-52l27 14C228-24 195 4 139 4 59 4 22-46 18-125c-6-104 99-153 187-111 19 9 31 26 39 46" id="j"/><use transform="matrix(0.05,0,0,0.05,0,0)" xlink:href="#j" id="c"/><path d="M240 0l2-218c-23 76-54 145-80 218h-23L58-218 59 0H30v-248h44l77 211c21-75 51-140 76-211h43V0h-30" id="k"/><use transform="matrix(0.05,0,0,0.05,0,0)" xlink:href="#k" id="d"/><path d="M100-194c63 0 86 42 84 106H49c0 40 14 67 53 68 26 1 43-12 49-29l28 8c-11 28-37 45-77 45C44 4 14-33 15-96c1-61 26-98 85-98zm52 81c6-60-76-77-97-28-3 7-6 17-6 28h103" id="l"/><path d="M108 0H70L1-190h34L89-25l56-165h34" id="m"/><g id="e"><use transform="matrix(0.05,0,0,0.05,0,0)" xlink:href="#h"/><use transform="matrix(0.05,0,0,0.05,12,0)" xlink:href="#l"/><use transform="matrix(0.05,0,0,0.05,22,0)" xlink:href="#m"/></g><path d="M101-251c82-7 93 87 43 132L82-64C71-53 59-42 53-27h129V0H18c2-99 128-94 128-182 0-28-16-43-45-43s-46 15-49 41l-32-3c6-41 34-60 81-64" id="n"/><use transform="matrix(0.05,0,0,0.05,0,0)" xlink:href="#n" id="f"/><path d="M126-127c33 6 58 20 58 59 0 88-139 92-164 29-3-8-5-16-6-25l32-3c6 27 21 44 54 44 32 0 52-15 52-46 0-38-36-46-79-43v-28c39 1 72-4 72-42 0-27-17-43-46-43-28 0-47 15-49 41l-32-3c6-42 35-63 81-64 48-1 79 21 79 65 0 36-21 52-52 59" id="o"/><use transform="matrix(0.05,0,0,0.05,0,0)" xlink:href="#o" id="g"/></defs></g></svg>