<svg xmlns="http://www.w3.org/2000/svg" xmlns:xlink="http://www.w3.org/1999/xlink" xmlns:lucid="lucid" width="227.78" height="320"><g transform="translate(-7.119884634136952 -300)" lucid:page-tab-id="oJlts_yw18.n"><path d="M0 0h1760v1360H0z" fill="#fff"/><path d="M160 360c0 22.1-17.9 40-40 40s-40-17.9-40-40 17.9-40 40-40 40 17.9 40 40z" stroke="#000" stroke-width="2" fill="#fff"/><use xlink:href="#a" transform="matrix(1,0,0,1,85,325) translate(29 38.4625)"/><path d="M160 460c0 22.1-17.9 40-40 40s-40-17.9-40-40 17.9-40 40-40 40 17.9 40 40z" stroke="#000" stroke-width="2" fill="#fff"/><use xlink:href="#b" transform="matrix(1,0,0,1,85,425) translate(27.525 38.4625)"/><path d="M160 560c0 22.1-17.9 40-40 40s-40-17.9-40-40 17.9-40 40-40 40 17.9 40 40z" stroke="#000" stroke-width="2" fill="#fff"/><use xlink:href="#c" transform="matrix(1,0,0,1,85,525) translate(19.5 38.4625)"/><path d="M55 414.6l-.3 4.7-.05 4.33.15 3.9.3 3.47.44 3.08.52 2.72.6 2.4.62 2.14.67 1.9.7 1.68.7 1.5.7 1.35.74 1.2.72 1.1.73 1 .75.9.26.3-1.48 1.34-.3-.32-.8-.98-.8-1.07-.78-1.18-.78-1.3-.77-1.43-.74-1.6-.72-1.77-.7-2-.66-2.22-.6-2.5-.55-2.82-.45-3.17-.3-3.58-.17-4 .05-4.4.3-4.83.16-1.5h2.02zm23.68-53.22l-.12.08-1 .7-1.04.8-1.1.96-1.2 1.12-1.24 1.32-1.33 1.54-1.42 1.83-1.5 2.14-1.58 2.52-1.65 2.93-1.7 3.42-1.7 3.92-1.65 4.4-.72 2.24h-2.1l.93-2.9 1.7-4.5 1.74-4 1.74-3.5 1.7-3.03 1.63-2.6 1.55-2.23 1.48-1.9 1.4-1.62 1.3-1.4 1.26-1.18 1.2-1.02 1.12-.88 1.08-.75.16-.12z"/><path d="M79 360l.04 1.15-.38.24-1.06-1.7 1.47-.93zM76.03 458.72l-14.94-1.36 3.64-8.52z"/><path d="M79 460l-19.37-1.77 4.73-11.05zm-16.45-3.5l10.5.95-7.93-6.95z"/><use xlink:href="#d" transform="matrix(1,0,0,1,50.84908726025912,391.30958432328805) translate(0 14.4)"/><path d="M221.47 428.26l.03 2.75-.2 8.83-.63 10.13-1.16 11-1.65 11.26-2.07 10.87-2.36 10.03-2.5 8.98-2.55 7.87-2.52 6.8-2.46 5.85-2.37 5.03-2.26 4.32-2.15 3.73-2.05 3.23-1.95 2.8-1.86 2.46-1.77 2.13-1.7 1.9-1.64 1.65-1.57 1.48-1.52 1.3-1.46 1.17-1.43 1.03-.76.5-1.1-1.67.7-.48 1.37-1 1.4-1.1 1.46-1.25 1.5-1.42 1.57-1.6 1.64-1.82 1.72-2.08 1.8-2.4 1.9-2.72 2-3.16L197 531l2.23-4.24 2.33-4.95 2.43-5.77 2.48-6.72 2.53-7.77 2.5-8.9 2.32-9.95 2.06-10.8 1.64-11.16 1.16-10.93.63-10.06.2-8.74-.03-2.7-.33-7.3h2zm-64.2-91.62l2.88.23 2.83.38 2.77.52 2.73.68 2.7.8 2.67.98 2.64 1.12 2.62 1.3 2.63 1.45 2.6 1.65 2.63 1.85 2.6 2.07 2.62 2.3 2.62 2.56 2.6 2.85 2.6 3.15 2.55 3.48 2.52 3.86 2.46 4.23 2.37 4.63 2.26 5.06 2.1 5.48 1.92 5.93 1.65 6.2h-2.07l-1.5-5.63-1.88-5.82-2.07-5.4-2.22-4.96-2.33-4.55-2.4-4.14-2.47-3.74-2.5-3.4-2.52-3.07-2.52-2.78-2.54-2.5-2.53-2.22-2.52-2-2.53-1.8-2.52-1.58-2.53-1.4-2.54-1.25-2.55-1.08-2.55-.94-2.6-.8-2.62-.63-2.67-.5-2.72-.37-2.8-.23-1.87-.05.05-2z"/><path d="M155.35 336.6l-.06 1.98h-.38l-.4-.7-.98-1.34zM179.1 559.17l-15-.14 12.2-8.7z"/><path d="M180.45 560.18L161 560l15.84-11.3zm-13.28-2.12l10.55.1-1.96-6.22z"/><use xlink:href="#e" transform="matrix(1,0,0,1,213.90322887977223,399.4072401844188) translate(0 14.4)"/><path d="M188.3 420l-.83 4.77-1.02 4.44-1.14 4.05-1.2 3.63-1.27 3.2-1.27 2.82-1.27 2.46-1.25 2.14-1.2 1.87-1.18 1.62-1.14 1.42-1.1 1.24-1.07 1.1-1.04.95-1 .86-1 .74-.96.65-.94.58-.93.5-.93.44-.9.38-.92.33-.9.27-.9.23-.77.15-.38-1.96.7-.14.8-.2.82-.25.8-.3.83-.34.83-.4.84-.45.86-.53.88-.6.9-.68.94-.8.97-.88 1-1.02 1.03-1.17 1.08-1.35 1.1-1.54 1.17-1.8 1.2-2.04 1.2-2.37 1.24-2.72 1.2-3.1 1.2-3.54 1.1-3.95 1-4.33.83-4.67.02-.17h2.02zm-9.46-52.5l.94 1.17.94 1.3.94 1.46.94 1.63.94 1.82.93 2.06.9 2.3.88 2.6.83 2.95.75 3.28.65 3.68.5 4.07.17 2.1h-2l-.15-1.9-.5-3.97-.63-3.58-.73-3.2-.8-2.84-.84-2.5-.87-2.23-.9-1.95-.88-1.73-.9-1.55-.88-1.37-.88-1.22-.9-1.1-.68-.78 1.5-1.32z"/><path d="M162.16 460.84l-1.22.18.06-1-.03-1.03.9-.14zM178.87 362.93l-3.8 8.46-11.12-10.08z"/><path d="M180.34 362.1l-4.92 10.96L161 360zm-5.62 7.63l2.67-5.95-10.5-1.13z"/><use xlink:href="#f" transform="matrix(1,0,0,1,183.34414693253467,397.9256816965592) translate(0 14.4)"/><path d="M23.86 455l.47 11.44.88 10.5 1.2 9.44 1.42 8.4 1.57 7.4 1.65 6.5 1.72 5.7 1.74 5 1.75 4.4 1.72 3.88 1.7 3.42 1.67 3.04 1.64 2.7 1.6 2.43 1.58 2.16 1.54 1.96 1.5 1.75 1.5 1.6 1.47 1.44 1.44 1.3 1.44 1.2 1.42 1.06 1.4.98 1.42.9 1.4.8 1.4.74 1.42.66 1.42.6 1.44.54 1.45.47 1.5.4 1.5.36 1.55.3 1.58.23 1.63.16 1.7.1.76.02-.04 2-.82-.02-1.77-.1-1.72-.2-1.67-.24-1.6-.3-1.6-.38-1.57-.43-1.53-.5-1.52-.56-1.5-.63-1.48-.7-1.48-.76-1.48-.85-1.47-.95-1.48-1.03-1.5-1.13-1.5-1.25-1.5-1.35-1.53-1.5-1.55-1.65-1.56-1.82-1.6-2-1.62-2.24-1.65-2.5-1.7-2.78-1.7-3.1-1.74-3.5-1.76-3.96-1.77-4.48-1.76-5.08-1.75-5.78-1.68-6.58-1.6-7.5-1.42-8.46-1.2-9.53-.88-10.58-.48-11.52v-7.57h2zm47.98-130.45l.74.05-.12 2-.7-.05h-1.62l-.8.05-.8.1-.8.1-.8.16-.8.18-.82.23-.82.27-.84.3-.85.37-.86.42-.9.47-.92.52-.95.6-.98.7-1.04.77-1.07.87-1.13 1-1.18 1.17-1.25 1.32-1.3 1.5-1.4 1.77-1.47 2.03-1.56 2.35-1.67 2.77-1.78 3.23-1.88 3.8-2 4.5-2.1 5.3-2.18 6.24-2.2 7.33-2.2 8.53-2.06 9.75-1.84 10.9-1.5 11.83-.66 7.9h-2l.68-8.1 1.5-11.92 1.85-11 2.08-9.82 2.2-8.6 2.24-7.42 2.2-6.33 2.13-5.38 2.03-4.57 1.92-3.87 1.82-3.3 1.7-2.84 1.62-2.43 1.52-2.08 1.44-1.82 1.37-1.58 1.3-1.38 1.23-1.22 1.18-1.06 1.14-.94 1.1-.83 1.05-.74 1.02-.65.98-.57.97-.5.95-.45.93-.4.9-.33.9-.3.9-.24.9-.2.87-.17.88-.13.88-.1.9-.05.88-.02z"/><path d="M79.06 559l-.06 1 .03 1-1.08-.02.04-2zM86.15 331.8l-14.9-1.7 3.84-8.42z"/><path d="M89.1 333.15l-19.33-2.2L74.75 320zm-16.37-3.88l10.48 1.2-7.77-7.13z"/><use xlink:href="#g" transform="matrix(1,0,0,1,18.11988463413695,425.87917621137825) translate(0 14.4)"/><defs><path d="M185-189c-5-48-123-54-124 2 14 75 158 14 163 119 3 78-121 87-175 55-17-10-28-26-33-46l33-7c5 56 141 63 141-1 0-78-155-14-162-118-5-82 145-84 179-34 5 7 8 16 11 25" id="h"/><use transform="matrix(0.05,0,0,0.05,0,0)" xlink:href="#h" id="a"/><path d="M240 0l2-218c-23 76-54 145-80 218h-23L58-218 59 0H30v-248h44l77 211c21-75 51-140 76-211h43V0h-30" id="i"/><use transform="matrix(0.05,0,0,0.05,0,0)" xlink:href="#i" id="b"/><path d="M100-194c63 0 86 42 84 106H49c0 40 14 67 53 68 26 1 43-12 49-29l28 8c-11 28-37 45-77 45C44 4 14-33 15-96c1-61 26-98 85-98zm52 81c6-60-76-77-97-28-3 7-6 17-6 28h103" id="j"/><path d="M108 0H70L1-190h34L89-25l56-165h34" id="k"/><g id="c"><use transform="matrix(0.05,0,0,0.05,0,0)" xlink:href="#h"/><use transform="matrix(0.05,0,0,0.05,12,0)" xlink:href="#j"/><use transform="matrix(0.05,0,0,0.05,22,0)" xlink:href="#k"/></g><path d="M27 0v-27h64v-190l-56 39v-29l58-41h29v221h61V0H27" id="l"/><use transform="matrix(0.05,0,0,0.05,0,0)" xlink:href="#l" id="d"/><path d="M101-251c82-7 93 87 43 132L82-64C71-53 59-42 53-27h129V0H18c2-99 128-94 128-182 0-28-16-43-45-43s-46 15-49 41l-32-3c6-41 34-60 81-64" id="m"/><use transform="matrix(0.05,0,0,0.05,0,0)" xlink:href="#m" id="e"/><path d="M126-127c33 6 58 20 58 59 0 88-139 92-164 29-3-8-5-16-6-25l32-3c6 27 21 44 54 44 32 0 52-15 52-46 0-38-36-46-79-43v-28c39 1 72-4 72-42 0-27-17-43-46-43-28 0-47 15-49 41l-32-3c6-42 35-63 81-64 48-1 79 21 79 65 0 36-21 52-52 59" id="n"/><use transform="matrix(0.05,0,0,0.05,0,0)" xlink:href="#n" id="f"/><path d="M155-56V0h-30v-56H8v-25l114-167h33v167h35v25h-35zm-30-156c-27 46-58 90-88 131h88v-131" id="o"/><use transform="matrix(0.05,0,0,0.05,0,0)" xlink:href="#o" id="g"/></defs></g></svg>