<svg xmlns="http://www.w3.org/2000/svg" xmlns:xlink="http://www.w3.org/1999/xlink" xmlns:lucid="lucid" width="440" height="152"><g transform="translate(-980 -1047.9993762803117)" lucid:page-tab-id="aRDe-GsHM5Ke"><path d="M0 0h2584.62v1997.2H0z" fill="#fff"/><path d="M1080 1140c0 22.1-17.9 40-40 40s-40-17.9-40-40 17.9-40 40-40 40 17.9 40 40z" stroke="#000" stroke-width="2" fill="#fff"/><use xlink:href="#a" transform="matrix(1,0,0,1,1005,1105) translate(29 38.6)"/><path d="M1240 1140c0 22.1-17.9 40-40 40s-40-17.9-40-40 17.9-40 40-40 40 17.9 40 40z" stroke="#000" stroke-width="2" fill="#fff"/><use xlink:href="#b" transform="matrix(1,0,0,1,1165,1105) translate(29 38.6)"/><path d="M1400 1140c0 22.1-17.9 40-40 40s-40-17.9-40-40 17.9-40 40-40 40 17.9 40 40z" stroke="#000" stroke-width="2" fill="#fff"/><use xlink:href="#c" transform="matrix(1,0,0,1,1325,1105) translate(28.525 38.6)"/><path d="M1082 1140h58.5" stroke="#000" stroke-width="2" fill="none"/><path d="M1082.03 1141h-1.1l.07-1-.03-1h1.06z"/><path d="M1155.76 1140l-14.26 4.64v-9.28z" stroke="#000" stroke-width="2"/><path d="M1242 1140h58.5" stroke="#000" stroke-width="2" fill="none"/><path d="M1242.03 1141h-1.1l.07-1-.03-1h1.06z"/><path d="M1315.76 1140l-14.26 4.64v-9.28z" stroke="#000" stroke-width="2"/><path d="M1360 1098v-39h-160v21.5" stroke="#000" stroke-width="2" fill="none"/><path d="M1361 1099.06l-1-.06-1 .03v-1.06h2z"/><path d="M1200 1095.76l-4.64-14.26h9.28z" stroke="#000" stroke-width="2"/><defs><path d="M185-189c-5-48-123-54-124 2 14 75 158 14 163 119 3 78-121 87-175 55-17-10-28-26-33-46l33-7c5 56 141 63 141-1 0-78-155-14-162-118-5-82 145-84 179-34 5 7 8 16 11 25" id="d"/><use transform="matrix(0.05,0,0,0.05,0,0)" xlink:href="#d" id="a"/><path d="M205 0l-28-72H64L36 0H1l101-248h38L239 0h-34zm-38-99l-47-123c-12 45-31 82-46 123h93" id="e"/><use transform="matrix(0.05,0,0,0.05,0,0)" xlink:href="#e" id="b"/><path d="M212-179c-10-28-35-45-73-45-59 0-87 40-87 99 0 60 29 101 89 101 43 0 62-24 78-52l27 14C228-24 195 4 139 4 59 4 22-46 18-125c-6-104 99-153 187-111 19 9 31 26 39 46" id="f"/><use transform="matrix(0.05,0,0,0.05,0,0)" xlink:href="#f" id="c"/></defs></g></svg>