<svg xmlns="http://www.w3.org/2000/svg" xmlns:xlink="http://www.w3.org/1999/xlink" xmlns:lucid="lucid" width="289" height="232"><g transform="translate(-40 -180)" lucid:page-tab-id="w5Hq-Ex0O7Du"><path d="M0 0h1760v1360H0z" fill="#fff"/><path d="M160 280c0 22.1-17.9 40-40 40s-40-17.9-40-40 17.9-40 40-40 40 17.9 40 40z" stroke="#000" stroke-width="2" fill="#fff"/><use xlink:href="#a" transform="matrix(1,0,0,1,85,245) translate(29 38.4625)"/><path d="M300 280c0 22.1-17.9 40-40 40s-40-17.9-40-40 17.9-40 40-40 40 17.9 40 40z" stroke="#000" stroke-width="2" fill="#fff"/><use xlink:href="#b" transform="matrix(1,0,0,1,225,245) translate(28.525 38.4625)"/><path d="M175.67 281H162v-2h13.67zm24.83 0h-14.83v-2h14.83z"/><path d="M162.03 281h-1.1l.07-1-.03-1h1.06zM215.76 280l-14.26 4.64v-9.28z"/><path d="M219 280l-18.5 6v-12zm-16.5 3.26l10.03-3.26-10.03-3.26z"/><use xlink:href="#c" transform="matrix(1,0,0,1,175.66666666666666,269.2) translate(0 14.4)"/><path d="M280 220h280v139.6H280z" stroke="#000" stroke-opacity="0" stroke-width="2" fill="#fff" fill-opacity="0"/><path d="M251.26 362h-19.1v-2h19.1zm-28.64 0h-19.1v-2h19.1zM185 362h-10.12v-2H185zm-19.67 0h-19.1v-2h19.1zM121 360h15.7v2H119v-3.4h2zm140 .2h-2v-19.1h2zm-140-11.15h-2v-9.55h2zm140-17.5h-2V322h2z"/><path d="M260 321l1-.03v1.06h-2v-1.1zM124.64 338.5h-9.28l4.64-14.26z"/><path d="M126 339.5h-12l6-18.5zm-9.26-2h6.52L120 327.47z"/><use xlink:href="#d" transform="matrix(1,0,0,1,185,350.2006237196884) translate(0 14.4)"/><defs><path d="M185-189c-5-48-123-54-124 2 14 75 158 14 163 119 3 78-121 87-175 55-17-10-28-26-33-46l33-7c5 56 141 63 141-1 0-78-155-14-162-118-5-82 145-84 179-34 5 7 8 16 11 25" id="e"/><use transform="matrix(0.05,0,0,0.05,0,0)" xlink:href="#e" id="a"/><path d="M212-179c-10-28-35-45-73-45-59 0-87 40-87 99 0 60 29 101 89 101 43 0 62-24 78-52l27 14C228-24 195 4 139 4 59 4 22-46 18-125c-6-104 99-153 187-111 19 9 31 26 39 46" id="f"/><use transform="matrix(0.05,0,0,0.05,0,0)" xlink:href="#f" id="b"/><path d="M27 0v-27h64v-190l-56 39v-29l58-41h29v221h61V0H27" id="g"/><use transform="matrix(0.05,0,0,0.05,0,0)" xlink:href="#g" id="c"/><path d="M101-251c82-7 93 87 43 132L82-64C71-53 59-42 53-27h129V0H18c2-99 128-94 128-182 0-28-16-43-45-43s-46 15-49 41l-32-3c6-41 34-60 81-64" id="h"/><use transform="matrix(0.05,0,0,0.05,0,0)" xlink:href="#h" id="d"/></defs></g></svg>