<svg xmlns="http://www.w3.org/2000/svg" xmlns:xlink="http://www.w3.org/1999/xlink" xmlns:lucid="lucid" width="860" height="2140"><g transform="translate(20 20)" lucid:page-tab-id="ZltpFZipnNvz"><path d="M0 0h1760v2656H0z" fill="#fff"/><path d="M480 1720h180v180H480z" fill="#fff"/><path d="M500 1720h20m10 0h20m10 0h20m10 0h20m10 0h20m10 0h10v10m0 10v20m0 10v20m0 10v20m0 10v20m0 10v20m0 10v10h-10m-10 0h-20m-10 0h-20m-10 0h-20m-10 0h-20m-10 0h-20m-10 0h-10v-10m0-10v-20m0-10v-20m0-10v-20m0-10v-20m0-10v-20m0-10v-10h10" stroke="#000" stroke-width="2" fill="none"/><path d="M480 1520h180v180H480zM480 1121.4h180v180H480zM480 718.6h180v180H480zM712 0c4.42 0 8 3.58 8 8v64c0 4.42-3.58 8-8 8H568c-4.42 0-8-3.58-8-8V8c0-4.42 3.58-8 8-8zM612 140c4.42 0 8 3.58 8 8v64c0 4.42-3.58 8-8 8H468c-4.42 0-8-3.58-8-8v-64c0-4.42 3.58-8 8-8zM812 140c4.42 0 8 3.58 8 8v64c0 4.42-3.58 8-8 8H668c-4.42 0-8-3.58-8-8v-64c0-4.42 3.58-8 8-8z" stroke="#000" stroke-width="2" fill="#fff"/><use xlink:href="#a" transform="matrix(1,0,0,1,680,140) translate(37.525 43.6)"/><path d="M640 82v28H540v10.5" stroke="#000" stroke-width="2" fill="none"/><path d="M641 82.03h-2V81h2z"/><path d="M540 135.76l-4.64-14.26h9.28z" stroke="#000" stroke-width="2"/><path d="M640 82v28h100v10.5" stroke="#000" stroke-width="2" fill="none"/><path d="M641 82.03h-2V81h2z"/><path d="M740 135.76l-4.64-14.26h9.28z" stroke="#000" stroke-width="2"/><path d="M511.9 279c4.47 0 8.1 3.63 8.1 8.1v64.8c0 4.47-3.63 8.1-8.1 8.1H348.1c-4.47 0-8.1-3.63-8.1-8.1v-64.8c0-4.47 3.63-8.1 8.1-8.1z" stroke="#000" stroke-width="2" fill="#fff"/><path d="M540 222v27.5H430v10" stroke="#000" stroke-width="2" fill="none"/><path d="M541 222.03h-2V221h2z"/><path d="M430 274.76l-4.64-14.26h9.28z" stroke="#000" stroke-width="2"/><path d="M712 280c4.42 0 8 3.58 8 8v64c0 4.42-3.58 8-8 8H568c-4.42 0-8-3.58-8-8v-64c0-4.42 3.58-8 8-8z" stroke="#000" stroke-width="2" fill="#fff"/><use xlink:href="#a" transform="matrix(1,0,0,1,580,280) translate(37.525 43.6)"/><path d="M540 222v28h100v10.5" stroke="#000" stroke-width="2" fill="none"/><path d="M541 222.03h-2V221h2z"/><path d="M640 275.76l-4.64-14.26h9.28z" stroke="#000" stroke-width="2"/><path d="M412 420c4.42 0 8 3.58 8 8v64c0 4.42-3.58 8-8 8H268c-4.42 0-8-3.58-8-8v-64c0-4.42 3.58-8 8-8z" stroke="#000" stroke-width="2" fill="#fff"/><use xlink:href="#b" transform="matrix(1,0,0,1,280,420) translate(24.549999999999997 22)"/><use xlink:href="#c" transform="matrix(1,0,0,1,280,420) translate(7.199999999999989 43.6)"/><use xlink:href="#d" transform="matrix(1,0,0,1,280,420) translate(73 43.6)"/><use xlink:href="#e" transform="matrix(1,0,0,1,280,420) translate(29.549999999999997 65.2)"/><path d="M430 362v28h-90v10.5" stroke="#000" stroke-width="2" fill="none"/><path d="M431 362.03h-2V361h2z"/><path d="M340 415.76l-4.64-14.26h9.28z" stroke="#000" stroke-width="2"/><path d="M612 420c4.42 0 8 3.58 8 8v64c0 4.42-3.58 8-8 8H468c-4.42 0-8-3.58-8-8v-64c0-4.42 3.58-8 8-8z" stroke="#000" stroke-width="2" fill="#fff"/><use xlink:href="#a" transform="matrix(1,0,0,1,480,420) translate(37.525 43.6)"/><path d="M430 362v28h110v10.5" stroke="#000" stroke-width="2" fill="none"/><path d="M431 362.03h-2V361h2z"/><path d="M540 415.76l-4.64-14.26h9.28z" stroke="#000" stroke-width="2"/><path d="M520 10h240v60H520z" stroke="#000" stroke-opacity="0" stroke-width="2" fill="#fff" fill-opacity="0"/><use xlink:href="#f" transform="matrix(1,0,0,1,525,15) translate(74.05 17.525)"/><use xlink:href="#g" transform="matrix(1,0,0,1,525,15) translate(98.94999999999999 17.525)"/><use xlink:href="#h" transform="matrix(1,0,0,1,525,15) translate(84.55 39.125)"/><path d="M32 717.2h180v180H32zM32 922.8h180v180H32zM30 1121.4h180v180H30z" stroke="#000" stroke-width="2" fill="#fff"/><path d="M420 141.76h240v76.48H420z" stroke="#000" stroke-opacity="0" stroke-width="2" fill="#fff" fill-opacity="0"/><use xlink:href="#i" transform="matrix(1,0,0,1,425,146.75963541666667) translate(37.650000000000006 16.49375)"/><use xlink:href="#j" transform="matrix(1,0,0,1,425,146.75963541666667) translate(79.525 38.09375)"/><use xlink:href="#k" transform="matrix(1,0,0,1,425,146.75963541666667) translate(84.55 59.69375)"/><path d="M309.68 285.2h240.65V360H309.67z" fill="#fff" fill-opacity="0"/><use xlink:href="#l" transform="matrix(1,0,0,1,314.675,290.2) translate(34.07499999999999 14.4)"/><use xlink:href="#m" transform="matrix(1,0,0,1,314.675,290.2) translate(109.975 14.4)"/><use xlink:href="#n" transform="matrix(1,0,0,1,314.675,290.2) translate(144.975 14.4)"/><use xlink:href="#j" transform="matrix(1,0,0,1,314.675,290.2) translate(80.025 36)"/><use xlink:href="#o" transform="matrix(1,0,0,1,314.675,290.2) translate(85.05 57.6)"/><path d="M312 559.3c4.42 0 8 3.58 8 8v64c0 4.42-3.58 8-8 8H168c-4.42 0-8-3.58-8-8v-64c0-4.42 3.58-8 8-8z" stroke="#000" stroke-width="2" fill="#fff"/><use xlink:href="#b" transform="matrix(1,0,0,1,180,559.3) translate(24.549999999999997 22)"/><use xlink:href="#c" transform="matrix(1,0,0,1,180,559.3) translate(2.5999999999999943 43.6)"/><use xlink:href="#p" transform="matrix(1,0,0,1,180,559.3) translate(68.4 43.6)"/><use xlink:href="#q" transform="matrix(1,0,0,1,180,559.3) translate(107.4 43.6)"/><use xlink:href="#r" transform="matrix(1,0,0,1,180,559.3) translate(29.549999999999997 65.2)"/><path d="M512 559.3c4.42 0 8 3.58 8 8v64c0 4.42-3.58 8-8 8H368c-4.42 0-8-3.58-8-8v-64c0-4.42 3.58-8 8-8z" stroke="#000" stroke-width="2" fill="#fff"/><path d="M340 502v27.65H240v10.15" stroke="#000" stroke-width="2" fill="none"/><path d="M341 502.03h-2V501h2z"/><path d="M240 555.06l-4.64-14.26h9.28z" stroke="#000" stroke-width="2"/><path d="M340 502v27.65h100v10.15" stroke="#000" stroke-width="2" fill="none"/><path d="M341 502.03h-2V501h2z"/><path d="M440 555.06l-4.64-14.26h9.28z" stroke="#000" stroke-width="2"/><path d="M0 717.2h240V900H0z" stroke="#000" stroke-opacity="0" stroke-width="2" fill="#fff" fill-opacity="0"/><use xlink:href="#s" transform="matrix(1,0,0,1,5,722.2) translate(78.525 14.4)"/><use xlink:href="#t" transform="matrix(1,0,0,1,5,722.2) translate(93.525 14.4)"/><use xlink:href="#u" transform="matrix(1,0,0,1,5,722.2) translate(115 36)"/><use xlink:href="#v" transform="matrix(1,0,0,1,5,722.2) translate(37.57499999999999 57.6)"/><use xlink:href="#w" transform="matrix(1,0,0,1,5,722.2) translate(107.425 57.6)"/><use xlink:href="#x" transform="matrix(1,0,0,1,5,722.2) translate(142.425 57.6)"/><use xlink:href="#y" transform="matrix(1,0,0,1,5,722.2) translate(177.425 57.6)"/><use xlink:href="#z" transform="matrix(1,0,0,1,5,722.2) translate(42.525000000000006 79.20000000000002)"/><use xlink:href="#x" transform="matrix(1,0,0,1,5,722.2) translate(137.47500000000002 79.20000000000002)"/><use xlink:href="#A" transform="matrix(1,0,0,1,5,722.2) translate(172.475 79.20000000000002)"/><use xlink:href="#B" transform="matrix(1,0,0,1,5,722.2) translate(74.05 100.80000000000001)"/><use xlink:href="#p" transform="matrix(1,0,0,1,5,722.2) translate(106.95 100.80000000000001)"/><use xlink:href="#C" transform="matrix(1,0,0,1,5,722.2) translate(145.95 100.80000000000001)"/><use xlink:href="#u" transform="matrix(1,0,0,1,5,722.2) translate(115 122.4)"/><use xlink:href="#u" transform="matrix(1,0,0,1,5,722.2) translate(115 144)"/><use xlink:href="#D" transform="matrix(1,0,0,1,5,722.2) translate(85.5 165.6)"/><path d="M0 917.9h240v182.8H0z" stroke="#000" stroke-opacity="0" stroke-width="2" fill="#fff" fill-opacity="0"/><use xlink:href="#s" transform="matrix(1,0,0,1,5,922.9) translate(73.525 14.4)"/><use xlink:href="#E" transform="matrix(1,0,0,1,5,922.9) translate(88.525 14.4)"/><use xlink:href="#v" transform="matrix(1,0,0,1,5,922.9) translate(35.099999999999994 36)"/><use xlink:href="#F" transform="matrix(1,0,0,1,5,922.9) translate(104.95 36)"/><use xlink:href="#G" transform="matrix(1,0,0,1,5,922.9) translate(46.55 57.6)"/><use xlink:href="#H" transform="matrix(1,0,0,1,5,922.9) translate(81.55 57.6)"/><use xlink:href="#I" transform="matrix(1,0,0,1,5,922.9) translate(101.55 57.6)"/><use xlink:href="#p" transform="matrix(1,0,0,1,5,922.9) translate(134.45 57.6)"/><use xlink:href="#J" transform="matrix(1,0,0,1,5,922.9) translate(173.45 57.6)"/><use xlink:href="#K" transform="matrix(1,0,0,1,5,922.9) translate(86.55 79.20000000000002)"/><use xlink:href="#L" transform="matrix(1,0,0,1,5,922.9) translate(56.074999999999996 100.80000000000001)"/><use xlink:href="#w" transform="matrix(1,0,0,1,5,922.9) translate(122.975 100.80000000000001)"/><use xlink:href="#M" transform="matrix(1,0,0,1,5,922.9) translate(157.975 100.80000000000001)"/><use xlink:href="#N" transform="matrix(1,0,0,1,5,922.9) translate(70.55 122.4)"/><use xlink:href="#u" transform="matrix(1,0,0,1,5,922.9) translate(115 144)"/><use xlink:href="#O" transform="matrix(1,0,0,1,5,922.9) translate(85.5 165.6)"/><path d="M0 1125.6h240v182.8H0z" stroke="#000" stroke-opacity="0" stroke-width="2" fill="#fff" fill-opacity="0"/><use xlink:href="#s" transform="matrix(1,0,0,1,5,1130.6) translate(73.525 14.4)"/><use xlink:href="#E" transform="matrix(1,0,0,1,5,1130.6) translate(88.525 14.4)"/><use xlink:href="#v" transform="matrix(1,0,0,1,5,1130.6) translate(35.099999999999994 36)"/><use xlink:href="#F" transform="matrix(1,0,0,1,5,1130.6) translate(104.95 36)"/><use xlink:href="#P" transform="matrix(1,0,0,1,5,1130.6) translate(34.599999999999994 57.6)"/><use xlink:href="#Q" transform="matrix(1,0,0,1,5,1130.6) translate(69.6 57.6)"/><use xlink:href="#R" transform="matrix(1,0,0,1,5,1130.6) translate(163.5 57.6)"/><use xlink:href="#S" transform="matrix(1,0,0,1,5,1130.6) translate(49.55 79.20000000000002)"/><use xlink:href="#x" transform="matrix(1,0,0,1,5,1130.6) translate(130.45 79.20000000000002)"/><use xlink:href="#A" transform="matrix(1,0,0,1,5,1130.6) translate(165.45 79.20000000000002)"/><use xlink:href="#B" transform="matrix(1,0,0,1,5,1130.6) translate(74.05 100.80000000000001)"/><use xlink:href="#p" transform="matrix(1,0,0,1,5,1130.6) translate(106.95 100.80000000000001)"/><use xlink:href="#C" transform="matrix(1,0,0,1,5,1130.6) translate(145.95 100.80000000000001)"/><use xlink:href="#u" transform="matrix(1,0,0,1,5,1130.6) translate(115 122.4)"/><use xlink:href="#u" transform="matrix(1,0,0,1,5,1130.6) translate(115 144)"/><use xlink:href="#T" transform="matrix(1,0,0,1,5,1130.6) translate(85.5 165.6)"/><path d="M32 1320h180v180H32z" stroke="#000" stroke-width="2" fill="#fff"/><path d="M2 1322.8h240v182.8H2z" stroke="#000" stroke-opacity="0" stroke-width="2" fill="#fff" fill-opacity="0"/><use xlink:href="#s" transform="matrix(1,0,0,1,7,1327.8) translate(73.525 14.4)"/><use xlink:href="#E" transform="matrix(1,0,0,1,7,1327.8) translate(88.525 14.4)"/><use xlink:href="#v" transform="matrix(1,0,0,1,7,1327.8) translate(35.099999999999994 36)"/><use xlink:href="#F" transform="matrix(1,0,0,1,7,1327.8) translate(104.95 36)"/><use xlink:href="#P" transform="matrix(1,0,0,1,7,1327.8) translate(53.05 57.6)"/><use xlink:href="#U" transform="matrix(1,0,0,1,7,1327.8) translate(88.05 57.6)"/><use xlink:href="#V" transform="matrix(1,0,0,1,7,1327.8) translate(46.099999999999994 79.20000000000002)"/><use xlink:href="#W" transform="matrix(1,0,0,1,7,1327.8) translate(108 79.20000000000002)"/><use xlink:href="#G" transform="matrix(1,0,0,1,7,1327.8) translate(90 100.80000000000001)"/><use xlink:href="#A" transform="matrix(1,0,0,1,7,1327.8) translate(125 100.80000000000001)"/><use xlink:href="#B" transform="matrix(1,0,0,1,7,1327.8) translate(74.05 122.4)"/><use xlink:href="#p" transform="matrix(1,0,0,1,7,1327.8) translate(106.95 122.4)"/><use xlink:href="#C" transform="matrix(1,0,0,1,7,1327.8) translate(145.95 122.4)"/><use xlink:href="#u" transform="matrix(1,0,0,1,7,1327.8) translate(115 144)"/><use xlink:href="#X" transform="matrix(1,0,0,1,7,1327.8) translate(85.5 165.6)"/><path d="M32 1521.4h180v180H32z" stroke="#000" stroke-width="2" fill="#fff"/><path d="M2 1520.7h240v182.8H2z" stroke="#000" stroke-opacity="0" stroke-width="2" fill="#fff" fill-opacity="0"/><g><use xlink:href="#s" transform="matrix(1,0,0,1,7,1525.6999999999998) translate(73.525 14.4)"/><use xlink:href="#E" transform="matrix(1,0,0,1,7,1525.6999999999998) translate(88.525 14.4)"/><use xlink:href="#u" transform="matrix(1,0,0,1,7,1525.6999999999998) translate(115 36)"/><use xlink:href="#Y" transform="matrix(1,0,0,1,7,1525.6999999999998) translate(55.599999999999994 57.6)"/><use xlink:href="#B" transform="matrix(1,0,0,1,7,1525.6999999999998) translate(74.05 79.20000000000002)"/><use xlink:href="#p" transform="matrix(1,0,0,1,7,1525.6999999999998) translate(106.95 79.20000000000002)"/><use xlink:href="#C" transform="matrix(1,0,0,1,7,1525.6999999999998) translate(145.95 79.20000000000002)"/><use xlink:href="#u" transform="matrix(1,0,0,1,7,1525.6999999999998) translate(115 100.80000000000001)"/><use xlink:href="#u" transform="matrix(1,0,0,1,7,1525.6999999999998) translate(115 122.4)"/><use xlink:href="#u" transform="matrix(1,0,0,1,7,1525.6999999999998) translate(115 144)"/><use xlink:href="#Z" transform="matrix(1,0,0,1,7,1525.6999999999998) translate(85.5 165.6)"/></g><path d="M32 1720h180v180H32z" fill="#fff"/><path d="M52 1720h20m10 0h20m10 0h20m10 0h20m10 0h20m10 0h10v10m0 10v20m0 10v20m0 10v20m0 10v20m0 10v20m0 10v10h-10m-10 0h-20m-10 0h-20m-10 0h-20m-10 0H82m-10 0H52m-10 0H32v-10m0-10v-20m0-10v-20m0-10v-20m0-10v-20m0-10v-20m0-10v-10h10" stroke="#000" stroke-width="2" fill="none"/><path d="M2 1718.6h240v182.8H2z" stroke="#000" stroke-opacity="0" stroke-width="2" fill="#fff" fill-opacity="0"/><g><use xlink:href="#aa" transform="matrix(1,0,0,1,7,1723.6) translate(68.525 14.4)"/><use xlink:href="#ab" transform="matrix(1,0,0,1,7,1723.6) translate(83.525 14.4)"/><use xlink:href="#u" transform="matrix(1,0,0,1,7,1723.6) translate(115 36)"/><use xlink:href="#ac" transform="matrix(1,0,0,1,7,1723.6) translate(43.57499999999999 57.6)"/><use xlink:href="#ad" transform="matrix(1,0,0,1,7,1723.6) translate(129.475 57.6)"/><use xlink:href="#ae" transform="matrix(1,0,0,1,7,1723.6) translate(45.175 79.20000000000002)"/><use xlink:href="#af" transform="matrix(1,0,0,1,7,1723.6) translate(96.07499999999999 79.20000000000002)"/><use xlink:href="#G" transform="matrix(1,0,0,1,7,1723.6) translate(73.55 100.80000000000001)"/><use xlink:href="#H" transform="matrix(1,0,0,1,7,1723.6) translate(108.55 100.80000000000001)"/><use xlink:href="#ag" transform="matrix(1,0,0,1,7,1723.6) translate(128.55 100.80000000000001)"/><use xlink:href="#ah" transform="matrix(1,0,0,1,7,1723.6) translate(43.55 122.4)"/><use xlink:href="#ai" transform="matrix(1,0,0,1,7,1723.6) translate(82.55 122.4)"/><use xlink:href="#aj" transform="matrix(1,0,0,1,7,1723.6) translate(97.55 122.4)"/><use xlink:href="#u" transform="matrix(1,0,0,1,7,1723.6) translate(115 144)"/><use xlink:href="#ak" transform="matrix(1,0,0,1,7,1723.6) translate(51 165.6)"/><use xlink:href="#al" transform="matrix(1,0,0,1,7,1723.6) translate(120 165.6)"/></g><path d="M240 641.3v165.9h-8.5" stroke="#000" stroke-width="2" fill="none"/><path d="M241 641.33h-2v-1.03h2z"/><path d="M216.24 807.2l14.26-4.64v9.28z" stroke="#000" stroke-width="2"/><path d="M240 641.3v371.5h-8.5" stroke="#000" stroke-width="2" fill="none"/><path d="M241 641.33h-2v-1.03h2z"/><path d="M216.24 1012.8l14.26-4.64v9.28z" stroke="#000" stroke-width="2"/><path d="M240 641.3v570.1h-10.5" stroke="#000" stroke-width="2" fill="none"/><path d="M241 641.33h-2v-1.03h2z"/><path d="M214.24 1211.4l14.26-4.64v9.28z" stroke="#000" stroke-width="2"/><path d="M240 641.3V1410h-8.5" stroke="#000" stroke-width="2" fill="none"/><path d="M241 641.33h-2v-1.03h2z"/><path d="M216.24 1410l14.26-4.64v9.28z" stroke="#000" stroke-width="2"/><path d="M240 641.3v970.1h-8.5" stroke="#000" stroke-width="2" fill="none"/><path d="M241 641.33h-2v-1.03h2z"/><path d="M216.24 1611.4l14.26-4.64v9.28z" stroke="#000" stroke-width="2"/><path d="M240 641.3V1810h-8.5" stroke="#000" stroke-width="2" fill="none"/><path d="M241 641.33h-2v-1.03h2z"/><path d="M216.24 1810l14.26-4.64v9.28z" stroke="#000" stroke-width="2"/><path d="M450 717.2h240V900H450z" stroke="#000" stroke-opacity="0" stroke-width="2" fill="#fff" fill-opacity="0"/><g><use xlink:href="#s" transform="matrix(1,0,0,1,455,722.2) translate(78.525 14.4)"/><use xlink:href="#t" transform="matrix(1,0,0,1,455,722.2) translate(93.525 14.4)"/><use xlink:href="#u" transform="matrix(1,0,0,1,455,722.2) translate(115 36)"/><use xlink:href="#v" transform="matrix(1,0,0,1,455,722.2) translate(37.57499999999999 57.6)"/><use xlink:href="#w" transform="matrix(1,0,0,1,455,722.2) translate(107.425 57.6)"/><use xlink:href="#x" transform="matrix(1,0,0,1,455,722.2) translate(142.425 57.6)"/><use xlink:href="#y" transform="matrix(1,0,0,1,455,722.2) translate(177.425 57.6)"/><use xlink:href="#z" transform="matrix(1,0,0,1,455,722.2) translate(42.525000000000006 79.20000000000002)"/><use xlink:href="#x" transform="matrix(1,0,0,1,455,722.2) translate(137.47500000000002 79.20000000000002)"/><use xlink:href="#A" transform="matrix(1,0,0,1,455,722.2) translate(172.475 79.20000000000002)"/><use xlink:href="#B" transform="matrix(1,0,0,1,455,722.2) translate(74.05 100.80000000000001)"/><use xlink:href="#p" transform="matrix(1,0,0,1,455,722.2) translate(106.95 100.80000000000001)"/><use xlink:href="#am" transform="matrix(1,0,0,1,455,722.2) translate(145.95 100.80000000000001)"/><use xlink:href="#u" transform="matrix(1,0,0,1,455,722.2) translate(115 122.4)"/><use xlink:href="#u" transform="matrix(1,0,0,1,455,722.2) translate(115 144)"/><use xlink:href="#an" transform="matrix(1,0,0,1,455,722.2) translate(85.5 165.6)"/></g><path d="M440 641.3v167.3h20.5" stroke="#000" stroke-width="2" fill="none"/><path d="M441 641.33h-2v-1.03h2z"/><path d="M475.76 808.6l-14.26 4.64v-9.28z" stroke="#000" stroke-width="2"/><path d="M480 919.3h180v180H480z" stroke="#000" stroke-width="2" fill="#fff"/><path d="M450 921.4h240v182.8H450z" stroke="#000" stroke-opacity="0" stroke-width="2" fill="#fff" fill-opacity="0"/><g><use xlink:href="#s" transform="matrix(1,0,0,1,455,926.4) translate(73.525 14.4)"/><use xlink:href="#E" transform="matrix(1,0,0,1,455,926.4) translate(88.525 14.4)"/><use xlink:href="#v" transform="matrix(1,0,0,1,455,926.4) translate(35.099999999999994 36)"/><use xlink:href="#F" transform="matrix(1,0,0,1,455,926.4) translate(104.95 36)"/><use xlink:href="#G" transform="matrix(1,0,0,1,455,926.4) translate(46.55 57.6)"/><use xlink:href="#H" transform="matrix(1,0,0,1,455,926.4) translate(81.55 57.6)"/><use xlink:href="#I" transform="matrix(1,0,0,1,455,926.4) translate(101.55 57.6)"/><use xlink:href="#p" transform="matrix(1,0,0,1,455,926.4) translate(134.45 57.6)"/><use xlink:href="#ao" transform="matrix(1,0,0,1,455,926.4) translate(173.45 57.6)"/><use xlink:href="#K" transform="matrix(1,0,0,1,455,926.4) translate(86.55 79.20000000000002)"/><use xlink:href="#L" transform="matrix(1,0,0,1,455,926.4) translate(56.074999999999996 100.80000000000001)"/><use xlink:href="#w" transform="matrix(1,0,0,1,455,926.4) translate(122.975 100.80000000000001)"/><use xlink:href="#M" transform="matrix(1,0,0,1,455,926.4) translate(157.975 100.80000000000001)"/><use xlink:href="#N" transform="matrix(1,0,0,1,455,926.4) translate(70.55 122.4)"/><use xlink:href="#u" transform="matrix(1,0,0,1,455,926.4) translate(115 144)"/><use xlink:href="#ap" transform="matrix(1,0,0,1,455,926.4) translate(85.5 165.6)"/></g><path d="M440 641.3v368h20.5" stroke="#000" stroke-width="2" fill="none"/><path d="M441 641.33h-2v-1.03h2z"/><path d="M475.76 1009.3l-14.26 4.64v-9.28z" stroke="#000" stroke-width="2"/><path d="M450 1125.6h240v182.8H450z" stroke="#000" stroke-opacity="0" stroke-width="2" fill="#fff" fill-opacity="0"/><g><use xlink:href="#s" transform="matrix(1,0,0,1,455,1130.6) translate(73.525 14.4)"/><use xlink:href="#E" transform="matrix(1,0,0,1,455,1130.6) translate(88.525 14.4)"/><use xlink:href="#v" transform="matrix(1,0,0,1,455,1130.6) translate(35.099999999999994 36)"/><use xlink:href="#F" transform="matrix(1,0,0,1,455,1130.6) translate(104.95 36)"/><use xlink:href="#P" transform="matrix(1,0,0,1,455,1130.6) translate(34.599999999999994 57.6)"/><use xlink:href="#Q" transform="matrix(1,0,0,1,455,1130.6) translate(69.6 57.6)"/><use xlink:href="#R" transform="matrix(1,0,0,1,455,1130.6) translate(163.5 57.6)"/><use xlink:href="#S" transform="matrix(1,0,0,1,455,1130.6) translate(49.55 79.20000000000002)"/><use xlink:href="#x" transform="matrix(1,0,0,1,455,1130.6) translate(130.45 79.20000000000002)"/><use xlink:href="#A" transform="matrix(1,0,0,1,455,1130.6) translate(165.45 79.20000000000002)"/><use xlink:href="#B" transform="matrix(1,0,0,1,455,1130.6) translate(74.05 100.80000000000001)"/><use xlink:href="#p" transform="matrix(1,0,0,1,455,1130.6) translate(106.95 100.80000000000001)"/><use xlink:href="#am" transform="matrix(1,0,0,1,455,1130.6) translate(145.95 100.80000000000001)"/><use xlink:href="#u" transform="matrix(1,0,0,1,455,1130.6) translate(115 122.4)"/><use xlink:href="#u" transform="matrix(1,0,0,1,455,1130.6) translate(115 144)"/><use xlink:href="#aq" transform="matrix(1,0,0,1,455,1130.6) translate(85.5 165.6)"/></g><path d="M440 641.3v570.1h20.5" stroke="#000" stroke-width="2" fill="none"/><path d="M441 641.33h-2v-1.03h2z"/><path d="M475.76 1211.4l-14.26 4.64v-9.28z" stroke="#000" stroke-width="2"/><path d="M480 1320h180v180H480z" stroke="#000" stroke-width="2" fill="#fff"/><path d="M450 1322.8h240v182.8H450z" stroke="#000" stroke-opacity="0" stroke-width="2" fill="#fff" fill-opacity="0"/><g><use xlink:href="#s" transform="matrix(1,0,0,1,455,1327.8) translate(73.525 14.4)"/><use xlink:href="#E" transform="matrix(1,0,0,1,455,1327.8) translate(88.525 14.4)"/><use xlink:href="#v" transform="matrix(1,0,0,1,455,1327.8) translate(35.099999999999994 36)"/><use xlink:href="#F" transform="matrix(1,0,0,1,455,1327.8) translate(104.95 36)"/><use xlink:href="#P" transform="matrix(1,0,0,1,455,1327.8) translate(53.05 57.6)"/><use xlink:href="#U" transform="matrix(1,0,0,1,455,1327.8) translate(88.05 57.6)"/><use xlink:href="#V" transform="matrix(1,0,0,1,455,1327.8) translate(46.099999999999994 79.20000000000002)"/><use xlink:href="#W" transform="matrix(1,0,0,1,455,1327.8) translate(108 79.20000000000002)"/><use xlink:href="#G" transform="matrix(1,0,0,1,455,1327.8) translate(90 100.80000000000001)"/><use xlink:href="#A" transform="matrix(1,0,0,1,455,1327.8) translate(125 100.80000000000001)"/><use xlink:href="#B" transform="matrix(1,0,0,1,455,1327.8) translate(74.05 122.4)"/><use xlink:href="#p" transform="matrix(1,0,0,1,455,1327.8) translate(106.95 122.4)"/><use xlink:href="#am" transform="matrix(1,0,0,1,455,1327.8) translate(145.95 122.4)"/><use xlink:href="#u" transform="matrix(1,0,0,1,455,1327.8) translate(115 144)"/><use xlink:href="#ar" transform="matrix(1,0,0,1,455,1327.8) translate(85.5 165.6)"/></g><path d="M450 1520h240v182.8H450z" stroke="#000" stroke-opacity="0" stroke-width="2" fill="#fff" fill-opacity="0"/><g><use xlink:href="#s" transform="matrix(1,0,0,1,455,1525) translate(73.525 14.4)"/><use xlink:href="#E" transform="matrix(1,0,0,1,455,1525) translate(88.525 14.4)"/><use xlink:href="#u" transform="matrix(1,0,0,1,455,1525) translate(115 36)"/><use xlink:href="#Y" transform="matrix(1,0,0,1,455,1525) translate(55.599999999999994 57.6)"/><use xlink:href="#B" transform="matrix(1,0,0,1,455,1525) translate(74.05 79.20000000000002)"/><use xlink:href="#p" transform="matrix(1,0,0,1,455,1525) translate(106.95 79.20000000000002)"/><use xlink:href="#am" transform="matrix(1,0,0,1,455,1525) translate(145.95 79.20000000000002)"/><use xlink:href="#u" transform="matrix(1,0,0,1,455,1525) translate(115 100.80000000000001)"/><use xlink:href="#u" transform="matrix(1,0,0,1,455,1525) translate(115 122.4)"/><use xlink:href="#u" transform="matrix(1,0,0,1,455,1525) translate(115 144)"/><use xlink:href="#as" transform="matrix(1,0,0,1,455,1525) translate(85.5 165.6)"/></g><path d="M450 1718.6h240v182.8H450z" stroke="#000" stroke-opacity="0" stroke-width="2" fill="#fff" fill-opacity="0"/><g><use xlink:href="#aa" transform="matrix(1,0,0,1,455,1723.6) translate(68.525 14.4)"/><use xlink:href="#ab" transform="matrix(1,0,0,1,455,1723.6) translate(83.525 14.4)"/><use xlink:href="#u" transform="matrix(1,0,0,1,455,1723.6) translate(115 36)"/><use xlink:href="#ac" transform="matrix(1,0,0,1,455,1723.6) translate(43.57499999999999 57.6)"/><use xlink:href="#ad" transform="matrix(1,0,0,1,455,1723.6) translate(129.475 57.6)"/><use xlink:href="#ae" transform="matrix(1,0,0,1,455,1723.6) translate(45.175 79.20000000000002)"/><use xlink:href="#af" transform="matrix(1,0,0,1,455,1723.6) translate(96.07499999999999 79.20000000000002)"/><use xlink:href="#G" transform="matrix(1,0,0,1,455,1723.6) translate(73.55 100.80000000000001)"/><use xlink:href="#H" transform="matrix(1,0,0,1,455,1723.6) translate(108.55 100.80000000000001)"/><use xlink:href="#ag" transform="matrix(1,0,0,1,455,1723.6) translate(128.55 100.80000000000001)"/><use xlink:href="#ah" transform="matrix(1,0,0,1,455,1723.6) translate(43.55 122.4)"/><use xlink:href="#at" transform="matrix(1,0,0,1,455,1723.6) translate(82.55 122.4)"/><use xlink:href="#aj" transform="matrix(1,0,0,1,455,1723.6) translate(97.55 122.4)"/><use xlink:href="#u" transform="matrix(1,0,0,1,455,1723.6) translate(115 144)"/><use xlink:href="#au" transform="matrix(1,0,0,1,455,1723.6) translate(51 165.6)"/><use xlink:href="#av" transform="matrix(1,0,0,1,455,1723.6) translate(120 165.6)"/></g><path d="M440 641.3V1410h20.5" stroke="#000" stroke-width="2" fill="none"/><path d="M441 641.33h-2v-1.03h2z"/><path d="M475.76 1410l-14.26 4.64v-9.28z" stroke="#000" stroke-width="2"/><path d="M440 641.3V1610h20.5" stroke="#000" stroke-width="2" fill="none"/><path d="M441 641.33h-2v-1.03h2z"/><path d="M475.76 1610l-14.26 4.64v-9.28z" stroke="#000" stroke-width="2"/><path d="M440 641.3V1810h20.5" stroke="#000" stroke-width="2" fill="none"/><path d="M441 641.33h-2v-1.03h2z"/><path d="M475.76 1810l-14.26 4.64v-9.28z" stroke="#000" stroke-width="2"/><path d="M32 1918.6h180v180H32z" stroke="#000" stroke-width="2" fill="#fff"/><path d="M0 1917.2h240V2100H0z" stroke="#000" stroke-opacity="0" stroke-width="2" fill="#fff" fill-opacity="0"/><g><use xlink:href="#s" transform="matrix(1,0,0,1,5,1922.1999999999996) translate(73.525 14.4)"/><use xlink:href="#E" transform="matrix(1,0,0,1,5,1922.1999999999996) translate(88.525 14.4)"/><use xlink:href="#u" transform="matrix(1,0,0,1,5,1922.1999999999996) translate(115 36)"/><use xlink:href="#aw" transform="matrix(1,0,0,1,5,1922.1999999999996) translate(48.55 57.6)"/><use xlink:href="#x" transform="matrix(1,0,0,1,5,1922.1999999999996) translate(131.45 57.6)"/><use xlink:href="#A" transform="matrix(1,0,0,1,5,1922.1999999999996) translate(166.45 57.6)"/><use xlink:href="#B" transform="matrix(1,0,0,1,5,1922.1999999999996) translate(27.099999999999994 79.20000000000002)"/><use xlink:href="#p" transform="matrix(1,0,0,1,5,1922.1999999999996) translate(60 79.20000000000002)"/><use xlink:href="#ai" transform="matrix(1,0,0,1,5,1922.1999999999996) translate(99 79.20000000000002)"/><use xlink:href="#aj" transform="matrix(1,0,0,1,5,1922.1999999999996) translate(114 79.20000000000002)"/><use xlink:href="#u" transform="matrix(1,0,0,1,5,1922.1999999999996) translate(115 100.80000000000001)"/><use xlink:href="#u" transform="matrix(1,0,0,1,5,1922.1999999999996) translate(115 122.4)"/><use xlink:href="#u" transform="matrix(1,0,0,1,5,1922.1999999999996) translate(115 144)"/><use xlink:href="#ax" transform="matrix(1,0,0,1,5,1922.1999999999996) translate(85.5 165.6)"/></g><path d="M240 641.3v1367.3h-8.5" stroke="#000" stroke-width="2" fill="none"/><path d="M241 641.33h-2v-1.03h2z"/><path d="M216.24 2008.6l14.26-4.64v9.28z" stroke="#000" stroke-width="2"/><path d="M480 1918.6h180v180H480z" stroke="#000" stroke-width="2" fill="#fff"/><path d="M450 1917.2h240V2100H450z" stroke="#000" stroke-opacity="0" stroke-width="2" fill="#fff" fill-opacity="0"/><g><use xlink:href="#s" transform="matrix(1,0,0,1,455,1922.1999999999998) translate(73.525 14.4)"/><use xlink:href="#E" transform="matrix(1,0,0,1,455,1922.1999999999998) translate(88.525 14.4)"/><use xlink:href="#u" transform="matrix(1,0,0,1,455,1922.1999999999998) translate(115 36)"/><use xlink:href="#aw" transform="matrix(1,0,0,1,455,1922.1999999999998) translate(48.55 57.6)"/><use xlink:href="#x" transform="matrix(1,0,0,1,455,1922.1999999999998) translate(131.45 57.6)"/><use xlink:href="#A" transform="matrix(1,0,0,1,455,1922.1999999999998) translate(166.45 57.6)"/><use xlink:href="#B" transform="matrix(1,0,0,1,455,1922.1999999999998) translate(27.099999999999994 79.20000000000002)"/><use xlink:href="#p" transform="matrix(1,0,0,1,455,1922.1999999999998) translate(60 79.20000000000002)"/><use xlink:href="#at" transform="matrix(1,0,0,1,455,1922.1999999999998) translate(99 79.20000000000002)"/><use xlink:href="#aj" transform="matrix(1,0,0,1,455,1922.1999999999998) translate(114 79.20000000000002)"/><use xlink:href="#u" transform="matrix(1,0,0,1,455,1922.1999999999998) translate(115 100.80000000000001)"/><use xlink:href="#u" transform="matrix(1,0,0,1,455,1922.1999999999998) translate(115 122.4)"/><use xlink:href="#u" transform="matrix(1,0,0,1,455,1922.1999999999998) translate(115 144)"/><use xlink:href="#ay" transform="matrix(1,0,0,1,455,1922.1999999999998) translate(85.5 165.6)"/></g><path d="M440 641.3v1367.3h20.5" stroke="#000" stroke-width="2" fill="none"/><path d="M441 641.33h-2v-1.03h2z"/><path d="M475.76 2008.6l-14.26 4.64v-9.28z" stroke="#000" stroke-width="2"/><path d="M360 561.2h140V620H360z" fill="#fff" fill-opacity="0"/><g><use xlink:href="#b" transform="matrix(1,0,0,1,365,566.2) translate(30.049999999999997 14.4)"/><use xlink:href="#c" transform="matrix(1,0,0,1,365,566.2) translate(8.099999999999994 36)"/><use xlink:href="#p" transform="matrix(1,0,0,1,365,566.2) translate(73.9 36)"/><use xlink:href="#az" transform="matrix(1,0,0,1,365,566.2) translate(112.9 36)"/><use xlink:href="#aA" transform="matrix(1,0,0,1,365,566.2) translate(35.05 57.6)"/></g><defs><path d="M140-251c81 0 123 46 123 126C263-46 219 4 140 4 59 4 17-45 17-125s42-126 123-126zm0 227c63 0 89-41 89-101s-29-99-89-99c-61 0-89 39-89 99S79-25 140-24" id="aB"/><path d="M59-47c-2 24 18 29 38 22v24C64 9 27 4 27-40v-127H5v-23h24l9-43h21v43h35v23H59v120" id="aC"/><path d="M106-169C34-169 62-67 57 0H25v-261h32l-1 103c12-21 28-36 61-36 89 0 53 116 60 194h-32v-121c2-32-8-49-39-48" id="aD"/><path d="M100-194c63 0 86 42 84 106H49c0 40 14 67 53 68 26 1 43-12 49-29l28 8c-11 28-37 45-77 45C44 4 14-33 15-96c1-61 26-98 85-98zm52 81c6-60-76-77-97-28-3 7-6 17-6 28h103" id="aE"/><path d="M114-163C36-179 61-72 57 0H25l-1-190h30c1 12-1 29 2 39 6-27 23-49 58-41v29" id="aF"/><g id="a"><use transform="matrix(0.05,0,0,0.05,0,0)" xlink:href="#aB"/><use transform="matrix(0.05,0,0,0.05,14,0)" xlink:href="#aC"/><use transform="matrix(0.05,0,0,0.05,19,0)" xlink:href="#aD"/><use transform="matrix(0.05,0,0,0.05,29,0)" xlink:href="#aE"/><use transform="matrix(0.05,0,0,0.05,39,0)" xlink:href="#aF"/></g><path d="M30-248c118-7 216 8 213 122C240-48 200 0 122 0H30v-248zM63-27c89 8 146-16 146-99s-60-101-146-95v194" id="aG"/><path d="M24-231v-30h32v30H24zM24 0v-190h32V0H24" id="aH"/><path d="M141-36C126-15 110 5 73 4 37 3 15-17 15-53c-1-64 63-63 125-63 3-35-9-54-41-54-24 1-41 7-42 31l-33-3c5-37 33-52 76-52 45 0 72 20 72 64v82c-1 20 7 32 28 27v20c-31 9-61-2-59-35zM48-53c0 20 12 33 32 33 41-3 63-29 60-74-43 2-92-5-92 41" id="aI"/><path d="M115-194c53 0 69 39 70 98 0 66-23 100-70 100C84 3 66-7 56-30L54 0H23l1-261h32v101c10-23 28-34 59-34zm-8 174c40 0 45-34 45-75 0-40-5-75-45-74-42 0-51 32-51 76 0 43 10 73 51 73" id="aJ"/><path d="M135-143c-3-34-86-38-87 0 15 53 115 12 119 90S17 21 10-45l28-5c4 36 97 45 98 0-10-56-113-15-118-90-4-57 82-63 122-42 12 7 21 19 24 35" id="aK"/><g id="b"><use transform="matrix(0.05,0,0,0.05,0,0)" xlink:href="#aG"/><use transform="matrix(0.05,0,0,0.05,12.950000000000001,0)" xlink:href="#aH"/><use transform="matrix(0.05,0,0,0.05,16.900000000000002,0)" xlink:href="#aI"/><use transform="matrix(0.05,0,0,0.05,26.900000000000002,0)" xlink:href="#aJ"/><use transform="matrix(0.05,0,0,0.05,36.900000000000006,0)" xlink:href="#aE"/><use transform="matrix(0.05,0,0,0.05,46.900000000000006,0)" xlink:href="#aC"/><use transform="matrix(0.05,0,0,0.05,51.900000000000006,0)" xlink:href="#aE"/><use transform="matrix(0.05,0,0,0.05,61.900000000000006,0)" xlink:href="#aK"/></g><path d="M210-169c-67 3-38 105-44 169h-31v-121c0-29-5-50-35-48C34-165 62-65 56 0H25l-1-190h30c1 10-1 24 2 32 10-44 99-50 107 0 11-21 27-35 58-36 85-2 47 119 55 194h-31v-121c0-29-5-49-35-48" id="aL"/><path d="M24 0v-261h32V0H24" id="aM"/><path d="M84 4C-5 8 30-112 23-190h32v120c0 31 7 50 39 49 72-2 45-101 50-169h31l1 190h-30c-1-10 1-25-2-33-11 22-28 36-60 37" id="aN"/><g id="c"><use transform="matrix(0.05,0,0,0.05,0,0)" xlink:href="#aL"/><use transform="matrix(0.05,0,0,0.05,14.950000000000001,0)" xlink:href="#aE"/><use transform="matrix(0.05,0,0,0.05,24.950000000000003,0)" xlink:href="#aM"/><use transform="matrix(0.05,0,0,0.05,28.900000000000002,0)" xlink:href="#aM"/><use transform="matrix(0.05,0,0,0.05,32.85,0)" xlink:href="#aH"/><use transform="matrix(0.05,0,0,0.05,36.800000000000004,0)" xlink:href="#aC"/><use transform="matrix(0.05,0,0,0.05,41.800000000000004,0)" xlink:href="#aN"/><use transform="matrix(0.05,0,0,0.05,51.800000000000004,0)" xlink:href="#aK"/></g><path d="M87 75C49 33 22-17 22-94c0-76 28-126 65-167h31c-38 41-64 92-64 168S80 34 118 75H87" id="aO"/><path d="M240 0l2-218c-23 76-54 145-80 218h-23L58-218 59 0H30v-248h44l77 211c21-75 51-140 76-211h43V0h-30" id="aP"/><path d="M33-261c38 41 65 92 65 168S71 34 33 75H2C39 34 66-17 66-93S39-220 2-261h31" id="aQ"/><g id="d"><use transform="matrix(0.05,0,0,0.05,0,0)" xlink:href="#aO"/><use transform="matrix(0.05,0,0,0.05,5.95,0)" xlink:href="#aG"/><use transform="matrix(0.05,0,0,0.05,18.900000000000002,0)" xlink:href="#aP"/><use transform="matrix(0.05,0,0,0.05,33.85,0)" xlink:href="#aQ"/></g><path d="M96-169c-40 0-48 33-48 73s9 75 48 75c24 0 41-14 43-38l32 2c-6 37-31 61-74 61-59 0-76-41-82-99-10-93 101-131 147-64 4 7 5 14 7 22l-32 3c-4-21-16-35-41-35" id="aR"/><path d="M-5 72V49h209v23H-5" id="aS"/><path d="M54-142c48-35 137-8 131 61C196 18 31 33 14-55l32-4c7 23 22 37 52 37 35-1 51-22 54-58 4-55-73-65-99-34H22l8-134h141v27H59" id="aT"/><path d="M134-131c28 9 52 24 51 62-1 50-34 73-85 73S17-19 16-69c0-36 21-54 49-61-75-25-45-126 34-121 46 3 78 18 79 63 0 33-17 51-44 57zm-34-11c31 1 46-15 46-44 0-28-17-43-47-42-29 0-46 13-45 42 1 28 16 44 46 44zm1 122c35 0 51-18 51-52 0-30-18-46-53-46-33 0-51 17-51 47 0 34 19 51 53 51" id="aU"/><path d="M64 0c3-98 48-159 88-221H18v-27h164v26C143-157 98-101 97 0H64" id="aV"/><g id="e"><use transform="matrix(0.05,0,0,0.05,0,0)" xlink:href="#aO"/><use transform="matrix(0.05,0,0,0.05,5.95,0)" xlink:href="#aR"/><use transform="matrix(0.05,0,0,0.05,14.949999999999998,0)" xlink:href="#aS"/><use transform="matrix(0.05,0,0,0.05,24.95,0)" xlink:href="#aT"/><use transform="matrix(0.05,0,0,0.05,34.95,0)" xlink:href="#aU"/><use transform="matrix(0.05,0,0,0.05,44.95,0)" xlink:href="#aV"/><use transform="matrix(0.05,0,0,0.05,54.95,0)" xlink:href="#aQ"/></g><path d="M205 0l-28-72H64L36 0H1l101-248h38L239 0h-34zm-38-99l-47-123c-12 45-31 82-46 123h93" id="aW"/><g id="f"><use transform="matrix(0.05,0,0,0.05,0,0)" xlink:href="#aW"/><use transform="matrix(0.05,0,0,0.05,12,0)" xlink:href="#aM"/><use transform="matrix(0.05,0,0,0.05,15.949999999999998,0)" xlink:href="#aM"/></g><g id="g"><use transform="matrix(0.05,0,0,0.05,0,0)" xlink:href="#aR"/><use transform="matrix(0.05,0,0,0.05,9,0)" xlink:href="#aI"/><use transform="matrix(0.05,0,0,0.05,19,0)" xlink:href="#aN"/><use transform="matrix(0.05,0,0,0.05,29,0)" xlink:href="#aK"/><use transform="matrix(0.05,0,0,0.05,38,0)" xlink:href="#aE"/><use transform="matrix(0.05,0,0,0.05,48,0)" xlink:href="#aK"/></g><path d="M101-251c82-7 93 87 43 132L82-64C71-53 59-42 53-27h129V0H18c2-99 128-94 128-182 0-28-16-43-45-43s-46 15-49 41l-32-3c6-41 34-60 81-64" id="aX"/><path d="M99-251c64 0 84 50 84 122C183-37 130 33 47-8c-14-7-20-23-25-40l30-5c6 39 69 39 84 7 9-19 16-44 16-74-10 22-31 35-62 35-49 0-73-33-73-83 0-54 28-83 82-83zm-1 141c31-1 51-18 51-49 0-36-14-67-51-67-34 0-49 23-49 58 0 34 15 58 49 58" id="aY"/><path d="M155-56V0h-30v-56H8v-25l114-167h33v167h35v25h-35zm-30-156c-27 46-58 90-88 131h88v-131" id="aZ"/><g id="h"><use transform="matrix(0.05,0,0,0.05,0,0)" xlink:href="#aO"/><use transform="matrix(0.05,0,0,0.05,5.95,0)" xlink:href="#aR"/><use transform="matrix(0.05,0,0,0.05,14.949999999999998,0)" xlink:href="#aS"/><use transform="matrix(0.05,0,0,0.05,24.95,0)" xlink:href="#aX"/><use transform="matrix(0.05,0,0,0.05,34.95,0)" xlink:href="#aY"/><use transform="matrix(0.05,0,0,0.05,44.95,0)" xlink:href="#aZ"/><use transform="matrix(0.05,0,0,0.05,54.95,0)" xlink:href="#aQ"/></g><path d="M190 0L58-211 59 0H30v-248h39L202-35l-2-213h31V0h-41" id="ba"/><path d="M100-194c62-1 85 37 85 99 1 63-27 99-86 99S16-35 15-95c0-66 28-99 85-99zM99-20c44 1 53-31 53-75 0-43-8-75-51-75s-53 32-53 75 10 74 51 75" id="bb"/><path d="M117-194c89-4 53 116 60 194h-32v-121c0-31-8-49-39-48C34-167 62-67 57 0H25l-1-190h30c1 10-1 24 2 32 11-22 29-35 61-36" id="bc"/><path d="M16-82v-28h88v28H16" id="bd"/><g id="i"><use transform="matrix(0.05,0,0,0.05,0,0)" xlink:href="#ba"/><use transform="matrix(0.05,0,0,0.05,12.950000000000001,0)" xlink:href="#bb"/><use transform="matrix(0.05,0,0,0.05,22.950000000000003,0)" xlink:href="#bc"/><use transform="matrix(0.05,0,0,0.05,32.95,0)" xlink:href="#bd"/><use transform="matrix(0.05,0,0,0.05,38.900000000000006,0)" xlink:href="#aR"/><use transform="matrix(0.05,0,0,0.05,47.900000000000006,0)" xlink:href="#bb"/><use transform="matrix(0.05,0,0,0.05,57.900000000000006,0)" xlink:href="#aL"/><use transform="matrix(0.05,0,0,0.05,72.85000000000001,0)" xlink:href="#aL"/><use transform="matrix(0.05,0,0,0.05,87.80000000000001,0)" xlink:href="#aN"/><use transform="matrix(0.05,0,0,0.05,97.80000000000001,0)" xlink:href="#bc"/><use transform="matrix(0.05,0,0,0.05,107.80000000000001,0)" xlink:href="#aH"/><use transform="matrix(0.05,0,0,0.05,111.75,0)" xlink:href="#aR"/><use transform="matrix(0.05,0,0,0.05,120.75,0)" xlink:href="#aI"/><use transform="matrix(0.05,0,0,0.05,130.75,0)" xlink:href="#aJ"/><use transform="matrix(0.05,0,0,0.05,140.75,0)" xlink:href="#aM"/><use transform="matrix(0.05,0,0,0.05,144.7,0)" xlink:href="#aE"/></g><path d="M85-194c31 0 48 13 60 33l-1-100h32l1 261h-30c-2-10 0-23-3-31C134-8 116 4 85 4 32 4 16-35 15-94c0-66 23-100 70-100zm9 24c-40 0-46 34-46 75 0 40 6 74 45 74 42 0 51-32 51-76 0-42-9-74-50-73" id="be"/><g id="j"><use transform="matrix(0.05,0,0,0.05,0,0)" xlink:href="#be"/><use transform="matrix(0.05,0,0,0.05,10,0)" xlink:href="#aH"/><use transform="matrix(0.05,0,0,0.05,13.949999999999998,0)" xlink:href="#aK"/><use transform="matrix(0.05,0,0,0.05,22.95,0)" xlink:href="#aE"/><use transform="matrix(0.05,0,0,0.05,32.95,0)" xlink:href="#aI"/><use transform="matrix(0.05,0,0,0.05,42.95,0)" xlink:href="#aK"/><use transform="matrix(0.05,0,0,0.05,51.95,0)" xlink:href="#aE"/><use transform="matrix(0.05,0,0,0.05,61.95,0)" xlink:href="#aK"/></g><path d="M101-251c68 0 85 55 85 127S166 4 100 4C33 4 14-52 14-124c0-73 17-127 87-127zm-1 229c47 0 54-49 54-102s-4-102-53-102c-51 0-55 48-55 102 0 53 5 102 54 102" id="bf"/><g id="k"><use transform="matrix(0.05,0,0,0.05,0,0)" xlink:href="#aO"/><use transform="matrix(0.05,0,0,0.05,5.95,0)" xlink:href="#aR"/><use transform="matrix(0.05,0,0,0.05,14.949999999999998,0)" xlink:href="#aS"/><use transform="matrix(0.05,0,0,0.05,24.95,0)" xlink:href="#aZ"/><use transform="matrix(0.05,0,0,0.05,34.95,0)" xlink:href="#bf"/><use transform="matrix(0.05,0,0,0.05,44.95,0)" xlink:href="#aY"/><use transform="matrix(0.05,0,0,0.05,54.95,0)" xlink:href="#aQ"/></g><g id="l"><use transform="matrix(0.05,0,0,0.05,0,0)" xlink:href="#aG"/><use transform="matrix(0.05,0,0,0.05,12.950000000000001,0)" xlink:href="#aH"/><use transform="matrix(0.05,0,0,0.05,16.900000000000002,0)" xlink:href="#aI"/><use transform="matrix(0.05,0,0,0.05,26.900000000000002,0)" xlink:href="#aJ"/><use transform="matrix(0.05,0,0,0.05,36.900000000000006,0)" xlink:href="#aE"/><use transform="matrix(0.05,0,0,0.05,46.900000000000006,0)" xlink:href="#aC"/><use transform="matrix(0.05,0,0,0.05,51.900000000000006,0)" xlink:href="#aE"/><use transform="matrix(0.05,0,0,0.05,61.900000000000006,0)" xlink:href="#aK"/></g><g id="m"><use transform="matrix(0.05,0,0,0.05,0,0)" xlink:href="#aI"/><use transform="matrix(0.05,0,0,0.05,10,0)" xlink:href="#bc"/><use transform="matrix(0.05,0,0,0.05,20,0)" xlink:href="#be"/></g><path d="M143 0L79-87 56-68V0H24v-261h32v163l83-92h37l-77 82L181 0h-38" id="bg"/><path d="M179-190L93 31C79 59 56 82 12 73V49c39 6 53-20 64-50L1-190h34L92-34l54-156h33" id="bh"/><g id="n"><use transform="matrix(0.05,0,0,0.05,0,0)" xlink:href="#bg"/><use transform="matrix(0.05,0,0,0.05,9,0)" xlink:href="#aH"/><use transform="matrix(0.05,0,0,0.05,12.949999999999998,0)" xlink:href="#be"/><use transform="matrix(0.05,0,0,0.05,22.95,0)" xlink:href="#bc"/><use transform="matrix(0.05,0,0,0.05,32.95,0)" xlink:href="#aE"/><use transform="matrix(0.05,0,0,0.05,42.95,0)" xlink:href="#bh"/></g><g id="o"><use transform="matrix(0.05,0,0,0.05,0,0)" xlink:href="#aO"/><use transform="matrix(0.05,0,0,0.05,5.95,0)" xlink:href="#aR"/><use transform="matrix(0.05,0,0,0.05,14.949999999999998,0)" xlink:href="#aS"/><use transform="matrix(0.05,0,0,0.05,24.95,0)" xlink:href="#aY"/><use transform="matrix(0.05,0,0,0.05,34.95,0)" xlink:href="#aV"/><use transform="matrix(0.05,0,0,0.05,44.95,0)" xlink:href="#aZ"/><use transform="matrix(0.05,0,0,0.05,54.95,0)" xlink:href="#aQ"/></g><path d="M115-194c55 1 70 41 70 98S169 2 115 4C84 4 66-9 55-30l1 105H24l-1-265h31l2 30c10-21 28-34 59-34zm-8 174c40 0 45-34 45-75s-6-73-45-74c-42 0-51 32-51 76 0 43 10 73 51 73" id="bi"/><g id="p"><use transform="matrix(0.05,0,0,0.05,0,0)" xlink:href="#aC"/><use transform="matrix(0.05,0,0,0.05,5,0)" xlink:href="#bh"/><use transform="matrix(0.05,0,0,0.05,14,0)" xlink:href="#bi"/><use transform="matrix(0.05,0,0,0.05,24,0)" xlink:href="#aE"/></g><path d="M27 0v-27h64v-190l-56 39v-29l58-41h29v221h61V0H27" id="bj"/><use transform="matrix(0.05,0,0,0.05,0,0)" xlink:href="#bj" id="q"/><g id="r"><use transform="matrix(0.05,0,0,0.05,0,0)" xlink:href="#aO"/><use transform="matrix(0.05,0,0,0.05,5.95,0)" xlink:href="#aR"/><use transform="matrix(0.05,0,0,0.05,14.949999999999998,0)" xlink:href="#aS"/><use transform="matrix(0.05,0,0,0.05,24.95,0)" xlink:href="#aY"/><use transform="matrix(0.05,0,0,0.05,34.95,0)" xlink:href="#aV"/><use transform="matrix(0.05,0,0,0.05,44.95,0)" xlink:href="#aT"/><use transform="matrix(0.05,0,0,0.05,54.95,0)" xlink:href="#aQ"/></g><use transform="matrix(0.05,0,0,0.05,0,0)" xlink:href="#bj" id="s"/><path d="M145-31C134-9 116 4 85 4 32 4 16-35 15-94c0-59 17-99 70-100 32-1 48 14 60 33 0-11-1-24 2-32h30l-1 268h-32zM93-21c41 0 51-33 51-76s-8-73-50-73c-40 0-46 35-46 75s5 74 45 74" id="bk"/><path d="M33-154v-36h34v36H33zM33 0v-36h34V0H33" id="bl"/><g id="t"><use transform="matrix(0.05,0,0,0.05,0,0)" xlink:href="#aK"/><use transform="matrix(0.05,0,0,0.05,9,0)" xlink:href="#bk"/><use transform="matrix(0.05,0,0,0.05,19,0)" xlink:href="#aN"/><use transform="matrix(0.05,0,0,0.05,29,0)" xlink:href="#aE"/><use transform="matrix(0.05,0,0,0.05,39,0)" xlink:href="#aM"/><use transform="matrix(0.05,0,0,0.05,42.95,0)" xlink:href="#aI"/><use transform="matrix(0.05,0,0,0.05,52.95,0)" xlink:href="#bl"/></g><g id="v"><use transform="matrix(0.05,0,0,0.05,0,0)" xlink:href="#aG"/><use transform="matrix(0.05,0,0,0.05,12.950000000000001,0)" xlink:href="#aH"/><use transform="matrix(0.05,0,0,0.05,16.900000000000002,0)" xlink:href="#aI"/><use transform="matrix(0.05,0,0,0.05,26.900000000000002,0)" xlink:href="#aJ"/><use transform="matrix(0.05,0,0,0.05,36.900000000000006,0)" xlink:href="#aE"/><use transform="matrix(0.05,0,0,0.05,46.900000000000006,0)" xlink:href="#aC"/><use transform="matrix(0.05,0,0,0.05,51.900000000000006,0)" xlink:href="#aH"/><use transform="matrix(0.05,0,0,0.05,55.85,0)" xlink:href="#aR"/></g><path d="M101-234c-31-9-42 10-38 44h38v23H63V0H32v-167H5v-23h27c-7-52 17-82 69-68v24" id="bm"/><g id="w"><use transform="matrix(0.05,0,0,0.05,0,0)" xlink:href="#bm"/><use transform="matrix(0.05,0,0,0.05,5,0)" xlink:href="#bb"/><use transform="matrix(0.05,0,0,0.05,15,0)" xlink:href="#bb"/><use transform="matrix(0.05,0,0,0.05,25,0)" xlink:href="#aC"/></g><g id="x"><use transform="matrix(0.05,0,0,0.05,0,0)" xlink:href="#be"/><use transform="matrix(0.05,0,0,0.05,10,0)" xlink:href="#aN"/><use transform="matrix(0.05,0,0,0.05,20,0)" xlink:href="#aE"/></g><g id="y"><use transform="matrix(0.05,0,0,0.05,0,0)" xlink:href="#aC"/><use transform="matrix(0.05,0,0,0.05,5,0)" xlink:href="#bb"/></g><g id="z"><use transform="matrix(0.05,0,0,0.05,0,0)" xlink:href="#bc"/><use transform="matrix(0.05,0,0,0.05,10,0)" xlink:href="#aE"/><use transform="matrix(0.05,0,0,0.05,20,0)" xlink:href="#aN"/><use transform="matrix(0.05,0,0,0.05,30,0)" xlink:href="#aF"/><use transform="matrix(0.05,0,0,0.05,35.95,0)" xlink:href="#bb"/><use transform="matrix(0.05,0,0,0.05,45.95,0)" xlink:href="#bi"/><use transform="matrix(0.05,0,0,0.05,55.95,0)" xlink:href="#aI"/><use transform="matrix(0.05,0,0,0.05,65.95,0)" xlink:href="#aC"/><use transform="matrix(0.05,0,0,0.05,70.95,0)" xlink:href="#aD"/><use transform="matrix(0.05,0,0,0.05,80.95,0)" xlink:href="#bh"/></g><g id="A"><use transform="matrix(0.05,0,0,0.05,0,0)" xlink:href="#aC"/><use transform="matrix(0.05,0,0,0.05,5,0)" xlink:href="#bb"/></g><g id="B"><use transform="matrix(0.05,0,0,0.05,0,0)" xlink:href="#aG"/><use transform="matrix(0.05,0,0,0.05,12.950000000000001,0)" xlink:href="#aP"/></g><use transform="matrix(0.05,0,0,0.05,0,0)" xlink:href="#bj" id="C"/><g id="D"><use transform="matrix(0.05,0,0,0.05,0,0)" xlink:href="#aK"/><use transform="matrix(0.05,0,0,0.05,9,0)" xlink:href="#aS"/><use transform="matrix(0.05,0,0,0.05,19,0)" xlink:href="#aT"/><use transform="matrix(0.05,0,0,0.05,29,0)" xlink:href="#aZ"/><use transform="matrix(0.05,0,0,0.05,39,0)" xlink:href="#aX"/><use transform="matrix(0.05,0,0,0.05,49,0)" xlink:href="#aY"/></g><g id="E"><use transform="matrix(0.05,0,0,0.05,0,0)" xlink:href="#aK"/><use transform="matrix(0.05,0,0,0.05,9,0)" xlink:href="#aE"/><use transform="matrix(0.05,0,0,0.05,19,0)" xlink:href="#bk"/><use transform="matrix(0.05,0,0,0.05,29,0)" xlink:href="#aN"/><use transform="matrix(0.05,0,0,0.05,39,0)" xlink:href="#aE"/><use transform="matrix(0.05,0,0,0.05,49,0)" xlink:href="#aM"/><use transform="matrix(0.05,0,0,0.05,52.95,0)" xlink:href="#aI"/><use transform="matrix(0.05,0,0,0.05,62.95,0)" xlink:href="#bl"/></g><g id="F"><use transform="matrix(0.05,0,0,0.05,0,0)" xlink:href="#bc"/><use transform="matrix(0.05,0,0,0.05,10,0)" xlink:href="#aE"/><use transform="matrix(0.05,0,0,0.05,20,0)" xlink:href="#aN"/><use transform="matrix(0.05,0,0,0.05,30,0)" xlink:href="#aF"/><use transform="matrix(0.05,0,0,0.05,35.95,0)" xlink:href="#bb"/><use transform="matrix(0.05,0,0,0.05,45.95,0)" xlink:href="#bi"/><use transform="matrix(0.05,0,0,0.05,55.95,0)" xlink:href="#aI"/><use transform="matrix(0.05,0,0,0.05,65.95,0)" xlink:href="#aC"/><use transform="matrix(0.05,0,0,0.05,70.95,0)" xlink:href="#aD"/><use transform="matrix(0.05,0,0,0.05,80.95,0)" xlink:href="#bh"/></g><g id="G"><use transform="matrix(0.05,0,0,0.05,0,0)" xlink:href="#be"/><use transform="matrix(0.05,0,0,0.05,10,0)" xlink:href="#aN"/><use transform="matrix(0.05,0,0,0.05,20,0)" xlink:href="#aE"/></g><g id="H"><use transform="matrix(0.05,0,0,0.05,0,0)" xlink:href="#aC"/><use transform="matrix(0.05,0,0,0.05,5,0)" xlink:href="#bb"/></g><g id="I"><use transform="matrix(0.05,0,0,0.05,0,0)" xlink:href="#aG"/><use transform="matrix(0.05,0,0,0.05,12.950000000000001,0)" xlink:href="#aP"/></g><use transform="matrix(0.05,0,0,0.05,0,0)" xlink:href="#bj" id="J"/><path d="M206 0h-36l-40-164L89 0H53L-1-190h32L70-26l43-164h34l41 164 42-164h31" id="bn"/><g id="K"><use transform="matrix(0.05,0,0,0.05,0,0)" xlink:href="#bn"/><use transform="matrix(0.05,0,0,0.05,12.950000000000001,0)" xlink:href="#aH"/><use transform="matrix(0.05,0,0,0.05,16.900000000000002,0)" xlink:href="#aC"/><use transform="matrix(0.05,0,0,0.05,21.900000000000002,0)" xlink:href="#aD"/><use transform="matrix(0.05,0,0,0.05,31.900000000000002,0)" xlink:href="#bb"/><use transform="matrix(0.05,0,0,0.05,41.900000000000006,0)" xlink:href="#aN"/><use transform="matrix(0.05,0,0,0.05,51.900000000000006,0)" xlink:href="#aC"/></g><g id="L"><use transform="matrix(0.05,0,0,0.05,0,0)" xlink:href="#be"/><use transform="matrix(0.05,0,0,0.05,10,0)" xlink:href="#aH"/><use transform="matrix(0.05,0,0,0.05,13.949999999999998,0)" xlink:href="#aI"/><use transform="matrix(0.05,0,0,0.05,23.95,0)" xlink:href="#aJ"/><use transform="matrix(0.05,0,0,0.05,33.95,0)" xlink:href="#aE"/><use transform="matrix(0.05,0,0,0.05,43.95,0)" xlink:href="#aC"/><use transform="matrix(0.05,0,0,0.05,48.95,0)" xlink:href="#aH"/><use transform="matrix(0.05,0,0,0.05,52.900000000000006,0)" xlink:href="#aR"/></g><g id="M"><use transform="matrix(0.05,0,0,0.05,0,0)" xlink:href="#bb"/><use transform="matrix(0.05,0,0,0.05,10,0)" xlink:href="#aF"/></g><g id="N"><use transform="matrix(0.05,0,0,0.05,0,0)" xlink:href="#aI"/><use transform="matrix(0.05,0,0,0.05,10,0)" xlink:href="#aL"/><use transform="matrix(0.05,0,0,0.05,24.950000000000003,0)" xlink:href="#bi"/><use transform="matrix(0.05,0,0,0.05,34.95,0)" xlink:href="#aN"/><use transform="matrix(0.05,0,0,0.05,44.95,0)" xlink:href="#aC"/><use transform="matrix(0.05,0,0,0.05,49.95,0)" xlink:href="#aI"/><use transform="matrix(0.05,0,0,0.05,59.95,0)" xlink:href="#aC"/><use transform="matrix(0.05,0,0,0.05,64.95,0)" xlink:href="#aH"/><use transform="matrix(0.05,0,0,0.05,68.9,0)" xlink:href="#bb"/><use transform="matrix(0.05,0,0,0.05,78.9,0)" xlink:href="#bc"/></g><path d="M126-127c33 6 58 20 58 59 0 88-139 92-164 29-3-8-5-16-6-25l32-3c6 27 21 44 54 44 32 0 52-15 52-46 0-38-36-46-79-43v-28c39 1 72-4 72-42 0-27-17-43-46-43-28 0-47 15-49 41l-32-3c6-42 35-63 81-64 48-1 79 21 79 65 0 36-21 52-52 59" id="bo"/><g id="O"><use transform="matrix(0.05,0,0,0.05,0,0)" xlink:href="#aK"/><use transform="matrix(0.05,0,0,0.05,9,0)" xlink:href="#aS"/><use transform="matrix(0.05,0,0,0.05,19,0)" xlink:href="#aT"/><use transform="matrix(0.05,0,0,0.05,29,0)" xlink:href="#aZ"/><use transform="matrix(0.05,0,0,0.05,39,0)" xlink:href="#bo"/><use transform="matrix(0.05,0,0,0.05,49,0)" xlink:href="#aX"/></g><g id="P"><use transform="matrix(0.05,0,0,0.05,0,0)" xlink:href="#aI"/><use transform="matrix(0.05,0,0,0.05,10,0)" xlink:href="#bc"/><use transform="matrix(0.05,0,0,0.05,20,0)" xlink:href="#be"/></g><g id="Q"><use transform="matrix(0.05,0,0,0.05,0,0)" xlink:href="#aI"/><use transform="matrix(0.05,0,0,0.05,10,0)" xlink:href="#aL"/><use transform="matrix(0.05,0,0,0.05,24.950000000000003,0)" xlink:href="#bi"/><use transform="matrix(0.05,0,0,0.05,34.95,0)" xlink:href="#aN"/><use transform="matrix(0.05,0,0,0.05,44.95,0)" xlink:href="#aC"/><use transform="matrix(0.05,0,0,0.05,49.95,0)" xlink:href="#aI"/><use transform="matrix(0.05,0,0,0.05,59.95,0)" xlink:href="#aC"/><use transform="matrix(0.05,0,0,0.05,64.95,0)" xlink:href="#aH"/><use transform="matrix(0.05,0,0,0.05,68.9,0)" xlink:href="#bb"/><use transform="matrix(0.05,0,0,0.05,78.9,0)" xlink:href="#bc"/></g><g id="R"><use transform="matrix(0.05,0,0,0.05,0,0)" xlink:href="#bn"/><use transform="matrix(0.05,0,0,0.05,12.950000000000001,0)" xlink:href="#aH"/><use transform="matrix(0.05,0,0,0.05,16.900000000000002,0)" xlink:href="#aC"/><use transform="matrix(0.05,0,0,0.05,21.900000000000002,0)" xlink:href="#aD"/></g><g id="S"><use transform="matrix(0.05,0,0,0.05,0,0)" xlink:href="#aC"/><use transform="matrix(0.05,0,0,0.05,5,0)" xlink:href="#aF"/><use transform="matrix(0.05,0,0,0.05,10.95,0)" xlink:href="#aE"/><use transform="matrix(0.05,0,0,0.05,20.95,0)" xlink:href="#aI"/><use transform="matrix(0.05,0,0,0.05,30.950000000000003,0)" xlink:href="#aC"/><use transform="matrix(0.05,0,0,0.05,35.95,0)" xlink:href="#aL"/><use transform="matrix(0.05,0,0,0.05,50.900000000000006,0)" xlink:href="#aE"/><use transform="matrix(0.05,0,0,0.05,60.900000000000006,0)" xlink:href="#bc"/><use transform="matrix(0.05,0,0,0.05,70.9,0)" xlink:href="#aC"/></g><g id="T"><use transform="matrix(0.05,0,0,0.05,0,0)" xlink:href="#aK"/><use transform="matrix(0.05,0,0,0.05,9,0)" xlink:href="#aS"/><use transform="matrix(0.05,0,0,0.05,19,0)" xlink:href="#aT"/><use transform="matrix(0.05,0,0,0.05,29,0)" xlink:href="#aZ"/><use transform="matrix(0.05,0,0,0.05,39,0)" xlink:href="#bo"/><use transform="matrix(0.05,0,0,0.05,49,0)" xlink:href="#aT"/></g><g id="U"><use transform="matrix(0.05,0,0,0.05,0,0)" xlink:href="#aI"/><use transform="matrix(0.05,0,0,0.05,10,0)" xlink:href="#aL"/><use transform="matrix(0.05,0,0,0.05,24.950000000000003,0)" xlink:href="#bi"/><use transform="matrix(0.05,0,0,0.05,34.95,0)" xlink:href="#aN"/><use transform="matrix(0.05,0,0,0.05,44.95,0)" xlink:href="#aC"/><use transform="matrix(0.05,0,0,0.05,49.95,0)" xlink:href="#aI"/><use transform="matrix(0.05,0,0,0.05,59.95,0)" xlink:href="#aC"/><use transform="matrix(0.05,0,0,0.05,64.95,0)" xlink:href="#aH"/><use transform="matrix(0.05,0,0,0.05,68.9,0)" xlink:href="#bb"/><use transform="matrix(0.05,0,0,0.05,78.9,0)" xlink:href="#bc"/></g><g id="V"><use transform="matrix(0.05,0,0,0.05,0,0)" xlink:href="#bn"/><use transform="matrix(0.05,0,0,0.05,12.950000000000001,0)" xlink:href="#aH"/><use transform="matrix(0.05,0,0,0.05,16.900000000000002,0)" xlink:href="#aC"/><use transform="matrix(0.05,0,0,0.05,21.900000000000002,0)" xlink:href="#aD"/><use transform="matrix(0.05,0,0,0.05,31.900000000000002,0)" xlink:href="#bb"/><use transform="matrix(0.05,0,0,0.05,41.900000000000006,0)" xlink:href="#aN"/><use transform="matrix(0.05,0,0,0.05,51.900000000000006,0)" xlink:href="#aC"/></g><g id="W"><use transform="matrix(0.05,0,0,0.05,0,0)" xlink:href="#aC"/><use transform="matrix(0.05,0,0,0.05,5,0)" xlink:href="#aF"/><use transform="matrix(0.05,0,0,0.05,10.95,0)" xlink:href="#aE"/><use transform="matrix(0.05,0,0,0.05,20.95,0)" xlink:href="#aI"/><use transform="matrix(0.05,0,0,0.05,30.950000000000003,0)" xlink:href="#aC"/><use transform="matrix(0.05,0,0,0.05,35.95,0)" xlink:href="#aL"/><use transform="matrix(0.05,0,0,0.05,50.900000000000006,0)" xlink:href="#aE"/><use transform="matrix(0.05,0,0,0.05,60.900000000000006,0)" xlink:href="#bc"/><use transform="matrix(0.05,0,0,0.05,70.9,0)" xlink:href="#aC"/></g><g id="X"><use transform="matrix(0.05,0,0,0.05,0,0)" xlink:href="#aK"/><use transform="matrix(0.05,0,0,0.05,9,0)" xlink:href="#aS"/><use transform="matrix(0.05,0,0,0.05,19,0)" xlink:href="#aT"/><use transform="matrix(0.05,0,0,0.05,29,0)" xlink:href="#aZ"/><use transform="matrix(0.05,0,0,0.05,39,0)" xlink:href="#bo"/><use transform="matrix(0.05,0,0,0.05,49,0)" xlink:href="#aU"/></g><path d="M232-93c-1 65-40 97-104 97C67 4 28-28 28-90v-158h33c8 89-33 224 67 224 102 0 64-133 71-224h33v155" id="bp"/><g id="Y"><use transform="matrix(0.05,0,0,0.05,0,0)" xlink:href="#bp"/><use transform="matrix(0.05,0,0,0.05,12.950000000000001,0)" xlink:href="#bc"/><use transform="matrix(0.05,0,0,0.05,22.950000000000003,0)" xlink:href="#aR"/><use transform="matrix(0.05,0,0,0.05,31.950000000000003,0)" xlink:href="#bb"/><use transform="matrix(0.05,0,0,0.05,41.95,0)" xlink:href="#aL"/><use transform="matrix(0.05,0,0,0.05,56.900000000000006,0)" xlink:href="#bi"/><use transform="matrix(0.05,0,0,0.05,66.9,0)" xlink:href="#aM"/><use transform="matrix(0.05,0,0,0.05,70.85000000000001,0)" xlink:href="#aH"/><use transform="matrix(0.05,0,0,0.05,74.80000000000001,0)" xlink:href="#aR"/><use transform="matrix(0.05,0,0,0.05,83.80000000000001,0)" xlink:href="#aI"/><use transform="matrix(0.05,0,0,0.05,93.80000000000001,0)" xlink:href="#aC"/><use transform="matrix(0.05,0,0,0.05,98.80000000000001,0)" xlink:href="#aE"/><use transform="matrix(0.05,0,0,0.05,108.80000000000001,0)" xlink:href="#be"/></g><g id="Z"><use transform="matrix(0.05,0,0,0.05,0,0)" xlink:href="#aK"/><use transform="matrix(0.05,0,0,0.05,9,0)" xlink:href="#aS"/><use transform="matrix(0.05,0,0,0.05,19,0)" xlink:href="#aT"/><use transform="matrix(0.05,0,0,0.05,29,0)" xlink:href="#aZ"/><use transform="matrix(0.05,0,0,0.05,39,0)" xlink:href="#aZ"/><use transform="matrix(0.05,0,0,0.05,49,0)" xlink:href="#bj"/></g><use transform="matrix(0.05,0,0,0.05,0,0)" xlink:href="#aX" id="aa"/><g id="ab"><use transform="matrix(0.05,0,0,0.05,0,0)" xlink:href="#aK"/><use transform="matrix(0.05,0,0,0.05,9,0)" xlink:href="#aE"/><use transform="matrix(0.05,0,0,0.05,19,0)" xlink:href="#bk"/><use transform="matrix(0.05,0,0,0.05,29,0)" xlink:href="#aN"/><use transform="matrix(0.05,0,0,0.05,39,0)" xlink:href="#aE"/><use transform="matrix(0.05,0,0,0.05,49,0)" xlink:href="#aM"/><use transform="matrix(0.05,0,0,0.05,52.95,0)" xlink:href="#aI"/><use transform="matrix(0.05,0,0,0.05,62.95,0)" xlink:href="#aE"/><use transform="matrix(0.05,0,0,0.05,72.95,0)" xlink:href="#bl"/></g><path d="M68-38c1 34 0 65-14 84H32c9-13 17-26 17-46H33v-38h35" id="bq"/><g id="ac"><use transform="matrix(0.05,0,0,0.05,0,0)" xlink:href="#aP"/><use transform="matrix(0.05,0,0,0.05,14.950000000000001,0)" xlink:href="#bb"/><use transform="matrix(0.05,0,0,0.05,24.950000000000003,0)" xlink:href="#be"/><use transform="matrix(0.05,0,0,0.05,34.95,0)" xlink:href="#aE"/><use transform="matrix(0.05,0,0,0.05,44.95,0)" xlink:href="#aF"/><use transform="matrix(0.05,0,0,0.05,50.900000000000006,0)" xlink:href="#aI"/><use transform="matrix(0.05,0,0,0.05,60.900000000000006,0)" xlink:href="#aC"/><use transform="matrix(0.05,0,0,0.05,65.9,0)" xlink:href="#aE"/><use transform="matrix(0.05,0,0,0.05,75.9,0)" xlink:href="#bq"/></g><path d="M185-189c-5-48-123-54-124 2 14 75 158 14 163 119 3 78-121 87-175 55-17-10-28-26-33-46l33-7c5 56 141 63 141-1 0-78-155-14-162-118-5-82 145-84 179-34 5 7 8 16 11 25" id="br"/><path d="M108 0H70L1-190h34L89-25l56-165h34" id="bs"/><g id="ad"><use transform="matrix(0.05,0,0,0.05,0,0)" xlink:href="#br"/><use transform="matrix(0.05,0,0,0.05,12,0)" xlink:href="#aE"/><use transform="matrix(0.05,0,0,0.05,22,0)" xlink:href="#bs"/><use transform="matrix(0.05,0,0,0.05,31,0)" xlink:href="#aE"/><use transform="matrix(0.05,0,0,0.05,41,0)" xlink:href="#aF"/><use transform="matrix(0.05,0,0,0.05,46.95,0)" xlink:href="#aE"/></g><g id="ae"><use transform="matrix(0.05,0,0,0.05,0,0)" xlink:href="#bs"/><use transform="matrix(0.05,0,0,0.05,9,0)" xlink:href="#aH"/><use transform="matrix(0.05,0,0,0.05,12.949999999999998,0)" xlink:href="#aK"/><use transform="matrix(0.05,0,0,0.05,21.95,0)" xlink:href="#aH"/><use transform="matrix(0.05,0,0,0.05,25.899999999999995,0)" xlink:href="#bb"/><use transform="matrix(0.05,0,0,0.05,35.9,0)" xlink:href="#bc"/></g><g id="af"><use transform="matrix(0.05,0,0,0.05,0,0)" xlink:href="#aH"/><use transform="matrix(0.05,0,0,0.05,3.95,0)" xlink:href="#aL"/><use transform="matrix(0.05,0,0,0.05,18.900000000000002,0)" xlink:href="#bi"/><use transform="matrix(0.05,0,0,0.05,28.900000000000002,0)" xlink:href="#aI"/><use transform="matrix(0.05,0,0,0.05,38.900000000000006,0)" xlink:href="#aH"/><use transform="matrix(0.05,0,0,0.05,42.85000000000001,0)" xlink:href="#aF"/><use transform="matrix(0.05,0,0,0.05,48.80000000000001,0)" xlink:href="#aL"/><use transform="matrix(0.05,0,0,0.05,63.750000000000014,0)" xlink:href="#aE"/><use transform="matrix(0.05,0,0,0.05,73.75000000000001,0)" xlink:href="#bc"/><use transform="matrix(0.05,0,0,0.05,83.75000000000001,0)" xlink:href="#aC"/></g><g id="ag"><use transform="matrix(0.05,0,0,0.05,0,0)" xlink:href="#aG"/><use transform="matrix(0.05,0,0,0.05,12.950000000000001,0)" xlink:href="#aP"/></g><g id="ah"><use transform="matrix(0.05,0,0,0.05,0,0)" xlink:href="#aC"/><use transform="matrix(0.05,0,0,0.05,5,0)" xlink:href="#bh"/><use transform="matrix(0.05,0,0,0.05,14,0)" xlink:href="#bi"/><use transform="matrix(0.05,0,0,0.05,24,0)" xlink:href="#aE"/></g><use transform="matrix(0.05,0,0,0.05,0,0)" xlink:href="#bj" id="ai"/><g id="aj"><use transform="matrix(0.05,0,0,0.05,0,0)" xlink:href="#aF"/><use transform="matrix(0.05,0,0,0.05,5.95,0)" xlink:href="#aE"/><use transform="matrix(0.05,0,0,0.05,15.949999999999998,0)" xlink:href="#aC"/><use transform="matrix(0.05,0,0,0.05,20.95,0)" xlink:href="#aH"/><use transform="matrix(0.05,0,0,0.05,24.9,0)" xlink:href="#bc"/><use transform="matrix(0.05,0,0,0.05,34.9,0)" xlink:href="#bb"/><use transform="matrix(0.05,0,0,0.05,44.9,0)" xlink:href="#bi"/><use transform="matrix(0.05,0,0,0.05,54.900000000000006,0)" xlink:href="#aI"/><use transform="matrix(0.05,0,0,0.05,64.9,0)" xlink:href="#aC"/><use transform="matrix(0.05,0,0,0.05,69.9,0)" xlink:href="#aD"/><use transform="matrix(0.05,0,0,0.05,79.9,0)" xlink:href="#bh"/></g><g id="ak"><use transform="matrix(0.05,0,0,0.05,0,0)" xlink:href="#aK"/><use transform="matrix(0.05,0,0,0.05,9,0)" xlink:href="#aS"/><use transform="matrix(0.05,0,0,0.05,19,0)" xlink:href="#aT"/><use transform="matrix(0.05,0,0,0.05,29,0)" xlink:href="#aZ"/><use transform="matrix(0.05,0,0,0.05,39,0)" xlink:href="#aZ"/><use transform="matrix(0.05,0,0,0.05,49,0)" xlink:href="#aZ"/><use transform="matrix(0.05,0,0,0.05,59,0)" xlink:href="#bq"/></g><g id="al"><use transform="matrix(0.05,0,0,0.05,0,0)" xlink:href="#aK"/><use transform="matrix(0.05,0,0,0.05,9,0)" xlink:href="#aS"/><use transform="matrix(0.05,0,0,0.05,19,0)" xlink:href="#aT"/><use transform="matrix(0.05,0,0,0.05,29,0)" xlink:href="#aZ"/><use transform="matrix(0.05,0,0,0.05,39,0)" xlink:href="#aZ"/><use transform="matrix(0.05,0,0,0.05,49,0)" xlink:href="#aV"/></g><use transform="matrix(0.05,0,0,0.05,0,0)" xlink:href="#aX" id="am"/><g id="an"><use transform="matrix(0.05,0,0,0.05,0,0)" xlink:href="#aK"/><use transform="matrix(0.05,0,0,0.05,9,0)" xlink:href="#aS"/><use transform="matrix(0.05,0,0,0.05,19,0)" xlink:href="#aT"/><use transform="matrix(0.05,0,0,0.05,29,0)" xlink:href="#aZ"/><use transform="matrix(0.05,0,0,0.05,39,0)" xlink:href="#aT"/><use transform="matrix(0.05,0,0,0.05,49,0)" xlink:href="#bo"/></g><use transform="matrix(0.05,0,0,0.05,0,0)" xlink:href="#aX" id="ao"/><path d="M110-160c48 1 74 30 74 79 0 53-28 85-80 85-65 0-83-55-86-122-5-90 50-162 133-122 14 7 22 21 27 39l-31 6c-5-40-67-38-82-6-9 19-15 44-15 74 11-20 30-34 60-33zm-7 138c34 0 49-23 49-58s-16-56-50-56c-29 0-50 16-49 49 1 36 15 65 50 65" id="bt"/><g id="ap"><use transform="matrix(0.05,0,0,0.05,0,0)" xlink:href="#aK"/><use transform="matrix(0.05,0,0,0.05,9,0)" xlink:href="#aS"/><use transform="matrix(0.05,0,0,0.05,19,0)" xlink:href="#aT"/><use transform="matrix(0.05,0,0,0.05,29,0)" xlink:href="#aZ"/><use transform="matrix(0.05,0,0,0.05,39,0)" xlink:href="#aT"/><use transform="matrix(0.05,0,0,0.05,49,0)" xlink:href="#bt"/></g><g id="aq"><use transform="matrix(0.05,0,0,0.05,0,0)" xlink:href="#aK"/><use transform="matrix(0.05,0,0,0.05,9,0)" xlink:href="#aS"/><use transform="matrix(0.05,0,0,0.05,19,0)" xlink:href="#aT"/><use transform="matrix(0.05,0,0,0.05,29,0)" xlink:href="#aZ"/><use transform="matrix(0.05,0,0,0.05,39,0)" xlink:href="#aT"/><use transform="matrix(0.05,0,0,0.05,49,0)" xlink:href="#aY"/></g><g id="ar"><use transform="matrix(0.05,0,0,0.05,0,0)" xlink:href="#aK"/><use transform="matrix(0.05,0,0,0.05,9,0)" xlink:href="#aS"/><use transform="matrix(0.05,0,0,0.05,19,0)" xlink:href="#aT"/><use transform="matrix(0.05,0,0,0.05,29,0)" xlink:href="#aZ"/><use transform="matrix(0.05,0,0,0.05,39,0)" xlink:href="#bt"/><use transform="matrix(0.05,0,0,0.05,49,0)" xlink:href="#aX"/></g><g id="as"><use transform="matrix(0.05,0,0,0.05,0,0)" xlink:href="#aK"/><use transform="matrix(0.05,0,0,0.05,9,0)" xlink:href="#aS"/><use transform="matrix(0.05,0,0,0.05,19,0)" xlink:href="#aT"/><use transform="matrix(0.05,0,0,0.05,29,0)" xlink:href="#aZ"/><use transform="matrix(0.05,0,0,0.05,39,0)" xlink:href="#bt"/><use transform="matrix(0.05,0,0,0.05,49,0)" xlink:href="#aT"/></g><use transform="matrix(0.05,0,0,0.05,0,0)" xlink:href="#aX" id="at"/><g id="au"><use transform="matrix(0.05,0,0,0.05,0,0)" xlink:href="#aK"/><use transform="matrix(0.05,0,0,0.05,9,0)" xlink:href="#aS"/><use transform="matrix(0.05,0,0,0.05,19,0)" xlink:href="#aT"/><use transform="matrix(0.05,0,0,0.05,29,0)" xlink:href="#aZ"/><use transform="matrix(0.05,0,0,0.05,39,0)" xlink:href="#bt"/><use transform="matrix(0.05,0,0,0.05,49,0)" xlink:href="#aU"/><use transform="matrix(0.05,0,0,0.05,59,0)" xlink:href="#bq"/></g><g id="av"><use transform="matrix(0.05,0,0,0.05,0,0)" xlink:href="#aK"/><use transform="matrix(0.05,0,0,0.05,9,0)" xlink:href="#aS"/><use transform="matrix(0.05,0,0,0.05,19,0)" xlink:href="#aT"/><use transform="matrix(0.05,0,0,0.05,29,0)" xlink:href="#aZ"/><use transform="matrix(0.05,0,0,0.05,39,0)" xlink:href="#aV"/><use transform="matrix(0.05,0,0,0.05,49,0)" xlink:href="#bj"/></g><path d="M160-131c35 5 61 23 61 61C221 17 115-2 30 0v-248c76 3 177-17 177 60 0 33-19 50-47 57zm-97-11c50-1 110 9 110-42 0-47-63-36-110-37v79zm0 115c55-2 124 14 124-45 0-56-70-42-124-44v89" id="bu"/><g id="aw"><use transform="matrix(0.05,0,0,0.05,0,0)" xlink:href="#bu"/><use transform="matrix(0.05,0,0,0.05,12,0)" xlink:href="#aM"/><use transform="matrix(0.05,0,0,0.05,15.949999999999998,0)" xlink:href="#aH"/><use transform="matrix(0.05,0,0,0.05,19.9,0)" xlink:href="#bc"/><use transform="matrix(0.05,0,0,0.05,29.899999999999995,0)" xlink:href="#be"/><use transform="matrix(0.05,0,0,0.05,39.9,0)" xlink:href="#bc"/><use transform="matrix(0.05,0,0,0.05,49.9,0)" xlink:href="#aE"/><use transform="matrix(0.05,0,0,0.05,59.900000000000006,0)" xlink:href="#aK"/><use transform="matrix(0.05,0,0,0.05,68.9,0)" xlink:href="#aK"/></g><g id="ax"><use transform="matrix(0.05,0,0,0.05,0,0)" xlink:href="#aK"/><use transform="matrix(0.05,0,0,0.05,9,0)" xlink:href="#aS"/><use transform="matrix(0.05,0,0,0.05,19,0)" xlink:href="#aT"/><use transform="matrix(0.05,0,0,0.05,29,0)" xlink:href="#aZ"/><use transform="matrix(0.05,0,0,0.05,39,0)" xlink:href="#aT"/><use transform="matrix(0.05,0,0,0.05,49,0)" xlink:href="#bf"/></g><g id="ay"><use transform="matrix(0.05,0,0,0.05,0,0)" xlink:href="#aK"/><use transform="matrix(0.05,0,0,0.05,9,0)" xlink:href="#aS"/><use transform="matrix(0.05,0,0,0.05,19,0)" xlink:href="#aT"/><use transform="matrix(0.05,0,0,0.05,29,0)" xlink:href="#aZ"/><use transform="matrix(0.05,0,0,0.05,39,0)" xlink:href="#aV"/><use transform="matrix(0.05,0,0,0.05,49,0)" xlink:href="#aZ"/></g><use transform="matrix(0.05,0,0,0.05,0,0)" xlink:href="#aX" id="az"/><g id="aA"><use transform="matrix(0.05,0,0,0.05,0,0)" xlink:href="#aO"/><use transform="matrix(0.05,0,0,0.05,5.95,0)" xlink:href="#aR"/><use transform="matrix(0.05,0,0,0.05,14.949999999999998,0)" xlink:href="#aS"/><use transform="matrix(0.05,0,0,0.05,24.95,0)" xlink:href="#aY"/><use transform="matrix(0.05,0,0,0.05,34.95,0)" xlink:href="#aV"/><use transform="matrix(0.05,0,0,0.05,44.95,0)" xlink:href="#bt"/><use transform="matrix(0.05,0,0,0.05,54.95,0)" xlink:href="#aQ"/></g></defs></g></svg>