<?xml version="1.0" standalone="no"?>
<!DOCTYPE svg PUBLIC "-//W3C//DTD SVG 20010904//EN"
 "http://www.w3.org/TR/2001/REC-SVG-20010904/DTD/svg10.dtd">
<svg version="1.0" xmlns="http://www.w3.org/2000/svg"
 width="1292.000000pt" height="191.000000pt" viewBox="0 0 1292.000000 191.000000"
 preserveAspectRatio="xMidYMid meet">

<g transform="translate(0.000000,191.000000) scale(0.100000,-0.100000)"
fill="#000000" stroke="none">
<path d="M140 950 l0 -830 6335 0 6335 0 0 830 0 830 -6335 0 -6335 0 0 -830z
m830 600 l0 -220 -410 0 -410 0 0 220 0 220 410 0 410 0 0 -220z m710 0 l0
-220 -350 0 -350 0 0 220 0 220 350 0 350 0 0 -220z m810 0 l0 -220 -400 0
-400 0 0 220 0 220 400 0 400 0 0 -220z m710 0 l0 -220 -350 0 -350 0 0 220 0
220 350 0 350 0 0 -220z m490 0 l0 -220 -240 0 -240 0 0 220 0 220 240 0 240
0 0 -220z m910 0 l0 -220 -450 0 -450 0 0 220 0 220 450 0 450 0 0 -220z m910
0 l0 -220 -450 0 -450 0 0 220 0 220 450 0 450 0 0 -220z m1060 0 l0 -220
-525 0 -525 0 0 220 0 220 525 0 525 0 0 -220z m830 0 l0 -220 -410 0 -410 0
0 220 0 220 410 0 410 0 0 -220z m1050 0 l0 -220 -520 0 -520 0 0 220 0 220
520 0 520 0 0 -220z m1050 0 l0 -220 -520 0 -520 0 0 220 0 220 520 0 520 0 0
-220z m1060 0 l0 -220 -525 0 -525 0 0 220 0 220 525 0 525 0 0 -220z m1050 0
l0 -220 -520 0 -520 0 0 220 0 220 520 0 520 0 0 -220z m1190 0 l0 -220 -590
0 -590 0 0 220 0 220 590 0 590 0 0 -220z m-11830 -425 l0 -195 -410 0 -410 0
0 195 0 195 410 0 410 0 0 -195z m710 0 l0 -195 -350 0 -350 0 0 195 0 195
350 0 350 0 0 -195z m810 0 l0 -195 -400 0 -400 0 0 195 0 195 400 0 400 0 0
-195z m710 0 l0 -195 -350 0 -350 0 0 195 0 195 350 0 350 0 0 -195z m490 0
l0 -195 -240 0 -240 0 0 195 0 195 240 0 240 0 0 -195z m910 0 l0 -195 -450 0
-450 0 0 195 0 195 450 0 450 0 0 -195z m910 0 l0 -195 -450 0 -450 0 0 195 0
195 450 0 450 0 0 -195z m1060 0 l0 -195 -525 0 -525 0 0 195 0 195 525 0 525
0 0 -195z m830 0 l0 -195 -410 0 -410 0 0 195 0 195 410 0 410 0 0 -195z
m1050 0 l0 -195 -520 0 -520 0 0 195 0 195 520 0 520 0 0 -195z m1050 0 l0
-195 -520 0 -520 0 0 195 0 195 520 0 520 0 0 -195z m1060 0 l0 -195 -525 0
-525 0 0 195 0 195 525 0 525 0 0 -195z m1050 0 l0 -195 -520 0 -520 0 0 195
0 195 520 0 520 0 0 -195z m1190 0 l0 -195 -590 0 -590 0 0 195 0 195 590 0
590 0 0 -195z m-11830 -400 l0 -195 -410 0 -410 0 0 195 0 195 410 0 410 0 0
-195z m710 0 l0 -195 -350 0 -350 0 0 195 0 195 350 0 350 0 0 -195z m810 0
l0 -195 -400 0 -400 0 0 195 0 195 400 0 400 0 0 -195z m710 0 l0 -195 -350 0
-350 0 0 195 0 195 350 0 350 0 0 -195z m490 0 l0 -195 -240 0 -240 0 0 195 0
195 240 0 240 0 0 -195z m910 0 l0 -195 -450 0 -450 0 0 195 0 195 450 0 450
0 0 -195z m910 0 l0 -195 -450 0 -450 0 0 195 0 195 450 0 450 0 0 -195z
m1060 0 l0 -195 -525 0 -525 0 0 195 0 195 525 0 525 0 0 -195z m830 0 l0
-195 -410 0 -410 0 0 195 0 195 410 0 410 0 0 -195z m1050 0 l0 -195 -520 0
-520 0 0 195 0 195 520 0 520 0 0 -195z m1050 0 l0 -195 -520 0 -520 0 0 195
0 195 520 0 520 0 0 -195z m1060 0 l0 -195 -525 0 -525 0 0 195 0 195 525 0
525 0 0 -195z m1050 0 l0 -195 -520 0 -520 0 0 195 0 195 520 0 520 0 0 -195z
m1190 0 l0 -195 -590 0 -590 0 0 195 0 195 590 0 590 0 0 -195z m-11830 -400
l0 -195 -410 0 -410 0 0 195 0 195 410 0 410 0 0 -195z m710 0 l0 -195 -350 0
-350 0 0 195 0 195 350 0 350 0 0 -195z m810 0 l0 -195 -400 0 -400 0 0 195 0
195 400 0 400 0 0 -195z m710 0 l0 -195 -350 0 -350 0 0 195 0 195 350 0 350
0 0 -195z m490 0 l0 -195 -240 0 -240 0 0 195 0 195 240 0 240 0 0 -195z m910
0 l0 -195 -450 0 -450 0 0 195 0 195 450 0 450 0 0 -195z m910 0 l0 -195 -450
0 -450 0 0 195 0 195 450 0 450 0 0 -195z m1060 0 l0 -195 -525 0 -525 0 0
195 0 195 525 0 525 0 0 -195z m830 0 l0 -195 -410 0 -410 0 0 195 0 195 410
0 410 0 0 -195z m1050 0 l0 -195 -520 0 -520 0 0 195 0 195 520 0 520 0 0
-195z m1050 0 l0 -195 -520 0 -520 0 0 195 0 195 520 0 520 0 0 -195z m1060 0
l0 -195 -525 0 -525 0 0 195 0 195 525 0 525 0 0 -195z m1050 0 l0 -195 -520
0 -520 0 0 195 0 195 520 0 520 0 0 -195z m1190 0 l0 -195 -590 0 -590 0 0
195 0 195 590 0 590 0 0 -195z"/>
<path d="M180 1674 c0 -63 26 -87 74 -68 12 4 16 20 16 55 0 27 -4 49 -10 49
-5 0 -10 -18 -10 -40 0 -28 -5 -43 -16 -47 -21 -8 -34 13 -34 55 0 17 -4 32
-10 32 -5 0 -10 -16 -10 -36z"/>
<path d="M400 1700 c0 -5 5 -10 10 -10 6 0 10 5 10 10 0 6 -4 10 -10 10 -5 0
-10 -4 -10 -10z"/>
<path d="M300 1639 c0 -44 17 -54 22 -12 4 39 28 42 28 4 0 -17 5 -31 11 -31
6 0 9 16 7 38 -3 34 -6 37 -35 39 -32 1 -33 0 -33 -38z"/>
<path d="M400 1640 c0 -22 5 -40 10 -40 6 0 10 18 10 40 0 22 -4 40 -10 40 -5
0 -10 -18 -10 -40z"/>
<path d="M444 1665 c-12 -30 0 -60 24 -59 15 0 22 -5 22 -18 0 -10 5 -18 10
-18 6 0 10 24 10 53 0 51 -1 52 -30 54 -19 1 -33 -3 -36 -12z m46 -25 c0 -11
-7 -20 -15 -20 -8 0 -15 9 -15 20 0 11 7 20 15 20 8 0 15 -9 15 -20z"/>
<path d="M542 1643 c3 -35 6 -38 36 -40 31 -1 32 0 32 38 0 44 -17 54 -22 12
-4 -39 -28 -42 -28 -4 0 17 -5 31 -11 31 -6 0 -9 -16 -7 -37z"/>
<path d="M642 1668 c-27 -27 -6 -68 35 -68 33 0 29 20 -4 21 -21 1 -23 3 -8 6
44 9 46 12 35 33 -12 22 -40 26 -58 8z m35 -14 c-3 -3 -12 -4 -19 -1 -8 3 -5
6 6 6 11 1 17 -2 13 -5z"/>
<path d="M187 1484 c-15 -15 -6 -45 18 -56 28 -13 23 -32 -7 -25 -12 4 -18 1
-15 -6 5 -17 35 -21 52 -7 22 18 18 39 -10 52 -30 14 -33 33 -4 25 13 -3 19
-1 16 6 -4 14 -39 21 -50 11z"/>
<path d="M270 1480 c0 -5 5 -10 10 -10 6 0 10 5 10 10 0 6 -4 10 -10 10 -5 0
-10 -4 -10 -10z"/>
<path d="M500 1435 c0 -30 5 -55 10 -55 6 0 10 25 10 55 0 30 -4 55 -10 55 -5
0 -10 -25 -10 -55z"/>
<path d="M550 1435 c0 -54 0 -55 29 -55 38 0 61 23 61 60 0 32 -23 50 -64 50
-25 0 -26 -3 -26 -55z m65 16 c8 -26 -4 -51 -26 -51 -15 0 -19 7 -19 35 0 28
4 35 19 35 11 0 22 -8 26 -19z"/>
<path d="M270 1420 c0 -22 5 -40 10 -40 6 0 10 18 10 40 0 22 -4 40 -10 40 -5
0 -10 -18 -10 -40z"/>
<path d="M310 1418 c0 -43 17 -52 22 -11 4 39 28 42 28 4 0 -38 18 -41 22 -3
2 16 9 27 18 27 9 0 16 -11 18 -27 4 -30 22 -39 22 -10 -1 53 -9 60 -71 59
l-59 -1 0 -38z"/>
<path d="M1020 1655 c0 -30 5 -55 10 -55 6 0 10 9 10 20 0 13 7 20 20 20 11 0
20 5 20 10 0 6 -9 10 -20 10 -11 0 -20 7 -20 15 0 8 9 15 20 15 11 0 20 5 20
10 0 6 -13 10 -30 10 -30 0 -30 -1 -30 -55z"/>
<path d="M1100 1700 c0 -5 7 -10 15 -10 8 0 15 5 15 10 0 6 -7 10 -15 10 -8 0
-15 -4 -15 -10z"/>
<path d="M1287 1687 c-9 -25 8 -82 26 -85 9 -2 17 1 17 7 0 6 -4 11 -10 11
-14 0 -12 38 2 42 9 3 8 9 -4 21 -20 20 -24 21 -31 4z"/>
<path d="M1100 1640 c0 -22 5 -40 10 -40 6 0 10 18 10 40 0 22 -4 40 -10 40
-5 0 -10 -18 -10 -40z"/>
<path d="M1150 1639 c0 -22 5 -39 10 -39 6 0 10 11 10 25 0 14 7 28 15 31 23
9 18 22 -10 22 -22 0 -25 -5 -25 -39z"/>
<path d="M1214 1665 c-4 -9 1 -22 12 -31 17 -14 17 -15 2 -10 -12 3 -18 0 -18
-9 0 -20 39 -19 47 1 4 11 -1 23 -13 32 -18 14 -18 14 -1 8 13 -4 17 -2 15 6
-7 20 -37 22 -44 3z"/>
<path d="M1020 1435 c0 -30 5 -55 10 -55 6 0 10 19 10 43 l1 42 24 -40 c34
-55 49 -52 53 13 2 31 -1 52 -7 52 -6 0 -11 -16 -11 -35 0 -19 -4 -35 -8 -35
-5 0 -16 16 -25 35 -26 55 -47 46 -47 -20z"/>
<path d="M1140 1451 c0 -6 10 -11 23 -12 l22 0 -22 -9 c-13 -6 -23 -18 -23
-30 0 -16 7 -20 31 -20 29 0 30 2 27 38 -3 32 -7 37 -30 40 -16 2 -28 -1 -28
-7z"/>
<path d="M1230 1419 c0 -44 17 -53 22 -12 4 39 28 42 28 4 0 -38 17 -41 22 -4
4 39 28 42 28 4 0 -17 5 -31 11 -31 6 0 9 16 7 38 l-3 37 -57 1 -58 1 0 -38z"/>
<path d="M1382 1448 c-27 -27 -6 -68 35 -68 30 0 30 17 1 23 -20 4 -19 4 5 6
41 2 29 51 -13 51 -9 0 -21 -5 -28 -12z m45 -14 c-3 -3 -12 -4 -19 -1 -8 3 -5
6 6 6 11 1 17 -2 13 -5z"/>
<path d="M1990 1700 c0 -13 -7 -20 -19 -20 -27 0 -44 -26 -37 -55 5 -20 12
-24 41 -23 l35 1 0 59 c0 32 -4 58 -10 58 -5 0 -10 -9 -10 -20z m-4 -51 c10
-17 -13 -36 -27 -22 -12 12 -4 33 11 33 5 0 12 -5 16 -11z"/>
<path d="M2080 1697 c0 -18 -5 -23 -22 -23 -20 1 -23 -4 -23 -34 0 -33 2 -35
33 -35 l32 -1 0 58 c0 32 -4 58 -10 58 -5 0 -10 -10 -10 -23z m0 -57 c0 -11
-7 -20 -15 -20 -8 0 -15 9 -15 20 0 11 7 20 15 20 8 0 15 -9 15 -20z"/>
<path d="M2130 1660 c0 -33 4 -60 10 -60 6 0 10 27 10 60 0 33 -4 60 -10 60
-6 0 -10 -27 -10 -60z"/>
<path d="M1730 1656 c0 -65 20 -77 21 -13 l1 42 19 -42 c11 -24 24 -43 28 -43
5 0 16 17 24 38 l16 37 0 -37 c1 -21 6 -38 11 -38 6 0 10 25 10 55 0 67 -21
75 -46 18 l-16 -38 -12 35 c-9 23 -20 36 -34 38 -20 3 -22 -1 -22 -52z"/>
<path d="M1890 1700 c0 -5 5 -10 10 -10 6 0 10 5 10 10 0 6 -4 10 -10 10 -5 0
-10 -4 -10 -10z"/>
<path d="M1890 1640 c0 -22 5 -40 10 -40 6 0 10 18 10 40 0 22 -4 40 -10 40
-5 0 -10 -18 -10 -40z"/>
<path d="M2183 1674 c-7 -3 -13 -18 -13 -34 0 -28 15 -40 51 -40 29 0 23 18
-8 23 l-28 4 28 2 c23 1 28 5 25 24 -3 22 -29 32 -55 21z m34 -20 c-3 -3 -12
-4 -19 -1 -8 3 -5 6 6 6 11 1 17 -2 13 -5z"/>
<path d="M2120 1440 c0 -33 4 -60 10 -60 6 0 10 27 10 60 0 33 -4 60 -10 60
-6 0 -10 -27 -10 -60z"/>
<path d="M1730 1435 c0 -30 5 -55 10 -55 6 0 10 25 10 55 0 30 -4 55 -10 55
-5 0 -10 -25 -10 -55z"/>
<path d="M1880 1480 c0 -5 5 -10 10 -10 6 0 10 5 10 10 0 6 -4 10 -10 10 -5 0
-10 -4 -10 -10z"/>
<path d="M1980 1480 c0 -5 5 -10 10 -10 6 0 10 5 10 10 0 6 -4 10 -10 10 -5 0
-10 -4 -10 -10z"/>
<path d="M1920 1463 c-10 -12 -11 -18 -2 -21 7 -2 12 -17 12 -33 0 -29 22 -41
35 -19 3 6 1 10 -4 10 -15 0 -14 37 1 42 9 3 8 9 -4 21 -20 20 -19 20 -38 0z"/>
<path d="M1780 1419 c0 -44 17 -54 22 -12 4 39 28 42 28 4 0 -17 5 -31 11 -31
6 0 9 16 7 38 -3 34 -6 37 -35 39 -32 1 -33 0 -33 -38z"/>
<path d="M1880 1420 c0 -22 5 -40 10 -40 6 0 10 18 10 40 0 22 -4 40 -10 40
-5 0 -10 -18 -10 -40z"/>
<path d="M1980 1420 c0 -22 5 -40 10 -40 6 0 10 18 10 40 0 22 -4 40 -10 40
-5 0 -10 -18 -10 -40z"/>
<path d="M2030 1451 c0 -6 10 -11 23 -12 20 0 19 -2 -6 -11 -39 -14 -32 -42
11 -46 33 -3 33 -3 30 35 -3 33 -7 38 -30 41 -16 2 -28 -1 -28 -7z m37 -47
c-3 -3 -12 -4 -19 -1 -8 3 -5 6 6 6 11 1 17 -2 13 -5z"/>
<path d="M2540 1655 c0 -54 0 -55 30 -55 17 0 30 5 30 10 0 6 -9 10 -20 10
-17 0 -20 7 -20 45 0 25 -4 45 -10 45 -5 0 -10 -25 -10 -55z"/>
<path d="M2777 1688 c-8 -23 5 -79 20 -85 21 -8 26 3 11 26 -11 18 -11 23 1
30 12 8 12 12 -2 25 -19 19 -23 20 -30 4z"/>
<path d="M2620 1671 c0 -6 10 -11 23 -12 20 0 19 -2 -6 -11 -39 -14 -32 -42
11 -46 33 -3 33 -3 30 35 -3 33 -7 38 -30 41 -16 2 -28 -1 -28 -7z m37 -47
c-3 -3 -12 -4 -19 -1 -8 3 -5 6 6 6 11 1 17 -2 13 -5z"/>
<path d="M2704 1669 c-4 -7 2 -20 17 -32 l24 -20 -23 6 c-15 3 -22 1 -19 -6 6
-18 51 -15 55 4 1 8 -7 21 -20 28 l-23 12 23 -5 c15 -3 22 0 19 7 -5 17 -44
21 -53 6z"/>
<path d="M2540 1435 c0 -30 5 -55 10 -55 6 0 10 19 10 43 l1 42 24 -40 c34
-55 49 -52 53 13 2 31 -1 52 -7 52 -6 0 -11 -16 -11 -35 0 -19 -4 -35 -8 -35
-5 0 -16 16 -25 35 -26 55 -47 46 -47 -20z"/>
<path d="M2660 1451 c0 -6 10 -11 23 -12 l22 0 -22 -9 c-13 -6 -23 -18 -23
-30 0 -16 7 -20 31 -20 29 0 30 2 27 38 -3 32 -7 37 -30 40 -16 2 -28 -1 -28
-7z"/>
<path d="M2750 1419 c0 -44 17 -53 22 -12 4 39 28 42 28 4 0 -38 17 -41 22 -4
4 39 28 42 28 4 0 -17 5 -31 11 -31 6 0 9 16 7 38 l-3 37 -57 1 -58 1 0 -38z"/>
<path d="M2902 1448 c-27 -27 -6 -68 35 -68 30 0 30 17 1 23 -20 4 -19 4 5 6
41 2 29 51 -13 51 -9 0 -21 -5 -28 -12z m45 -14 c-3 -3 -12 -4 -19 -1 -8 3 -5
6 6 6 11 1 17 -2 13 -5z"/>
<path d="M3262 1658 c-21 -55 -20 -70 0 -50 15 15 55 16 60 1 2 -7 9 -10 15
-8 15 6 -24 109 -42 109 -7 0 -22 -24 -33 -52z m47 -10 c1 -5 -6 -8 -14 -8
-16 0 -19 9 -8 36 6 16 7 16 14 -2 4 -10 8 -22 8 -26z"/>
<path d="M3366 1668 c-3 -7 -7 -30 -10 -51 -6 -43 7 -53 50 -43 32 8 29 37 -6
47 -15 4 -18 7 -8 8 15 1 38 28 38 45 0 12 -61 6 -64 -6z m34 -13 c0 -8 -4
-15 -10 -15 -5 0 -10 7 -10 15 0 8 5 15 10 15 6 0 10 -7 10 -15z m7 -61 c-3
-3 -12 -4 -19 -1 -8 3 -5 6 6 6 11 1 17 -2 13 -5z"/>
<path d="M3452 1668 c-27 -27 -6 -68 35 -68 30 0 30 17 1 23 -20 4 -19 4 5 6
41 2 29 51 -13 51 -9 0 -21 -5 -28 -12z m45 -14 c-3 -3 -12 -4 -19 -1 -8 3 -5
6 6 6 11 1 17 -2 13 -5z"/>
<path d="M3740 1654 l0 -55 37 3 c28 2 41 10 52 29 13 24 13 29 -2 53 -13 20
-26 26 -52 26 l-35 0 0 -56z m65 1 c0 -23 -5 -31 -22 -33 -20 -3 -23 1 -23 33
0 32 3 36 23 33 17 -2 22 -10 22 -33z"/>
<path d="M3866 1694 c-34 -34 -9 -94 39 -94 47 0 70 77 31 102 -19 13 -54 9
-70 -8z m59 -39 c0 -23 -5 -31 -22 -33 -26 -4 -41 31 -22 54 20 24 44 13 44
-21z"/>
<path d="M3980 1656 c0 -55 1 -56 29 -56 34 0 56 23 46 47 -4 10 -8 27 -9 38
-1 15 -9 21 -33 23 l-33 3 0 -55z m50 24 c0 -5 -7 -10 -15 -10 -8 0 -15 5 -15
10 0 6 7 10 15 10 8 0 15 -4 15 -10z m3 -45 c1 -5 -6 -11 -15 -13 -11 -2 -18
3 -18 13 0 17 30 18 33 0z"/>
<path d="M4940 1660 c0 -33 4 -60 10 -60 6 0 10 27 10 60 0 33 -4 60 -10 60
-6 0 -10 -27 -10 -60z"/>
<path d="M4650 1656 c0 -65 20 -77 21 -13 l1 42 19 -42 c11 -24 24 -43 28 -43
5 0 16 17 24 38 l16 37 0 -37 c1 -21 6 -38 11 -38 6 0 10 25 10 55 0 67 -21
75 -46 18 l-16 -38 -12 35 c-9 23 -20 36 -34 38 -20 3 -22 -1 -22 -52z"/>
<path d="M4900 1700 c0 -5 5 -10 10 -10 6 0 10 5 10 10 0 6 -4 10 -10 10 -5 0
-10 -4 -10 -10z"/>
<path d="M4990 1700 c0 -5 5 -10 10 -10 6 0 10 5 10 10 0 6 -4 10 -10 10 -5 0
-10 -4 -10 -10z"/>
<path d="M4810 1671 c0 -6 10 -11 23 -12 l22 0 -22 -9 c-13 -6 -23 -18 -23
-30 0 -16 7 -20 31 -20 29 0 30 2 27 38 -3 32 -7 37 -30 40 -16 2 -28 -1 -28
-7z"/>
<path d="M4900 1640 c0 -22 5 -40 10 -40 6 0 10 18 10 40 0 22 -4 40 -10 40
-5 0 -10 -18 -10 -40z"/>
<path d="M4990 1640 c0 -22 5 -40 10 -40 6 0 10 18 10 40 0 22 -4 40 -10 40
-5 0 -10 -18 -10 -40z"/>
<path d="M5030 1638 c0 -43 17 -52 22 -10 2 16 9 27 18 27 9 0 16 -11 18 -27
4 -32 22 -38 22 -7 0 37 -18 58 -50 57 -28 -1 -30 -4 -30 -40z"/>
<path d="M5133 1668 c-5 -7 -8 -31 -8 -53 0 -38 2 -40 30 -40 39 0 43 36 5 46
-23 7 -23 7 -3 8 19 1 43 26 43 45 0 12 -58 6 -67 -6z m31 -19 c-3 -5 -10 -7
-15 -3 -5 3 -7 10 -3 15 3 5 10 7 15 3 5 -3 7 -10 3 -15z m3 -55 c-3 -3 -12
-4 -19 -1 -8 3 -5 6 6 6 11 1 17 -2 13 -5z"/>
<path d="M4810 1481 c0 -13 -8 -21 -22 -23 -19 -2 -23 -9 -23 -38 0 -33 2 -35
33 -36 l32 -1 0 59 c0 32 -4 58 -10 58 -5 0 -10 -9 -10 -19z m0 -61 c0 -11 -7
-20 -15 -20 -8 0 -15 9 -15 20 0 11 7 20 15 20 8 0 15 -9 15 -20z"/>
<path d="M4910 1481 c0 -12 -8 -21 -21 -23 -56 -8 -47 -72 10 -75 l31 -1 0 59
c0 33 -4 59 -10 59 -5 0 -10 -9 -10 -19z m-4 -52 c10 -17 -13 -36 -27 -22 -12
12 -4 33 11 33 5 0 12 -5 16 -11z"/>
<path d="M4662 1438 c-21 -55 -20 -70 0 -50 15 15 55 16 60 1 2 -7 9 -10 15
-8 15 6 -24 109 -42 109 -7 0 -22 -24 -33 -52z m47 -10 c1 -5 -6 -8 -14 -8
-16 0 -19 9 -8 36 6 16 7 16 14 -2 4 -10 8 -22 8 -26z"/>
<path d="M4950 1419 c0 -22 5 -39 10 -39 6 0 10 11 10 25 0 14 7 28 15 31 23
9 18 22 -10 22 -22 0 -25 -5 -25 -39z"/>
<path d="M5022 1448 c-27 -27 -6 -68 35 -68 30 0 30 17 1 23 -20 4 -19 4 5 6
41 2 29 51 -13 51 -9 0 -21 -5 -28 -12z m45 -14 c-3 -3 -12 -4 -19 -1 -8 3 -5
6 6 6 11 1 17 -2 13 -5z"/>
<path d="M5113 1444 c-4 -11 1 -22 12 -30 17 -13 17 -14 2 -14 -9 0 -17 -4
-17 -10 0 -5 9 -10 20 -10 29 0 38 30 14 48 -18 14 -18 14 -1 8 13 -4 17 -2
15 6 -7 20 -37 21 -45 2z"/>
<path d="M5183 1444 c-4 -11 1 -22 12 -30 17 -13 17 -14 2 -14 -9 0 -17 -4
-17 -10 0 -5 9 -10 20 -10 29 0 38 30 14 48 -18 14 -18 14 -1 8 13 -4 17 -2
15 6 -7 20 -37 21 -45 2z"/>
<path d="M5567 1704 c-15 -15 -6 -45 18 -56 28 -13 23 -32 -7 -25 -12 4 -18 1
-15 -6 5 -17 35 -21 52 -7 22 18 18 39 -10 52 -30 14 -33 33 -4 25 13 -3 19
-1 16 6 -4 14 -39 21 -50 11z"/>
<path d="M5649 1694 c-12 -14 -10 -19 14 -38 34 -27 35 -40 2 -33 -16 3 -24 0
-22 -7 2 -6 17 -11 33 -11 37 0 46 37 15 57 -27 17 -27 32 0 25 13 -3 19 -1
16 6 -6 19 -42 20 -58 1z"/>
<path d="M5730 1655 c0 -30 5 -55 10 -55 6 0 10 19 10 43 l1 42 24 -40 c34
-55 49 -52 53 13 2 31 -1 52 -7 52 -6 0 -11 -16 -11 -35 0 -19 -4 -35 -8 -35
-5 0 -16 16 -25 35 -26 55 -47 46 -47 -20z"/>
<path d="M6620 1694 c0 -60 42 -121 55 -79 16 49 17 50 27 18 13 -49 35 -41
53 19 18 61 17 58 5 58 -5 0 -14 -19 -21 -42 l-12 -43 -11 39 c-16 54 -32 56
-47 4 l-12 -43 -9 43 c-9 41 -28 59 -28 26z"/>
<path d="M6785 1671 c-4 -7 5 -11 22 -12 28 -1 28 -1 3 -8 -39 -11 -33 -45 8
-49 33 -3 33 -3 30 35 -3 33 -7 38 -30 41 -14 2 -29 -2 -33 -7z m42 -47 c-3
-3 -12 -4 -19 -1 -8 3 -5 6 6 6 11 1 17 -2 13 -5z"/>
<path d="M6874 1666 c-3 -8 -4 -31 -2 -52 3 -36 5 -39 33 -39 39 0 43 36 5 46
-15 4 -18 7 -8 8 15 1 38 28 38 45 0 13 -61 5 -66 -8z m40 -17 c-3 -5 -10 -7
-15 -3 -5 3 -7 10 -3 15 3 5 10 7 15 3 5 -3 7 -10 3 -15z m3 -55 c-3 -3 -12
-4 -19 -1 -8 3 -5 6 6 6 11 1 17 -2 13 -5z"/>
<path d="M6964 1666 c-3 -8 -4 -25 -2 -38 2 -18 10 -24 36 -26 39 -4 43 15 5
21 l-28 4 28 2 c19 1 27 6 27 20 0 30 -56 44 -66 17z m43 -12 c-3 -3 -12 -4
-19 -1 -8 3 -5 6 6 6 11 1 17 -2 13 -5z"/>
<path d="M7053 1664 c-4 -11 1 -22 12 -30 17 -13 17 -14 2 -14 -9 0 -17 -4
-17 -10 0 -5 9 -10 20 -10 29 0 38 30 14 48 -18 14 -18 14 -1 8 13 -4 17 -2
15 6 -7 20 -37 21 -45 2z"/>
<path d="M7780 1660 c0 -33 4 -60 10 -60 6 0 10 27 10 60 0 33 -4 60 -10 60
-6 0 -10 -27 -10 -60z"/>
<path d="M7450 1655 l0 -55 35 0 c19 0 35 5 35 10 0 6 -11 10 -25 10 -16 0
-25 6 -25 15 0 8 9 15 20 15 11 0 20 5 20 10 0 6 -9 10 -20 10 -11 0 -20 5
-20 10 0 6 11 10 25 10 14 0 25 5 25 10 0 6 -16 10 -35 10 l-35 0 0 -55z"/>
<path d="M8210 1655 c0 -30 5 -55 10 -55 6 0 10 25 10 55 0 30 -4 55 -10 55
-5 0 -10 -25 -10 -55z"/>
<path d="M8250 1654 l0 -55 37 3 c28 2 41 10 52 29 13 24 13 29 -2 53 -13 20
-26 26 -52 26 l-35 0 0 -56z m65 1 c0 -23 -5 -31 -22 -33 -20 -3 -23 1 -23 33
0 32 3 36 23 33 17 -2 22 -10 22 -33z"/>
<path d="M7540 1639 c0 -44 17 -53 22 -12 4 39 28 42 28 4 0 -38 17 -41 22 -4
4 39 28 42 28 4 0 -17 5 -31 11 -31 6 0 9 16 7 38 l-3 37 -57 1 -58 1 0 -38z"/>
<path d="M7690 1623 c0 -29 5 -53 10 -53 6 0 10 8 10 18 0 13 7 18 23 18 19
-1 22 4 22 34 0 33 -2 35 -32 35 l-33 1 0 -53z m50 17 c0 -11 -7 -20 -15 -20
-8 0 -15 9 -15 20 0 11 7 20 15 20 8 0 15 -9 15 -20z"/>
<path d="M7832 1668 c-30 -30 -1 -75 43 -64 22 6 26 11 23 39 -2 26 -8 33 -28
35 -14 2 -31 -3 -38 -10z m48 -28 c0 -21 -24 -28 -35 -10 -8 14 3 30 21 30 8
0 14 -9 14 -20z"/>
<path d="M7924 1658 c4 -13 9 -38 13 -55 3 -18 9 -33 13 -33 8 0 40 78 40 98
0 23 -18 12 -25 -15 l-7 -28 -10 28 c-12 33 -33 37 -24 5z"/>
<path d="M8014 1666 c-3 -8 -4 -25 -2 -38 2 -18 10 -24 36 -26 39 -4 43 15 5
21 l-28 4 28 2 c19 1 27 6 27 20 0 30 -56 44 -66 17z m43 -12 c-3 -3 -12 -4
-19 -1 -8 3 -5 6 6 6 11 1 17 -2 13 -5z"/>
<path d="M8100 1639 c0 -22 5 -39 10 -39 6 0 10 11 10 25 0 14 7 28 15 31 23
9 18 22 -10 22 -22 0 -25 -5 -25 -39z"/>
<path d="M8830 1660 c0 -33 4 -60 10 -60 6 0 10 27 10 60 0 33 -4 60 -10 60
-6 0 -10 -27 -10 -60z"/>
<path d="M8500 1655 l0 -55 35 0 c19 0 35 5 35 10 0 6 -11 10 -25 10 -16 0
-25 6 -25 15 0 8 9 15 20 15 11 0 20 5 20 10 0 6 -9 10 -20 10 -11 0 -20 5
-20 10 0 6 11 10 25 10 14 0 25 5 25 10 0 6 -16 10 -35 10 l-35 0 0 -55z"/>
<path d="M8590 1639 c0 -44 17 -53 22 -12 4 39 28 42 28 4 0 -38 17 -41 22 -4
4 39 28 42 28 4 0 -17 5 -31 11 -31 6 0 9 16 7 38 l-3 37 -57 1 -58 1 0 -38z"/>
<path d="M8740 1623 c0 -29 5 -53 10 -53 6 0 10 8 10 18 0 13 7 18 23 18 19
-1 22 4 22 34 0 33 -2 35 -32 35 l-33 1 0 -53z m50 17 c0 -11 -7 -20 -15 -20
-8 0 -15 9 -15 20 0 11 7 20 15 20 8 0 15 -9 15 -20z"/>
<path d="M8882 1668 c-30 -30 -1 -75 43 -64 22 6 26 11 23 39 -2 26 -8 33 -28
35 -14 2 -31 -3 -38 -10z m48 -28 c0 -21 -24 -28 -35 -10 -8 14 3 30 21 30 8
0 14 -9 14 -20z"/>
<path d="M8974 1658 c4 -13 9 -38 13 -55 3 -18 9 -33 13 -33 8 0 40 78 40 98
0 23 -18 12 -25 -15 l-7 -28 -10 28 c-12 33 -33 37 -24 5z"/>
<path d="M9064 1666 c-3 -8 -4 -25 -2 -38 2 -18 10 -24 36 -26 39 -4 43 15 5
21 l-28 4 28 2 c19 1 27 6 27 20 0 30 -56 44 -66 17z m43 -12 c-3 -3 -12 -4
-19 -1 -8 3 -5 6 6 6 11 1 17 -2 13 -5z"/>
<path d="M9150 1639 c0 -22 5 -39 10 -39 6 0 10 11 10 25 0 14 7 28 15 31 23
9 18 22 -10 22 -22 0 -25 -5 -25 -39z"/>
<path d="M8500 1435 c0 -30 5 -55 10 -55 6 0 10 19 10 43 l1 42 24 -40 c34
-55 49 -52 53 13 2 31 -1 52 -7 52 -6 0 -11 -16 -11 -35 0 -19 -4 -35 -8 -35
-5 0 -16 16 -25 35 -26 55 -47 46 -47 -20z"/>
<path d="M8620 1451 c0 -6 10 -11 23 -12 l22 0 -22 -9 c-13 -6 -23 -18 -23
-30 0 -16 7 -20 31 -20 29 0 30 2 27 38 -3 32 -7 37 -30 40 -16 2 -28 -1 -28
-7z"/>
<path d="M8710 1419 c0 -44 17 -53 22 -12 4 39 28 42 28 4 0 -38 17 -41 22 -4
4 39 28 42 28 4 0 -17 5 -31 11 -31 6 0 9 16 7 38 l-3 37 -57 1 -58 1 0 -38z"/>
<path d="M8862 1448 c-27 -27 -6 -68 35 -68 30 0 30 17 1 23 -20 4 -19 4 5 6
41 2 29 51 -13 51 -9 0 -21 -5 -28 -12z m45 -14 c-3 -3 -12 -4 -19 -1 -8 3 -5
6 6 6 11 1 17 -2 13 -5z"/>
<path d="M9880 1660 c0 -33 4 -60 10 -60 6 0 10 27 10 60 0 33 -4 60 -10 60
-6 0 -10 -27 -10 -60z"/>
<path d="M9550 1655 l0 -55 35 0 c19 0 35 5 35 10 0 6 -11 10 -25 10 -16 0
-25 6 -25 15 0 8 9 15 20 15 11 0 20 5 20 10 0 6 -9 10 -20 10 -11 0 -20 5
-20 10 0 6 11 10 25 10 14 0 25 5 25 10 0 6 -16 10 -35 10 l-35 0 0 -55z"/>
<path d="M9640 1639 c0 -44 17 -53 22 -12 4 39 28 42 28 4 0 -38 17 -41 22 -4
4 39 28 42 28 4 0 -17 5 -31 11 -31 6 0 9 16 7 38 l-3 37 -57 1 -58 1 0 -38z"/>
<path d="M9790 1623 c0 -29 5 -53 10 -53 6 0 10 8 10 18 0 13 7 18 23 18 19
-1 22 4 22 34 0 33 -2 35 -32 35 l-33 1 0 -53z m50 17 c0 -11 -7 -20 -15 -20
-8 0 -15 9 -15 20 0 11 7 20 15 20 8 0 15 -9 15 -20z"/>
<path d="M9932 1668 c-30 -30 -1 -75 43 -64 22 6 26 11 23 39 -2 26 -8 33 -28
35 -14 2 -31 -3 -38 -10z m48 -28 c0 -11 -6 -20 -14 -20 -18 0 -29 16 -21 30
11 18 35 11 35 -10z"/>
<path d="M10024 1658 c4 -13 9 -38 13 -55 3 -18 9 -33 13 -33 8 0 40 78 40 98
0 23 -18 12 -25 -15 l-7 -28 -10 28 c-12 33 -33 37 -24 5z"/>
<path d="M10114 1666 c-3 -8 -4 -25 -2 -38 2 -18 10 -24 36 -26 39 -4 43 15 5
21 l-28 4 28 2 c19 1 27 6 27 20 0 30 -56 44 -66 17z m43 -12 c-3 -3 -12 -4
-19 -1 -8 3 -5 6 6 6 11 1 17 -2 13 -5z"/>
<path d="M10200 1639 c0 -22 5 -39 10 -39 6 0 10 11 10 25 0 14 7 28 15 31 23
9 18 22 -10 22 -22 0 -25 -5 -25 -39z"/>
<path d="M9710 1481 c0 -13 -8 -21 -22 -23 -19 -2 -23 -9 -23 -38 0 -33 2 -35
33 -36 l32 -1 0 59 c0 32 -4 58 -10 58 -5 0 -10 -9 -10 -19z m0 -61 c0 -11 -7
-20 -15 -20 -8 0 -15 9 -15 20 0 11 7 20 15 20 8 0 15 -9 15 -20z"/>
<path d="M9810 1481 c0 -12 -8 -21 -21 -23 -56 -8 -47 -72 10 -75 l31 -1 0 59
c0 33 -4 59 -10 59 -5 0 -10 -9 -10 -19z m-4 -52 c10 -17 -13 -36 -27 -22 -12
12 -4 33 11 33 5 0 12 -5 16 -11z"/>
<path d="M9562 1438 c-21 -55 -20 -70 0 -50 15 15 55 16 60 1 2 -7 9 -10 15
-8 15 6 -24 109 -42 109 -7 0 -22 -24 -33 -52z m47 -10 c1 -5 -6 -8 -14 -8
-16 0 -19 9 -8 36 6 16 7 16 14 -2 4 -10 8 -22 8 -26z"/>
<path d="M9850 1419 c0 -22 5 -39 10 -39 6 0 10 11 10 25 0 14 7 28 15 31 23
9 18 22 -10 22 -22 0 -25 -5 -25 -39z"/>
<path d="M9922 1448 c-27 -27 -6 -68 35 -68 30 0 30 17 1 23 -20 4 -19 4 5 6
41 2 29 51 -13 51 -9 0 -21 -5 -28 -12z m45 -14 c-3 -3 -12 -4 -19 -1 -8 3 -5
6 6 6 11 1 17 -2 13 -5z"/>
<path d="M10013 1444 c-4 -11 1 -22 12 -30 17 -13 17 -14 2 -14 -9 0 -17 -4
-17 -10 0 -5 9 -10 20 -10 29 0 38 30 14 48 -18 14 -18 14 -1 8 13 -4 17 -2
15 6 -7 20 -37 21 -45 2z"/>
<path d="M10083 1444 c-4 -11 1 -22 12 -30 17 -13 17 -14 2 -14 -9 0 -17 -4
-17 -10 0 -5 9 -10 20 -10 29 0 38 30 14 48 -18 14 -18 14 -1 8 13 -4 17 -2
15 6 -7 20 -37 21 -45 2z"/>
<path d="M10930 1660 c0 -33 4 -60 10 -60 6 0 10 27 10 60 0 33 -4 60 -10 60
-6 0 -10 -27 -10 -60z"/>
<path d="M10600 1655 l0 -55 35 0 c19 0 35 5 35 10 0 6 -11 10 -25 10 -16 0
-25 6 -25 15 0 8 9 15 20 15 11 0 20 5 20 10 0 6 -9 10 -20 10 -11 0 -20 5
-20 10 0 6 11 10 25 10 14 0 25 5 25 10 0 6 -16 10 -35 10 l-35 0 0 -55z"/>
<path d="M11350 1700 c0 -5 9 -10 20 -10 25 0 25 -8 0 -40 -29 -37 -25 -50 15
-50 19 0 35 5 35 10 0 6 -9 10 -20 10 -25 0 -25 8 0 40 29 37 25 50 -15 50
-19 0 -35 -4 -35 -10z"/>
<path d="M11440 1700 c0 -5 5 -10 10 -10 6 0 10 5 10 10 0 6 -4 10 -10 10 -5
0 -10 -4 -10 -10z"/>
<path d="M10690 1639 c0 -44 17 -53 22 -12 4 39 28 42 28 4 0 -38 17 -41 22
-4 4 39 28 42 28 4 0 -17 5 -31 11 -31 6 0 9 16 7 38 l-3 37 -57 1 -58 1 0
-38z"/>
<path d="M10840 1623 c0 -29 5 -53 10 -53 6 0 10 8 10 18 0 13 7 18 23 18 19
-1 22 4 22 34 0 33 -2 35 -32 35 l-33 1 0 -53z m50 17 c0 -11 -7 -20 -15 -20
-8 0 -15 9 -15 20 0 11 7 20 15 20 8 0 15 -9 15 -20z"/>
<path d="M10982 1668 c-30 -30 -1 -75 43 -64 22 6 26 11 23 39 -2 26 -8 33
-28 35 -14 2 -31 -3 -38 -10z m48 -28 c0 -21 -24 -28 -35 -10 -8 14 3 30 21
30 8 0 14 -9 14 -20z"/>
<path d="M11074 1658 c4 -13 9 -38 13 -55 3 -18 9 -33 13 -33 8 0 40 78 40 98
0 23 -18 12 -25 -15 l-7 -28 -10 28 c-12 33 -33 37 -24 5z"/>
<path d="M11164 1666 c-3 -8 -4 -25 -2 -38 2 -18 10 -24 36 -26 39 -4 43 15 5
21 l-28 4 28 2 c19 1 27 6 27 20 0 30 -56 44 -66 17z m43 -12 c-3 -3 -12 -4
-19 -1 -8 3 -5 6 6 6 11 1 17 -2 13 -5z"/>
<path d="M11250 1639 c0 -22 5 -39 10 -39 6 0 10 11 10 25 0 14 7 28 15 31 23
9 18 22 -10 22 -22 0 -25 -5 -25 -39z"/>
<path d="M11440 1640 c0 -22 5 -40 10 -40 6 0 10 18 10 40 0 22 -4 40 -10 40
-5 0 -10 -18 -10 -40z"/>
<path d="M11480 1624 c0 -30 5 -54 10 -54 6 0 10 6 10 14 0 9 12 16 28 18 24
3 27 7 27 38 0 34 -2 35 -37 37 l-38 1 0 -54z m56 25 c10 -17 -13 -36 -27 -22
-12 12 -4 33 11 33 5 0 12 -5 16 -11z"/>
<path d="M10850 1480 c0 -13 -7 -20 -19 -20 -27 0 -44 -26 -37 -55 5 -20 12
-24 41 -23 l35 1 0 59 c0 32 -4 58 -10 58 -5 0 -10 -9 -10 -20z m-4 -51 c10
-17 -13 -36 -27 -22 -12 12 -4 33 11 33 5 0 12 -5 16 -11z"/>
<path d="M10618 1479 c-22 -12 -24 -71 -4 -89 17 -14 58 -10 63 6 2 7 -5 10
-20 7 -30 -6 -41 10 -32 44 5 20 11 24 31 20 16 -3 23 0 21 7 -5 15 -38 18
-59 5z"/>
<path d="M10702 1448 c-30 -30 -1 -75 43 -64 22 6 26 11 23 39 -2 26 -8 33
-28 35 -14 2 -31 -3 -38 -10z m48 -28 c0 -11 -6 -20 -14 -20 -18 0 -29 16 -21
30 11 18 35 11 35 -10z"/>
<path d="M10894 1446 c-3 -8 -4 -25 -2 -38 2 -18 10 -24 36 -26 39 -4 43 15 5
21 l-28 4 28 2 c19 1 27 6 27 20 0 30 -56 44 -66 17z m43 -12 c-3 -3 -12 -4
-19 -1 -8 3 -5 6 6 6 11 1 17 -2 13 -5z"/>
<path d="M12173 1703 c-4 -10 -11 -22 -17 -26 -8 -6 -7 -10 2 -14 6 -2 12 -18
12 -34 0 -16 5 -29 10 -29 9 0 15 41 12 83 -1 9 3 17 8 17 6 0 10 5 10 10 0
17 -30 11 -37 -7z"/>
<path d="M11650 1700 c0 -5 7 -10 15 -10 11 0 15 -12 15 -45 0 -33 4 -45 15
-45 11 0 15 12 15 45 0 33 4 45 15 45 8 0 15 5 15 10 0 6 -20 10 -45 10 -25 0
-45 -4 -45 -10z"/>
<path d="M12260 1655 c0 -30 5 -55 10 -55 6 0 10 9 10 20 0 13 7 20 20 20 11
0 20 5 20 10 0 6 -9 10 -20 10 -11 0 -20 7 -20 15 0 8 9 15 20 15 11 0 20 5
20 10 0 6 -13 10 -30 10 -30 0 -30 -1 -30 -55z"/>
<path d="M11756 1640 c9 -22 14 -47 10 -55 -3 -8 0 -15 7 -15 11 0 47 79 47
103 0 18 -19 4 -28 -20 l-10 -28 -7 28 c-4 15 -13 27 -21 27 -11 0 -11 -7 2
-40z"/>
<path d="M11840 1623 c0 -29 5 -53 10 -53 6 0 10 8 10 18 0 13 7 18 23 18 19
-1 22 4 22 34 0 33 -2 35 -32 35 l-33 1 0 -53z m50 17 c0 -11 -7 -20 -15 -20
-8 0 -15 9 -15 20 0 11 7 20 15 20 8 0 15 -9 15 -20z"/>
<path d="M11943 1674 c-7 -3 -13 -18 -13 -34 0 -28 15 -40 51 -40 29 0 23 18
-8 23 l-28 4 28 2 c23 1 28 5 25 24 -3 22 -29 32 -55 21z m34 -20 c-3 -3 -12
-4 -19 -1 -8 3 -5 6 6 6 11 1 17 -2 13 -5z"/>
<path d="M12072 1668 c-30 -30 0 -75 43 -64 19 5 25 13 25 35 0 38 -41 56 -68
29z m48 -28 c0 -21 -24 -28 -35 -10 -8 14 3 30 21 30 8 0 14 -9 14 -20z"/>
<path d="M12353 1673 c-7 -2 -13 -18 -13 -34 0 -22 6 -30 25 -35 29 -7 55 10
55 35 0 33 -32 49 -67 34z m42 -33 c0 -8 -8 -16 -17 -18 -13 -2 -18 3 -18 18
0 15 5 20 18 18 9 -2 17 -10 17 -18z"/>
<path d="M12440 1638 c0 -21 5 -38 10 -38 6 0 10 14 10 30 0 20 5 30 15 30 8
0 15 4 15 10 0 5 -11 9 -25 8 -22 -2 -25 -7 -25 -40z"/>
<path d="M12500 1638 c0 -43 17 -52 22 -11 4 39 28 42 28 4 0 -38 18 -41 22
-3 2 16 9 27 18 27 9 0 16 -11 18 -27 4 -30 22 -39 22 -10 -1 53 -9 60 -71 59
l-59 -1 0 -38z"/>
<path d="M189 1243 c-12 -15 -12 -16 4 -10 14 5 17 1 17 -28 0 -24 -5 -35 -17
-38 -10 -3 -2 -5 17 -5 19 0 29 2 23 5 -8 3 -13 23 -13 49 0 47 -9 55 -31 27z"/>
<path d="M1030 1216 c0 -26 -5 -47 -12 -50 -7 -3 -4 -5 7 -3 16 2 21 11 23 50
2 28 -1 47 -7 47 -6 0 -11 -20 -11 -44z"/>
<path d="M1076 1222 c-3 -6 3 -8 14 -5 11 3 20 1 20 -5 0 -5 -9 -12 -21 -15
-29 -8 -18 -32 15 -33 24 -1 27 2 24 30 -2 23 -9 32 -25 34 -11 2 -24 -1 -27
-6z m34 -42 c0 -5 -7 -10 -15 -10 -8 0 -15 5 -15 10 0 6 7 10 15 10 8 0 15 -4
15 -10z"/>
<path d="M1151 1191 c1 -36 1 -36 8 -6 3 17 13 30 21 30 8 0 18 -13 22 -30 6
-29 6 -29 5 5 -2 31 -5 35 -29 36 -26 1 -28 -2 -27 -35z"/>
<path d="M1234 1216 c-12 -30 0 -51 31 -53 18 -1 22 1 10 4 -34 9 -41 23 -11
23 21 0 27 4 24 18 -4 22 -46 29 -54 8z m46 -6 c0 -5 -9 -10 -21 -10 -11 0
-17 5 -14 10 3 6 13 10 21 10 8 0 14 -4 14 -10z"/>
<path d="M1750 1235 c-6 -14 -14 -36 -20 -50 -6 -16 -6 -25 0 -25 6 0 10 7 10
15 0 21 40 19 57 -2 10 -13 13 -14 9 -3 -2 8 -10 32 -17 53 -14 43 -26 47 -39
12z m30 -21 c0 -8 -7 -14 -15 -14 -17 0 -18 2 -9 24 7 18 24 12 24 -10z"/>
<path d="M2830 1215 c0 -30 5 -55 10 -55 6 0 10 14 10 30 0 42 27 40 33 -2 l4
-33 1 33 c2 26 -3 35 -18 39 -11 3 -20 14 -20 24 0 11 -4 19 -10 19 -5 0 -10
-25 -10 -55z"/>
<path d="M2543 1243 c-4 -11 1 -22 15 -31 28 -19 30 -46 2 -39 -11 3 -20 1
-20 -4 0 -15 37 -10 51 7 12 14 10 19 -14 38 -32 26 -35 40 -7 33 11 -3 20 -1
20 4 0 16 -40 9 -47 -8z"/>
<path d="M2740 1250 c0 -5 5 -10 10 -10 6 0 10 5 10 10 0 6 -4 10 -10 10 -5 0
-10 -4 -10 -10z"/>
<path d="M2778 1238 c-9 -27 7 -73 27 -76 18 -2 19 -2 3 8 -10 6 -18 20 -18
30 0 12 7 20 18 21 13 0 14 2 2 6 -8 3 -18 10 -21 15 -3 5 -8 4 -11 -4z"/>
<path d="M2621 1191 c1 -35 2 -35 8 -7 9 43 31 45 32 4 l1 -33 7 30 c3 17 13
30 21 30 8 0 18 -13 22 -30 6 -29 6 -29 5 5 -2 35 -2 35 -49 36 l-48 1 1 -36z"/>
<path d="M2740 1195 c0 -19 5 -35 10 -35 6 0 10 16 10 35 0 19 -4 35 -10 35
-5 0 -10 -16 -10 -35z"/>
<path d="M3256 1251 c-4 -5 3 -7 14 -4 14 4 20 0 20 -11 0 -9 -8 -16 -17 -17
-13 0 -12 -3 5 -10 28 -11 24 -34 -7 -33 -11 0 -21 -3 -21 -8 0 -5 12 -8 28
-6 19 2 28 9 30 26 2 12 -2 22 -9 22 -9 0 -9 3 1 15 6 8 9 19 5 25 -8 12 -42
13 -49 1z"/>
<path d="M3330 1236 c0 -18 6 -25 23 -28 12 -2 22 -10 22 -18 0 -9 -9 -15 -22
-14 -13 0 -23 -3 -23 -8 0 -5 12 -8 28 -6 35 4 45 46 13 55 -28 7 -27 30 2 36
16 3 13 5 -10 6 -29 1 -33 -2 -33 -23z"/>
<path d="M3857 1258 c-38 -96 -47 -121 -38 -113 12 13 53 116 48 122 -3 2 -7
-2 -10 -9z"/>
<path d="M3982 1216 c-30 -79 -27 -95 4 -21 13 32 23 63 21 69 -2 5 -13 -17
-25 -48z"/>
<path d="M3749 1243 c-12 -15 -12 -16 4 -10 14 5 17 1 17 -28 0 -24 -5 -35
-17 -38 -10 -3 -2 -5 17 -5 19 0 29 2 23 5 -8 3 -13 23 -13 49 0 47 -9 55 -31
27z"/>
<path d="M3903 1253 c-7 -3 -13 -9 -13 -14 0 -6 5 -7 10 -4 6 4 10 -8 10 -29
0 -19 -6 -37 -12 -39 -7 -3 1 -6 17 -6 17 0 25 3 18 7 -6 4 -13 26 -15 48 -2
27 -7 39 -15 37z"/>
<path d="M4039 1243 c-10 -11 -10 -14 -1 -9 9 5 12 -2 12 -28 0 -19 -6 -37
-12 -39 -7 -3 3 -5 22 -5 19 0 29 2 23 5 -8 3 -13 23 -13 49 0 47 -9 55 -31
27z"/>
<path d="M4111 1246 c-17 -20 -2 -46 26 -46 28 0 22 -17 -11 -30 -20 -9 -20
-9 0 -9 37 -2 55 38 38 83 -8 20 -38 21 -53 2z m47 -19 c2 -12 -3 -17 -17 -17
-15 0 -21 6 -21 21 0 25 33 22 38 -4z"/>
<path d="M4195 1250 c-3 -6 -4 -19 0 -29 3 -11 1 -22 -5 -26 -16 -10 7 -35 32
-35 23 0 34 25 19 43 -7 10 -7 17 0 24 6 6 8 16 5 22 -9 14 -43 14 -51 1z m36
-15 c-1 -15 -24 -12 -29 3 -3 9 2 13 12 10 10 -1 17 -7 17 -13z m2 -50 c1 -5
-6 -11 -15 -13 -11 -2 -18 3 -18 13 0 17 30 18 33 0z"/>
<path d="M4292 1253 c24 -4 26 -7 18 -23 -15 -29 -30 -70 -25 -70 6 0 45 77
45 90 0 5 -15 9 -32 9 -31 -2 -31 -2 -6 -6z"/>
<path d="M5048 1265 c-7 -7 3 -55 11 -55 8 0 7 47 -1 55 -2 3 -7 3 -10 0z"/>
<path d="M4659 1243 c-12 -15 -12 -16 4 -10 14 5 17 1 17 -28 0 -24 -5 -35
-17 -38 -10 -3 -2 -5 17 -5 19 0 29 2 23 5 -8 3 -13 23 -13 49 0 47 -9 55 -31
27z"/>
<path d="M4736 1251 c-4 -5 2 -7 13 -4 30 8 33 -12 6 -51 l-24 -36 32 1 c23 1
26 3 10 6 l-23 4 22 29 c11 16 18 36 15 44 -7 17 -42 22 -51 7z"/>
<path d="M4816 1252 c-3 -6 2 -8 13 -5 10 3 22 0 26 -7 4 -7 -2 -14 -16 -17
l-23 -6 22 -8 c32 -12 29 -43 -4 -36 -16 3 -22 1 -16 -5 6 -6 18 -8 28 -6 15
3 19 12 19 48 0 38 -3 45 -22 48 -11 2 -24 -1 -27 -6z"/>
<path d="M4939 1243 c-12 -15 -12 -16 4 -10 14 5 17 1 17 -28 0 -24 -5 -35
-17 -38 -10 -3 -2 -5 17 -5 19 0 29 2 23 5 -8 3 -13 23 -13 49 0 47 -9 55 -31
27z"/>
<path d="M5008 1213 c7 -3 16 -2 19 1 4 3 -2 6 -13 5 -11 0 -14 -3 -6 -6z"/>
<path d="M4653 1053 c-4 -11 1 -22 15 -31 28 -19 30 -46 2 -39 -11 3 -20 1
-20 -4 0 -15 37 -10 51 7 12 14 10 19 -14 38 -32 26 -35 40 -7 33 11 -3 20 -1
20 4 0 16 -40 9 -47 -8z"/>
<path d="M4728 1049 c-2 -6 -2 -26 0 -45 3 -24 9 -34 21 -33 10 0 11 2 4 6
-15 5 -18 50 -4 55 5 2 3 8 -4 15 -9 9 -15 9 -17 2z"/>
<path d="M4998 1049 c-2 -6 -2 -26 0 -45 3 -24 9 -34 21 -33 10 0 11 2 4 6
-15 5 -18 50 -4 55 5 2 3 8 -4 15 -9 9 -15 9 -17 2z"/>
<path d="M4781 1000 c1 -27 3 -29 6 -10 2 14 11 30 20 37 13 10 13 12 -6 10
-17 -1 -21 -7 -20 -37z"/>
<path d="M4841 1026 c-21 -25 -9 -51 24 -53 18 -1 22 1 10 4 -34 9 -41 23 -11
23 21 0 27 4 24 17 -4 23 -31 28 -47 9z m39 -6 c0 -5 -9 -10 -21 -10 -11 0
-17 5 -14 10 3 6 13 10 21 10 8 0 14 -4 14 -10z"/>
<path d="M4921 1026 c-21 -25 -9 -51 24 -53 18 -1 22 1 10 4 -34 9 -41 23 -11
23 21 0 27 4 24 17 -4 23 -31 28 -47 9z m39 -6 c0 -5 -9 -10 -21 -10 -11 0
-17 5 -14 10 3 6 13 10 21 10 8 0 14 -4 14 -10z"/>
<path d="M5569 1243 c-12 -15 -12 -16 4 -10 14 5 17 1 17 -28 0 -24 -5 -35
-17 -38 -10 -3 -2 -5 17 -5 19 0 29 2 23 5 -8 3 -13 23 -13 49 0 47 -9 55 -31
27z"/>
<path d="M5646 1251 c-4 -5 2 -7 13 -4 30 8 33 -12 6 -51 l-24 -36 32 1 c23 1
26 3 10 6 l-23 4 22 29 c11 16 18 36 15 44 -7 17 -42 22 -51 7z"/>
<path d="M5726 1252 c-3 -6 2 -8 13 -5 10 3 22 0 26 -7 4 -7 -2 -14 -16 -17
l-23 -6 22 -8 c32 -12 29 -43 -4 -36 -16 3 -22 1 -16 -5 6 -6 18 -8 28 -6 15
3 19 12 19 48 0 38 -3 45 -22 48 -11 2 -24 -1 -27 -6z"/>
<path d="M5820 1228 c-25 -41 -25 -48 -1 -48 11 0 22 -6 24 -12 10 -25 23 10
19 52 -5 48 -16 51 -42 8z m20 -13 c0 -15 -6 -25 -15 -25 -12 0 -13 4 -3 25 6
14 13 25 15 25 1 0 3 -11 3 -25z"/>
<path d="M5890 1235 c0 -18 5 -25 20 -25 14 0 20 -7 20 -21 0 -17 -5 -20 -25
-17 -13 3 -22 1 -19 -3 8 -14 40 -10 54 6 10 12 10 18 0 30 -7 8 -19 15 -26
15 -23 0 -16 28 9 33 19 4 18 4 -5 6 -24 1 -28 -3 -28 -24z"/>
<path d="M5984 1252 c-18 -12 -26 -50 -14 -72 14 -26 47 -26 55 0 8 26 -1 40
-26 40 -26 0 -24 19 4 30 12 5 15 9 7 9 -8 0 -20 -3 -26 -7z m31 -62 c0 -8 -8
-16 -17 -18 -13 -2 -18 3 -18 18 0 15 5 20 18 18 9 -2 17 -10 17 -18z"/>
<path d="M6063 1253 c31 -5 33 -13 11 -54 -8 -17 -13 -33 -10 -36 5 -5 46 79
46 93 0 2 -17 3 -37 3 -31 -2 -33 -3 -10 -6z"/>
<path d="M6135 1250 c-3 -6 -4 -19 0 -29 3 -11 1 -22 -5 -26 -16 -10 7 -35 32
-35 23 0 34 25 19 43 -7 10 -7 17 0 24 6 6 8 16 5 22 -9 14 -43 14 -51 1z m36
-15 c-1 -15 -24 -12 -29 3 -3 9 2 13 12 10 10 -1 17 -7 17 -13z m2 -50 c1 -5
-6 -11 -15 -13 -11 -2 -18 3 -18 13 0 17 30 18 33 0z"/>
<path d="M6214 1246 c-9 -24 3 -46 25 -46 27 0 17 -27 -12 -33 l-22 -4 21 -2
c30 -2 46 22 42 61 -2 25 -8 34 -26 36 -13 2 -25 -3 -28 -12z m44 -19 c2 -12
-3 -17 -17 -17 -15 0 -21 6 -21 21 0 25 33 22 38 -4z"/>
<path d="M6638 1260 c-25 -23 -22 -38 7 -52 30 -13 27 -33 -4 -32 -24 1 -26
-2 -9 -20 10 -10 15 -10 30 3 25 22 22 46 -8 59 -28 14 -22 37 8 29 16 -5 17
-3 6 11 -7 9 -12 18 -13 18 0 1 -8 -6 -17 -16z"/>
<path d="M6723 1253 c-7 -3 -13 -9 -13 -14 0 -6 5 -7 10 -4 6 4 10 -8 10 -29
0 -19 -6 -37 -12 -39 -7 -3 1 -6 17 -6 17 0 25 3 18 7 -6 4 -13 26 -15 48 -2
27 -7 39 -15 37z"/>
<path d="M6791 1246 c-7 -8 -11 -30 -9 -48 2 -28 7 -33 28 -33 46 0 54 84 8
93 -8 2 -20 -4 -27 -12z m39 -37 c0 -33 -3 -40 -17 -37 -32 6 -30 78 2 78 11
0 15 -11 15 -41z"/>
<path d="M6912 1248 c-13 -13 -16 -47 -6 -72 7 -19 35 -21 52 -4 25 25 8 88
-23 88 -6 0 -16 -5 -23 -12z m43 -18 c8 -26 -3 -60 -20 -60 -8 0 -17 9 -20 20
-8 26 3 60 20 60 8 0 17 -9 20 -20z"/>
<path d="M6992 1248 c-13 -13 -16 -47 -6 -72 7 -19 35 -21 52 -4 25 25 8 88
-23 88 -6 0 -16 -5 -23 -12z m43 -18 c8 -26 -3 -60 -20 -60 -8 0 -17 9 -20 20
-8 26 3 60 20 60 8 0 17 -9 20 -20z"/>
<path d="M7072 1248 c-32 -32 1 -104 36 -81 20 12 26 36 18 69 -7 26 -34 32
-54 12z m43 -18 c8 -26 -3 -60 -20 -60 -8 0 -17 9 -20 20 -8 26 3 60 20 60 8
0 17 -9 20 -20z"/>
<path d="M6866 1164 c-4 -9 -4 -19 -1 -22 2 -3 7 3 11 12 4 9 4 19 1 22 -2 3
-7 -3 -11 -12z"/>
<path d="M7459 1243 c-12 -15 -12 -16 4 -10 14 5 17 1 17 -28 0 -24 -5 -35
-17 -38 -10 -3 -2 -5 17 -5 19 0 29 2 23 5 -8 3 -13 23 -13 49 0 47 -9 55 -31
27z"/>
<path d="M7536 1251 c-4 -5 2 -7 13 -4 30 8 33 -12 6 -51 l-24 -36 32 1 c23 1
26 3 10 6 l-23 4 22 29 c11 16 18 36 15 44 -7 17 -42 22 -51 7z"/>
<path d="M7616 1252 c-3 -6 2 -8 13 -5 10 3 22 0 26 -7 4 -7 -2 -14 -16 -17
l-23 -6 22 -8 c32 -12 29 -43 -4 -36 -16 3 -22 1 -16 -5 6 -6 18 -8 28 -6 15
3 19 12 19 48 0 38 -3 45 -22 48 -11 2 -24 -1 -27 -6z"/>
<path d="M8500 1210 c0 -27 5 -50 10 -50 6 0 10 23 10 50 0 28 -4 50 -10 50
-5 0 -10 -22 -10 -50z"/>
<path d="M8540 1210 c0 -27 5 -50 10 -50 6 0 10 11 10 25 0 18 5 25 20 25 15
0 20 -7 20 -25 0 -14 5 -25 10 -25 6 0 10 23 10 50 0 28 -4 50 -10 50 -5 0
-10 -9 -10 -20 0 -13 -7 -20 -20 -20 -13 0 -20 7 -20 20 0 11 -4 20 -10 20 -5
0 -10 -22 -10 -50z"/>
<path d="M8640 1210 c0 -57 20 -69 21 -12 l1 37 15 -37 c9 -21 19 -38 23 -38
4 0 13 19 21 43 l14 42 6 -45 6 -45 1 53 c2 60 -11 68 -29 17 -7 -19 -16 -35
-20 -35 -4 0 -13 16 -19 35 -18 54 -40 45 -40 -15z"/>
<path d="M8780 1210 l0 -50 33 1 c30 2 30 2 5 6 -35 5 -39 40 -5 46 l22 4 -22
2 c-13 0 -23 7 -23 15 0 8 10 17 23 19 19 4 18 4 -5 6 -27 1 -28 -1 -28 -49z"/>
<path d="M9990 1270 c0 -5 -7 -10 -15 -10 -9 0 -15 -9 -15 -25 0 -18 5 -25 20
-25 16 0 20 7 20 35 0 19 -2 35 -5 35 -3 0 -5 -4 -5 -10z m0 -35 c0 -8 -4 -15
-10 -15 -5 0 -10 7 -10 15 0 8 5 15 10 15 6 0 10 -7 10 -15z"/>
<path d="M9556 1251 c-4 -5 3 -7 14 -4 14 4 20 0 20 -11 0 -9 -8 -16 -17 -17
-13 0 -12 -3 5 -10 28 -11 24 -34 -7 -33 -11 0 -21 -3 -21 -8 0 -5 12 -8 28
-6 19 2 28 9 30 26 2 12 -2 22 -9 22 -9 0 -9 3 1 15 6 8 9 19 5 25 -8 12 -42
13 -49 1z"/>
<path d="M9636 1251 c-4 -5 2 -7 13 -4 30 8 33 -12 6 -51 l-24 -36 32 1 c23 1
26 3 10 6 l-23 4 22 29 c11 16 18 36 15 44 -7 17 -42 22 -51 7z"/>
<path d="M9733 1253 c-7 -3 -13 -9 -13 -14 0 -6 5 -7 10 -4 6 4 10 -8 10 -29
0 -19 -6 -37 -12 -39 -7 -3 1 -6 17 -6 17 0 25 3 18 7 -6 4 -13 26 -15 48 -2
27 -7 39 -15 37z"/>
<path d="M9836 1251 c-4 -5 3 -7 14 -4 27 7 27 -27 0 -52 -28 -26 -25 -35 13
-34 23 1 26 3 10 6 l-23 4 21 28 c12 16 17 34 13 44 -7 18 -39 23 -48 8z"/>
<path d="M9911 1233 c1 -22 2 -23 6 -8 3 11 10 23 17 27 7 5 5 8 -6 8 -13 0
-18 -7 -17 -27z"/>
<path d="M10053 1244 c-4 -10 4 -24 23 -39 25 -20 27 -24 12 -30 -9 -4 -22 -4
-28 0 -5 3 -10 1 -10 -4 0 -18 50 -13 57 6 4 11 -3 24 -21 38 -18 14 -24 25
-17 29 6 4 16 4 21 1 6 -3 10 -1 10 4 0 17 -40 13 -47 -5z"/>
<path d="M10128 1237 c-7 -21 6 -70 20 -73 7 -1 8 0 2 3 -12 6 -13 50 -1 55 5
2 3 8 -4 15 -10 9 -14 9 -17 0z"/>
<path d="M10398 1239 c-2 -6 -2 -26 0 -45 3 -24 9 -34 21 -33 10 0 11 2 4 6
-15 5 -18 50 -4 55 5 2 3 8 -4 15 -9 9 -15 9 -17 2z"/>
<path d="M9941 1224 c0 -11 3 -14 6 -6 3 7 2 16 -1 19 -3 4 -6 -2 -5 -13z"/>
<path d="M10181 1190 c1 -27 3 -29 6 -10 2 14 11 30 20 37 13 10 13 12 -6 10
-17 -1 -21 -7 -20 -37z"/>
<path d="M10239 1214 c-17 -21 0 -48 32 -51 23 -1 23 -1 2 4 -31 6 -29 23 2
23 27 0 32 9 13 28 -16 16 -33 15 -49 -4z m41 -4 c0 -5 -7 -10 -15 -10 -8 0
-15 5 -15 10 0 6 7 10 15 10 8 0 15 -4 15 -10z"/>
<path d="M10319 1214 c-17 -21 0 -48 32 -51 19 -1 20 -1 4 4 -36 9 -40 23 -7
23 34 0 40 8 20 28 -16 16 -33 15 -49 -4z m41 -4 c0 -5 -9 -10 -21 -10 -11 0
-17 5 -14 10 3 6 13 10 21 10 8 0 14 -4 14 -10z"/>
<path d="M10609 1243 c-12 -15 -12 -16 4 -10 14 5 17 1 17 -28 0 -24 -5 -35
-17 -38 -10 -3 -2 -5 17 -5 19 0 29 2 23 5 -8 3 -13 23 -13 49 0 47 -9 55 -31
27z"/>
<path d="M10686 1251 c-4 -5 2 -7 13 -4 30 8 33 -12 6 -51 l-24 -36 32 1 c23
1 26 3 10 6 l-23 4 22 29 c11 16 18 36 15 44 -7 17 -42 22 -51 7z"/>
<path d="M10766 1252 c-3 -6 2 -8 13 -5 10 3 22 0 26 -7 4 -7 -2 -14 -16 -17
l-23 -6 22 -8 c32 -12 29 -43 -4 -36 -16 3 -22 1 -16 -5 6 -6 18 -8 28 -6 15
3 19 12 19 48 0 38 -3 45 -22 48 -11 2 -24 -1 -27 -6z"/>
<path d="M10860 1228 c-25 -41 -25 -48 -1 -48 11 0 22 -6 24 -12 10 -25 23 10
19 52 -5 48 -16 51 -42 8z m20 -13 c0 -15 -6 -25 -15 -25 -12 0 -13 4 -3 25 6
14 13 25 15 25 1 0 3 -11 3 -25z"/>
<path d="M10930 1235 c0 -18 5 -25 20 -25 14 0 20 -7 20 -21 0 -17 -5 -20 -25
-17 -13 3 -22 1 -19 -3 8 -14 40 -10 54 6 10 12 10 18 0 30 -7 8 -19 15 -26
15 -23 0 -16 28 9 33 19 4 18 4 -5 6 -24 1 -28 -3 -28 -24z"/>
<path d="M11661 1251 c-2 -23 22 -91 31 -91 5 0 11 14 15 30 3 17 9 30 13 30
5 0 11 -13 15 -30 9 -42 22 -37 36 13 6 23 13 45 16 50 2 4 0 7 -5 7 -5 0 -13
-19 -19 -42 l-9 -43 -14 43 c-7 23 -16 42 -20 42 -4 0 -11 -19 -17 -42 l-9
-43 -16 45 c-9 25 -17 39 -17 31z"/>
<path d="M11806 1252 c-3 -5 4 -8 16 -8 31 1 32 -18 3 -53 l-27 -31 34 1 c25
1 27 3 10 6 l-24 5 22 23 c12 13 20 31 18 42 -3 19 -42 31 -52 15z"/>
<path d="M186 851 c-4 -5 3 -7 14 -4 27 7 27 -27 0 -52 -28 -26 -25 -35 13
-34 23 1 26 3 10 6 l-23 4 21 28 c12 16 17 34 13 44 -7 18 -39 23 -48 8z"/>
<path d="M1162 815 c0 -41 2 -51 7 -31 9 41 28 43 40 4 l10 -33 -2 35 c-2 28
-6 35 -22 35 -13 0 -22 9 -26 25 -4 15 -7 1 -7 -35z"/>
<path d="M1030 816 c0 -26 -5 -47 -12 -50 -7 -3 -4 -5 7 -3 16 2 21 11 23 50
2 28 -1 47 -7 47 -6 0 -11 -20 -11 -44z"/>
<path d="M1074 816 c-11 -28 1 -51 25 -51 32 0 49 28 32 49 -17 20 -50 21 -57
2z m49 -8 c6 -19 -3 -38 -18 -38 -18 0 -28 17 -21 35 7 18 33 20 39 3z"/>
<path d="M1241 791 c1 -36 1 -36 8 -6 8 40 38 46 44 8 4 -28 4 -28 3 2 -1 26
-5 30 -28 31 -26 1 -28 -2 -27 -35z"/>
<path d="M1730 811 c0 -50 1 -51 30 -51 36 0 44 15 33 61 -7 27 -15 35 -36 37
-26 3 -27 2 -27 -47z m50 24 c0 -8 -7 -15 -15 -15 -8 0 -15 7 -15 15 0 8 7 15
15 15 8 0 15 -7 15 -15z m5 -45 c0 -8 -8 -16 -17 -18 -13 -2 -18 3 -18 18 0
15 5 20 18 18 9 -2 17 -10 17 -18z"/>
<path d="M2540 810 c0 -48 1 -50 28 -50 35 0 52 16 52 50 0 34 -17 50 -52 50
-27 0 -28 -2 -28 -50z m64 18 c13 -21 -2 -51 -28 -56 -13 -3 -16 5 -16 38 0
33 3 41 16 38 9 -2 22 -11 28 -20z"/>
<path d="M2644 816 c-10 -25 0 -51 20 -54 27 -6 48 25 35 49 -12 22 -47 25
-55 5z m46 -21 c0 -25 -23 -35 -35 -15 -10 16 2 40 20 40 9 0 15 -9 15 -25z"/>
<path d="M2731 816 c-21 -25 -9 -51 24 -53 18 -1 22 1 10 4 -34 9 -41 23 -11
23 21 0 27 4 24 17 -4 23 -31 28 -47 9z m39 -6 c0 -5 -9 -10 -21 -10 -11 0
-17 5 -14 10 3 6 13 10 21 10 8 0 14 -4 14 -10z"/>
<path d="M3250 836 c0 -18 6 -25 23 -28 12 -2 22 -10 22 -18 0 -9 -9 -15 -22
-14 -13 0 -23 -3 -23 -8 0 -5 12 -8 28 -6 35 4 45 46 13 55 -28 7 -27 30 2 36
16 3 13 5 -10 6 -29 1 -33 -2 -33 -23z"/>
<path d="M3330 836 c0 -18 6 -25 23 -28 12 -2 22 -10 22 -18 0 -9 -9 -15 -22
-14 -13 0 -23 -3 -23 -8 0 -5 12 -8 28 -6 35 4 45 46 13 55 -28 7 -27 30 2 36
16 3 13 5 -10 6 -29 1 -33 -2 -33 -23z"/>
<path d="M3857 858 c-38 -96 -47 -121 -38 -113 12 13 53 116 48 122 -3 2 -7
-2 -10 -9z"/>
<path d="M3982 816 c-30 -79 -27 -95 4 -21 13 32 23 63 21 69 -2 5 -13 -17
-25 -48z"/>
<path d="M3746 851 c-4 -5 3 -7 14 -4 27 7 27 -27 0 -52 -28 -26 -25 -35 13
-34 23 1 26 3 10 6 l-23 4 21 28 c12 16 17 34 13 44 -7 18 -39 23 -48 8z"/>
<path d="M3886 852 c-3 -5 4 -8 16 -8 31 1 32 -18 3 -53 l-27 -31 34 1 c25 1
27 3 10 6 l-24 5 22 23 c12 13 20 31 18 42 -3 19 -42 31 -52 15z"/>
<path d="M4039 843 c-10 -11 -10 -14 -1 -9 9 5 12 -2 12 -28 0 -19 -6 -37 -12
-39 -7 -3 3 -5 22 -5 19 0 29 2 23 5 -8 3 -13 23 -13 49 0 47 -9 55 -31 27z"/>
<path d="M4111 846 c-17 -20 -2 -46 26 -46 28 0 22 -17 -11 -30 -20 -9 -20 -9
0 -9 37 -2 55 38 38 83 -8 20 -38 21 -53 2z m47 -19 c2 -12 -3 -17 -17 -17
-15 0 -21 6 -21 21 0 25 33 22 38 -4z"/>
<path d="M4201 846 c-7 -8 -11 -30 -9 -48 2 -28 7 -33 28 -33 20 0 25 5 25 25
0 18 -6 26 -23 28 -29 4 -24 24 9 33 22 6 22 7 3 8 -12 1 -27 -5 -33 -13z m37
-53 c-2 -10 -10 -18 -18 -18 -8 0 -16 8 -18 18 -2 12 3 17 18 17 15 0 20 -5
18 -17z"/>
<path d="M4292 853 c24 -4 26 -7 18 -23 -15 -29 -30 -70 -25 -70 6 0 45 77 45
90 0 5 -15 9 -32 9 -31 -2 -31 -2 -6 -6z"/>
<path d="M5056 860 c-20 -21 -15 -50 9 -50 11 0 15 10 15 35 0 40 1 40 -24 15z
m14 -25 c0 -8 -4 -15 -10 -15 -5 0 -10 7 -10 15 0 8 5 15 10 15 6 0 10 -7 10
-15z"/>
<path d="M4687 825 c4 -28 2 -35 -11 -35 -18 0 -22 15 -6 25 6 3 10 12 10 18
-1 16 -30 -23 -30 -40 0 -7 9 -13 20 -13 11 0 20 -5 20 -10 0 -6 6 -5 14 2 8
7 10 15 5 16 -5 2 -9 19 -9 38 0 19 -4 34 -9 34 -6 0 -7 -16 -4 -35z"/>
<path d="M4730 836 c0 -18 6 -25 23 -28 12 -2 22 -10 22 -18 0 -9 -9 -15 -22
-14 -13 0 -23 -3 -23 -8 0 -5 12 -8 28 -6 35 4 45 46 13 55 -28 7 -27 30 2 36
16 3 13 5 -10 6 -29 1 -33 -2 -33 -23z"/>
<path d="M4820 839 c-24 -45 13 -101 45 -68 19 19 10 49 -16 49 -26 0 -24 19
4 30 l22 9 -22 0 c-13 1 -27 -8 -33 -20z m40 -49 c0 -23 -25 -27 -33 -6 -7 16
1 26 20 26 7 0 13 -9 13 -20z"/>
<path d="M4936 851 c-4 -5 3 -7 14 -4 14 4 20 0 20 -11 0 -9 -8 -16 -17 -17
-13 0 -12 -3 5 -10 28 -11 24 -34 -7 -33 -11 0 -21 -3 -21 -8 0 -5 12 -8 28
-6 19 2 28 9 30 26 2 12 -2 22 -9 22 -9 0 -9 3 1 15 6 8 9 19 5 25 -8 12 -42
13 -49 1z"/>
<path d="M5010 835 c0 -14 2 -25 4 -25 2 0 6 11 8 25 3 14 1 25 -3 25 -5 0 -9
-11 -9 -25z"/>
<path d="M4653 653 c-4 -11 1 -22 15 -31 28 -19 30 -46 2 -39 -11 3 -20 1 -20
-4 0 -15 37 -10 51 7 12 14 10 19 -14 38 -32 26 -35 40 -7 33 11 -3 20 -1 20
4 0 16 -40 9 -47 -8z"/>
<path d="M4728 649 c-2 -6 -2 -26 0 -45 3 -24 9 -34 21 -33 10 0 11 2 4 6 -15
5 -18 50 -4 55 5 2 3 8 -4 15 -9 9 -15 9 -17 2z"/>
<path d="M4998 649 c-2 -6 -2 -26 0 -45 3 -24 9 -34 21 -33 10 0 11 2 4 6 -15
5 -18 50 -4 55 5 2 3 8 -4 15 -9 9 -15 9 -17 2z"/>
<path d="M4781 600 c1 -27 3 -29 6 -10 2 14 11 30 20 37 13 10 13 12 -6 10
-17 -1 -21 -7 -20 -37z"/>
<path d="M4841 626 c-21 -25 -9 -51 24 -53 18 -1 22 1 10 4 -34 9 -41 23 -11
23 21 0 27 4 24 17 -4 23 -31 28 -47 9z m39 -6 c0 -5 -9 -10 -21 -10 -11 0
-17 5 -14 10 3 6 13 10 21 10 8 0 14 -4 14 -10z"/>
<path d="M4921 626 c-21 -25 -9 -51 24 -53 18 -1 22 1 10 4 -34 9 -41 23 -11
23 21 0 27 4 24 17 -4 23 -31 28 -47 9z m39 -6 c0 -5 -9 -10 -21 -10 -11 0
-17 5 -14 10 3 6 13 10 21 10 8 0 14 -4 14 -10z"/>
<path d="M5564 846 c-9 -25 3 -46 27 -46 28 0 19 -23 -12 -31 -22 -6 -22 -7
-3 -8 30 -1 46 22 42 61 -2 25 -8 34 -26 36 -13 2 -25 -3 -28 -12z m44 -19 c2
-12 -3 -17 -17 -17 -12 0 -21 6 -21 13 0 31 32 34 38 4z"/>
<path d="M5647 853 c-2 -4 -4 -26 -3 -48 1 -36 4 -40 26 -40 23 0 25 4 25 45
0 38 -3 45 -22 48 -11 2 -23 0 -26 -5z m43 -12 c0 -14 -18 -23 -30 -16 -6 4
-8 11 -5 16 8 12 35 12 35 0z m0 -56 c0 -8 -9 -15 -20 -15 -11 0 -20 7 -20 15
0 8 9 15 20 15 11 0 20 -7 20 -15z"/>
<path d="M5743 853 c32 -5 32 -4 7 -53 -11 -22 -16 -40 -12 -40 5 0 19 23 30
50 l21 50 -37 -1 c-30 -2 -32 -3 -9 -6z"/>
<path d="M5808 835 c-22 -48 21 -97 52 -60 16 20 5 45 -20 45 -27 0 -26 18 3
30 l22 9 -23 0 c-15 1 -26 -8 -34 -24z m45 -31 c9 -10 -4 -34 -19 -34 -8 0
-14 9 -14 20 0 19 19 27 33 14z"/>
<path d="M5890 835 c0 -18 5 -25 20 -25 14 0 20 -7 20 -21 0 -17 -5 -20 -25
-17 -13 3 -22 1 -19 -3 8 -14 40 -10 54 6 10 12 10 18 0 30 -7 8 -19 15 -26
15 -23 0 -16 28 9 33 19 4 18 4 -5 6 -24 1 -28 -3 -28 -24z"/>
<path d="M5997 854 c-3 -4 -3 -19 0 -35 4 -24 2 -29 -13 -29 -14 0 -15 3 -6
12 7 7 12 17 12 23 -1 11 -30 -25 -30 -37 0 -4 9 -8 19 -8 11 0 22 -6 24 -12
10 -25 23 10 19 52 -4 38 -11 48 -25 34z"/>
<path d="M6056 851 c-3 -5 3 -7 14 -4 14 4 20 0 20 -10 0 -9 -8 -18 -17 -20
-17 -4 -17 -5 0 -6 26 -2 22 -39 -5 -44 -22 -4 -22 -4 -2 -6 26 -1 49 23 38
41 -5 7 -8 22 -9 33 0 21 -29 33 -39 16z"/>
<path d="M6136 851 c-4 -5 3 -7 14 -4 27 7 27 -27 0 -52 -28 -26 -25 -35 13
-34 22 1 25 3 10 6 -20 4 -21 5 -5 32 8 15 13 35 9 44 -7 18 -32 23 -41 8z"/>
<path d="M6219 843 c-12 -15 -12 -16 4 -10 14 5 17 1 17 -28 0 -24 -5 -35 -17
-38 -10 -3 -2 -5 17 -5 19 0 29 2 23 5 -8 3 -13 23 -13 49 0 47 -9 55 -31 27z"/>
<path d="M6638 860 c-25 -23 -22 -38 7 -52 30 -13 27 -33 -4 -32 -24 1 -26 -2
-9 -20 10 -10 15 -10 30 3 25 22 22 46 -8 59 -28 14 -22 37 8 29 16 -5 17 -3
6 11 -7 9 -12 18 -13 18 0 1 -8 -6 -17 -16z"/>
<path d="M6700 836 c0 -18 6 -25 23 -28 12 -2 22 -10 22 -18 0 -9 -9 -15 -22
-14 -13 0 -23 -3 -23 -8 0 -5 12 -8 28 -6 35 4 45 46 13 55 -28 7 -27 30 2 36
16 3 13 5 -10 6 -29 1 -33 -2 -33 -23z"/>
<path d="M6831 846 c-7 -8 -11 -30 -9 -48 2 -28 7 -33 28 -33 46 0 54 84 8 93
-8 2 -20 -4 -27 -12z m39 -37 c0 -33 -3 -40 -17 -37 -32 6 -30 78 2 78 11 0
15 -11 15 -41z"/>
<path d="M6912 848 c-13 -13 -16 -47 -6 -72 7 -19 35 -21 52 -4 25 25 8 88
-23 88 -6 0 -16 -5 -23 -12z m43 -18 c8 -26 -3 -60 -20 -60 -8 0 -17 9 -20 20
-8 26 3 60 20 60 8 0 17 -9 20 -20z"/>
<path d="M6992 848 c-13 -13 -16 -47 -6 -72 7 -19 35 -21 52 -4 25 25 8 88
-23 88 -6 0 -16 -5 -23 -12z m43 -18 c8 -26 -3 -60 -20 -60 -8 0 -17 9 -20 20
-8 26 3 60 20 60 8 0 17 -9 20 -20z"/>
<path d="M6786 765 c-9 -26 -7 -32 5 -12 6 10 9 21 6 23 -2 3 -7 -2 -11 -11z"/>
<path d="M7456 851 c-4 -5 3 -7 14 -4 14 4 20 0 20 -11 0 -9 -8 -16 -17 -17
-13 0 -12 -3 5 -10 28 -11 24 -34 -7 -33 -11 0 -21 -3 -21 -8 0 -5 12 -8 28
-6 19 2 28 9 30 26 2 12 -2 22 -9 22 -9 0 -9 3 1 15 6 8 9 19 5 25 -8 12 -42
13 -49 1z"/>
<path d="M7536 851 c-4 -5 2 -7 13 -4 30 8 33 -12 6 -51 l-24 -36 32 1 c23 1
26 3 10 6 l-23 4 22 29 c11 16 18 36 15 44 -7 17 -42 22 -51 7z"/>
<path d="M7633 853 c-7 -3 -13 -9 -13 -14 0 -6 5 -7 10 -4 6 4 10 -8 10 -29 0
-19 -6 -37 -12 -39 -7 -3 1 -6 17 -6 17 0 25 3 18 7 -6 4 -13 26 -15 48 -2 27
-7 39 -15 37z"/>
<path d="M8520 835 c-6 -14 -14 -36 -20 -50 -6 -16 -6 -25 0 -25 6 0 10 7 10
15 0 21 40 19 57 -2 10 -13 13 -14 9 -3 -2 8 -10 32 -17 53 -14 43 -26 47 -39
12z m30 -21 c0 -8 -7 -14 -15 -14 -17 0 -18 2 -9 24 7 18 24 12 24 -10z"/>
<path d="M8590 795 c0 -19 5 -35 10 -35 6 0 10 14 10 30 0 43 30 41 31 -2 l1
-33 7 30 c3 17 13 30 21 30 8 0 18 -13 22 -30 6 -29 6 -29 5 5 l-2 35 -52 2
-53 3 0 -35z"/>
<path d="M8726 821 c-4 -5 3 -7 14 -4 11 3 20 1 20 -5 0 -5 -9 -12 -21 -15
-29 -8 -19 -31 14 -35 21 -3 27 1 27 17 0 32 -11 51 -30 51 -11 0 -21 -4 -24
-9z m34 -41 c0 -5 -7 -10 -15 -10 -8 0 -15 5 -15 10 0 6 7 10 15 10 8 0 15 -4
15 -10z"/>
<path d="M8813 823 c16 -4 16 -7 -4 -34 l-20 -29 28 1 c21 0 24 2 10 7 -16 7
-16 9 -3 27 21 28 20 35 -6 34 -18 -1 -19 -2 -5 -6z"/>
<path d="M8864 816 c-11 -28 1 -51 25 -51 32 0 49 28 32 49 -17 20 -50 21 -57
2z m46 -21 c0 -25 -23 -35 -35 -15 -10 16 2 40 20 40 9 0 15 -9 15 -25z"/>
<path d="M8951 791 c1 -35 2 -35 8 -7 9 41 28 43 40 4 l10 -33 -2 35 c-2 31
-5 35 -29 36 -26 1 -28 -2 -27 -35z"/>
<path d="M9941 843 c1 -23 3 -29 6 -15 2 12 9 22 14 22 5 0 10 -10 10 -22 1
-19 2 -20 6 -5 3 11 -4 27 -16 38 l-21 20 1 -38z"/>
<path d="M9908 865 c-7 -7 3 -55 11 -55 8 0 7 47 -1 55 -2 3 -7 3 -10 0z"/>
<path d="M9561 846 c-7 -8 -11 -30 -9 -48 2 -28 7 -33 28 -33 20 0 25 5 25 25
0 17 -7 26 -22 30 -26 6 -19 25 12 33 19 4 19 5 -1 6 -12 0 -27 -5 -33 -13z
m39 -57 c0 -25 -33 -22 -38 4 -2 12 3 17 17 17 15 0 21 -6 21 -21z"/>
<path d="M9630 836 c0 -18 6 -25 23 -28 12 -2 22 -10 22 -18 0 -9 -9 -15 -22
-14 -13 0 -23 -3 -23 -8 0 -5 12 -8 28 -6 35 4 45 46 13 55 -28 7 -27 30 2 36
16 3 13 5 -10 6 -29 1 -33 -2 -33 -23z"/>
<path d="M9727 825 c-21 -45 -21 -45 3 -45 11 0 20 -5 20 -10 0 -6 6 -5 14 2
8 7 10 15 5 16 -5 2 -9 19 -9 38 0 44 -12 43 -33 -1z m23 -10 c0 -15 -6 -25
-15 -25 -12 0 -13 4 -3 25 6 14 13 25 15 25 1 0 3 -11 3 -25z"/>
<path d="M9867 825 c4 -28 2 -35 -11 -35 -18 0 -22 15 -6 25 6 3 10 12 10 18
-1 16 -30 -23 -30 -40 0 -7 9 -13 20 -13 11 0 20 -5 20 -10 0 -6 6 -5 14 2 8
7 10 15 5 16 -5 2 -9 19 -9 38 0 19 -4 34 -9 34 -6 0 -7 -16 -4 -35z"/>
<path d="M10033 844 c-6 -16 13 -38 40 -47 19 -6 -5 -29 -24 -24 -11 3 -17 1
-13 -4 9 -15 44 -10 51 8 4 11 -3 24 -22 39 l-29 23 24 10 c25 10 25 10 2 10
-12 1 -25 -6 -29 -15z"/>
<path d="M10108 837 c-7 -21 6 -70 20 -73 7 -1 8 0 2 3 -12 6 -13 50 -1 55 5
2 3 8 -4 15 -10 9 -14 9 -17 0z"/>
<path d="M10378 837 c-7 -21 6 -70 20 -73 7 -1 8 0 2 3 -12 6 -13 50 -1 55 5
2 3 8 -4 15 -10 9 -14 9 -17 0z"/>
<path d="M10161 790 c1 -27 3 -29 6 -10 2 14 11 30 20 37 13 10 13 12 -6 10
-17 -1 -21 -7 -20 -37z"/>
<path d="M10221 811 c-14 -25 8 -55 35 -48 17 4 16 5 -3 6 -32 1 -29 21 3 21
20 0 25 4 20 16 -3 9 -6 18 -6 20 0 13 -41 1 -49 -15z m44 -1 c3 -5 -3 -10
-14 -10 -12 0 -21 5 -21 10 0 6 6 10 14 10 8 0 18 -4 21 -10z"/>
<path d="M10299 814 c-17 -21 0 -48 32 -51 23 -1 23 -1 2 4 -31 6 -29 23 2 23
27 0 32 9 13 28 -16 16 -33 15 -49 -4z m41 -4 c0 -5 -7 -10 -15 -10 -8 0 -15
5 -15 10 0 6 7 10 15 10 8 0 15 -4 15 -10z"/>
<path d="M10600 836 c0 -18 6 -25 23 -28 12 -2 22 -10 22 -18 0 -9 -9 -15 -22
-14 -13 0 -23 -3 -23 -8 0 -5 12 -8 28 -6 35 4 45 46 13 55 -28 7 -27 30 2 36
16 3 13 5 -10 6 -29 1 -33 -2 -33 -23z"/>
<path d="M10698 829 c-23 -39 -23 -49 2 -49 11 0 20 -5 20 -10 0 -6 6 -5 14 2
8 7 10 15 5 16 -5 2 -9 19 -9 38 0 42 -10 43 -32 3z m22 -14 c0 -15 -6 -25
-15 -25 -12 0 -13 4 -3 25 6 14 13 25 15 25 1 0 3 -11 3 -25z"/>
<path d="M10766 852 c-3 -6 2 -8 13 -5 10 3 22 0 26 -7 4 -7 -2 -14 -16 -17
l-23 -6 22 -8 c32 -12 29 -43 -4 -36 -16 3 -22 1 -16 -5 6 -6 18 -8 28 -6 15
3 19 12 19 48 0 38 -3 45 -22 48 -11 2 -24 -1 -27 -6z"/>
<path d="M10868 850 c28 -12 28 -22 -4 -59 l-26 -31 39 1 c31 2 33 3 9 6 l-28
5 22 23 c28 29 23 59 -10 62 -25 3 -25 3 -2 -7z"/>
<path d="M10939 843 c-10 -11 -10 -14 -1 -9 9 5 12 -2 12 -28 0 -19 -6 -37
-12 -39 -7 -3 3 -5 22 -5 19 0 29 2 23 5 -8 3 -13 23 -13 49 0 47 -9 55 -31
27z"/>
<path d="M11661 851 c-2 -23 22 -91 31 -91 5 0 11 14 15 30 3 17 9 30 13 30 5
0 11 -13 15 -30 9 -42 22 -37 36 13 6 23 13 45 16 50 2 4 0 7 -5 7 -5 0 -13
-19 -19 -42 l-9 -43 -14 43 c-7 23 -16 42 -20 42 -4 0 -11 -19 -17 -42 l-9
-43 -16 45 c-9 25 -17 39 -17 31z"/>
<path d="M11806 852 c-3 -5 4 -8 16 -8 31 1 32 -18 3 -53 l-27 -31 34 1 c25 1
27 3 10 6 l-24 5 22 23 c12 13 20 31 18 42 -3 19 -42 31 -52 15z"/>
<path d="M186 451 c-4 -5 3 -7 14 -4 27 7 27 -27 0 -52 -28 -26 -25 -35 13
-34 23 1 26 3 10 6 l-23 4 21 28 c12 16 17 34 13 44 -7 18 -39 23 -48 8z"/>
<path d="M1162 415 c0 -41 2 -51 7 -31 9 41 28 43 40 4 l10 -33 -2 35 c-2 28
-6 35 -22 35 -13 0 -22 9 -26 25 -4 15 -7 1 -7 -35z"/>
<path d="M1030 416 c0 -26 -5 -47 -12 -50 -7 -3 -4 -5 7 -3 16 2 21 11 23 50
2 28 -1 47 -7 47 -6 0 -11 -20 -11 -44z"/>
<path d="M1074 416 c-11 -28 1 -51 25 -51 32 0 49 28 32 49 -17 20 -50 21 -57
2z m49 -8 c6 -19 -3 -38 -18 -38 -18 0 -28 17 -21 35 7 18 33 20 39 3z"/>
<path d="M1241 391 c1 -36 1 -36 8 -6 8 40 38 46 44 8 4 -28 4 -28 3 2 -1 26
-5 30 -28 31 -26 1 -28 -2 -27 -35z"/>
<path d="M1730 411 c0 -50 1 -51 30 -51 36 0 44 15 33 61 -7 27 -15 35 -36 37
-26 3 -27 2 -27 -47z m50 24 c0 -8 -7 -15 -15 -15 -8 0 -15 7 -15 15 0 8 7 15
15 15 8 0 15 -7 15 -15z m5 -45 c0 -8 -8 -16 -17 -18 -13 -2 -18 3 -18 18 0
15 5 20 18 18 9 -2 17 -10 17 -18z"/>
<path d="M2540 410 c0 -48 1 -50 28 -50 35 0 52 16 52 50 0 34 -17 50 -52 50
-27 0 -28 -2 -28 -50z m64 18 c13 -21 -2 -51 -28 -56 -13 -3 -16 5 -16 38 0
33 3 41 16 38 9 -2 22 -11 28 -20z"/>
<path d="M2644 416 c-10 -25 0 -51 20 -54 27 -6 48 25 35 49 -12 22 -47 25
-55 5z m46 -21 c0 -25 -23 -35 -35 -15 -10 16 2 40 20 40 9 0 15 -9 15 -25z"/>
<path d="M2731 416 c-21 -25 -9 -51 24 -53 18 -1 22 1 10 4 -34 9 -41 23 -11
23 21 0 27 4 24 17 -4 23 -31 28 -47 9z m39 -6 c0 -5 -9 -10 -21 -10 -11 0
-17 5 -14 10 3 6 13 10 21 10 8 0 14 -4 14 -10z"/>
<path d="M3250 436 c0 -18 6 -25 23 -28 12 -2 22 -10 22 -18 0 -9 -9 -15 -22
-14 -13 0 -23 -3 -23 -8 0 -5 12 -8 28 -6 35 4 45 46 13 55 -28 7 -27 30 2 36
16 3 13 5 -10 6 -29 1 -33 -2 -33 -23z"/>
<path d="M3330 436 c0 -18 6 -25 23 -28 12 -2 22 -10 22 -18 0 -9 -9 -15 -22
-14 -13 0 -23 -3 -23 -8 0 -5 12 -8 28 -6 35 4 45 46 13 55 -28 7 -27 30 2 36
16 3 13 5 -10 6 -29 1 -33 -2 -33 -23z"/>
<path d="M3857 458 c-38 -96 -47 -121 -38 -113 12 13 53 116 48 122 -3 2 -7
-2 -10 -9z"/>
<path d="M3982 416 c-30 -79 -27 -95 4 -21 13 32 23 63 21 69 -2 5 -13 -17
-25 -48z"/>
<path d="M3746 451 c-4 -5 3 -7 14 -4 27 7 27 -27 0 -52 -28 -26 -25 -35 13
-34 23 1 26 3 10 6 l-23 4 21 28 c12 16 17 34 13 44 -7 18 -39 23 -48 8z"/>
<path d="M3886 452 c-3 -5 4 -8 16 -8 31 1 32 -18 3 -53 l-27 -31 34 1 c25 1
27 3 10 6 l-24 5 22 23 c12 13 20 31 18 42 -3 19 -42 31 -52 15z"/>
<path d="M4039 443 c-10 -11 -10 -14 -1 -9 9 5 12 -2 12 -28 0 -19 -6 -37 -12
-39 -7 -3 3 -5 22 -5 19 0 29 2 23 5 -8 3 -13 23 -13 49 0 47 -9 55 -31 27z"/>
<path d="M4111 446 c-17 -20 -2 -46 26 -46 28 0 22 -17 -11 -30 -20 -9 -20 -9
0 -9 37 -2 55 38 38 83 -8 20 -38 21 -53 2z m47 -19 c2 -12 -3 -17 -17 -17
-15 0 -21 6 -21 21 0 25 33 22 38 -4z"/>
<path d="M4201 446 c-7 -8 -11 -30 -9 -48 2 -28 7 -33 28 -33 20 0 25 5 25 25
0 18 -6 26 -23 28 -29 4 -24 24 9 33 22 6 22 7 3 8 -12 1 -27 -5 -33 -13z m37
-53 c-2 -10 -10 -18 -18 -18 -8 0 -16 8 -18 18 -2 12 3 17 18 17 15 0 20 -5
18 -17z"/>
<path d="M4292 453 c24 -4 26 -7 18 -23 -15 -29 -30 -70 -25 -70 6 0 45 77 45
90 0 5 -15 9 -32 9 -31 -2 -31 -2 -6 -6z"/>
<path d="M5056 460 c-20 -21 -15 -50 9 -50 11 0 15 10 15 35 0 40 1 40 -24 15z
m14 -25 c0 -8 -4 -15 -10 -15 -5 0 -10 7 -10 15 0 8 5 15 10 15 6 0 10 -7 10
-15z"/>
<path d="M4687 425 c4 -28 2 -35 -11 -35 -18 0 -22 15 -6 25 6 3 10 12 10 18
-1 16 -30 -23 -30 -40 0 -7 9 -13 20 -13 11 0 20 -5 20 -10 0 -6 6 -5 14 2 8
7 10 15 5 16 -5 2 -9 19 -9 38 0 19 -4 34 -9 34 -6 0 -7 -16 -4 -35z"/>
<path d="M4730 436 c0 -18 6 -25 23 -28 12 -2 22 -10 22 -18 0 -9 -9 -15 -22
-14 -13 0 -23 -3 -23 -8 0 -5 12 -8 28 -6 35 4 45 46 13 55 -28 7 -27 30 2 36
16 3 13 5 -10 6 -29 1 -33 -2 -33 -23z"/>
<path d="M4820 439 c-24 -45 13 -101 45 -68 19 19 10 49 -16 49 -26 0 -24 19
4 30 l22 9 -22 0 c-13 1 -27 -8 -33 -20z m40 -49 c0 -23 -25 -27 -33 -6 -7 16
1 26 20 26 7 0 13 -9 13 -20z"/>
<path d="M4936 451 c-4 -5 3 -7 14 -4 14 4 20 0 20 -11 0 -9 -8 -16 -17 -17
-13 0 -12 -3 5 -10 28 -11 24 -34 -7 -33 -11 0 -21 -3 -21 -8 0 -5 12 -8 28
-6 19 2 28 9 30 26 2 12 -2 22 -9 22 -9 0 -9 3 1 15 6 8 9 19 5 25 -8 12 -42
13 -49 1z"/>
<path d="M5010 435 c0 -14 2 -25 4 -25 2 0 6 11 8 25 3 14 1 25 -3 25 -5 0 -9
-11 -9 -25z"/>
<path d="M4653 253 c-4 -11 1 -22 15 -31 28 -19 30 -46 2 -39 -11 3 -20 1 -20
-4 0 -15 37 -10 51 7 12 14 10 19 -14 38 -32 26 -35 40 -7 33 11 -3 20 -1 20
4 0 16 -40 9 -47 -8z"/>
<path d="M4728 249 c-2 -6 -2 -26 0 -45 3 -24 9 -34 21 -33 10 0 11 2 4 6 -15
5 -18 50 -4 55 5 2 3 8 -4 15 -9 9 -15 9 -17 2z"/>
<path d="M4998 249 c-2 -6 -2 -26 0 -45 3 -24 9 -34 21 -33 10 0 11 2 4 6 -15
5 -18 50 -4 55 5 2 3 8 -4 15 -9 9 -15 9 -17 2z"/>
<path d="M4781 200 c1 -27 3 -29 6 -10 2 14 11 30 20 37 13 10 13 12 -6 10
-17 -1 -21 -7 -20 -37z"/>
<path d="M4841 226 c-21 -25 -9 -51 24 -53 18 -1 22 1 10 4 -34 9 -41 23 -11
23 21 0 27 4 24 17 -4 23 -31 28 -47 9z m39 -6 c0 -5 -9 -10 -21 -10 -11 0
-17 5 -14 10 3 6 13 10 21 10 8 0 14 -4 14 -10z"/>
<path d="M4921 226 c-21 -25 -9 -51 24 -53 18 -1 22 1 10 4 -34 9 -41 23 -11
23 21 0 27 4 24 17 -4 23 -31 28 -47 9z m39 -6 c0 -5 -9 -10 -21 -10 -11 0
-17 5 -14 10 3 6 13 10 21 10 8 0 14 -4 14 -10z"/>
<path d="M5564 446 c-9 -25 3 -46 27 -46 28 0 19 -23 -12 -31 -22 -6 -22 -7
-3 -8 30 -1 46 22 42 61 -2 25 -8 34 -26 36 -13 2 -25 -3 -28 -12z m44 -19 c2
-12 -3 -17 -17 -17 -12 0 -21 6 -21 13 0 31 32 34 38 4z"/>
<path d="M5647 453 c-2 -4 -4 -26 -3 -48 1 -36 4 -40 26 -40 23 0 25 4 25 45
0 38 -3 45 -22 48 -11 2 -23 0 -26 -5z m43 -12 c0 -14 -18 -23 -30 -16 -6 4
-8 11 -5 16 8 12 35 12 35 0z m0 -56 c0 -8 -9 -15 -20 -15 -11 0 -20 7 -20 15
0 8 9 15 20 15 11 0 20 -7 20 -15z"/>
<path d="M5743 453 c32 -5 32 -4 7 -53 -11 -22 -16 -40 -12 -40 5 0 19 23 30
50 l21 50 -37 -1 c-30 -2 -32 -3 -9 -6z"/>
<path d="M5808 435 c-22 -48 21 -97 52 -60 16 20 5 45 -20 45 -27 0 -26 18 3
30 l22 9 -23 0 c-15 1 -26 -8 -34 -24z m45 -31 c9 -10 -4 -34 -19 -34 -8 0
-14 9 -14 20 0 19 19 27 33 14z"/>
<path d="M5890 435 c0 -18 5 -25 20 -25 14 0 20 -7 20 -21 0 -17 -5 -20 -25
-17 -13 3 -22 1 -19 -3 8 -14 40 -10 54 6 10 12 10 18 0 30 -7 8 -19 15 -26
15 -23 0 -16 28 9 33 19 4 18 4 -5 6 -24 1 -28 -3 -28 -24z"/>
<path d="M5997 454 c-3 -4 -3 -19 0 -35 4 -24 2 -29 -13 -29 -14 0 -15 3 -6
12 7 7 12 17 12 23 -1 11 -30 -25 -30 -37 0 -4 9 -8 19 -8 11 0 22 -6 24 -12
10 -25 23 10 19 52 -4 38 -11 48 -25 34z"/>
<path d="M6056 451 c-3 -5 3 -7 14 -4 14 4 20 0 20 -10 0 -9 -8 -18 -17 -20
-17 -4 -17 -5 0 -6 26 -2 22 -39 -5 -44 -22 -4 -22 -4 -2 -6 26 -1 49 23 38
41 -5 7 -8 22 -9 33 0 21 -29 33 -39 16z"/>
<path d="M6136 451 c-4 -5 3 -7 14 -4 27 7 27 -27 0 -52 -28 -26 -25 -35 13
-34 22 1 25 3 10 6 -20 4 -21 5 -5 32 8 15 13 35 9 44 -7 18 -32 23 -41 8z"/>
<path d="M6219 443 c-12 -15 -12 -16 4 -10 14 5 17 1 17 -28 0 -24 -5 -35 -17
-38 -10 -3 -2 -5 17 -5 19 0 29 2 23 5 -8 3 -13 23 -13 49 0 47 -9 55 -31 27z"/>
<path d="M6638 460 c-25 -23 -22 -38 7 -52 30 -13 27 -33 -4 -32 -24 1 -26 -2
-9 -20 10 -10 15 -10 30 3 25 22 22 46 -8 59 -28 14 -22 37 8 29 16 -5 17 -3
6 11 -7 9 -12 18 -13 18 0 1 -8 -6 -17 -16z"/>
<path d="M6706 451 c-4 -5 2 -7 13 -4 30 8 33 -12 6 -51 l-24 -36 32 1 c23 1
26 3 10 6 l-23 4 22 29 c11 16 18 36 15 44 -7 17 -42 22 -51 7z"/>
<path d="M6831 446 c-7 -8 -11 -30 -9 -48 2 -28 7 -33 28 -33 46 0 54 84 8 93
-8 2 -20 -4 -27 -12z m39 -37 c0 -33 -3 -40 -17 -37 -32 6 -30 78 2 78 11 0
15 -11 15 -41z"/>
<path d="M6912 448 c-13 -13 -16 -47 -6 -72 7 -19 35 -21 52 -4 25 25 8 88
-23 88 -6 0 -16 -5 -23 -12z m43 -18 c8 -26 -3 -60 -20 -60 -8 0 -17 9 -20 20
-8 26 3 60 20 60 8 0 17 -9 20 -20z"/>
<path d="M6992 448 c-13 -13 -16 -47 -6 -72 7 -19 35 -21 52 -4 25 25 8 88
-23 88 -6 0 -16 -5 -23 -12z m43 -18 c8 -26 -3 -60 -20 -60 -8 0 -17 9 -20 20
-8 26 3 60 20 60 8 0 17 -9 20 -20z"/>
<path d="M6786 365 c-9 -26 -7 -32 5 -12 6 10 9 21 6 23 -2 3 -7 -2 -11 -11z"/>
<path d="M7487 425 c4 -28 2 -35 -11 -35 -18 0 -22 15 -6 25 6 3 10 12 10 18
-1 16 -30 -23 -30 -40 0 -7 9 -13 20 -13 11 0 20 -5 20 -10 0 -6 6 -5 14 2 8
7 10 15 5 16 -5 2 -9 19 -9 38 0 19 -4 34 -9 34 -6 0 -7 -16 -4 -35z"/>
<path d="M7530 436 c0 -18 6 -25 23 -28 12 -2 22 -10 22 -18 0 -9 -9 -15 -22
-14 -13 0 -23 -3 -23 -8 0 -5 12 -8 28 -6 35 4 45 46 13 55 -28 7 -27 30 2 36
16 3 13 5 -10 6 -29 1 -33 -2 -33 -23z"/>
<path d="M7620 439 c-24 -45 13 -101 45 -68 19 19 10 49 -16 49 -26 0 -24 19
4 30 l22 9 -22 0 c-13 1 -27 -8 -33 -20z m40 -49 c0 -23 -25 -27 -33 -6 -7 16
1 26 20 26 7 0 13 -9 13 -20z"/>
<path d="M8600 415 c0 -54 0 -55 30 -55 23 0 31 5 36 24 7 31 -1 46 -27 46
-12 0 -19 7 -19 20 0 11 -4 20 -10 20 -5 0 -10 -25 -10 -55z m55 -20 c0 -11
-8 -21 -17 -23 -14 -3 -18 3 -18 23 0 20 4 26 18 23 9 -2 17 -12 17 -23z"/>
<path d="M8500 429 c0 -40 16 -69 38 -69 29 0 42 21 41 65 -1 24 -3 30 -6 15
-9 -60 -14 -70 -33 -70 -17 0 -20 7 -20 45 0 25 -4 45 -10 45 -5 0 -10 -14
-10 -31z"/>
<path d="M8691 411 c-14 -25 8 -55 35 -48 17 4 16 5 -3 6 -32 1 -29 21 3 21
20 0 25 4 20 16 -3 9 -6 18 -6 20 0 13 -41 1 -49 -15z m44 -1 c3 -5 -3 -10
-14 -10 -12 0 -21 5 -21 10 0 6 6 10 14 10 8 0 18 -4 21 -10z"/>
<path d="M8771 390 c1 -27 3 -29 6 -10 2 14 11 30 20 37 13 10 13 12 -6 10
-17 -1 -21 -7 -20 -37z"/>
<path d="M9941 443 c1 -23 3 -29 6 -15 2 12 9 22 14 22 5 0 10 -10 10 -22 1
-19 2 -20 6 -5 3 11 -4 27 -16 38 l-21 20 1 -38z"/>
<path d="M9908 465 c-7 -7 3 -55 11 -55 8 0 7 47 -1 55 -2 3 -7 3 -10 0z"/>
<path d="M9572 453 l27 -4 -19 -45 c-11 -24 -16 -44 -12 -44 7 0 42 78 42 93
0 4 -15 6 -32 6 -30 -2 -30 -2 -6 -6z"/>
<path d="M9637 453 c-2 -4 -4 -26 -3 -48 1 -36 4 -40 26 -40 23 0 25 4 25 45
0 38 -3 45 -22 48 -11 2 -23 0 -26 -5z m43 -12 c0 -14 -18 -23 -30 -16 -6 4
-8 11 -5 16 8 12 35 12 35 0z m0 -56 c0 -8 -9 -15 -20 -15 -11 0 -20 7 -20 15
0 8 9 15 20 15 11 0 20 -7 20 -15z"/>
<path d="M9714 446 c-9 -25 3 -46 27 -46 28 0 19 -23 -12 -31 -22 -6 -22 -7
-3 -8 30 -1 46 22 42 61 -2 25 -8 34 -26 36 -13 2 -25 -3 -28 -12z m46 -16 c0
-21 -24 -28 -35 -10 -8 14 3 30 21 30 8 0 14 -9 14 -20z"/>
<path d="M9830 436 c0 -18 6 -25 23 -28 12 -2 22 -10 22 -18 0 -9 -9 -15 -22
-14 -13 0 -23 -3 -23 -8 0 -5 12 -8 28 -6 35 4 45 46 13 55 -28 7 -27 30 2 36
16 3 13 5 -10 6 -29 1 -33 -2 -33 -23z"/>
<path d="M10033 444 c-6 -16 13 -38 40 -47 19 -6 -5 -29 -24 -24 -11 3 -17 1
-13 -4 9 -15 44 -10 51 8 4 11 -3 24 -22 39 l-29 23 24 10 c25 10 25 10 2 10
-12 1 -25 -6 -29 -15z"/>
<path d="M10108 437 c-7 -21 6 -70 20 -73 7 -1 8 0 2 3 -12 6 -13 50 -1 55 5
2 3 8 -4 15 -10 9 -14 9 -17 0z"/>
<path d="M10378 437 c-7 -21 6 -70 20 -73 7 -1 8 0 2 3 -12 6 -13 50 -1 55 5
2 3 8 -4 15 -10 9 -14 9 -17 0z"/>
<path d="M10161 390 c1 -27 3 -29 6 -10 2 14 11 30 20 37 13 10 13 12 -6 10
-17 -1 -21 -7 -20 -37z"/>
<path d="M10221 411 c-14 -25 8 -55 35 -48 17 4 16 5 -3 6 -32 1 -29 21 3 21
20 0 25 4 20 16 -3 9 -6 18 -6 20 0 13 -41 1 -49 -15z m44 -1 c3 -5 -3 -10
-14 -10 -12 0 -21 5 -21 10 0 6 6 10 14 10 8 0 18 -4 21 -10z"/>
<path d="M10299 414 c-17 -21 0 -48 32 -51 23 -1 23 -1 2 4 -31 6 -29 23 2 23
27 0 32 9 13 28 -16 16 -33 15 -49 -4z m41 -4 c0 -5 -7 -10 -15 -10 -8 0 -15
5 -15 10 0 6 7 10 15 10 8 0 15 -4 15 -10z"/>
<path d="M10604 446 c-9 -25 3 -46 27 -46 28 0 19 -23 -12 -31 -22 -6 -22 -7
-3 -8 30 -1 46 22 42 61 -2 25 -8 34 -26 36 -13 2 -25 -3 -28 -12z m44 -19 c2
-12 -3 -17 -17 -17 -12 0 -21 6 -21 13 0 31 32 34 38 4z"/>
<path d="M10687 453 c-2 -4 -4 -26 -3 -48 1 -36 4 -40 26 -40 23 0 25 4 25 45
0 38 -3 45 -22 48 -11 2 -23 0 -26 -5z m43 -12 c0 -14 -18 -23 -30 -16 -6 4
-8 11 -5 16 8 12 35 12 35 0z m0 -56 c0 -8 -9 -15 -20 -15 -11 0 -20 7 -20 15
0 8 9 15 20 15 11 0 20 -7 20 -15z"/>
<path d="M10783 453 c32 -5 32 -4 7 -53 -11 -22 -16 -40 -12 -40 5 0 19 23 30
50 l21 50 -37 -1 c-30 -2 -32 -3 -9 -6z"/>
<path d="M10848 435 c-22 -48 21 -97 52 -60 16 20 5 45 -20 45 -27 0 -26 18 3
30 l22 9 -23 0 c-15 1 -26 -8 -34 -24z m45 -31 c9 -10 -4 -34 -19 -34 -8 0
-14 9 -14 20 0 19 19 27 33 14z"/>
<path d="M10930 435 c0 -18 5 -25 20 -25 14 0 20 -7 20 -21 0 -17 -5 -20 -25
-17 -13 3 -22 1 -19 -3 8 -14 40 -10 54 6 10 12 10 18 0 30 -7 8 -19 15 -26
15 -23 0 -16 28 9 33 19 4 18 4 -5 6 -24 1 -28 -3 -28 -24z"/>
<path d="M11669 443 c-12 -15 -12 -16 4 -10 14 5 17 1 17 -28 0 -24 -5 -35
-17 -38 -10 -3 -2 -5 17 -5 19 0 29 2 23 5 -8 3 -13 23 -13 49 0 47 -9 55 -31
27z"/>
<path d="M11744 446 c-3 -8 -4 -29 -2 -48 2 -25 8 -34 25 -36 31 -5 51 37 35
73 -13 27 -49 34 -58 11z m46 -37 c0 -33 -3 -40 -17 -37 -32 6 -30 78 2 78 11
0 15 -11 15 -41z"/>
<path d="M11824 446 c-9 -25 3 -46 27 -46 28 0 19 -23 -12 -31 -22 -6 -22 -7
-3 -8 30 -1 46 22 42 61 -2 25 -8 34 -26 36 -13 2 -25 -3 -28 -12z m46 -16 c0
-21 -24 -28 -35 -10 -8 14 3 30 21 30 8 0 14 -9 14 -20z"/>
<path d="M11904 445 c-9 -24 3 -45 27 -45 28 0 19 -23 -12 -31 -20 -6 -21 -7
-4 -8 11 0 25 3 31 7 18 12 26 50 14 72 -13 23 -48 27 -56 5z m46 -15 c0 -21
-24 -28 -35 -10 -8 14 3 30 21 30 8 0 14 -9 14 -20z"/>
</g>
</svg>
