<svg xmlns="http://www.w3.org/2000/svg" xmlns:xlink="http://www.w3.org/1999/xlink" xmlns:lucid="lucid" width="440" height="162.8"><g transform="translate(-300 -337.1993762803116)" lucid:page-tab-id="l3frPZf3_jI8"><path d="M0 0h1760v1360H0z" fill="#fff"/><path d="M400 440c0 22.1-17.9 40-40 40s-40-17.9-40-40 17.9-40 40-40 40 17.9 40 40z" stroke="#000" stroke-width="2" fill="#fff"/><use xlink:href="#a" transform="matrix(1,0,0,1,325,405) translate(29 38.4625)"/><path d="M560 440c0 22.1-17.9 40-40 40s-40-17.9-40-40 17.9-40 40-40 40 17.9 40 40z" stroke="#000" stroke-width="2" fill="#fff"/><use xlink:href="#b" transform="matrix(1,0,0,1,485,405) translate(29 38.4625)"/><path d="M720 440c0 22.1-17.9 40-40 40s-40-17.9-40-40 17.9-40 40-40 40 17.9 40 40z" stroke="#000" stroke-width="2" fill="#fff"/><use xlink:href="#c" transform="matrix(1,0,0,1,645,405) translate(29 38.4625)"/><path d="M425.67 441H402v-2h23.67zm34.83 0h-24.83v-2h24.83z"/><path d="M402.03 441h-1.1l.07-1-.03-1h1.06zM475.76 440l-14.26 4.64v-9.28z"/><path d="M479 440l-18.5 6v-12zm-16.5 3.26l10.03-3.26-10.03-3.26z"/><use xlink:href="#d" transform="matrix(1,0,0,1,425.6666666666667,429.2) translate(0 14.4)"/><path d="M585.67 441H562v-2h23.67zm34.83 0h-24.83v-2h24.83z"/><path d="M562.03 441h-1.1l.07-1-.03-1h1.06zM635.76 440l-14.26 4.64v-9.28z"/><path d="M639 440l-18.5 6v-12zm-16.5 3.26l10.03-3.26-10.03-3.26z"/><use xlink:href="#e" transform="matrix(1,0,0,1,585.6666666666666,429.2) translate(0 14.4)"/><path d="M681 398h-2v-38h-74v-2h76zm-86-38h-74v20.5h-2V358h76z"/><path d="M681 399.06l-1-.06-1 .03v-1.06h2zM520 395.76l-4.64-14.26h9.28z"/><path d="M520 399l-6-18.5h12zm-3.26-16.5l3.26 10.03 3.26-10.03z"/><use xlink:href="#f" transform="matrix(1,0,0,1,595,348.1993762803116) translate(0 14.4)"/><defs><path d="M185-189c-5-48-123-54-124 2 14 75 158 14 163 119 3 78-121 87-175 55-17-10-28-26-33-46l33-7c5 56 141 63 141-1 0-78-155-14-162-118-5-82 145-84 179-34 5 7 8 16 11 25" id="g"/><use transform="matrix(0.05,0,0,0.05,0,0)" xlink:href="#g" id="a"/><path d="M205 0l-28-72H64L36 0H1l101-248h38L239 0h-34zm-38-99l-47-123c-12 45-31 82-46 123h93" id="h"/><use transform="matrix(0.05,0,0,0.05,0,0)" xlink:href="#h" id="b"/><path d="M30-248c87 1 191-15 191 75 0 78-77 80-158 76V0H30v-248zm33 125c57 0 124 11 124-50 0-59-68-47-124-48v98" id="i"/><use transform="matrix(0.05,0,0,0.05,0,0)" xlink:href="#i" id="c"/><path d="M27 0v-27h64v-190l-56 39v-29l58-41h29v221h61V0H27" id="j"/><use transform="matrix(0.05,0,0,0.05,0,0)" xlink:href="#j" id="d"/><path d="M101-251c82-7 93 87 43 132L82-64C71-53 59-42 53-27h129V0H18c2-99 128-94 128-182 0-28-16-43-45-43s-46 15-49 41l-32-3c6-41 34-60 81-64" id="k"/><use transform="matrix(0.05,0,0,0.05,0,0)" xlink:href="#k" id="e"/><path d="M126-127c33 6 58 20 58 59 0 88-139 92-164 29-3-8-5-16-6-25l32-3c6 27 21 44 54 44 32 0 52-15 52-46 0-38-36-46-79-43v-28c39 1 72-4 72-42 0-27-17-43-46-43-28 0-47 15-49 41l-32-3c6-42 35-63 81-64 48-1 79 21 79 65 0 36-21 52-52 59" id="l"/><use transform="matrix(0.05,0,0,0.05,0,0)" xlink:href="#l" id="f"/></defs></g></svg>