<svg xmlns="http://www.w3.org/2000/svg" xmlns:xlink="http://www.w3.org/1999/xlink" xmlns:lucid="lucid" width="760" height="920"><g transform="translate(-80 20)" lucid:page-tab-id="fLbpQZK6Iy1O"><path d="M0 0h1760v1360H0z" fill="#fff"/><path d="M712 0c4.42 0 8 3.58 8 8v64c0 4.42-3.58 8-8 8H568c-4.42 0-8-3.58-8-8V8c0-4.42 3.58-8 8-8zM612 140c4.42 0 8 3.58 8 8v64c0 4.42-3.58 8-8 8H468c-4.42 0-8-3.58-8-8v-64c0-4.42 3.58-8 8-8zM812 140c4.42 0 8 3.58 8 8v64c0 4.42-3.58 8-8 8H668c-4.42 0-8-3.58-8-8v-64c0-4.42 3.58-8 8-8z" stroke="#000" stroke-width="2" fill="#fff"/><use xlink:href="#a" transform="matrix(1,0,0,1,680,140) translate(37.525 43.6)"/><path d="M640 82v28H540v10.5" stroke="#000" stroke-width="2" fill="none"/><path d="M641 82.03h-2V81h2z"/><path d="M540 135.76l-4.64-14.26h9.28z" stroke="#000" stroke-width="2"/><path d="M640 82v28h100v10.5" stroke="#000" stroke-width="2" fill="none"/><path d="M641 82.03h-2V81h2z"/><path d="M740 135.76l-4.64-14.26h9.28z" stroke="#000" stroke-width="2"/><path d="M511.9 279c4.47 0 8.1 3.63 8.1 8.1v64.8c0 4.47-3.63 8.1-8.1 8.1H348.1c-4.47 0-8.1-3.63-8.1-8.1v-64.8c0-4.47 3.63-8.1 8.1-8.1z" stroke="#000" stroke-width="2" fill="#fff"/><path d="M540 222v27.5H430v10" stroke="#000" stroke-width="2" fill="none"/><path d="M541 222.03h-2V221h2z"/><path d="M430 274.76l-4.64-14.26h9.28z" stroke="#000" stroke-width="2"/><path d="M712 280c4.42 0 8 3.58 8 8v64c0 4.42-3.58 8-8 8H568c-4.42 0-8-3.58-8-8v-64c0-4.42 3.58-8 8-8z" stroke="#000" stroke-width="2" fill="#fff"/><use xlink:href="#a" transform="matrix(1,0,0,1,580,280) translate(37.525 43.6)"/><path d="M540 222v28h100v10.5" stroke="#000" stroke-width="2" fill="none"/><path d="M541 222.03h-2V221h2z"/><path d="M640 275.76l-4.64-14.26h9.28z" stroke="#000" stroke-width="2"/><path d="M412 420c4.42 0 8 3.58 8 8v64c0 4.42-3.58 8-8 8H268c-4.42 0-8-3.58-8-8v-64c0-4.42 3.58-8 8-8z" stroke="#000" stroke-width="2" fill="#fff"/><use xlink:href="#b" transform="matrix(1,0,0,1,280,420) translate(34.025 32.8)"/><use xlink:href="#c" transform="matrix(1,0,0,1,280,420) translate(29.549999999999997 54.4)"/><path d="M430 362v28h-90v10.5" stroke="#000" stroke-width="2" fill="none"/><path d="M431 362.03h-2V361h2z"/><path d="M340 415.76l-4.64-14.26h9.28z" stroke="#000" stroke-width="2"/><path d="M612 420c4.42 0 8 3.58 8 8v64c0 4.42-3.58 8-8 8H468c-4.42 0-8-3.58-8-8v-64c0-4.42 3.58-8 8-8z" stroke="#000" stroke-width="2" fill="#fff"/><use xlink:href="#a" transform="matrix(1,0,0,1,480,420) translate(37.525 43.6)"/><path d="M430 362v28h110v10.5" stroke="#000" stroke-width="2" fill="none"/><path d="M431 362.03h-2V361h2z"/><path d="M540 415.76l-4.64-14.26h9.28z" stroke="#000" stroke-width="2"/><path d="M520 10h240v60H520z" stroke="#000" stroke-opacity="0" stroke-width="2" fill="#fff" fill-opacity="0"/><use xlink:href="#d" transform="matrix(1,0,0,1,525,15) translate(74.05 17.525)"/><use xlink:href="#e" transform="matrix(1,0,0,1,525,15) translate(98.94999999999999 17.525)"/><use xlink:href="#f" transform="matrix(1,0,0,1,525,15) translate(84.55 39.125)"/><path d="M100 700h180v180H100z" fill="#fff"/><path d="M120 700h20m10 0h20m10 0h20m10 0h20m10 0h20m10 0h10v10m0 10v20m0 10v20m0 10v20m0 10v20m0 10v20m0 10v10h-10m-10 0h-20m-10 0h-20m-10 0h-20m-10 0h-20m-10 0h-20m-10 0h-10v-10m0-10v-20m0-10v-20m0-10v-20m0-10v-20m0-10v-20m0-10v-10h10" stroke="#000" stroke-width="2" fill="none"/><path d="M100 720h180v99H100z" stroke="#000" stroke-opacity="0" stroke-width="2" fill="#fff" fill-opacity="0"/><use xlink:href="#g" transform="matrix(1,0,0,1,105,725) translate(38.525 14.4)"/><use xlink:href="#h" transform="matrix(1,0,0,1,105,725) translate(53.525 14.4)"/><use xlink:href="#i" transform="matrix(1,0,0,1,105,725) translate(85 36)"/><use xlink:href="#j" transform="matrix(1,0,0,1,105,725) translate(25.574999999999996 57.6)"/><use xlink:href="#k" transform="matrix(1,0,0,1,105,725) translate(74.57499999999999 57.6)"/><use xlink:href="#l" transform="matrix(1,0,0,1,105,725) translate(1.625 79.20000000000002)"/><use xlink:href="#m" transform="matrix(1,0,0,1,105,725) translate(55.575 79.20000000000002)"/><use xlink:href="#n" transform="matrix(1,0,0,1,105,725) translate(122.47500000000001 79.20000000000002)"/><use xlink:href="#o" transform="matrix(1,0,0,1,105,725) translate(72.025 100.80000000000001)"/><use xlink:href="#i" transform="matrix(1,0,0,1,105,725) translate(85 122.4)"/><use xlink:href="#p" transform="matrix(1,0,0,1,105,725) translate(23.5 144)"/><path d="M320 700h180v180H320z" fill="#fff"/><path d="M340 700h20m10 0h20m10 0h20m10 0h20m10 0h20m10 0h10v10m0 10v20m0 10v20m0 10v20m0 10v20m0 10v20m0 10v10h-10m-10 0h-20m-10 0h-20m-10 0h-20m-10 0h-20m-10 0h-20m-10 0h-10v-10m0-10v-20m0-10v-20m0-10v-20m0-10v-20m0-10v-20m0-10v-10h10" stroke="#000" stroke-width="2" fill="none"/><path d="M320 709.4h180v161.2H320z" stroke="#000" stroke-opacity="0" stroke-width="2" fill="#fff" fill-opacity="0"/><use xlink:href="#g" transform="matrix(1,0,0,1,325,714.4) translate(38.525 14.4)"/><use xlink:href="#h" transform="matrix(1,0,0,1,325,714.4) translate(53.525 14.4)"/><use xlink:href="#i" transform="matrix(1,0,0,1,325,714.4) translate(85 36)"/><use xlink:href="#q" transform="matrix(1,0,0,1,325,714.4) translate(18.625 57.6)"/><use xlink:href="#k" transform="matrix(1,0,0,1,325,714.4) translate(81.525 57.6)"/><use xlink:href="#l" transform="matrix(1,0,0,1,325,714.4) translate(1.625 79.20000000000002)"/><use xlink:href="#m" transform="matrix(1,0,0,1,325,714.4) translate(55.575 79.20000000000002)"/><use xlink:href="#n" transform="matrix(1,0,0,1,325,714.4) translate(122.47500000000001 79.20000000000002)"/><use xlink:href="#o" transform="matrix(1,0,0,1,325,714.4) translate(72.025 100.80000000000001)"/><use xlink:href="#i" transform="matrix(1,0,0,1,325,714.4) translate(85 122.4)"/><use xlink:href="#r" transform="matrix(1,0,0,1,325,714.4) translate(23.5 144)"/><path d="M540 700h180v180H540z" stroke="#000" stroke-width="2" fill="#fff"/><path d="M510 709.4h240v161.2H510z" stroke="#000" stroke-opacity="0" stroke-width="2" fill="#fff" fill-opacity="0"/><use xlink:href="#s" transform="matrix(1,0,0,1,515,714.4) translate(73.525 14.4)"/><use xlink:href="#t" transform="matrix(1,0,0,1,515,714.4) translate(88.525 14.4)"/><use xlink:href="#i" transform="matrix(1,0,0,1,515,714.4) translate(115 36)"/><use xlink:href="#u" transform="matrix(1,0,0,1,515,714.4) translate(28.125 57.6)"/><use xlink:href="#v" transform="matrix(1,0,0,1,515,714.4) translate(143.97500000000002 57.6)"/><use xlink:href="#w" transform="matrix(1,0,0,1,515,714.4) translate(53.099999999999994 79.20000000000002)"/><use xlink:href="#x" transform="matrix(1,0,0,1,515,714.4) translate(127.95 79.20000000000002)"/><use xlink:href="#i" transform="matrix(1,0,0,1,515,714.4) translate(115 100.80000000000001)"/><use xlink:href="#i" transform="matrix(1,0,0,1,515,714.4) translate(115 122.4)"/><use xlink:href="#y" transform="matrix(1,0,0,1,515,714.4) translate(90.5 144)"/><path d="M420 141.76h240v76.48H420z" stroke="#000" stroke-opacity="0" stroke-width="2" fill="#fff" fill-opacity="0"/><g><use xlink:href="#z" transform="matrix(1,0,0,1,425,146.75963541666667) translate(37.650000000000006 16.49375)"/><use xlink:href="#A" transform="matrix(1,0,0,1,425,146.75963541666667) translate(79.525 38.09375)"/><use xlink:href="#B" transform="matrix(1,0,0,1,425,146.75963541666667) translate(84.55 59.69375)"/></g><path d="M309.68 285.2h240.65V360H309.67z" fill="#fff" fill-opacity="0"/><g><use xlink:href="#C" transform="matrix(1,0,0,1,314.675,290.2) translate(55.62499999999999 14.4)"/><use xlink:href="#D" transform="matrix(1,0,0,1,314.675,290.2) translate(80.025 36)"/><use xlink:href="#E" transform="matrix(1,0,0,1,314.675,290.2) translate(85.05 57.6)"/></g><path d="M312 559.3c4.42 0 8 3.58 8 8v64c0 4.42-3.58 8-8 8H168c-4.42 0-8-3.58-8-8v-64c0-4.42 3.58-8 8-8z" stroke="#000" stroke-width="2" fill="#fff"/><g><use xlink:href="#F" transform="matrix(1,0,0,1,180,559.3) translate(24.549999999999997 22)"/><use xlink:href="#G" transform="matrix(1,0,0,1,180,559.3) translate(35.525 43.6)"/><use xlink:href="#H" transform="matrix(1,0,0,1,180,559.3) translate(29.549999999999997 65.2)"/></g><path d="M512 559.3c4.42 0 8 3.58 8 8v64c0 4.42-3.58 8-8 8H368c-4.42 0-8-3.58-8-8v-64c0-4.42 3.58-8 8-8z" stroke="#000" stroke-width="2" fill="#fff"/><g><use xlink:href="#a" transform="matrix(1,0,0,1,380,559.3) translate(37.525 43.6)"/></g><path d="M340 502v27.65H240v10.15" stroke="#000" stroke-width="2" fill="none"/><path d="M341 502.03h-2V501h2z"/><path d="M240 555.06l-4.64-14.26h9.28z" stroke="#000" stroke-width="2"/><path d="M340 502v27.65h100v10.15" stroke="#000" stroke-width="2" fill="none"/><path d="M341 502.03h-2V501h2z"/><path d="M440 555.06l-4.64-14.26h9.28z" stroke="#000" stroke-width="2"/><path d="M240 641.3v28.35h-50v10.85" stroke="#000" stroke-width="2" fill="none"/><path d="M241 641.33h-2v-1.03h2z"/><path d="M190 695.76l-4.64-14.26h9.28z" stroke="#000" stroke-width="2"/><path d="M240 641.3V670h390v20.9" stroke="#000" stroke-width="2" fill="none"/><path d="M241 641.33h-2v-1.03h2z"/><path d="M630 706.16l-4.64-14.26h9.28z" stroke="#000" stroke-width="2"/><path d="M431.33 680.5v-10.85H240V641.3" stroke="#000" stroke-width="2" fill="none"/><path d="M431.33 695.76l-4.63-14.26h9.27z" stroke="#000" stroke-width="2"/><path d="M241 641.33h-2v-1.03h2z"/><defs><path d="M140-251c81 0 123 46 123 126C263-46 219 4 140 4 59 4 17-45 17-125s42-126 123-126zm0 227c63 0 89-41 89-101s-29-99-89-99c-61 0-89 39-89 99S79-25 140-24" id="I"/><path d="M59-47c-2 24 18 29 38 22v24C64 9 27 4 27-40v-127H5v-23h24l9-43h21v43h35v23H59v120" id="J"/><path d="M106-169C34-169 62-67 57 0H25v-261h32l-1 103c12-21 28-36 61-36 89 0 53 116 60 194h-32v-121c2-32-8-49-39-48" id="K"/><path d="M100-194c63 0 86 42 84 106H49c0 40 14 67 53 68 26 1 43-12 49-29l28 8c-11 28-37 45-77 45C44 4 14-33 15-96c1-61 26-98 85-98zm52 81c6-60-76-77-97-28-3 7-6 17-6 28h103" id="L"/><path d="M114-163C36-179 61-72 57 0H25l-1-190h30c1 12-1 29 2 39 6-27 23-49 58-41v29" id="M"/><g id="a"><use transform="matrix(0.05,0,0,0.05,0,0)" xlink:href="#I"/><use transform="matrix(0.05,0,0,0.05,14,0)" xlink:href="#J"/><use transform="matrix(0.05,0,0,0.05,19,0)" xlink:href="#K"/><use transform="matrix(0.05,0,0,0.05,29,0)" xlink:href="#L"/><use transform="matrix(0.05,0,0,0.05,39,0)" xlink:href="#M"/></g><path d="M185-189c-5-48-123-54-124 2 14 75 158 14 163 119 3 78-121 87-175 55-17-10-28-26-33-46l33-7c5 56 141 63 141-1 0-78-155-14-162-118-5-82 145-84 179-34 5 7 8 16 11 25" id="N"/><path d="M100-194c62-1 85 37 85 99 1 63-27 99-86 99S16-35 15-95c0-66 28-99 85-99zM99-20c44 1 53-31 53-75 0-43-8-75-51-75s-53 32-53 75 10 74 51 75" id="O"/><path d="M143 0L79-87 56-68V0H24v-261h32v163l83-92h37l-77 82L181 0h-38" id="P"/><g id="b"><use transform="matrix(0.05,0,0,0.05,0,0)" xlink:href="#N"/><use transform="matrix(0.05,0,0,0.05,12,0)" xlink:href="#J"/><use transform="matrix(0.05,0,0,0.05,17,0)" xlink:href="#M"/><use transform="matrix(0.05,0,0,0.05,22.95,0)" xlink:href="#O"/><use transform="matrix(0.05,0,0,0.05,32.95,0)" xlink:href="#P"/><use transform="matrix(0.05,0,0,0.05,41.95,0)" xlink:href="#L"/></g><path d="M87 75C49 33 22-17 22-94c0-76 28-126 65-167h31c-38 41-64 92-64 168S80 34 118 75H87" id="Q"/><path d="M96-169c-40 0-48 33-48 73s9 75 48 75c24 0 41-14 43-38l32 2c-6 37-31 61-74 61-59 0-76-41-82-99-10-93 101-131 147-64 4 7 5 14 7 22l-32 3c-4-21-16-35-41-35" id="R"/><path d="M-5 72V49h209v23H-5" id="S"/><path d="M155-56V0h-30v-56H8v-25l114-167h33v167h35v25h-35zm-30-156c-27 46-58 90-88 131h88v-131" id="T"/><path d="M99-251c64 0 84 50 84 122C183-37 130 33 47-8c-14-7-20-23-25-40l30-5c6 39 69 39 84 7 9-19 16-44 16-74-10 22-31 35-62 35-49 0-73-33-73-83 0-54 28-83 82-83zm-1 141c31-1 51-18 51-49 0-36-14-67-51-67-34 0-49 23-49 58 0 34 15 58 49 58" id="U"/><path d="M33-261c38 41 65 92 65 168S71 34 33 75H2C39 34 66-17 66-93S39-220 2-261h31" id="V"/><g id="c"><use transform="matrix(0.05,0,0,0.05,0,0)" xlink:href="#Q"/><use transform="matrix(0.05,0,0,0.05,5.95,0)" xlink:href="#R"/><use transform="matrix(0.05,0,0,0.05,14.949999999999998,0)" xlink:href="#S"/><use transform="matrix(0.05,0,0,0.05,24.95,0)" xlink:href="#T"/><use transform="matrix(0.05,0,0,0.05,34.95,0)" xlink:href="#U"/><use transform="matrix(0.05,0,0,0.05,44.95,0)" xlink:href="#T"/><use transform="matrix(0.05,0,0,0.05,54.95,0)" xlink:href="#V"/></g><path d="M205 0l-28-72H64L36 0H1l101-248h38L239 0h-34zm-38-99l-47-123c-12 45-31 82-46 123h93" id="W"/><path d="M24 0v-261h32V0H24" id="X"/><g id="d"><use transform="matrix(0.05,0,0,0.05,0,0)" xlink:href="#W"/><use transform="matrix(0.05,0,0,0.05,12,0)" xlink:href="#X"/><use transform="matrix(0.05,0,0,0.05,15.949999999999998,0)" xlink:href="#X"/></g><path d="M141-36C126-15 110 5 73 4 37 3 15-17 15-53c-1-64 63-63 125-63 3-35-9-54-41-54-24 1-41 7-42 31l-33-3c5-37 33-52 76-52 45 0 72 20 72 64v82c-1 20 7 32 28 27v20c-31 9-61-2-59-35zM48-53c0 20 12 33 32 33 41-3 63-29 60-74-43 2-92-5-92 41" id="Y"/><path d="M84 4C-5 8 30-112 23-190h32v120c0 31 7 50 39 49 72-2 45-101 50-169h31l1 190h-30c-1-10 1-25-2-33-11 22-28 36-60 37" id="Z"/><path d="M135-143c-3-34-86-38-87 0 15 53 115 12 119 90S17 21 10-45l28-5c4 36 97 45 98 0-10-56-113-15-118-90-4-57 82-63 122-42 12 7 21 19 24 35" id="aa"/><g id="e"><use transform="matrix(0.05,0,0,0.05,0,0)" xlink:href="#R"/><use transform="matrix(0.05,0,0,0.05,9,0)" xlink:href="#Y"/><use transform="matrix(0.05,0,0,0.05,19,0)" xlink:href="#Z"/><use transform="matrix(0.05,0,0,0.05,29,0)" xlink:href="#aa"/><use transform="matrix(0.05,0,0,0.05,38,0)" xlink:href="#L"/><use transform="matrix(0.05,0,0,0.05,48,0)" xlink:href="#aa"/></g><path d="M101-251c82-7 93 87 43 132L82-64C71-53 59-42 53-27h129V0H18c2-99 128-94 128-182 0-28-16-43-45-43s-46 15-49 41l-32-3c6-41 34-60 81-64" id="ab"/><g id="f"><use transform="matrix(0.05,0,0,0.05,0,0)" xlink:href="#Q"/><use transform="matrix(0.05,0,0,0.05,5.95,0)" xlink:href="#R"/><use transform="matrix(0.05,0,0,0.05,14.949999999999998,0)" xlink:href="#S"/><use transform="matrix(0.05,0,0,0.05,24.95,0)" xlink:href="#ab"/><use transform="matrix(0.05,0,0,0.05,34.95,0)" xlink:href="#U"/><use transform="matrix(0.05,0,0,0.05,44.95,0)" xlink:href="#T"/><use transform="matrix(0.05,0,0,0.05,54.95,0)" xlink:href="#V"/></g><path d="M54-142c48-35 137-8 131 61C196 18 31 33 14-55l32-4c7 23 22 37 52 37 35-1 51-22 54-58 4-55-73-65-99-34H22l8-134h141v27H59" id="ac"/><use transform="matrix(0.05,0,0,0.05,0,0)" xlink:href="#ac" id="g"/><path d="M145-31C134-9 116 4 85 4 32 4 16-35 15-94c0-59 17-99 70-100 32-1 48 14 60 33 0-11-1-24 2-32h30l-1 268h-32zM93-21c41 0 51-33 51-76s-8-73-50-73c-40 0-46 35-46 75s5 74 45 74" id="ad"/><path d="M33-154v-36h34v36H33zM33 0v-36h34V0H33" id="ae"/><g id="h"><use transform="matrix(0.05,0,0,0.05,0,0)" xlink:href="#aa"/><use transform="matrix(0.05,0,0,0.05,9,0)" xlink:href="#L"/><use transform="matrix(0.05,0,0,0.05,19,0)" xlink:href="#ad"/><use transform="matrix(0.05,0,0,0.05,29,0)" xlink:href="#Z"/><use transform="matrix(0.05,0,0,0.05,39,0)" xlink:href="#L"/><use transform="matrix(0.05,0,0,0.05,49,0)" xlink:href="#X"/><use transform="matrix(0.05,0,0,0.05,52.95,0)" xlink:href="#Y"/><use transform="matrix(0.05,0,0,0.05,62.95,0)" xlink:href="#L"/><use transform="matrix(0.05,0,0,0.05,72.95,0)" xlink:href="#ae"/></g><g id="j"><use transform="matrix(0.05,0,0,0.05,0,0)" xlink:href="#Y"/><use transform="matrix(0.05,0,0,0.05,10,0)" xlink:href="#R"/><use transform="matrix(0.05,0,0,0.05,19,0)" xlink:href="#Z"/><use transform="matrix(0.05,0,0,0.05,29,0)" xlink:href="#J"/><use transform="matrix(0.05,0,0,0.05,34,0)" xlink:href="#L"/></g><path d="M24-231v-30h32v30H24zM24 0v-190h32V0H24" id="af"/><path d="M210-169c-67 3-38 105-44 169h-31v-121c0-29-5-50-35-48C34-165 62-65 56 0H25l-1-190h30c1 10-1 24 2 32 10-44 99-50 107 0 11-21 27-35 58-36 85-2 47 119 55 194h-31v-121c0-29-5-49-35-48" id="ag"/><g id="k"><use transform="matrix(0.05,0,0,0.05,0,0)" xlink:href="#af"/><use transform="matrix(0.05,0,0,0.05,3.95,0)" xlink:href="#aa"/><use transform="matrix(0.05,0,0,0.05,12.949999999999998,0)" xlink:href="#R"/><use transform="matrix(0.05,0,0,0.05,21.95,0)" xlink:href="#K"/><use transform="matrix(0.05,0,0,0.05,31.950000000000003,0)" xlink:href="#L"/><use transform="matrix(0.05,0,0,0.05,41.95,0)" xlink:href="#ag"/><use transform="matrix(0.05,0,0,0.05,56.900000000000006,0)" xlink:href="#af"/><use transform="matrix(0.05,0,0,0.05,60.85,0)" xlink:href="#R"/></g><g id="l"><use transform="matrix(0.05,0,0,0.05,0,0)" xlink:href="#aa"/><use transform="matrix(0.05,0,0,0.05,9,0)" xlink:href="#J"/><use transform="matrix(0.05,0,0,0.05,14,0)" xlink:href="#M"/><use transform="matrix(0.05,0,0,0.05,19.95,0)" xlink:href="#O"/><use transform="matrix(0.05,0,0,0.05,29.950000000000003,0)" xlink:href="#P"/><use transform="matrix(0.05,0,0,0.05,38.95,0)" xlink:href="#L"/></g><path d="M108 0H70L1-190h34L89-25l56-165h34" id="ah"/><path d="M179-190L93 31C79 59 56 82 12 73V49c39 6 53-20 64-50L1-190h34L92-34l54-156h33" id="ai"/><g id="m"><use transform="matrix(0.05,0,0,0.05,0,0)" xlink:href="#aa"/><use transform="matrix(0.05,0,0,0.05,9,0)" xlink:href="#L"/><use transform="matrix(0.05,0,0,0.05,19,0)" xlink:href="#ah"/><use transform="matrix(0.05,0,0,0.05,28,0)" xlink:href="#L"/><use transform="matrix(0.05,0,0,0.05,38,0)" xlink:href="#M"/><use transform="matrix(0.05,0,0,0.05,43.95,0)" xlink:href="#af"/><use transform="matrix(0.05,0,0,0.05,47.900000000000006,0)" xlink:href="#J"/><use transform="matrix(0.05,0,0,0.05,52.900000000000006,0)" xlink:href="#ai"/></g><g id="n"><use transform="matrix(0.05,0,0,0.05,0,0)" xlink:href="#X"/><use transform="matrix(0.05,0,0,0.05,3.95,0)" xlink:href="#L"/><use transform="matrix(0.05,0,0,0.05,13.949999999999998,0)" xlink:href="#ah"/><use transform="matrix(0.05,0,0,0.05,22.95,0)" xlink:href="#L"/><use transform="matrix(0.05,0,0,0.05,32.95,0)" xlink:href="#X"/><use transform="matrix(0.05,0,0,0.05,36.900000000000006,0)" xlink:href="#aa"/></g><path d="M27 0v-27h64v-190l-56 39v-29l58-41h29v221h61V0H27" id="aj"/><path d="M16-82v-28h88v28H16" id="ak"/><g id="o"><use transform="matrix(0.05,0,0,0.05,0,0)" xlink:href="#aj"/><use transform="matrix(0.05,0,0,0.05,10,0)" xlink:href="#ak"/><use transform="matrix(0.05,0,0,0.05,15.949999999999998,0)" xlink:href="#ac"/></g><path d="M126-127c33 6 58 20 58 59 0 88-139 92-164 29-3-8-5-16-6-25l32-3c6 27 21 44 54 44 32 0 52-15 52-46 0-38-36-46-79-43v-28c39 1 72-4 72-42 0-27-17-43-46-43-28 0-47 15-49 41l-32-3c6-42 35-63 81-64 48-1 79 21 79 65 0 36-21 52-52 59" id="al"/><path d="M134-131c28 9 52 24 51 62-1 50-34 73-85 73S17-19 16-69c0-36 21-54 49-61-75-25-45-126 34-121 46 3 78 18 79 63 0 33-17 51-44 57zm-34-11c31 1 46-15 46-44 0-28-17-43-47-42-29 0-46 13-45 42 1 28 16 44 46 44zm1 122c35 0 51-18 51-52 0-30-18-46-53-46-33 0-51 17-51 47 0 34 19 51 53 51" id="am"/><path d="M110-160c48 1 74 30 74 79 0 53-28 85-80 85-65 0-83-55-86-122-5-90 50-162 133-122 14 7 22 21 27 39l-31 6c-5-40-67-38-82-6-9 19-15 44-15 74 11-20 30-34 60-33zm-7 138c34 0 49-23 49-58s-16-56-50-56c-29 0-50 16-49 49 1 36 15 65 50 65" id="an"/><path d="M68-38c1 34 0 65-14 84H32c9-13 17-26 17-46H33v-38h35" id="ao"/><path d="M33 0v-38h34V0H33" id="ap"/><path d="M101-251c68 0 85 55 85 127S166 4 100 4C33 4 14-52 14-124c0-73 17-127 87-127zm-1 229c47 0 54-49 54-102s-4-102-53-102c-51 0-55 48-55 102 0 53 5 102 54 102" id="aq"/><g id="p"><use transform="matrix(0.05,0,0,0.05,0,0)" xlink:href="#aa"/><use transform="matrix(0.05,0,0,0.05,9,0)" xlink:href="#S"/><use transform="matrix(0.05,0,0,0.05,19,0)" xlink:href="#al"/><use transform="matrix(0.05,0,0,0.05,29,0)" xlink:href="#am"/><use transform="matrix(0.05,0,0,0.05,39,0)" xlink:href="#an"/><use transform="matrix(0.05,0,0,0.05,49,0)" xlink:href="#ao"/><use transform="matrix(0.05,0,0,0.05,54,0)" xlink:href="#ap"/><use transform="matrix(0.05,0,0,0.05,59,0)" xlink:href="#ap"/><use transform="matrix(0.05,0,0,0.05,64,0)" xlink:href="#ap"/><use transform="matrix(0.05,0,0,0.05,69,0)" xlink:href="#ao"/><use transform="matrix(0.05,0,0,0.05,74,0)" xlink:href="#aa"/><use transform="matrix(0.05,0,0,0.05,83,0)" xlink:href="#S"/><use transform="matrix(0.05,0,0,0.05,93,0)" xlink:href="#al"/><use transform="matrix(0.05,0,0,0.05,103,0)" xlink:href="#U"/><use transform="matrix(0.05,0,0,0.05,113,0)" xlink:href="#aq"/></g><path d="M117-194c89-4 53 116 60 194h-32v-121c0-31-8-49-39-48C34-167 62-67 57 0H25l-1-190h30c1 10-1 24 2 32 11-22 29-35 61-36" id="ar"/><g id="q"><use transform="matrix(0.05,0,0,0.05,0,0)" xlink:href="#R"/><use transform="matrix(0.05,0,0,0.05,9,0)" xlink:href="#K"/><use transform="matrix(0.05,0,0,0.05,19,0)" xlink:href="#M"/><use transform="matrix(0.05,0,0,0.05,24.95,0)" xlink:href="#O"/><use transform="matrix(0.05,0,0,0.05,34.95,0)" xlink:href="#ar"/><use transform="matrix(0.05,0,0,0.05,44.95,0)" xlink:href="#af"/><use transform="matrix(0.05,0,0,0.05,48.900000000000006,0)" xlink:href="#R"/></g><g id="r"><use transform="matrix(0.05,0,0,0.05,0,0)" xlink:href="#aa"/><use transform="matrix(0.05,0,0,0.05,9,0)" xlink:href="#S"/><use transform="matrix(0.05,0,0,0.05,19,0)" xlink:href="#al"/><use transform="matrix(0.05,0,0,0.05,29,0)" xlink:href="#U"/><use transform="matrix(0.05,0,0,0.05,39,0)" xlink:href="#aj"/><use transform="matrix(0.05,0,0,0.05,49,0)" xlink:href="#ao"/><use transform="matrix(0.05,0,0,0.05,54,0)" xlink:href="#ap"/><use transform="matrix(0.05,0,0,0.05,59,0)" xlink:href="#ap"/><use transform="matrix(0.05,0,0,0.05,64,0)" xlink:href="#ap"/><use transform="matrix(0.05,0,0,0.05,69,0)" xlink:href="#ao"/><use transform="matrix(0.05,0,0,0.05,74,0)" xlink:href="#aa"/><use transform="matrix(0.05,0,0,0.05,83,0)" xlink:href="#S"/><use transform="matrix(0.05,0,0,0.05,93,0)" xlink:href="#al"/><use transform="matrix(0.05,0,0,0.05,103,0)" xlink:href="#U"/><use transform="matrix(0.05,0,0,0.05,113,0)" xlink:href="#ac"/></g><use transform="matrix(0.05,0,0,0.05,0,0)" xlink:href="#aj" id="s"/><g id="t"><use transform="matrix(0.05,0,0,0.05,0,0)" xlink:href="#aa"/><use transform="matrix(0.05,0,0,0.05,9,0)" xlink:href="#L"/><use transform="matrix(0.05,0,0,0.05,19,0)" xlink:href="#ad"/><use transform="matrix(0.05,0,0,0.05,29,0)" xlink:href="#Z"/><use transform="matrix(0.05,0,0,0.05,39,0)" xlink:href="#L"/><use transform="matrix(0.05,0,0,0.05,49,0)" xlink:href="#X"/><use transform="matrix(0.05,0,0,0.05,52.95,0)" xlink:href="#Y"/><use transform="matrix(0.05,0,0,0.05,62.95,0)" xlink:href="#ae"/></g><path d="M115-194c55 1 70 41 70 98S169 2 115 4C84 4 66-9 55-30l1 105H24l-1-265h31l2 30c10-21 28-34 59-34zm-8 174c40 0 45-34 45-75s-6-73-45-74c-42 0-51 32-51 76 0 43 10 73 51 73" id="as"/><g id="u"><use transform="matrix(0.05,0,0,0.05,0,0)" xlink:href="#Y"/><use transform="matrix(0.05,0,0,0.05,10,0)" xlink:href="#aa"/><use transform="matrix(0.05,0,0,0.05,19,0)" xlink:href="#ai"/><use transform="matrix(0.05,0,0,0.05,28,0)" xlink:href="#ag"/><use transform="matrix(0.05,0,0,0.05,42.95,0)" xlink:href="#as"/><use transform="matrix(0.05,0,0,0.05,52.95,0)" xlink:href="#J"/><use transform="matrix(0.05,0,0,0.05,57.95,0)" xlink:href="#O"/><use transform="matrix(0.05,0,0,0.05,67.95,0)" xlink:href="#ag"/><use transform="matrix(0.05,0,0,0.05,82.9,0)" xlink:href="#Y"/><use transform="matrix(0.05,0,0,0.05,92.9,0)" xlink:href="#J"/><use transform="matrix(0.05,0,0,0.05,97.9,0)" xlink:href="#af"/><use transform="matrix(0.05,0,0,0.05,101.85000000000001,0)" xlink:href="#R"/></g><g id="v"><use transform="matrix(0.05,0,0,0.05,0,0)" xlink:href="#R"/><use transform="matrix(0.05,0,0,0.05,9,0)" xlink:href="#K"/><use transform="matrix(0.05,0,0,0.05,19,0)" xlink:href="#M"/><use transform="matrix(0.05,0,0,0.05,24.95,0)" xlink:href="#O"/><use transform="matrix(0.05,0,0,0.05,34.95,0)" xlink:href="#ar"/><use transform="matrix(0.05,0,0,0.05,44.95,0)" xlink:href="#af"/><use transform="matrix(0.05,0,0,0.05,48.900000000000006,0)" xlink:href="#R"/></g><g id="w"><use transform="matrix(0.05,0,0,0.05,0,0)" xlink:href="#af"/><use transform="matrix(0.05,0,0,0.05,3.95,0)" xlink:href="#aa"/><use transform="matrix(0.05,0,0,0.05,12.949999999999998,0)" xlink:href="#R"/><use transform="matrix(0.05,0,0,0.05,21.95,0)" xlink:href="#K"/><use transform="matrix(0.05,0,0,0.05,31.950000000000003,0)" xlink:href="#L"/><use transform="matrix(0.05,0,0,0.05,41.95,0)" xlink:href="#ag"/><use transform="matrix(0.05,0,0,0.05,56.900000000000006,0)" xlink:href="#af"/><use transform="matrix(0.05,0,0,0.05,60.85,0)" xlink:href="#R"/></g><g id="x"><use transform="matrix(0.05,0,0,0.05,0,0)" xlink:href="#aa"/><use transform="matrix(0.05,0,0,0.05,9,0)" xlink:href="#J"/><use transform="matrix(0.05,0,0,0.05,14,0)" xlink:href="#M"/><use transform="matrix(0.05,0,0,0.05,19.95,0)" xlink:href="#O"/><use transform="matrix(0.05,0,0,0.05,29.950000000000003,0)" xlink:href="#P"/><use transform="matrix(0.05,0,0,0.05,38.95,0)" xlink:href="#L"/></g><g id="y"><use transform="matrix(0.05,0,0,0.05,0,0)" xlink:href="#aa"/><use transform="matrix(0.05,0,0,0.05,9,0)" xlink:href="#S"/><use transform="matrix(0.05,0,0,0.05,19,0)" xlink:href="#U"/><use transform="matrix(0.05,0,0,0.05,29,0)" xlink:href="#T"/><use transform="matrix(0.05,0,0,0.05,39,0)" xlink:href="#an"/></g><path d="M190 0L58-211 59 0H30v-248h39L202-35l-2-213h31V0h-41" id="at"/><path d="M115-194c53 0 69 39 70 98 0 66-23 100-70 100C84 3 66-7 56-30L54 0H23l1-261h32v101c10-23 28-34 59-34zm-8 174c40 0 45-34 45-75 0-40-5-75-45-74-42 0-51 32-51 76 0 43 10 73 51 73" id="au"/><g id="z"><use transform="matrix(0.05,0,0,0.05,0,0)" xlink:href="#at"/><use transform="matrix(0.05,0,0,0.05,12.950000000000001,0)" xlink:href="#O"/><use transform="matrix(0.05,0,0,0.05,22.950000000000003,0)" xlink:href="#ar"/><use transform="matrix(0.05,0,0,0.05,32.95,0)" xlink:href="#ak"/><use transform="matrix(0.05,0,0,0.05,38.900000000000006,0)" xlink:href="#R"/><use transform="matrix(0.05,0,0,0.05,47.900000000000006,0)" xlink:href="#O"/><use transform="matrix(0.05,0,0,0.05,57.900000000000006,0)" xlink:href="#ag"/><use transform="matrix(0.05,0,0,0.05,72.85000000000001,0)" xlink:href="#ag"/><use transform="matrix(0.05,0,0,0.05,87.80000000000001,0)" xlink:href="#Z"/><use transform="matrix(0.05,0,0,0.05,97.80000000000001,0)" xlink:href="#ar"/><use transform="matrix(0.05,0,0,0.05,107.80000000000001,0)" xlink:href="#af"/><use transform="matrix(0.05,0,0,0.05,111.75,0)" xlink:href="#R"/><use transform="matrix(0.05,0,0,0.05,120.75,0)" xlink:href="#Y"/><use transform="matrix(0.05,0,0,0.05,130.75,0)" xlink:href="#au"/><use transform="matrix(0.05,0,0,0.05,140.75,0)" xlink:href="#X"/><use transform="matrix(0.05,0,0,0.05,144.7,0)" xlink:href="#L"/></g><path d="M85-194c31 0 48 13 60 33l-1-100h32l1 261h-30c-2-10 0-23-3-31C134-8 116 4 85 4 32 4 16-35 15-94c0-66 23-100 70-100zm9 24c-40 0-46 34-46 75 0 40 6 74 45 74 42 0 51-32 51-76 0-42-9-74-50-73" id="av"/><g id="A"><use transform="matrix(0.05,0,0,0.05,0,0)" xlink:href="#av"/><use transform="matrix(0.05,0,0,0.05,10,0)" xlink:href="#af"/><use transform="matrix(0.05,0,0,0.05,13.949999999999998,0)" xlink:href="#aa"/><use transform="matrix(0.05,0,0,0.05,22.95,0)" xlink:href="#L"/><use transform="matrix(0.05,0,0,0.05,32.95,0)" xlink:href="#Y"/><use transform="matrix(0.05,0,0,0.05,42.95,0)" xlink:href="#aa"/><use transform="matrix(0.05,0,0,0.05,51.95,0)" xlink:href="#L"/><use transform="matrix(0.05,0,0,0.05,61.95,0)" xlink:href="#aa"/></g><g id="B"><use transform="matrix(0.05,0,0,0.05,0,0)" xlink:href="#Q"/><use transform="matrix(0.05,0,0,0.05,5.95,0)" xlink:href="#R"/><use transform="matrix(0.05,0,0,0.05,14.949999999999998,0)" xlink:href="#S"/><use transform="matrix(0.05,0,0,0.05,24.95,0)" xlink:href="#T"/><use transform="matrix(0.05,0,0,0.05,34.95,0)" xlink:href="#aq"/><use transform="matrix(0.05,0,0,0.05,44.95,0)" xlink:href="#U"/><use transform="matrix(0.05,0,0,0.05,54.95,0)" xlink:href="#V"/></g><path d="M212-179c-10-28-35-45-73-45-59 0-87 40-87 99 0 60 29 101 89 101 43 0 62-24 78-52l27 14C228-24 195 4 139 4 59 4 22-46 18-125c-6-104 99-153 187-111 19 9 31 26 39 46" id="aw"/><g id="C"><use transform="matrix(0.05,0,0,0.05,0,0)" xlink:href="#aw"/><use transform="matrix(0.05,0,0,0.05,12.950000000000001,0)" xlink:href="#Y"/><use transform="matrix(0.05,0,0,0.05,22.950000000000003,0)" xlink:href="#M"/><use transform="matrix(0.05,0,0,0.05,28.900000000000002,0)" xlink:href="#av"/><use transform="matrix(0.05,0,0,0.05,38.900000000000006,0)" xlink:href="#af"/><use transform="matrix(0.05,0,0,0.05,42.85000000000001,0)" xlink:href="#O"/><use transform="matrix(0.05,0,0,0.05,52.85,0)" xlink:href="#ah"/><use transform="matrix(0.05,0,0,0.05,61.85,0)" xlink:href="#Y"/><use transform="matrix(0.05,0,0,0.05,71.85000000000001,0)" xlink:href="#aa"/><use transform="matrix(0.05,0,0,0.05,80.85000000000001,0)" xlink:href="#R"/><use transform="matrix(0.05,0,0,0.05,89.85000000000001,0)" xlink:href="#Z"/><use transform="matrix(0.05,0,0,0.05,99.85000000000001,0)" xlink:href="#X"/><use transform="matrix(0.05,0,0,0.05,103.80000000000001,0)" xlink:href="#Y"/><use transform="matrix(0.05,0,0,0.05,113.80000000000001,0)" xlink:href="#M"/></g><g id="D"><use transform="matrix(0.05,0,0,0.05,0,0)" xlink:href="#av"/><use transform="matrix(0.05,0,0,0.05,10,0)" xlink:href="#af"/><use transform="matrix(0.05,0,0,0.05,13.949999999999998,0)" xlink:href="#aa"/><use transform="matrix(0.05,0,0,0.05,22.95,0)" xlink:href="#L"/><use transform="matrix(0.05,0,0,0.05,32.95,0)" xlink:href="#Y"/><use transform="matrix(0.05,0,0,0.05,42.95,0)" xlink:href="#aa"/><use transform="matrix(0.05,0,0,0.05,51.95,0)" xlink:href="#L"/><use transform="matrix(0.05,0,0,0.05,61.95,0)" xlink:href="#aa"/></g><g id="E"><use transform="matrix(0.05,0,0,0.05,0,0)" xlink:href="#Q"/><use transform="matrix(0.05,0,0,0.05,5.95,0)" xlink:href="#R"/><use transform="matrix(0.05,0,0,0.05,14.949999999999998,0)" xlink:href="#S"/><use transform="matrix(0.05,0,0,0.05,24.95,0)" xlink:href="#T"/><use transform="matrix(0.05,0,0,0.05,34.95,0)" xlink:href="#U"/><use transform="matrix(0.05,0,0,0.05,44.95,0)" xlink:href="#aj"/><use transform="matrix(0.05,0,0,0.05,54.95,0)" xlink:href="#V"/></g><path d="M33 0v-248h34V0H33" id="ax"/><g id="F"><use transform="matrix(0.05,0,0,0.05,0,0)" xlink:href="#ax"/><use transform="matrix(0.05,0,0,0.05,5,0)" xlink:href="#aa"/><use transform="matrix(0.05,0,0,0.05,14,0)" xlink:href="#R"/><use transform="matrix(0.05,0,0,0.05,23,0)" xlink:href="#K"/><use transform="matrix(0.05,0,0,0.05,33,0)" xlink:href="#L"/><use transform="matrix(0.05,0,0,0.05,43,0)" xlink:href="#ag"/><use transform="matrix(0.05,0,0,0.05,57.95,0)" xlink:href="#af"/><use transform="matrix(0.05,0,0,0.05,61.900000000000006,0)" xlink:href="#R"/></g><g id="G"><use transform="matrix(0.05,0,0,0.05,0,0)" xlink:href="#aa"/><use transform="matrix(0.05,0,0,0.05,9,0)" xlink:href="#J"/><use transform="matrix(0.05,0,0,0.05,14,0)" xlink:href="#M"/><use transform="matrix(0.05,0,0,0.05,19.95,0)" xlink:href="#O"/><use transform="matrix(0.05,0,0,0.05,29.950000000000003,0)" xlink:href="#P"/><use transform="matrix(0.05,0,0,0.05,38.95,0)" xlink:href="#L"/></g><g id="H"><use transform="matrix(0.05,0,0,0.05,0,0)" xlink:href="#Q"/><use transform="matrix(0.05,0,0,0.05,5.95,0)" xlink:href="#R"/><use transform="matrix(0.05,0,0,0.05,14.949999999999998,0)" xlink:href="#S"/><use transform="matrix(0.05,0,0,0.05,24.95,0)" xlink:href="#T"/><use transform="matrix(0.05,0,0,0.05,34.95,0)" xlink:href="#U"/><use transform="matrix(0.05,0,0,0.05,44.95,0)" xlink:href="#ac"/><use transform="matrix(0.05,0,0,0.05,54.95,0)" xlink:href="#V"/></g></defs></g></svg>