<?xml version="1.0" encoding="utf-8" standalone="no"?>
<!DOCTYPE svg PUBLIC "-//W3C//DTD SVG 1.1//EN"
  "http://www.w3.org/Graphics/SVG/1.1/DTD/svg11.dtd">
<!-- Created with matplotlib (https://matplotlib.org/) -->
<svg height="864pt" version="1.1" viewBox="0 0 864 864" width="864pt" xmlns="http://www.w3.org/2000/svg" xmlns:xlink="http://www.w3.org/1999/xlink">
 <defs>
  <style type="text/css">
*{stroke-linecap:butt;stroke-linejoin:round;}
  </style>
 </defs>
 <g id="figure_1">
  <g id="patch_1">
   <path d="M 0 864 
L 864 864 
L 864 0 
L 0 0 
z
" style="fill:#ffffff;"/>
  </g>
  <g id="axes_1">
   <g id="patch_2">
    <path d="M 44.55 253.4 
L 853.2 253.4 
L 853.2 26.8 
L 44.55 26.8 
z
" style="fill:#ffffff;"/>
   </g>
   <g id="matplotlib.axis_1">
    <g id="xtick_1">
     <g id="line2d_1">
      <defs>
       <path d="M 0 0 
L 0 3.5 
" id="mfc7320f0a8" style="stroke:#000000;stroke-width:0.8;"/>
      </defs>
      <g>
       <use style="stroke:#000000;stroke-width:0.8;" x="81.306818" xlink:href="#mfc7320f0a8" y="253.4"/>
      </g>
     </g>
     <g id="text_1">
      <!-- 0.0 -->
      <defs>
       <path d="M 31.78125 66.40625 
Q 24.171875 66.40625 20.328125 58.90625 
Q 16.5 51.421875 16.5 36.375 
Q 16.5 21.390625 20.328125 13.890625 
Q 24.171875 6.390625 31.78125 6.390625 
Q 39.453125 6.390625 43.28125 13.890625 
Q 47.125 21.390625 47.125 36.375 
Q 47.125 51.421875 43.28125 58.90625 
Q 39.453125 66.40625 31.78125 66.40625 
z
M 31.78125 74.21875 
Q 44.046875 74.21875 50.515625 64.515625 
Q 56.984375 54.828125 56.984375 36.375 
Q 56.984375 17.96875 50.515625 8.265625 
Q 44.046875 -1.421875 31.78125 -1.421875 
Q 19.53125 -1.421875 13.0625 8.265625 
Q 6.59375 17.96875 6.59375 36.375 
Q 6.59375 54.828125 13.0625 64.515625 
Q 19.53125 74.21875 31.78125 74.21875 
z
" id="DejaVuSans-48"/>
       <path d="M 10.6875 12.40625 
L 21 12.40625 
L 21 0 
L 10.6875 0 
z
" id="DejaVuSans-46"/>
      </defs>
      <g transform="translate(73.355256 267.998438)scale(0.1 -0.1)">
       <use xlink:href="#DejaVuSans-48"/>
       <use x="63.623047" xlink:href="#DejaVuSans-46"/>
       <use x="95.410156" xlink:href="#DejaVuSans-48"/>
      </g>
     </g>
    </g>
    <g id="xtick_2">
     <g id="line2d_2">
      <g>
       <use style="stroke:#000000;stroke-width:0.8;" x="228.334091" xlink:href="#mfc7320f0a8" y="253.4"/>
      </g>
     </g>
     <g id="text_2">
      <!-- 0.2 -->
      <defs>
       <path d="M 19.1875 8.296875 
L 53.609375 8.296875 
L 53.609375 0 
L 7.328125 0 
L 7.328125 8.296875 
Q 12.9375 14.109375 22.625 23.890625 
Q 32.328125 33.6875 34.8125 36.53125 
Q 39.546875 41.84375 41.421875 45.53125 
Q 43.3125 49.21875 43.3125 52.78125 
Q 43.3125 58.59375 39.234375 62.25 
Q 35.15625 65.921875 28.609375 65.921875 
Q 23.96875 65.921875 18.8125 64.3125 
Q 13.671875 62.703125 7.8125 59.421875 
L 7.8125 69.390625 
Q 13.765625 71.78125 18.9375 73 
Q 24.125 74.21875 28.421875 74.21875 
Q 39.75 74.21875 46.484375 68.546875 
Q 53.21875 62.890625 53.21875 53.421875 
Q 53.21875 48.921875 51.53125 44.890625 
Q 49.859375 40.875 45.40625 35.40625 
Q 44.1875 33.984375 37.640625 27.21875 
Q 31.109375 20.453125 19.1875 8.296875 
z
" id="DejaVuSans-50"/>
      </defs>
      <g transform="translate(220.382528 267.998438)scale(0.1 -0.1)">
       <use xlink:href="#DejaVuSans-48"/>
       <use x="63.623047" xlink:href="#DejaVuSans-46"/>
       <use x="95.410156" xlink:href="#DejaVuSans-50"/>
      </g>
     </g>
    </g>
    <g id="xtick_3">
     <g id="line2d_3">
      <g>
       <use style="stroke:#000000;stroke-width:0.8;" x="375.361364" xlink:href="#mfc7320f0a8" y="253.4"/>
      </g>
     </g>
     <g id="text_3">
      <!-- 0.4 -->
      <defs>
       <path d="M 37.796875 64.3125 
L 12.890625 25.390625 
L 37.796875 25.390625 
z
M 35.203125 72.90625 
L 47.609375 72.90625 
L 47.609375 25.390625 
L 58.015625 25.390625 
L 58.015625 17.1875 
L 47.609375 17.1875 
L 47.609375 0 
L 37.796875 0 
L 37.796875 17.1875 
L 4.890625 17.1875 
L 4.890625 26.703125 
z
" id="DejaVuSans-52"/>
      </defs>
      <g transform="translate(367.409801 267.998438)scale(0.1 -0.1)">
       <use xlink:href="#DejaVuSans-48"/>
       <use x="63.623047" xlink:href="#DejaVuSans-46"/>
       <use x="95.410156" xlink:href="#DejaVuSans-52"/>
      </g>
     </g>
    </g>
    <g id="xtick_4">
     <g id="line2d_4">
      <g>
       <use style="stroke:#000000;stroke-width:0.8;" x="522.388636" xlink:href="#mfc7320f0a8" y="253.4"/>
      </g>
     </g>
     <g id="text_4">
      <!-- 0.6 -->
      <defs>
       <path d="M 33.015625 40.375 
Q 26.375 40.375 22.484375 35.828125 
Q 18.609375 31.296875 18.609375 23.390625 
Q 18.609375 15.53125 22.484375 10.953125 
Q 26.375 6.390625 33.015625 6.390625 
Q 39.65625 6.390625 43.53125 10.953125 
Q 47.40625 15.53125 47.40625 23.390625 
Q 47.40625 31.296875 43.53125 35.828125 
Q 39.65625 40.375 33.015625 40.375 
z
M 52.59375 71.296875 
L 52.59375 62.3125 
Q 48.875 64.0625 45.09375 64.984375 
Q 41.3125 65.921875 37.59375 65.921875 
Q 27.828125 65.921875 22.671875 59.328125 
Q 17.53125 52.734375 16.796875 39.40625 
Q 19.671875 43.65625 24.015625 45.921875 
Q 28.375 48.1875 33.59375 48.1875 
Q 44.578125 48.1875 50.953125 41.515625 
Q 57.328125 34.859375 57.328125 23.390625 
Q 57.328125 12.15625 50.6875 5.359375 
Q 44.046875 -1.421875 33.015625 -1.421875 
Q 20.359375 -1.421875 13.671875 8.265625 
Q 6.984375 17.96875 6.984375 36.375 
Q 6.984375 53.65625 15.1875 63.9375 
Q 23.390625 74.21875 37.203125 74.21875 
Q 40.921875 74.21875 44.703125 73.484375 
Q 48.484375 72.75 52.59375 71.296875 
z
" id="DejaVuSans-54"/>
      </defs>
      <g transform="translate(514.437074 267.998438)scale(0.1 -0.1)">
       <use xlink:href="#DejaVuSans-48"/>
       <use x="63.623047" xlink:href="#DejaVuSans-46"/>
       <use x="95.410156" xlink:href="#DejaVuSans-54"/>
      </g>
     </g>
    </g>
    <g id="xtick_5">
     <g id="line2d_5">
      <g>
       <use style="stroke:#000000;stroke-width:0.8;" x="669.415909" xlink:href="#mfc7320f0a8" y="253.4"/>
      </g>
     </g>
     <g id="text_5">
      <!-- 0.8 -->
      <defs>
       <path d="M 31.78125 34.625 
Q 24.75 34.625 20.71875 30.859375 
Q 16.703125 27.09375 16.703125 20.515625 
Q 16.703125 13.921875 20.71875 10.15625 
Q 24.75 6.390625 31.78125 6.390625 
Q 38.8125 6.390625 42.859375 10.171875 
Q 46.921875 13.96875 46.921875 20.515625 
Q 46.921875 27.09375 42.890625 30.859375 
Q 38.875 34.625 31.78125 34.625 
z
M 21.921875 38.8125 
Q 15.578125 40.375 12.03125 44.71875 
Q 8.5 49.078125 8.5 55.328125 
Q 8.5 64.0625 14.71875 69.140625 
Q 20.953125 74.21875 31.78125 74.21875 
Q 42.671875 74.21875 48.875 69.140625 
Q 55.078125 64.0625 55.078125 55.328125 
Q 55.078125 49.078125 51.53125 44.71875 
Q 48 40.375 41.703125 38.8125 
Q 48.828125 37.15625 52.796875 32.3125 
Q 56.78125 27.484375 56.78125 20.515625 
Q 56.78125 9.90625 50.3125 4.234375 
Q 43.84375 -1.421875 31.78125 -1.421875 
Q 19.734375 -1.421875 13.25 4.234375 
Q 6.78125 9.90625 6.78125 20.515625 
Q 6.78125 27.484375 10.78125 32.3125 
Q 14.796875 37.15625 21.921875 38.8125 
z
M 18.3125 54.390625 
Q 18.3125 48.734375 21.84375 45.5625 
Q 25.390625 42.390625 31.78125 42.390625 
Q 38.140625 42.390625 41.71875 45.5625 
Q 45.3125 48.734375 45.3125 54.390625 
Q 45.3125 60.0625 41.71875 63.234375 
Q 38.140625 66.40625 31.78125 66.40625 
Q 25.390625 66.40625 21.84375 63.234375 
Q 18.3125 60.0625 18.3125 54.390625 
z
" id="DejaVuSans-56"/>
      </defs>
      <g transform="translate(661.464347 267.998438)scale(0.1 -0.1)">
       <use xlink:href="#DejaVuSans-48"/>
       <use x="63.623047" xlink:href="#DejaVuSans-46"/>
       <use x="95.410156" xlink:href="#DejaVuSans-56"/>
      </g>
     </g>
    </g>
    <g id="xtick_6">
     <g id="line2d_6">
      <g>
       <use style="stroke:#000000;stroke-width:0.8;" x="816.443182" xlink:href="#mfc7320f0a8" y="253.4"/>
      </g>
     </g>
     <g id="text_6">
      <!-- 1.0 -->
      <defs>
       <path d="M 12.40625 8.296875 
L 28.515625 8.296875 
L 28.515625 63.921875 
L 10.984375 60.40625 
L 10.984375 69.390625 
L 28.421875 72.90625 
L 38.28125 72.90625 
L 38.28125 8.296875 
L 54.390625 8.296875 
L 54.390625 0 
L 12.40625 0 
z
" id="DejaVuSans-49"/>
      </defs>
      <g transform="translate(808.491619 267.998438)scale(0.1 -0.1)">
       <use xlink:href="#DejaVuSans-49"/>
       <use x="63.623047" xlink:href="#DejaVuSans-46"/>
       <use x="95.410156" xlink:href="#DejaVuSans-48"/>
      </g>
     </g>
    </g>
    <g id="text_7">
     <!-- Proportion of population -->
     <defs>
      <path d="M 19.671875 64.796875 
L 19.671875 37.40625 
L 32.078125 37.40625 
Q 38.96875 37.40625 42.71875 40.96875 
Q 46.484375 44.53125 46.484375 51.125 
Q 46.484375 57.671875 42.71875 61.234375 
Q 38.96875 64.796875 32.078125 64.796875 
z
M 9.8125 72.90625 
L 32.078125 72.90625 
Q 44.34375 72.90625 50.609375 67.359375 
Q 56.890625 61.8125 56.890625 51.125 
Q 56.890625 40.328125 50.609375 34.8125 
Q 44.34375 29.296875 32.078125 29.296875 
L 19.671875 29.296875 
L 19.671875 0 
L 9.8125 0 
z
" id="DejaVuSans-80"/>
      <path d="M 41.109375 46.296875 
Q 39.59375 47.171875 37.8125 47.578125 
Q 36.03125 48 33.890625 48 
Q 26.265625 48 22.1875 43.046875 
Q 18.109375 38.09375 18.109375 28.8125 
L 18.109375 0 
L 9.078125 0 
L 9.078125 54.6875 
L 18.109375 54.6875 
L 18.109375 46.1875 
Q 20.953125 51.171875 25.484375 53.578125 
Q 30.03125 56 36.53125 56 
Q 37.453125 56 38.578125 55.875 
Q 39.703125 55.765625 41.0625 55.515625 
z
" id="DejaVuSans-114"/>
      <path d="M 30.609375 48.390625 
Q 23.390625 48.390625 19.1875 42.75 
Q 14.984375 37.109375 14.984375 27.296875 
Q 14.984375 17.484375 19.15625 11.84375 
Q 23.34375 6.203125 30.609375 6.203125 
Q 37.796875 6.203125 41.984375 11.859375 
Q 46.1875 17.53125 46.1875 27.296875 
Q 46.1875 37.015625 41.984375 42.703125 
Q 37.796875 48.390625 30.609375 48.390625 
z
M 30.609375 56 
Q 42.328125 56 49.015625 48.375 
Q 55.71875 40.765625 55.71875 27.296875 
Q 55.71875 13.875 49.015625 6.21875 
Q 42.328125 -1.421875 30.609375 -1.421875 
Q 18.84375 -1.421875 12.171875 6.21875 
Q 5.515625 13.875 5.515625 27.296875 
Q 5.515625 40.765625 12.171875 48.375 
Q 18.84375 56 30.609375 56 
z
" id="DejaVuSans-111"/>
      <path d="M 18.109375 8.203125 
L 18.109375 -20.796875 
L 9.078125 -20.796875 
L 9.078125 54.6875 
L 18.109375 54.6875 
L 18.109375 46.390625 
Q 20.953125 51.265625 25.265625 53.625 
Q 29.59375 56 35.59375 56 
Q 45.5625 56 51.78125 48.09375 
Q 58.015625 40.1875 58.015625 27.296875 
Q 58.015625 14.40625 51.78125 6.484375 
Q 45.5625 -1.421875 35.59375 -1.421875 
Q 29.59375 -1.421875 25.265625 0.953125 
Q 20.953125 3.328125 18.109375 8.203125 
z
M 48.6875 27.296875 
Q 48.6875 37.203125 44.609375 42.84375 
Q 40.53125 48.484375 33.40625 48.484375 
Q 26.265625 48.484375 22.1875 42.84375 
Q 18.109375 37.203125 18.109375 27.296875 
Q 18.109375 17.390625 22.1875 11.75 
Q 26.265625 6.109375 33.40625 6.109375 
Q 40.53125 6.109375 44.609375 11.75 
Q 48.6875 17.390625 48.6875 27.296875 
z
" id="DejaVuSans-112"/>
      <path d="M 18.3125 70.21875 
L 18.3125 54.6875 
L 36.8125 54.6875 
L 36.8125 47.703125 
L 18.3125 47.703125 
L 18.3125 18.015625 
Q 18.3125 11.328125 20.140625 9.421875 
Q 21.96875 7.515625 27.59375 7.515625 
L 36.8125 7.515625 
L 36.8125 0 
L 27.59375 0 
Q 17.1875 0 13.234375 3.875 
Q 9.28125 7.765625 9.28125 18.015625 
L 9.28125 47.703125 
L 2.6875 47.703125 
L 2.6875 54.6875 
L 9.28125 54.6875 
L 9.28125 70.21875 
z
" id="DejaVuSans-116"/>
      <path d="M 9.421875 54.6875 
L 18.40625 54.6875 
L 18.40625 0 
L 9.421875 0 
z
M 9.421875 75.984375 
L 18.40625 75.984375 
L 18.40625 64.59375 
L 9.421875 64.59375 
z
" id="DejaVuSans-105"/>
      <path d="M 54.890625 33.015625 
L 54.890625 0 
L 45.90625 0 
L 45.90625 32.71875 
Q 45.90625 40.484375 42.875 44.328125 
Q 39.84375 48.1875 33.796875 48.1875 
Q 26.515625 48.1875 22.3125 43.546875 
Q 18.109375 38.921875 18.109375 30.90625 
L 18.109375 0 
L 9.078125 0 
L 9.078125 54.6875 
L 18.109375 54.6875 
L 18.109375 46.1875 
Q 21.34375 51.125 25.703125 53.5625 
Q 30.078125 56 35.796875 56 
Q 45.21875 56 50.046875 50.171875 
Q 54.890625 44.34375 54.890625 33.015625 
z
" id="DejaVuSans-110"/>
      <path id="DejaVuSans-32"/>
      <path d="M 37.109375 75.984375 
L 37.109375 68.5 
L 28.515625 68.5 
Q 23.6875 68.5 21.796875 66.546875 
Q 19.921875 64.59375 19.921875 59.515625 
L 19.921875 54.6875 
L 34.71875 54.6875 
L 34.71875 47.703125 
L 19.921875 47.703125 
L 19.921875 0 
L 10.890625 0 
L 10.890625 47.703125 
L 2.296875 47.703125 
L 2.296875 54.6875 
L 10.890625 54.6875 
L 10.890625 58.5 
Q 10.890625 67.625 15.140625 71.796875 
Q 19.390625 75.984375 28.609375 75.984375 
z
" id="DejaVuSans-102"/>
      <path d="M 8.5 21.578125 
L 8.5 54.6875 
L 17.484375 54.6875 
L 17.484375 21.921875 
Q 17.484375 14.15625 20.5 10.265625 
Q 23.53125 6.390625 29.59375 6.390625 
Q 36.859375 6.390625 41.078125 11.03125 
Q 45.3125 15.671875 45.3125 23.6875 
L 45.3125 54.6875 
L 54.296875 54.6875 
L 54.296875 0 
L 45.3125 0 
L 45.3125 8.40625 
Q 42.046875 3.421875 37.71875 1 
Q 33.40625 -1.421875 27.6875 -1.421875 
Q 18.265625 -1.421875 13.375 4.4375 
Q 8.5 10.296875 8.5 21.578125 
z
M 31.109375 56 
z
" id="DejaVuSans-117"/>
      <path d="M 9.421875 75.984375 
L 18.40625 75.984375 
L 18.40625 0 
L 9.421875 0 
z
" id="DejaVuSans-108"/>
      <path d="M 34.28125 27.484375 
Q 23.390625 27.484375 19.1875 25 
Q 14.984375 22.515625 14.984375 16.5 
Q 14.984375 11.71875 18.140625 8.90625 
Q 21.296875 6.109375 26.703125 6.109375 
Q 34.1875 6.109375 38.703125 11.40625 
Q 43.21875 16.703125 43.21875 25.484375 
L 43.21875 27.484375 
z
M 52.203125 31.203125 
L 52.203125 0 
L 43.21875 0 
L 43.21875 8.296875 
Q 40.140625 3.328125 35.546875 0.953125 
Q 30.953125 -1.421875 24.3125 -1.421875 
Q 15.921875 -1.421875 10.953125 3.296875 
Q 6 8.015625 6 15.921875 
Q 6 25.140625 12.171875 29.828125 
Q 18.359375 34.515625 30.609375 34.515625 
L 43.21875 34.515625 
L 43.21875 35.40625 
Q 43.21875 41.609375 39.140625 45 
Q 35.0625 48.390625 27.6875 48.390625 
Q 23 48.390625 18.546875 47.265625 
Q 14.109375 46.140625 10.015625 43.890625 
L 10.015625 52.203125 
Q 14.9375 54.109375 19.578125 55.046875 
Q 24.21875 56 28.609375 56 
Q 40.484375 56 46.34375 49.84375 
Q 52.203125 43.703125 52.203125 31.203125 
z
" id="DejaVuSans-97"/>
     </defs>
     <g transform="translate(388.474219 281.676563)scale(0.1 -0.1)">
      <use xlink:href="#DejaVuSans-80"/>
      <use x="58.552734" xlink:href="#DejaVuSans-114"/>
      <use x="97.416016" xlink:href="#DejaVuSans-111"/>
      <use x="158.597656" xlink:href="#DejaVuSans-112"/>
      <use x="222.074219" xlink:href="#DejaVuSans-111"/>
      <use x="283.255859" xlink:href="#DejaVuSans-114"/>
      <use x="324.369141" xlink:href="#DejaVuSans-116"/>
      <use x="363.578125" xlink:href="#DejaVuSans-105"/>
      <use x="391.361328" xlink:href="#DejaVuSans-111"/>
      <use x="452.542969" xlink:href="#DejaVuSans-110"/>
      <use x="515.921875" xlink:href="#DejaVuSans-32"/>
      <use x="547.708984" xlink:href="#DejaVuSans-111"/>
      <use x="608.890625" xlink:href="#DejaVuSans-102"/>
      <use x="644.095703" xlink:href="#DejaVuSans-32"/>
      <use x="675.882812" xlink:href="#DejaVuSans-112"/>
      <use x="739.359375" xlink:href="#DejaVuSans-111"/>
      <use x="800.541016" xlink:href="#DejaVuSans-112"/>
      <use x="864.017578" xlink:href="#DejaVuSans-117"/>
      <use x="927.396484" xlink:href="#DejaVuSans-108"/>
      <use x="955.179688" xlink:href="#DejaVuSans-97"/>
      <use x="1016.458984" xlink:href="#DejaVuSans-116"/>
      <use x="1055.667969" xlink:href="#DejaVuSans-105"/>
      <use x="1083.451172" xlink:href="#DejaVuSans-111"/>
      <use x="1144.632812" xlink:href="#DejaVuSans-110"/>
     </g>
    </g>
   </g>
   <g id="matplotlib.axis_2">
    <g id="ytick_1">
     <g id="line2d_7">
      <defs>
       <path d="M 0 0 
L -3.5 0 
" id="mc693139589" style="stroke:#000000;stroke-width:0.8;"/>
      </defs>
      <g>
       <use style="stroke:#000000;stroke-width:0.8;" x="44.55" xlink:href="#mc693139589" y="243.1"/>
      </g>
     </g>
     <g id="text_8">
      <!-- 0 -->
      <g transform="translate(31.1875 246.899219)scale(0.1 -0.1)">
       <use xlink:href="#DejaVuSans-48"/>
      </g>
     </g>
    </g>
    <g id="ytick_2">
     <g id="line2d_8">
      <g>
       <use style="stroke:#000000;stroke-width:0.8;" x="44.55" xlink:href="#mc693139589" y="201.165578"/>
      </g>
     </g>
     <g id="text_9">
      <!-- 10 -->
      <g transform="translate(24.825 204.964797)scale(0.1 -0.1)">
       <use xlink:href="#DejaVuSans-49"/>
       <use x="63.623047" xlink:href="#DejaVuSans-48"/>
      </g>
     </g>
    </g>
    <g id="ytick_3">
     <g id="line2d_9">
      <g>
       <use style="stroke:#000000;stroke-width:0.8;" x="44.55" xlink:href="#mc693139589" y="159.231156"/>
      </g>
     </g>
     <g id="text_10">
      <!-- 20 -->
      <g transform="translate(24.825 163.030375)scale(0.1 -0.1)">
       <use xlink:href="#DejaVuSans-50"/>
       <use x="63.623047" xlink:href="#DejaVuSans-48"/>
      </g>
     </g>
    </g>
    <g id="ytick_4">
     <g id="line2d_10">
      <g>
       <use style="stroke:#000000;stroke-width:0.8;" x="44.55" xlink:href="#mc693139589" y="117.296734"/>
      </g>
     </g>
     <g id="text_11">
      <!-- 30 -->
      <defs>
       <path d="M 40.578125 39.3125 
Q 47.65625 37.796875 51.625 33 
Q 55.609375 28.21875 55.609375 21.1875 
Q 55.609375 10.40625 48.1875 4.484375 
Q 40.765625 -1.421875 27.09375 -1.421875 
Q 22.515625 -1.421875 17.65625 -0.515625 
Q 12.796875 0.390625 7.625 2.203125 
L 7.625 11.71875 
Q 11.71875 9.328125 16.59375 8.109375 
Q 21.484375 6.890625 26.8125 6.890625 
Q 36.078125 6.890625 40.9375 10.546875 
Q 45.796875 14.203125 45.796875 21.1875 
Q 45.796875 27.640625 41.28125 31.265625 
Q 36.765625 34.90625 28.71875 34.90625 
L 20.21875 34.90625 
L 20.21875 43.015625 
L 29.109375 43.015625 
Q 36.375 43.015625 40.234375 45.921875 
Q 44.09375 48.828125 44.09375 54.296875 
Q 44.09375 59.90625 40.109375 62.90625 
Q 36.140625 65.921875 28.71875 65.921875 
Q 24.65625 65.921875 20.015625 65.03125 
Q 15.375 64.15625 9.8125 62.3125 
L 9.8125 71.09375 
Q 15.4375 72.65625 20.34375 73.4375 
Q 25.25 74.21875 29.59375 74.21875 
Q 40.828125 74.21875 47.359375 69.109375 
Q 53.90625 64.015625 53.90625 55.328125 
Q 53.90625 49.265625 50.4375 45.09375 
Q 46.96875 40.921875 40.578125 39.3125 
z
" id="DejaVuSans-51"/>
      </defs>
      <g transform="translate(24.825 121.095952)scale(0.1 -0.1)">
       <use xlink:href="#DejaVuSans-51"/>
       <use x="63.623047" xlink:href="#DejaVuSans-48"/>
      </g>
     </g>
    </g>
    <g id="ytick_5">
     <g id="line2d_11">
      <g>
       <use style="stroke:#000000;stroke-width:0.8;" x="44.55" xlink:href="#mc693139589" y="75.362312"/>
      </g>
     </g>
     <g id="text_12">
      <!-- 40 -->
      <g transform="translate(24.825 79.16153)scale(0.1 -0.1)">
       <use xlink:href="#DejaVuSans-52"/>
       <use x="63.623047" xlink:href="#DejaVuSans-48"/>
      </g>
     </g>
    </g>
    <g id="ytick_6">
     <g id="line2d_12">
      <g>
       <use style="stroke:#000000;stroke-width:0.8;" x="44.55" xlink:href="#mc693139589" y="33.42789"/>
      </g>
     </g>
     <g id="text_13">
      <!-- 50 -->
      <defs>
       <path d="M 10.796875 72.90625 
L 49.515625 72.90625 
L 49.515625 64.59375 
L 19.828125 64.59375 
L 19.828125 46.734375 
Q 21.96875 47.46875 24.109375 47.828125 
Q 26.265625 48.1875 28.421875 48.1875 
Q 40.625 48.1875 47.75 41.5 
Q 54.890625 34.8125 54.890625 23.390625 
Q 54.890625 11.625 47.5625 5.09375 
Q 40.234375 -1.421875 26.90625 -1.421875 
Q 22.3125 -1.421875 17.546875 -0.640625 
Q 12.796875 0.140625 7.71875 1.703125 
L 7.71875 11.625 
Q 12.109375 9.234375 16.796875 8.0625 
Q 21.484375 6.890625 26.703125 6.890625 
Q 35.15625 6.890625 40.078125 11.328125 
Q 45.015625 15.765625 45.015625 23.390625 
Q 45.015625 31 40.078125 35.4375 
Q 35.15625 39.890625 26.703125 39.890625 
Q 22.75 39.890625 18.8125 39.015625 
Q 14.890625 38.140625 10.796875 36.28125 
z
" id="DejaVuSans-53"/>
      </defs>
      <g transform="translate(24.825 37.227108)scale(0.1 -0.1)">
       <use xlink:href="#DejaVuSans-53"/>
       <use x="63.623047" xlink:href="#DejaVuSans-48"/>
      </g>
     </g>
    </g>
    <g id="text_14">
     <!-- Probability density -->
     <defs>
      <path d="M 48.6875 27.296875 
Q 48.6875 37.203125 44.609375 42.84375 
Q 40.53125 48.484375 33.40625 48.484375 
Q 26.265625 48.484375 22.1875 42.84375 
Q 18.109375 37.203125 18.109375 27.296875 
Q 18.109375 17.390625 22.1875 11.75 
Q 26.265625 6.109375 33.40625 6.109375 
Q 40.53125 6.109375 44.609375 11.75 
Q 48.6875 17.390625 48.6875 27.296875 
z
M 18.109375 46.390625 
Q 20.953125 51.265625 25.265625 53.625 
Q 29.59375 56 35.59375 56 
Q 45.5625 56 51.78125 48.09375 
Q 58.015625 40.1875 58.015625 27.296875 
Q 58.015625 14.40625 51.78125 6.484375 
Q 45.5625 -1.421875 35.59375 -1.421875 
Q 29.59375 -1.421875 25.265625 0.953125 
Q 20.953125 3.328125 18.109375 8.203125 
L 18.109375 0 
L 9.078125 0 
L 9.078125 75.984375 
L 18.109375 75.984375 
z
" id="DejaVuSans-98"/>
      <path d="M 32.171875 -5.078125 
Q 28.375 -14.84375 24.75 -17.8125 
Q 21.140625 -20.796875 15.09375 -20.796875 
L 7.90625 -20.796875 
L 7.90625 -13.28125 
L 13.1875 -13.28125 
Q 16.890625 -13.28125 18.9375 -11.515625 
Q 21 -9.765625 23.484375 -3.21875 
L 25.09375 0.875 
L 2.984375 54.6875 
L 12.5 54.6875 
L 29.59375 11.921875 
L 46.6875 54.6875 
L 56.203125 54.6875 
z
" id="DejaVuSans-121"/>
      <path d="M 45.40625 46.390625 
L 45.40625 75.984375 
L 54.390625 75.984375 
L 54.390625 0 
L 45.40625 0 
L 45.40625 8.203125 
Q 42.578125 3.328125 38.25 0.953125 
Q 33.9375 -1.421875 27.875 -1.421875 
Q 17.96875 -1.421875 11.734375 6.484375 
Q 5.515625 14.40625 5.515625 27.296875 
Q 5.515625 40.1875 11.734375 48.09375 
Q 17.96875 56 27.875 56 
Q 33.9375 56 38.25 53.625 
Q 42.578125 51.265625 45.40625 46.390625 
z
M 14.796875 27.296875 
Q 14.796875 17.390625 18.875 11.75 
Q 22.953125 6.109375 30.078125 6.109375 
Q 37.203125 6.109375 41.296875 11.75 
Q 45.40625 17.390625 45.40625 27.296875 
Q 45.40625 37.203125 41.296875 42.84375 
Q 37.203125 48.484375 30.078125 48.484375 
Q 22.953125 48.484375 18.875 42.84375 
Q 14.796875 37.203125 14.796875 27.296875 
z
" id="DejaVuSans-100"/>
      <path d="M 56.203125 29.59375 
L 56.203125 25.203125 
L 14.890625 25.203125 
Q 15.484375 15.921875 20.484375 11.0625 
Q 25.484375 6.203125 34.421875 6.203125 
Q 39.59375 6.203125 44.453125 7.46875 
Q 49.3125 8.734375 54.109375 11.28125 
L 54.109375 2.78125 
Q 49.265625 0.734375 44.1875 -0.34375 
Q 39.109375 -1.421875 33.890625 -1.421875 
Q 20.796875 -1.421875 13.15625 6.1875 
Q 5.515625 13.8125 5.515625 26.8125 
Q 5.515625 40.234375 12.765625 48.109375 
Q 20.015625 56 32.328125 56 
Q 43.359375 56 49.78125 48.890625 
Q 56.203125 41.796875 56.203125 29.59375 
z
M 47.21875 32.234375 
Q 47.125 39.59375 43.09375 43.984375 
Q 39.0625 48.390625 32.421875 48.390625 
Q 24.90625 48.390625 20.390625 44.140625 
Q 15.875 39.890625 15.1875 32.171875 
z
" id="DejaVuSans-101"/>
      <path d="M 44.28125 53.078125 
L 44.28125 44.578125 
Q 40.484375 46.53125 36.375 47.5 
Q 32.28125 48.484375 27.875 48.484375 
Q 21.1875 48.484375 17.84375 46.4375 
Q 14.5 44.390625 14.5 40.28125 
Q 14.5 37.15625 16.890625 35.375 
Q 19.28125 33.59375 26.515625 31.984375 
L 29.59375 31.296875 
Q 39.15625 29.25 43.1875 25.515625 
Q 47.21875 21.78125 47.21875 15.09375 
Q 47.21875 7.46875 41.1875 3.015625 
Q 35.15625 -1.421875 24.609375 -1.421875 
Q 20.21875 -1.421875 15.453125 -0.5625 
Q 10.6875 0.296875 5.421875 2 
L 5.421875 11.28125 
Q 10.40625 8.6875 15.234375 7.390625 
Q 20.0625 6.109375 24.8125 6.109375 
Q 31.15625 6.109375 34.5625 8.28125 
Q 37.984375 10.453125 37.984375 14.40625 
Q 37.984375 18.0625 35.515625 20.015625 
Q 33.0625 21.96875 24.703125 23.78125 
L 21.578125 24.515625 
Q 13.234375 26.265625 9.515625 29.90625 
Q 5.8125 33.546875 5.8125 39.890625 
Q 5.8125 47.609375 11.28125 51.796875 
Q 16.75 56 26.8125 56 
Q 31.78125 56 36.171875 55.265625 
Q 40.578125 54.546875 44.28125 53.078125 
z
" id="DejaVuSans-115"/>
     </defs>
     <g transform="translate(18.745312 186.450781)rotate(-90)scale(0.1 -0.1)">
      <use xlink:href="#DejaVuSans-80"/>
      <use x="58.552734" xlink:href="#DejaVuSans-114"/>
      <use x="97.416016" xlink:href="#DejaVuSans-111"/>
      <use x="158.597656" xlink:href="#DejaVuSans-98"/>
      <use x="222.074219" xlink:href="#DejaVuSans-97"/>
      <use x="283.353516" xlink:href="#DejaVuSans-98"/>
      <use x="346.830078" xlink:href="#DejaVuSans-105"/>
      <use x="374.613281" xlink:href="#DejaVuSans-108"/>
      <use x="402.396484" xlink:href="#DejaVuSans-105"/>
      <use x="430.179688" xlink:href="#DejaVuSans-116"/>
      <use x="469.388672" xlink:href="#DejaVuSans-121"/>
      <use x="528.568359" xlink:href="#DejaVuSans-32"/>
      <use x="560.355469" xlink:href="#DejaVuSans-100"/>
      <use x="623.832031" xlink:href="#DejaVuSans-101"/>
      <use x="685.355469" xlink:href="#DejaVuSans-110"/>
      <use x="748.734375" xlink:href="#DejaVuSans-115"/>
      <use x="800.833984" xlink:href="#DejaVuSans-105"/>
      <use x="828.617188" xlink:href="#DejaVuSans-116"/>
      <use x="867.826172" xlink:href="#DejaVuSans-121"/>
     </g>
    </g>
   </g>
   <g id="line2d_13">
    <path clip-path="url(#p859a69e44e)" d="M 81.306818 243.1 
L 106.351544 243.057245 
L 107.824763 242.925009 
L 109.297982 242.497444 
L 110.771201 241.323891 
L 112.244421 238.551539 
L 113.71764 232.850235 
L 115.190859 222.550017 
L 116.664078 206.088457 
L 118.137297 182.710947 
L 119.610516 153.169049 
L 122.556955 87.518845 
L 124.030174 60.335615 
L 125.503393 42.693324 
L 126.976612 37.1 
L 128.449831 43.836269 
L 129.923051 61.083051 
L 131.39627 85.593692 
L 134.342708 141.683648 
L 135.815927 167.252555 
L 137.289146 188.810418 
L 138.762366 205.832528 
L 140.235585 218.518525 
L 141.708804 227.493146 
L 143.182023 233.546529 
L 144.655242 237.453182 
L 146.128461 239.872581 
L 147.601681 241.313979 
L 149.0749 242.141858 
L 150.548119 242.601136 
L 152.021338 242.847646 
L 154.967776 243.040543 
L 162.333872 243.09897 
L 434.879418 243.1 
L 816.443182 243.1 
L 816.443182 243.1 
" style="fill:none;stroke:#1f77b4;stroke-linecap:square;stroke-opacity:0.9;"/>
   </g>
   <g id="line2d_14">
    <path clip-path="url(#p859a69e44e)" d="M 81.306818 243.1 
L 107.824763 243.049458 
L 109.297982 242.939891 
L 110.771201 242.652094 
L 112.244421 241.980254 
L 113.71764 240.572728 
L 115.190859 237.904474 
L 116.664078 233.295965 
L 118.137297 226.003008 
L 119.610516 215.381553 
L 121.083736 201.09966 
L 122.556955 183.338688 
L 125.503393 141.253091 
L 126.976612 120.232559 
L 128.449831 101.875041 
L 129.923051 88.008243 
L 131.39627 79.95415 
L 132.869489 78.327762 
L 134.342708 82.982981 
L 135.815927 93.102274 
L 137.289146 107.391976 
L 140.235585 142.386394 
L 143.182023 176.877313 
L 144.655242 191.618159 
L 146.128461 204.127223 
L 147.601681 214.34013 
L 149.0749 222.391035 
L 150.548119 228.536174 
L 152.021338 233.088199 
L 153.494557 236.366838 
L 154.967776 238.666721 
L 156.440996 240.240178 
L 157.914215 241.291362 
L 159.387434 241.977886 
L 160.860653 242.416636 
L 163.807091 242.859766 
L 168.226749 243.055868 
L 178.539283 243.099502 
L 816.443182 243.1 
L 816.443182 243.1 
" style="fill:none;stroke:#ff7f0e;stroke-linecap:square;stroke-opacity:0.9;"/>
   </g>
   <g id="line2d_15">
    <path clip-path="url(#p859a69e44e)" d="M 81.306818 243.1 
L 642.60332 243.022587 
L 647.022978 242.867439 
L 649.969416 242.636914 
L 652.915854 242.21098 
L 655.862293 241.455883 
L 657.335512 240.895854 
L 658.808731 240.173512 
L 660.28195 239.252301 
L 661.755169 238.091009 
L 663.228389 236.644354 
L 664.701608 234.86406 
L 666.174827 232.700504 
L 667.648046 230.104981 
L 669.121265 227.032629 
L 670.594484 223.445964 
L 672.067704 219.318939 
L 673.540923 214.641334 
L 675.014142 209.423214 
L 677.96058 197.531517 
L 680.907019 184.267982 
L 685.326676 164.331706 
L 686.799895 158.444481 
L 688.273114 153.289136 
L 689.746334 149.068921 
L 691.219553 145.96442 
L 692.692772 144.121438 
L 694.165991 143.640285 
L 695.63921 144.567472 
L 697.112429 146.890724 
L 698.585649 150.537947 
L 700.058868 155.380418 
L 701.532087 161.240089 
L 703.005306 167.900454 
L 705.951744 182.64754 
L 708.898183 197.660216 
L 711.844621 211.264102 
L 713.31784 217.173417 
L 714.791059 222.380904 
L 716.264279 226.859972 
L 717.737498 230.621084 
L 719.210717 233.704611 
L 720.683936 236.172706 
L 722.157155 238.101092 
L 723.630374 239.571506 
L 725.103594 240.665368 
L 726.576813 241.458954 
L 728.050032 242.020182 
L 729.523251 242.406882 
L 732.469689 242.835729 
L 736.889347 243.049395 
L 745.728662 243.099202 
L 816.443182 243.1 
L 816.443182 243.1 
" style="fill:none;stroke:#2ca02c;stroke-linecap:square;stroke-opacity:0.9;"/>
   </g>
   <g id="patch_3">
    <path d="M 44.55 253.4 
L 44.55 26.8 
" style="fill:none;stroke:#000000;stroke-linecap:square;stroke-linejoin:miter;stroke-width:0.8;"/>
   </g>
   <g id="patch_4">
    <path d="M 853.2 253.4 
L 853.2 26.8 
" style="fill:none;stroke:#000000;stroke-linecap:square;stroke-linejoin:miter;stroke-width:0.8;"/>
   </g>
   <g id="patch_5">
    <path d="M 44.55 253.4 
L 853.2 253.4 
" style="fill:none;stroke:#000000;stroke-linecap:square;stroke-linejoin:miter;stroke-width:0.8;"/>
   </g>
   <g id="patch_6">
    <path d="M 44.55 26.8 
L 853.2 26.8 
" style="fill:none;stroke:#000000;stroke-linecap:square;stroke-linejoin:miter;stroke-width:0.8;"/>
   </g>
   <g id="text_15">
    <!-- Uncertainty in estimated wheat flour fortification coverage in India (Rajasthan) -->
    <defs>
     <path d="M 8.6875 72.90625 
L 18.609375 72.90625 
L 18.609375 28.609375 
Q 18.609375 16.890625 22.84375 11.734375 
Q 27.09375 6.59375 36.625 6.59375 
Q 46.09375 6.59375 50.34375 11.734375 
Q 54.59375 16.890625 54.59375 28.609375 
L 54.59375 72.90625 
L 64.5 72.90625 
L 64.5 27.390625 
Q 64.5 13.140625 57.4375 5.859375 
Q 50.390625 -1.421875 36.625 -1.421875 
Q 22.796875 -1.421875 15.734375 5.859375 
Q 8.6875 13.140625 8.6875 27.390625 
z
" id="DejaVuSans-85"/>
     <path d="M 48.78125 52.59375 
L 48.78125 44.1875 
Q 44.96875 46.296875 41.140625 47.34375 
Q 37.3125 48.390625 33.40625 48.390625 
Q 24.65625 48.390625 19.8125 42.84375 
Q 14.984375 37.3125 14.984375 27.296875 
Q 14.984375 17.28125 19.8125 11.734375 
Q 24.65625 6.203125 33.40625 6.203125 
Q 37.3125 6.203125 41.140625 7.25 
Q 44.96875 8.296875 48.78125 10.40625 
L 48.78125 2.09375 
Q 45.015625 0.34375 40.984375 -0.53125 
Q 36.96875 -1.421875 32.421875 -1.421875 
Q 20.0625 -1.421875 12.78125 6.34375 
Q 5.515625 14.109375 5.515625 27.296875 
Q 5.515625 40.671875 12.859375 48.328125 
Q 20.21875 56 33.015625 56 
Q 37.15625 56 41.109375 55.140625 
Q 45.0625 54.296875 48.78125 52.59375 
z
" id="DejaVuSans-99"/>
     <path d="M 52 44.1875 
Q 55.375 50.25 60.0625 53.125 
Q 64.75 56 71.09375 56 
Q 79.640625 56 84.28125 50.015625 
Q 88.921875 44.046875 88.921875 33.015625 
L 88.921875 0 
L 79.890625 0 
L 79.890625 32.71875 
Q 79.890625 40.578125 77.09375 44.375 
Q 74.3125 48.1875 68.609375 48.1875 
Q 61.625 48.1875 57.5625 43.546875 
Q 53.515625 38.921875 53.515625 30.90625 
L 53.515625 0 
L 44.484375 0 
L 44.484375 32.71875 
Q 44.484375 40.625 41.703125 44.40625 
Q 38.921875 48.1875 33.109375 48.1875 
Q 26.21875 48.1875 22.15625 43.53125 
Q 18.109375 38.875 18.109375 30.90625 
L 18.109375 0 
L 9.078125 0 
L 9.078125 54.6875 
L 18.109375 54.6875 
L 18.109375 46.1875 
Q 21.1875 51.21875 25.484375 53.609375 
Q 29.78125 56 35.6875 56 
Q 41.65625 56 45.828125 52.96875 
Q 50 49.953125 52 44.1875 
z
" id="DejaVuSans-109"/>
     <path d="M 4.203125 54.6875 
L 13.1875 54.6875 
L 24.421875 12.015625 
L 35.59375 54.6875 
L 46.1875 54.6875 
L 57.421875 12.015625 
L 68.609375 54.6875 
L 77.59375 54.6875 
L 63.28125 0 
L 52.6875 0 
L 40.921875 44.828125 
L 29.109375 0 
L 18.5 0 
z
" id="DejaVuSans-119"/>
     <path d="M 54.890625 33.015625 
L 54.890625 0 
L 45.90625 0 
L 45.90625 32.71875 
Q 45.90625 40.484375 42.875 44.328125 
Q 39.84375 48.1875 33.796875 48.1875 
Q 26.515625 48.1875 22.3125 43.546875 
Q 18.109375 38.921875 18.109375 30.90625 
L 18.109375 0 
L 9.078125 0 
L 9.078125 75.984375 
L 18.109375 75.984375 
L 18.109375 46.1875 
Q 21.34375 51.125 25.703125 53.5625 
Q 30.078125 56 35.796875 56 
Q 45.21875 56 50.046875 50.171875 
Q 54.890625 44.34375 54.890625 33.015625 
z
" id="DejaVuSans-104"/>
     <path d="M 2.984375 54.6875 
L 12.5 54.6875 
L 29.59375 8.796875 
L 46.6875 54.6875 
L 56.203125 54.6875 
L 35.6875 0 
L 23.484375 0 
z
" id="DejaVuSans-118"/>
     <path d="M 45.40625 27.984375 
Q 45.40625 37.75 41.375 43.109375 
Q 37.359375 48.484375 30.078125 48.484375 
Q 22.859375 48.484375 18.828125 43.109375 
Q 14.796875 37.75 14.796875 27.984375 
Q 14.796875 18.265625 18.828125 12.890625 
Q 22.859375 7.515625 30.078125 7.515625 
Q 37.359375 7.515625 41.375 12.890625 
Q 45.40625 18.265625 45.40625 27.984375 
z
M 54.390625 6.78125 
Q 54.390625 -7.171875 48.1875 -13.984375 
Q 42 -20.796875 29.203125 -20.796875 
Q 24.46875 -20.796875 20.265625 -20.09375 
Q 16.0625 -19.390625 12.109375 -17.921875 
L 12.109375 -9.1875 
Q 16.0625 -11.328125 19.921875 -12.34375 
Q 23.78125 -13.375 27.78125 -13.375 
Q 36.625 -13.375 41.015625 -8.765625 
Q 45.40625 -4.15625 45.40625 5.171875 
L 45.40625 9.625 
Q 42.625 4.78125 38.28125 2.390625 
Q 33.9375 0 27.875 0 
Q 17.828125 0 11.671875 7.65625 
Q 5.515625 15.328125 5.515625 27.984375 
Q 5.515625 40.671875 11.671875 48.328125 
Q 17.828125 56 27.875 56 
Q 33.9375 56 38.28125 53.609375 
Q 42.625 51.21875 45.40625 46.390625 
L 45.40625 54.6875 
L 54.390625 54.6875 
z
" id="DejaVuSans-103"/>
     <path d="M 9.8125 72.90625 
L 19.671875 72.90625 
L 19.671875 0 
L 9.8125 0 
z
" id="DejaVuSans-73"/>
     <path d="M 31 75.875 
Q 24.46875 64.65625 21.28125 53.65625 
Q 18.109375 42.671875 18.109375 31.390625 
Q 18.109375 20.125 21.3125 9.0625 
Q 24.515625 -2 31 -13.1875 
L 23.1875 -13.1875 
Q 15.875 -1.703125 12.234375 9.375 
Q 8.59375 20.453125 8.59375 31.390625 
Q 8.59375 42.28125 12.203125 53.3125 
Q 15.828125 64.359375 23.1875 75.875 
z
" id="DejaVuSans-40"/>
     <path d="M 44.390625 34.1875 
Q 47.5625 33.109375 50.5625 29.59375 
Q 53.5625 26.078125 56.59375 19.921875 
L 66.609375 0 
L 56 0 
L 46.6875 18.703125 
Q 43.0625 26.03125 39.671875 28.421875 
Q 36.28125 30.8125 30.421875 30.8125 
L 19.671875 30.8125 
L 19.671875 0 
L 9.8125 0 
L 9.8125 72.90625 
L 32.078125 72.90625 
Q 44.578125 72.90625 50.734375 67.671875 
Q 56.890625 62.453125 56.890625 51.90625 
Q 56.890625 45.015625 53.6875 40.46875 
Q 50.484375 35.9375 44.390625 34.1875 
z
M 19.671875 64.796875 
L 19.671875 38.921875 
L 32.078125 38.921875 
Q 39.203125 38.921875 42.84375 42.21875 
Q 46.484375 45.515625 46.484375 51.90625 
Q 46.484375 58.296875 42.84375 61.546875 
Q 39.203125 64.796875 32.078125 64.796875 
z
" id="DejaVuSans-82"/>
     <path d="M 9.421875 54.6875 
L 18.40625 54.6875 
L 18.40625 -0.984375 
Q 18.40625 -11.421875 14.421875 -16.109375 
Q 10.453125 -20.796875 1.609375 -20.796875 
L -1.8125 -20.796875 
L -1.8125 -13.1875 
L 0.59375 -13.1875 
Q 5.71875 -13.1875 7.5625 -10.8125 
Q 9.421875 -8.453125 9.421875 -0.984375 
z
M 9.421875 75.984375 
L 18.40625 75.984375 
L 18.40625 64.59375 
L 9.421875 64.59375 
z
" id="DejaVuSans-106"/>
     <path d="M 8.015625 75.875 
L 15.828125 75.875 
Q 23.140625 64.359375 26.78125 53.3125 
Q 30.421875 42.28125 30.421875 31.390625 
Q 30.421875 20.453125 26.78125 9.375 
Q 23.140625 -1.703125 15.828125 -13.1875 
L 8.015625 -13.1875 
Q 14.5 -2 17.703125 9.0625 
Q 20.90625 20.125 20.90625 31.390625 
Q 20.90625 42.671875 17.703125 53.65625 
Q 14.5 64.65625 8.015625 75.875 
z
" id="DejaVuSans-41"/>
    </defs>
    <g transform="translate(211.764375 20.8)scale(0.12 -0.12)">
     <use xlink:href="#DejaVuSans-85"/>
     <use x="73.193359" xlink:href="#DejaVuSans-110"/>
     <use x="136.572266" xlink:href="#DejaVuSans-99"/>
     <use x="191.552734" xlink:href="#DejaVuSans-101"/>
     <use x="253.076172" xlink:href="#DejaVuSans-114"/>
     <use x="294.189453" xlink:href="#DejaVuSans-116"/>
     <use x="333.398438" xlink:href="#DejaVuSans-97"/>
     <use x="394.677734" xlink:href="#DejaVuSans-105"/>
     <use x="422.460938" xlink:href="#DejaVuSans-110"/>
     <use x="485.839844" xlink:href="#DejaVuSans-116"/>
     <use x="525.048828" xlink:href="#DejaVuSans-121"/>
     <use x="584.228516" xlink:href="#DejaVuSans-32"/>
     <use x="616.015625" xlink:href="#DejaVuSans-105"/>
     <use x="643.798828" xlink:href="#DejaVuSans-110"/>
     <use x="707.177734" xlink:href="#DejaVuSans-32"/>
     <use x="738.964844" xlink:href="#DejaVuSans-101"/>
     <use x="800.488281" xlink:href="#DejaVuSans-115"/>
     <use x="852.587891" xlink:href="#DejaVuSans-116"/>
     <use x="891.796875" xlink:href="#DejaVuSans-105"/>
     <use x="919.580078" xlink:href="#DejaVuSans-109"/>
     <use x="1016.992188" xlink:href="#DejaVuSans-97"/>
     <use x="1078.271484" xlink:href="#DejaVuSans-116"/>
     <use x="1117.480469" xlink:href="#DejaVuSans-101"/>
     <use x="1179.003906" xlink:href="#DejaVuSans-100"/>
     <use x="1242.480469" xlink:href="#DejaVuSans-32"/>
     <use x="1274.267578" xlink:href="#DejaVuSans-119"/>
     <use x="1356.054688" xlink:href="#DejaVuSans-104"/>
     <use x="1419.433594" xlink:href="#DejaVuSans-101"/>
     <use x="1480.957031" xlink:href="#DejaVuSans-97"/>
     <use x="1542.236328" xlink:href="#DejaVuSans-116"/>
     <use x="1581.445312" xlink:href="#DejaVuSans-32"/>
     <use x="1613.232422" xlink:href="#DejaVuSans-102"/>
     <use x="1648.4375" xlink:href="#DejaVuSans-108"/>
     <use x="1676.220703" xlink:href="#DejaVuSans-111"/>
     <use x="1737.402344" xlink:href="#DejaVuSans-117"/>
     <use x="1800.78125" xlink:href="#DejaVuSans-114"/>
     <use x="1841.894531" xlink:href="#DejaVuSans-32"/>
     <use x="1873.681641" xlink:href="#DejaVuSans-102"/>
     <use x="1908.886719" xlink:href="#DejaVuSans-111"/>
     <use x="1970.068359" xlink:href="#DejaVuSans-114"/>
     <use x="2011.181641" xlink:href="#DejaVuSans-116"/>
     <use x="2050.390625" xlink:href="#DejaVuSans-105"/>
     <use x="2078.173828" xlink:href="#DejaVuSans-102"/>
     <use x="2113.378906" xlink:href="#DejaVuSans-105"/>
     <use x="2141.162109" xlink:href="#DejaVuSans-99"/>
     <use x="2196.142578" xlink:href="#DejaVuSans-97"/>
     <use x="2257.421875" xlink:href="#DejaVuSans-116"/>
     <use x="2296.630859" xlink:href="#DejaVuSans-105"/>
     <use x="2324.414062" xlink:href="#DejaVuSans-111"/>
     <use x="2385.595703" xlink:href="#DejaVuSans-110"/>
     <use x="2448.974609" xlink:href="#DejaVuSans-32"/>
     <use x="2480.761719" xlink:href="#DejaVuSans-99"/>
     <use x="2535.742188" xlink:href="#DejaVuSans-111"/>
     <use x="2596.923828" xlink:href="#DejaVuSans-118"/>
     <use x="2656.103516" xlink:href="#DejaVuSans-101"/>
     <use x="2717.626953" xlink:href="#DejaVuSans-114"/>
     <use x="2758.740234" xlink:href="#DejaVuSans-97"/>
     <use x="2820.019531" xlink:href="#DejaVuSans-103"/>
     <use x="2883.496094" xlink:href="#DejaVuSans-101"/>
     <use x="2945.019531" xlink:href="#DejaVuSans-32"/>
     <use x="2976.806641" xlink:href="#DejaVuSans-105"/>
     <use x="3004.589844" xlink:href="#DejaVuSans-110"/>
     <use x="3067.96875" xlink:href="#DejaVuSans-32"/>
     <use x="3099.755859" xlink:href="#DejaVuSans-73"/>
     <use x="3129.248047" xlink:href="#DejaVuSans-110"/>
     <use x="3192.626953" xlink:href="#DejaVuSans-100"/>
     <use x="3256.103516" xlink:href="#DejaVuSans-105"/>
     <use x="3283.886719" xlink:href="#DejaVuSans-97"/>
     <use x="3345.166016" xlink:href="#DejaVuSans-32"/>
     <use x="3376.953125" xlink:href="#DejaVuSans-40"/>
     <use x="3415.966797" xlink:href="#DejaVuSans-82"/>
     <use x="3483.199219" xlink:href="#DejaVuSans-97"/>
     <use x="3544.478516" xlink:href="#DejaVuSans-106"/>
     <use x="3572.261719" xlink:href="#DejaVuSans-97"/>
     <use x="3633.541016" xlink:href="#DejaVuSans-115"/>
     <use x="3685.640625" xlink:href="#DejaVuSans-116"/>
     <use x="3724.849609" xlink:href="#DejaVuSans-104"/>
     <use x="3788.228516" xlink:href="#DejaVuSans-97"/>
     <use x="3849.507812" xlink:href="#DejaVuSans-110"/>
     <use x="3912.886719" xlink:href="#DejaVuSans-41"/>
    </g>
   </g>
   <g id="legend_1">
    <g id="patch_7">
     <path d="M 739.634375 79.66875 
L 846.2 79.66875 
Q 848.2 79.66875 848.2 77.66875 
L 848.2 33.8 
Q 848.2 31.8 846.2 31.8 
L 739.634375 31.8 
Q 737.634375 31.8 737.634375 33.8 
L 737.634375 77.66875 
Q 737.634375 79.66875 739.634375 79.66875 
z
" style="fill:#ffffff;opacity:0.8;stroke:#cccccc;stroke-linejoin:miter;"/>
    </g>
    <g id="line2d_16">
     <path d="M 741.634375 39.898437 
L 761.634375 39.898437 
" style="fill:none;stroke:#1f77b4;stroke-linecap:square;stroke-opacity:0.9;"/>
    </g>
    <g id="line2d_17"/>
    <g id="text_16">
     <!-- eats_fortified -->
     <defs>
      <path d="M 50.984375 -16.609375 
L 50.984375 -23.578125 
L -0.984375 -23.578125 
L -0.984375 -16.609375 
z
" id="DejaVuSans-95"/>
     </defs>
     <g transform="translate(769.634375 43.398437)scale(0.1 -0.1)">
      <use xlink:href="#DejaVuSans-101"/>
      <use x="61.523438" xlink:href="#DejaVuSans-97"/>
      <use x="122.802734" xlink:href="#DejaVuSans-116"/>
      <use x="162.011719" xlink:href="#DejaVuSans-115"/>
      <use x="214.111328" xlink:href="#DejaVuSans-95"/>
      <use x="264.111328" xlink:href="#DejaVuSans-102"/>
      <use x="299.316406" xlink:href="#DejaVuSans-111"/>
      <use x="360.498047" xlink:href="#DejaVuSans-114"/>
      <use x="401.611328" xlink:href="#DejaVuSans-116"/>
      <use x="440.820312" xlink:href="#DejaVuSans-105"/>
      <use x="468.603516" xlink:href="#DejaVuSans-102"/>
      <use x="503.808594" xlink:href="#DejaVuSans-105"/>
      <use x="531.591797" xlink:href="#DejaVuSans-101"/>
      <use x="593.115234" xlink:href="#DejaVuSans-100"/>
     </g>
    </g>
    <g id="line2d_18">
     <path d="M 741.634375 54.854687 
L 761.634375 54.854687 
" style="fill:none;stroke:#ff7f0e;stroke-linecap:square;stroke-opacity:0.9;"/>
    </g>
    <g id="line2d_19"/>
    <g id="text_17">
     <!-- eats_fortifiable -->
     <g transform="translate(769.634375 58.354687)scale(0.1 -0.1)">
      <use xlink:href="#DejaVuSans-101"/>
      <use x="61.523438" xlink:href="#DejaVuSans-97"/>
      <use x="122.802734" xlink:href="#DejaVuSans-116"/>
      <use x="162.011719" xlink:href="#DejaVuSans-115"/>
      <use x="214.111328" xlink:href="#DejaVuSans-95"/>
      <use x="264.111328" xlink:href="#DejaVuSans-102"/>
      <use x="299.316406" xlink:href="#DejaVuSans-111"/>
      <use x="360.498047" xlink:href="#DejaVuSans-114"/>
      <use x="401.611328" xlink:href="#DejaVuSans-116"/>
      <use x="440.820312" xlink:href="#DejaVuSans-105"/>
      <use x="468.603516" xlink:href="#DejaVuSans-102"/>
      <use x="503.808594" xlink:href="#DejaVuSans-105"/>
      <use x="531.591797" xlink:href="#DejaVuSans-97"/>
      <use x="592.871094" xlink:href="#DejaVuSans-98"/>
      <use x="656.347656" xlink:href="#DejaVuSans-108"/>
      <use x="684.130859" xlink:href="#DejaVuSans-101"/>
     </g>
    </g>
    <g id="line2d_20">
     <path d="M 741.634375 69.810937 
L 761.634375 69.810937 
" style="fill:none;stroke:#2ca02c;stroke-linecap:square;stroke-opacity:0.9;"/>
    </g>
    <g id="line2d_21"/>
    <g id="text_18">
     <!-- eats_vehicle -->
     <g transform="translate(769.634375 73.310937)scale(0.1 -0.1)">
      <use xlink:href="#DejaVuSans-101"/>
      <use x="61.523438" xlink:href="#DejaVuSans-97"/>
      <use x="122.802734" xlink:href="#DejaVuSans-116"/>
      <use x="162.011719" xlink:href="#DejaVuSans-115"/>
      <use x="214.111328" xlink:href="#DejaVuSans-95"/>
      <use x="264.111328" xlink:href="#DejaVuSans-118"/>
      <use x="323.291016" xlink:href="#DejaVuSans-101"/>
      <use x="384.814453" xlink:href="#DejaVuSans-104"/>
      <use x="448.193359" xlink:href="#DejaVuSans-105"/>
      <use x="475.976562" xlink:href="#DejaVuSans-99"/>
      <use x="530.957031" xlink:href="#DejaVuSans-108"/>
      <use x="558.740234" xlink:href="#DejaVuSans-101"/>
     </g>
    </g>
   </g>
  </g>
  <g id="axes_2">
   <g id="patch_8">
    <path d="M 44.55 537.8 
L 853.2 537.8 
L 853.2 311.2 
L 44.55 311.2 
z
" style="fill:#ffffff;"/>
   </g>
   <g id="matplotlib.axis_3">
    <g id="xtick_7">
     <g id="line2d_22">
      <g>
       <use style="stroke:#000000;stroke-width:0.8;" x="81.306818" xlink:href="#mfc7320f0a8" y="537.8"/>
      </g>
     </g>
     <g id="text_19">
      <!-- 0.0 -->
      <g transform="translate(73.355256 552.398438)scale(0.1 -0.1)">
       <use xlink:href="#DejaVuSans-48"/>
       <use x="63.623047" xlink:href="#DejaVuSans-46"/>
       <use x="95.410156" xlink:href="#DejaVuSans-48"/>
      </g>
     </g>
    </g>
    <g id="xtick_8">
     <g id="line2d_23">
      <g>
       <use style="stroke:#000000;stroke-width:0.8;" x="228.334091" xlink:href="#mfc7320f0a8" y="537.8"/>
      </g>
     </g>
     <g id="text_20">
      <!-- 0.2 -->
      <g transform="translate(220.382528 552.398438)scale(0.1 -0.1)">
       <use xlink:href="#DejaVuSans-48"/>
       <use x="63.623047" xlink:href="#DejaVuSans-46"/>
       <use x="95.410156" xlink:href="#DejaVuSans-50"/>
      </g>
     </g>
    </g>
    <g id="xtick_9">
     <g id="line2d_24">
      <g>
       <use style="stroke:#000000;stroke-width:0.8;" x="375.361364" xlink:href="#mfc7320f0a8" y="537.8"/>
      </g>
     </g>
     <g id="text_21">
      <!-- 0.4 -->
      <g transform="translate(367.409801 552.398438)scale(0.1 -0.1)">
       <use xlink:href="#DejaVuSans-48"/>
       <use x="63.623047" xlink:href="#DejaVuSans-46"/>
       <use x="95.410156" xlink:href="#DejaVuSans-52"/>
      </g>
     </g>
    </g>
    <g id="xtick_10">
     <g id="line2d_25">
      <g>
       <use style="stroke:#000000;stroke-width:0.8;" x="522.388636" xlink:href="#mfc7320f0a8" y="537.8"/>
      </g>
     </g>
     <g id="text_22">
      <!-- 0.6 -->
      <g transform="translate(514.437074 552.398438)scale(0.1 -0.1)">
       <use xlink:href="#DejaVuSans-48"/>
       <use x="63.623047" xlink:href="#DejaVuSans-46"/>
       <use x="95.410156" xlink:href="#DejaVuSans-54"/>
      </g>
     </g>
    </g>
    <g id="xtick_11">
     <g id="line2d_26">
      <g>
       <use style="stroke:#000000;stroke-width:0.8;" x="669.415909" xlink:href="#mfc7320f0a8" y="537.8"/>
      </g>
     </g>
     <g id="text_23">
      <!-- 0.8 -->
      <g transform="translate(661.464347 552.398438)scale(0.1 -0.1)">
       <use xlink:href="#DejaVuSans-48"/>
       <use x="63.623047" xlink:href="#DejaVuSans-46"/>
       <use x="95.410156" xlink:href="#DejaVuSans-56"/>
      </g>
     </g>
    </g>
    <g id="xtick_12">
     <g id="line2d_27">
      <g>
       <use style="stroke:#000000;stroke-width:0.8;" x="816.443182" xlink:href="#mfc7320f0a8" y="537.8"/>
      </g>
     </g>
     <g id="text_24">
      <!-- 1.0 -->
      <g transform="translate(808.491619 552.398438)scale(0.1 -0.1)">
       <use xlink:href="#DejaVuSans-49"/>
       <use x="63.623047" xlink:href="#DejaVuSans-46"/>
       <use x="95.410156" xlink:href="#DejaVuSans-48"/>
      </g>
     </g>
    </g>
    <g id="text_25">
     <!-- Proportion of population -->
     <g transform="translate(388.474219 566.076562)scale(0.1 -0.1)">
      <use xlink:href="#DejaVuSans-80"/>
      <use x="58.552734" xlink:href="#DejaVuSans-114"/>
      <use x="97.416016" xlink:href="#DejaVuSans-111"/>
      <use x="158.597656" xlink:href="#DejaVuSans-112"/>
      <use x="222.074219" xlink:href="#DejaVuSans-111"/>
      <use x="283.255859" xlink:href="#DejaVuSans-114"/>
      <use x="324.369141" xlink:href="#DejaVuSans-116"/>
      <use x="363.578125" xlink:href="#DejaVuSans-105"/>
      <use x="391.361328" xlink:href="#DejaVuSans-111"/>
      <use x="452.542969" xlink:href="#DejaVuSans-110"/>
      <use x="515.921875" xlink:href="#DejaVuSans-32"/>
      <use x="547.708984" xlink:href="#DejaVuSans-111"/>
      <use x="608.890625" xlink:href="#DejaVuSans-102"/>
      <use x="644.095703" xlink:href="#DejaVuSans-32"/>
      <use x="675.882812" xlink:href="#DejaVuSans-112"/>
      <use x="739.359375" xlink:href="#DejaVuSans-111"/>
      <use x="800.541016" xlink:href="#DejaVuSans-112"/>
      <use x="864.017578" xlink:href="#DejaVuSans-117"/>
      <use x="927.396484" xlink:href="#DejaVuSans-108"/>
      <use x="955.179688" xlink:href="#DejaVuSans-97"/>
      <use x="1016.458984" xlink:href="#DejaVuSans-116"/>
      <use x="1055.667969" xlink:href="#DejaVuSans-105"/>
      <use x="1083.451172" xlink:href="#DejaVuSans-111"/>
      <use x="1144.632812" xlink:href="#DejaVuSans-110"/>
     </g>
    </g>
   </g>
   <g id="matplotlib.axis_4">
    <g id="ytick_7">
     <g id="line2d_28">
      <g>
       <use style="stroke:#000000;stroke-width:0.8;" x="44.55" xlink:href="#mc693139589" y="527.5"/>
      </g>
     </g>
     <g id="text_26">
      <!-- 0 -->
      <g transform="translate(31.1875 531.299219)scale(0.1 -0.1)">
       <use xlink:href="#DejaVuSans-48"/>
      </g>
     </g>
    </g>
    <g id="ytick_8">
     <g id="line2d_29">
      <g>
       <use style="stroke:#000000;stroke-width:0.8;" x="44.55" xlink:href="#mc693139589" y="495.908281"/>
      </g>
     </g>
     <g id="text_27">
      <!-- 5 -->
      <g transform="translate(31.1875 499.7075)scale(0.1 -0.1)">
       <use xlink:href="#DejaVuSans-53"/>
      </g>
     </g>
    </g>
    <g id="ytick_9">
     <g id="line2d_30">
      <g>
       <use style="stroke:#000000;stroke-width:0.8;" x="44.55" xlink:href="#mc693139589" y="464.316563"/>
      </g>
     </g>
     <g id="text_28">
      <!-- 10 -->
      <g transform="translate(24.825 468.115781)scale(0.1 -0.1)">
       <use xlink:href="#DejaVuSans-49"/>
       <use x="63.623047" xlink:href="#DejaVuSans-48"/>
      </g>
     </g>
    </g>
    <g id="ytick_10">
     <g id="line2d_31">
      <g>
       <use style="stroke:#000000;stroke-width:0.8;" x="44.55" xlink:href="#mc693139589" y="432.724844"/>
      </g>
     </g>
     <g id="text_29">
      <!-- 15 -->
      <g transform="translate(24.825 436.524063)scale(0.1 -0.1)">
       <use xlink:href="#DejaVuSans-49"/>
       <use x="63.623047" xlink:href="#DejaVuSans-53"/>
      </g>
     </g>
    </g>
    <g id="ytick_11">
     <g id="line2d_32">
      <g>
       <use style="stroke:#000000;stroke-width:0.8;" x="44.55" xlink:href="#mc693139589" y="401.133125"/>
      </g>
     </g>
     <g id="text_30">
      <!-- 20 -->
      <g transform="translate(24.825 404.932344)scale(0.1 -0.1)">
       <use xlink:href="#DejaVuSans-50"/>
       <use x="63.623047" xlink:href="#DejaVuSans-48"/>
      </g>
     </g>
    </g>
    <g id="ytick_12">
     <g id="line2d_33">
      <g>
       <use style="stroke:#000000;stroke-width:0.8;" x="44.55" xlink:href="#mc693139589" y="369.541407"/>
      </g>
     </g>
     <g id="text_31">
      <!-- 25 -->
      <g transform="translate(24.825 373.340625)scale(0.1 -0.1)">
       <use xlink:href="#DejaVuSans-50"/>
       <use x="63.623047" xlink:href="#DejaVuSans-53"/>
      </g>
     </g>
    </g>
    <g id="ytick_13">
     <g id="line2d_34">
      <g>
       <use style="stroke:#000000;stroke-width:0.8;" x="44.55" xlink:href="#mc693139589" y="337.949688"/>
      </g>
     </g>
     <g id="text_32">
      <!-- 30 -->
      <g transform="translate(24.825 341.748907)scale(0.1 -0.1)">
       <use xlink:href="#DejaVuSans-51"/>
       <use x="63.623047" xlink:href="#DejaVuSans-48"/>
      </g>
     </g>
    </g>
    <g id="text_33">
     <!-- Probability density -->
     <g transform="translate(18.745312 470.850781)rotate(-90)scale(0.1 -0.1)">
      <use xlink:href="#DejaVuSans-80"/>
      <use x="58.552734" xlink:href="#DejaVuSans-114"/>
      <use x="97.416016" xlink:href="#DejaVuSans-111"/>
      <use x="158.597656" xlink:href="#DejaVuSans-98"/>
      <use x="222.074219" xlink:href="#DejaVuSans-97"/>
      <use x="283.353516" xlink:href="#DejaVuSans-98"/>
      <use x="346.830078" xlink:href="#DejaVuSans-105"/>
      <use x="374.613281" xlink:href="#DejaVuSans-108"/>
      <use x="402.396484" xlink:href="#DejaVuSans-105"/>
      <use x="430.179688" xlink:href="#DejaVuSans-116"/>
      <use x="469.388672" xlink:href="#DejaVuSans-121"/>
      <use x="528.568359" xlink:href="#DejaVuSans-32"/>
      <use x="560.355469" xlink:href="#DejaVuSans-100"/>
      <use x="623.832031" xlink:href="#DejaVuSans-101"/>
      <use x="685.355469" xlink:href="#DejaVuSans-110"/>
      <use x="748.734375" xlink:href="#DejaVuSans-115"/>
      <use x="800.833984" xlink:href="#DejaVuSans-105"/>
      <use x="828.617188" xlink:href="#DejaVuSans-116"/>
      <use x="867.826172" xlink:href="#DejaVuSans-121"/>
     </g>
    </g>
   </g>
   <g id="line2d_35">
    <path clip-path="url(#p82e147a18b)" d="M 81.306818 527.5 
L 209.476886 527.402853 
L 212.423324 527.18306 
L 213.896543 526.951579 
L 215.369762 526.577149 
L 216.842981 525.989059 
L 218.316201 525.091903 
L 219.78942 523.762209 
L 221.262639 521.847142 
L 222.735858 519.166562 
L 224.209077 515.51969 
L 225.682296 510.697332 
L 227.155516 504.500008 
L 228.628735 496.761428 
L 230.101954 487.375625 
L 231.575173 476.324942 
L 233.048392 463.705121 
L 235.994831 434.804785 
L 240.414488 389.594748 
L 241.887707 376.592648 
L 243.360926 365.744978 
L 244.834146 357.620289 
L 246.307365 352.645559 
L 247.780584 351.069007 
L 249.253803 352.940093 
L 250.727022 358.108852 
L 252.200241 366.2441 
L 253.673461 376.867619 
L 255.14668 389.399528 
L 258.093118 417.664604 
L 261.039556 446.240678 
L 262.512776 459.443406 
L 263.985995 471.490262 
L 265.459214 482.1965 
L 266.932433 491.479379 
L 268.405652 499.342374 
L 269.878871 505.855958 
L 271.352091 511.137553 
L 272.82531 515.332713 
L 274.298529 518.598954 
L 275.771748 521.093005 
L 277.244967 522.961667 
L 278.718186 524.336065 
L 280.191406 525.328764 
L 281.664625 526.033128 
L 283.137844 526.524249 
L 286.084282 527.087683 
L 289.030721 527.336017 
L 294.923597 527.478298 
L 315.548666 527.499997 
L 816.443182 527.5 
L 816.443182 527.5 
" style="fill:none;stroke:#1f77b4;stroke-linecap:square;stroke-opacity:0.9;"/>
   </g>
   <g id="line2d_36">
    <path clip-path="url(#p82e147a18b)" d="M 81.306818 527.5 
L 660.28195 527.390624 
L 663.228389 527.18103 
L 664.701608 526.969986 
L 666.174827 526.635485 
L 667.648046 526.116122 
L 669.121265 525.326534 
L 670.594484 524.151709 
L 672.067704 522.441856 
L 673.540923 520.00909 
L 675.014142 516.627554 
L 676.487361 512.038964 
L 677.96058 505.965566 
L 679.433799 498.13216 
L 680.907019 488.297889 
L 682.380238 476.296948 
L 683.853457 462.085216 
L 685.326676 445.787457 
L 688.273114 408.502044 
L 691.219553 369.869928 
L 692.692772 352.600818 
L 694.165991 338.234632 
L 695.63921 327.844525 
L 697.112429 322.288377 
L 698.585649 322.09602 
L 700.058868 327.39011 
L 701.532087 337.856326 
L 703.005306 352.770684 
L 704.478525 371.081545 
L 710.371402 453.150795 
L 711.844621 470.440312 
L 713.31784 485.130753 
L 714.791059 497.084992 
L 716.264279 506.41019 
L 717.737498 513.386985 
L 719.210717 518.394024 
L 720.683936 521.840594 
L 722.157155 524.115371 
L 723.630374 525.554263 
L 725.103594 526.426001 
L 726.576813 526.93146 
L 728.050032 527.211717 
L 730.99647 527.435203 
L 736.889347 527.498164 
L 816.443182 527.5 
L 816.443182 527.5 
" style="fill:none;stroke:#ff7f0e;stroke-linecap:square;stroke-opacity:0.9;"/>
   </g>
   <g id="line2d_37">
    <path clip-path="url(#p82e147a18b)" d="M 81.306818 527.5 
L 660.28195 527.416624 
L 663.228389 527.252825 
L 666.174827 526.818511 
L 667.648046 526.39944 
L 669.121265 525.755885 
L 670.594484 524.788366 
L 672.067704 523.365105 
L 673.540923 521.317629 
L 675.014142 518.438964 
L 676.487361 514.486206 
L 677.96058 509.18952 
L 679.433799 502.269432 
L 680.907019 493.463669 
L 682.380238 482.563559 
L 683.853457 469.458137 
L 685.326676 454.181811 
L 686.799895 436.959056 
L 689.746334 398.70158 
L 692.692772 360.969665 
L 694.165991 345.006547 
L 695.63921 332.498478 
L 697.112429 324.427111 
L 698.585649 321.5 
L 700.058868 324.052136 
L 701.532087 331.989637 
L 703.005306 344.787794 
L 704.478525 361.5464 
L 705.951744 381.094769 
L 710.371402 443.652027 
L 711.844621 462.107966 
L 713.31784 478.140266 
L 714.791059 491.468029 
L 716.264279 502.084049 
L 717.737498 510.191991 
L 719.210717 516.131271 
L 720.683936 520.304122 
L 722.157155 523.115442 
L 723.630374 524.930904 
L 725.103594 526.054005 
L 726.576813 526.719126 
L 728.050032 527.095896 
L 730.99647 527.405255 
L 735.416128 527.492449 
L 772.246607 527.5 
L 816.443182 527.5 
L 816.443182 527.5 
" style="fill:none;stroke:#2ca02c;stroke-linecap:square;stroke-opacity:0.9;"/>
   </g>
   <g id="patch_9">
    <path d="M 44.55 537.8 
L 44.55 311.2 
" style="fill:none;stroke:#000000;stroke-linecap:square;stroke-linejoin:miter;stroke-width:0.8;"/>
   </g>
   <g id="patch_10">
    <path d="M 853.2 537.8 
L 853.2 311.2 
" style="fill:none;stroke:#000000;stroke-linecap:square;stroke-linejoin:miter;stroke-width:0.8;"/>
   </g>
   <g id="patch_11">
    <path d="M 44.55 537.8 
L 853.2 537.8 
" style="fill:none;stroke:#000000;stroke-linecap:square;stroke-linejoin:miter;stroke-width:0.8;"/>
   </g>
   <g id="patch_12">
    <path d="M 44.55 311.2 
L 853.2 311.2 
" style="fill:none;stroke:#000000;stroke-linecap:square;stroke-linejoin:miter;stroke-width:0.8;"/>
   </g>
   <g id="text_34">
    <!-- Uncertainty in estimated wheat flour fortification coverage in Nigeria (Kano) -->
    <defs>
     <path d="M 9.8125 72.90625 
L 23.09375 72.90625 
L 55.421875 11.921875 
L 55.421875 72.90625 
L 64.984375 72.90625 
L 64.984375 0 
L 51.703125 0 
L 19.390625 60.984375 
L 19.390625 0 
L 9.8125 0 
z
" id="DejaVuSans-78"/>
     <path d="M 9.8125 72.90625 
L 19.671875 72.90625 
L 19.671875 42.09375 
L 52.390625 72.90625 
L 65.09375 72.90625 
L 28.90625 38.921875 
L 67.671875 0 
L 54.6875 0 
L 19.671875 35.109375 
L 19.671875 0 
L 9.8125 0 
z
" id="DejaVuSans-75"/>
    </defs>
    <g transform="translate(219.856875 305.2)scale(0.12 -0.12)">
     <use xlink:href="#DejaVuSans-85"/>
     <use x="73.193359" xlink:href="#DejaVuSans-110"/>
     <use x="136.572266" xlink:href="#DejaVuSans-99"/>
     <use x="191.552734" xlink:href="#DejaVuSans-101"/>
     <use x="253.076172" xlink:href="#DejaVuSans-114"/>
     <use x="294.189453" xlink:href="#DejaVuSans-116"/>
     <use x="333.398438" xlink:href="#DejaVuSans-97"/>
     <use x="394.677734" xlink:href="#DejaVuSans-105"/>
     <use x="422.460938" xlink:href="#DejaVuSans-110"/>
     <use x="485.839844" xlink:href="#DejaVuSans-116"/>
     <use x="525.048828" xlink:href="#DejaVuSans-121"/>
     <use x="584.228516" xlink:href="#DejaVuSans-32"/>
     <use x="616.015625" xlink:href="#DejaVuSans-105"/>
     <use x="643.798828" xlink:href="#DejaVuSans-110"/>
     <use x="707.177734" xlink:href="#DejaVuSans-32"/>
     <use x="738.964844" xlink:href="#DejaVuSans-101"/>
     <use x="800.488281" xlink:href="#DejaVuSans-115"/>
     <use x="852.587891" xlink:href="#DejaVuSans-116"/>
     <use x="891.796875" xlink:href="#DejaVuSans-105"/>
     <use x="919.580078" xlink:href="#DejaVuSans-109"/>
     <use x="1016.992188" xlink:href="#DejaVuSans-97"/>
     <use x="1078.271484" xlink:href="#DejaVuSans-116"/>
     <use x="1117.480469" xlink:href="#DejaVuSans-101"/>
     <use x="1179.003906" xlink:href="#DejaVuSans-100"/>
     <use x="1242.480469" xlink:href="#DejaVuSans-32"/>
     <use x="1274.267578" xlink:href="#DejaVuSans-119"/>
     <use x="1356.054688" xlink:href="#DejaVuSans-104"/>
     <use x="1419.433594" xlink:href="#DejaVuSans-101"/>
     <use x="1480.957031" xlink:href="#DejaVuSans-97"/>
     <use x="1542.236328" xlink:href="#DejaVuSans-116"/>
     <use x="1581.445312" xlink:href="#DejaVuSans-32"/>
     <use x="1613.232422" xlink:href="#DejaVuSans-102"/>
     <use x="1648.4375" xlink:href="#DejaVuSans-108"/>
     <use x="1676.220703" xlink:href="#DejaVuSans-111"/>
     <use x="1737.402344" xlink:href="#DejaVuSans-117"/>
     <use x="1800.78125" xlink:href="#DejaVuSans-114"/>
     <use x="1841.894531" xlink:href="#DejaVuSans-32"/>
     <use x="1873.681641" xlink:href="#DejaVuSans-102"/>
     <use x="1908.886719" xlink:href="#DejaVuSans-111"/>
     <use x="1970.068359" xlink:href="#DejaVuSans-114"/>
     <use x="2011.181641" xlink:href="#DejaVuSans-116"/>
     <use x="2050.390625" xlink:href="#DejaVuSans-105"/>
     <use x="2078.173828" xlink:href="#DejaVuSans-102"/>
     <use x="2113.378906" xlink:href="#DejaVuSans-105"/>
     <use x="2141.162109" xlink:href="#DejaVuSans-99"/>
     <use x="2196.142578" xlink:href="#DejaVuSans-97"/>
     <use x="2257.421875" xlink:href="#DejaVuSans-116"/>
     <use x="2296.630859" xlink:href="#DejaVuSans-105"/>
     <use x="2324.414062" xlink:href="#DejaVuSans-111"/>
     <use x="2385.595703" xlink:href="#DejaVuSans-110"/>
     <use x="2448.974609" xlink:href="#DejaVuSans-32"/>
     <use x="2480.761719" xlink:href="#DejaVuSans-99"/>
     <use x="2535.742188" xlink:href="#DejaVuSans-111"/>
     <use x="2596.923828" xlink:href="#DejaVuSans-118"/>
     <use x="2656.103516" xlink:href="#DejaVuSans-101"/>
     <use x="2717.626953" xlink:href="#DejaVuSans-114"/>
     <use x="2758.740234" xlink:href="#DejaVuSans-97"/>
     <use x="2820.019531" xlink:href="#DejaVuSans-103"/>
     <use x="2883.496094" xlink:href="#DejaVuSans-101"/>
     <use x="2945.019531" xlink:href="#DejaVuSans-32"/>
     <use x="2976.806641" xlink:href="#DejaVuSans-105"/>
     <use x="3004.589844" xlink:href="#DejaVuSans-110"/>
     <use x="3067.96875" xlink:href="#DejaVuSans-32"/>
     <use x="3099.755859" xlink:href="#DejaVuSans-78"/>
     <use x="3174.560547" xlink:href="#DejaVuSans-105"/>
     <use x="3202.34375" xlink:href="#DejaVuSans-103"/>
     <use x="3265.820312" xlink:href="#DejaVuSans-101"/>
     <use x="3327.34375" xlink:href="#DejaVuSans-114"/>
     <use x="3368.457031" xlink:href="#DejaVuSans-105"/>
     <use x="3396.240234" xlink:href="#DejaVuSans-97"/>
     <use x="3457.519531" xlink:href="#DejaVuSans-32"/>
     <use x="3489.306641" xlink:href="#DejaVuSans-40"/>
     <use x="3528.320312" xlink:href="#DejaVuSans-75"/>
     <use x="3592.146484" xlink:href="#DejaVuSans-97"/>
     <use x="3653.425781" xlink:href="#DejaVuSans-110"/>
     <use x="3716.804688" xlink:href="#DejaVuSans-111"/>
     <use x="3777.986328" xlink:href="#DejaVuSans-41"/>
    </g>
   </g>
   <g id="legend_2">
    <g id="patch_13">
     <path d="M 739.634375 364.06875 
L 846.2 364.06875 
Q 848.2 364.06875 848.2 362.06875 
L 848.2 318.2 
Q 848.2 316.2 846.2 316.2 
L 739.634375 316.2 
Q 737.634375 316.2 737.634375 318.2 
L 737.634375 362.06875 
Q 737.634375 364.06875 739.634375 364.06875 
z
" style="fill:#ffffff;opacity:0.8;stroke:#cccccc;stroke-linejoin:miter;"/>
    </g>
    <g id="line2d_38">
     <path d="M 741.634375 324.298437 
L 761.634375 324.298437 
" style="fill:none;stroke:#1f77b4;stroke-linecap:square;stroke-opacity:0.9;"/>
    </g>
    <g id="line2d_39"/>
    <g id="text_35">
     <!-- eats_fortified -->
     <g transform="translate(769.634375 327.798437)scale(0.1 -0.1)">
      <use xlink:href="#DejaVuSans-101"/>
      <use x="61.523438" xlink:href="#DejaVuSans-97"/>
      <use x="122.802734" xlink:href="#DejaVuSans-116"/>
      <use x="162.011719" xlink:href="#DejaVuSans-115"/>
      <use x="214.111328" xlink:href="#DejaVuSans-95"/>
      <use x="264.111328" xlink:href="#DejaVuSans-102"/>
      <use x="299.316406" xlink:href="#DejaVuSans-111"/>
      <use x="360.498047" xlink:href="#DejaVuSans-114"/>
      <use x="401.611328" xlink:href="#DejaVuSans-116"/>
      <use x="440.820312" xlink:href="#DejaVuSans-105"/>
      <use x="468.603516" xlink:href="#DejaVuSans-102"/>
      <use x="503.808594" xlink:href="#DejaVuSans-105"/>
      <use x="531.591797" xlink:href="#DejaVuSans-101"/>
      <use x="593.115234" xlink:href="#DejaVuSans-100"/>
     </g>
    </g>
    <g id="line2d_40">
     <path d="M 741.634375 339.254687 
L 761.634375 339.254687 
" style="fill:none;stroke:#ff7f0e;stroke-linecap:square;stroke-opacity:0.9;"/>
    </g>
    <g id="line2d_41"/>
    <g id="text_36">
     <!-- eats_fortifiable -->
     <g transform="translate(769.634375 342.754687)scale(0.1 -0.1)">
      <use xlink:href="#DejaVuSans-101"/>
      <use x="61.523438" xlink:href="#DejaVuSans-97"/>
      <use x="122.802734" xlink:href="#DejaVuSans-116"/>
      <use x="162.011719" xlink:href="#DejaVuSans-115"/>
      <use x="214.111328" xlink:href="#DejaVuSans-95"/>
      <use x="264.111328" xlink:href="#DejaVuSans-102"/>
      <use x="299.316406" xlink:href="#DejaVuSans-111"/>
      <use x="360.498047" xlink:href="#DejaVuSans-114"/>
      <use x="401.611328" xlink:href="#DejaVuSans-116"/>
      <use x="440.820312" xlink:href="#DejaVuSans-105"/>
      <use x="468.603516" xlink:href="#DejaVuSans-102"/>
      <use x="503.808594" xlink:href="#DejaVuSans-105"/>
      <use x="531.591797" xlink:href="#DejaVuSans-97"/>
      <use x="592.871094" xlink:href="#DejaVuSans-98"/>
      <use x="656.347656" xlink:href="#DejaVuSans-108"/>
      <use x="684.130859" xlink:href="#DejaVuSans-101"/>
     </g>
    </g>
    <g id="line2d_42">
     <path d="M 741.634375 354.210937 
L 761.634375 354.210937 
" style="fill:none;stroke:#2ca02c;stroke-linecap:square;stroke-opacity:0.9;"/>
    </g>
    <g id="line2d_43"/>
    <g id="text_37">
     <!-- eats_vehicle -->
     <g transform="translate(769.634375 357.710937)scale(0.1 -0.1)">
      <use xlink:href="#DejaVuSans-101"/>
      <use x="61.523438" xlink:href="#DejaVuSans-97"/>
      <use x="122.802734" xlink:href="#DejaVuSans-116"/>
      <use x="162.011719" xlink:href="#DejaVuSans-115"/>
      <use x="214.111328" xlink:href="#DejaVuSans-95"/>
      <use x="264.111328" xlink:href="#DejaVuSans-118"/>
      <use x="323.291016" xlink:href="#DejaVuSans-101"/>
      <use x="384.814453" xlink:href="#DejaVuSans-104"/>
      <use x="448.193359" xlink:href="#DejaVuSans-105"/>
      <use x="475.976562" xlink:href="#DejaVuSans-99"/>
      <use x="530.957031" xlink:href="#DejaVuSans-108"/>
      <use x="558.740234" xlink:href="#DejaVuSans-101"/>
     </g>
    </g>
   </g>
  </g>
  <g id="axes_3">
   <g id="patch_14">
    <path d="M 44.55 822.2 
L 853.2 822.2 
L 853.2 595.6 
L 44.55 595.6 
z
" style="fill:#ffffff;"/>
   </g>
   <g id="matplotlib.axis_5">
    <g id="xtick_13">
     <g id="line2d_44">
      <g>
       <use style="stroke:#000000;stroke-width:0.8;" x="81.306818" xlink:href="#mfc7320f0a8" y="822.2"/>
      </g>
     </g>
     <g id="text_38">
      <!-- 0.0 -->
      <g transform="translate(73.355256 836.798437)scale(0.1 -0.1)">
       <use xlink:href="#DejaVuSans-48"/>
       <use x="63.623047" xlink:href="#DejaVuSans-46"/>
       <use x="95.410156" xlink:href="#DejaVuSans-48"/>
      </g>
     </g>
    </g>
    <g id="xtick_14">
     <g id="line2d_45">
      <g>
       <use style="stroke:#000000;stroke-width:0.8;" x="228.334091" xlink:href="#mfc7320f0a8" y="822.2"/>
      </g>
     </g>
     <g id="text_39">
      <!-- 0.2 -->
      <g transform="translate(220.382528 836.798437)scale(0.1 -0.1)">
       <use xlink:href="#DejaVuSans-48"/>
       <use x="63.623047" xlink:href="#DejaVuSans-46"/>
       <use x="95.410156" xlink:href="#DejaVuSans-50"/>
      </g>
     </g>
    </g>
    <g id="xtick_15">
     <g id="line2d_46">
      <g>
       <use style="stroke:#000000;stroke-width:0.8;" x="375.361364" xlink:href="#mfc7320f0a8" y="822.2"/>
      </g>
     </g>
     <g id="text_40">
      <!-- 0.4 -->
      <g transform="translate(367.409801 836.798437)scale(0.1 -0.1)">
       <use xlink:href="#DejaVuSans-48"/>
       <use x="63.623047" xlink:href="#DejaVuSans-46"/>
       <use x="95.410156" xlink:href="#DejaVuSans-52"/>
      </g>
     </g>
    </g>
    <g id="xtick_16">
     <g id="line2d_47">
      <g>
       <use style="stroke:#000000;stroke-width:0.8;" x="522.388636" xlink:href="#mfc7320f0a8" y="822.2"/>
      </g>
     </g>
     <g id="text_41">
      <!-- 0.6 -->
      <g transform="translate(514.437074 836.798437)scale(0.1 -0.1)">
       <use xlink:href="#DejaVuSans-48"/>
       <use x="63.623047" xlink:href="#DejaVuSans-46"/>
       <use x="95.410156" xlink:href="#DejaVuSans-54"/>
      </g>
     </g>
    </g>
    <g id="xtick_17">
     <g id="line2d_48">
      <g>
       <use style="stroke:#000000;stroke-width:0.8;" x="669.415909" xlink:href="#mfc7320f0a8" y="822.2"/>
      </g>
     </g>
     <g id="text_42">
      <!-- 0.8 -->
      <g transform="translate(661.464347 836.798437)scale(0.1 -0.1)">
       <use xlink:href="#DejaVuSans-48"/>
       <use x="63.623047" xlink:href="#DejaVuSans-46"/>
       <use x="95.410156" xlink:href="#DejaVuSans-56"/>
      </g>
     </g>
    </g>
    <g id="xtick_18">
     <g id="line2d_49">
      <g>
       <use style="stroke:#000000;stroke-width:0.8;" x="816.443182" xlink:href="#mfc7320f0a8" y="822.2"/>
      </g>
     </g>
     <g id="text_43">
      <!-- 1.0 -->
      <g transform="translate(808.491619 836.798437)scale(0.1 -0.1)">
       <use xlink:href="#DejaVuSans-49"/>
       <use x="63.623047" xlink:href="#DejaVuSans-46"/>
       <use x="95.410156" xlink:href="#DejaVuSans-48"/>
      </g>
     </g>
    </g>
    <g id="text_44">
     <!-- Proportion of population -->
     <g transform="translate(388.474219 850.476562)scale(0.1 -0.1)">
      <use xlink:href="#DejaVuSans-80"/>
      <use x="58.552734" xlink:href="#DejaVuSans-114"/>
      <use x="97.416016" xlink:href="#DejaVuSans-111"/>
      <use x="158.597656" xlink:href="#DejaVuSans-112"/>
      <use x="222.074219" xlink:href="#DejaVuSans-111"/>
      <use x="283.255859" xlink:href="#DejaVuSans-114"/>
      <use x="324.369141" xlink:href="#DejaVuSans-116"/>
      <use x="363.578125" xlink:href="#DejaVuSans-105"/>
      <use x="391.361328" xlink:href="#DejaVuSans-111"/>
      <use x="452.542969" xlink:href="#DejaVuSans-110"/>
      <use x="515.921875" xlink:href="#DejaVuSans-32"/>
      <use x="547.708984" xlink:href="#DejaVuSans-111"/>
      <use x="608.890625" xlink:href="#DejaVuSans-102"/>
      <use x="644.095703" xlink:href="#DejaVuSans-32"/>
      <use x="675.882812" xlink:href="#DejaVuSans-112"/>
      <use x="739.359375" xlink:href="#DejaVuSans-111"/>
      <use x="800.541016" xlink:href="#DejaVuSans-112"/>
      <use x="864.017578" xlink:href="#DejaVuSans-117"/>
      <use x="927.396484" xlink:href="#DejaVuSans-108"/>
      <use x="955.179688" xlink:href="#DejaVuSans-97"/>
      <use x="1016.458984" xlink:href="#DejaVuSans-116"/>
      <use x="1055.667969" xlink:href="#DejaVuSans-105"/>
      <use x="1083.451172" xlink:href="#DejaVuSans-111"/>
      <use x="1144.632812" xlink:href="#DejaVuSans-110"/>
     </g>
    </g>
   </g>
   <g id="matplotlib.axis_6">
    <g id="ytick_14">
     <g id="line2d_50">
      <g>
       <use style="stroke:#000000;stroke-width:0.8;" x="44.55" xlink:href="#mc693139589" y="811.9"/>
      </g>
     </g>
     <g id="text_45">
      <!-- 0 -->
      <g transform="translate(31.1875 815.699219)scale(0.1 -0.1)">
       <use xlink:href="#DejaVuSans-48"/>
      </g>
     </g>
    </g>
    <g id="ytick_15">
     <g id="line2d_51">
      <g>
       <use style="stroke:#000000;stroke-width:0.8;" x="44.55" xlink:href="#mc693139589" y="772.383316"/>
      </g>
     </g>
     <g id="text_46">
      <!-- 10 -->
      <g transform="translate(24.825 776.182535)scale(0.1 -0.1)">
       <use xlink:href="#DejaVuSans-49"/>
       <use x="63.623047" xlink:href="#DejaVuSans-48"/>
      </g>
     </g>
    </g>
    <g id="ytick_16">
     <g id="line2d_52">
      <g>
       <use style="stroke:#000000;stroke-width:0.8;" x="44.55" xlink:href="#mc693139589" y="732.866632"/>
      </g>
     </g>
     <g id="text_47">
      <!-- 20 -->
      <g transform="translate(24.825 736.66585)scale(0.1 -0.1)">
       <use xlink:href="#DejaVuSans-50"/>
       <use x="63.623047" xlink:href="#DejaVuSans-48"/>
      </g>
     </g>
    </g>
    <g id="ytick_17">
     <g id="line2d_53">
      <g>
       <use style="stroke:#000000;stroke-width:0.8;" x="44.55" xlink:href="#mc693139589" y="693.349947"/>
      </g>
     </g>
     <g id="text_48">
      <!-- 30 -->
      <g transform="translate(24.825 697.149166)scale(0.1 -0.1)">
       <use xlink:href="#DejaVuSans-51"/>
       <use x="63.623047" xlink:href="#DejaVuSans-48"/>
      </g>
     </g>
    </g>
    <g id="ytick_18">
     <g id="line2d_54">
      <g>
       <use style="stroke:#000000;stroke-width:0.8;" x="44.55" xlink:href="#mc693139589" y="653.833263"/>
      </g>
     </g>
     <g id="text_49">
      <!-- 40 -->
      <g transform="translate(24.825 657.632482)scale(0.1 -0.1)">
       <use xlink:href="#DejaVuSans-52"/>
       <use x="63.623047" xlink:href="#DejaVuSans-48"/>
      </g>
     </g>
    </g>
    <g id="ytick_19">
     <g id="line2d_55">
      <g>
       <use style="stroke:#000000;stroke-width:0.8;" x="44.55" xlink:href="#mc693139589" y="614.316579"/>
      </g>
     </g>
     <g id="text_50">
      <!-- 50 -->
      <g transform="translate(24.825 618.115798)scale(0.1 -0.1)">
       <use xlink:href="#DejaVuSans-53"/>
       <use x="63.623047" xlink:href="#DejaVuSans-48"/>
      </g>
     </g>
    </g>
    <g id="text_51">
     <!-- Probability density -->
     <g transform="translate(18.745312 755.250781)rotate(-90)scale(0.1 -0.1)">
      <use xlink:href="#DejaVuSans-80"/>
      <use x="58.552734" xlink:href="#DejaVuSans-114"/>
      <use x="97.416016" xlink:href="#DejaVuSans-111"/>
      <use x="158.597656" xlink:href="#DejaVuSans-98"/>
      <use x="222.074219" xlink:href="#DejaVuSans-97"/>
      <use x="283.353516" xlink:href="#DejaVuSans-98"/>
      <use x="346.830078" xlink:href="#DejaVuSans-105"/>
      <use x="374.613281" xlink:href="#DejaVuSans-108"/>
      <use x="402.396484" xlink:href="#DejaVuSans-105"/>
      <use x="430.179688" xlink:href="#DejaVuSans-116"/>
      <use x="469.388672" xlink:href="#DejaVuSans-121"/>
      <use x="528.568359" xlink:href="#DejaVuSans-32"/>
      <use x="560.355469" xlink:href="#DejaVuSans-100"/>
      <use x="623.832031" xlink:href="#DejaVuSans-101"/>
      <use x="685.355469" xlink:href="#DejaVuSans-110"/>
      <use x="748.734375" xlink:href="#DejaVuSans-115"/>
      <use x="800.833984" xlink:href="#DejaVuSans-105"/>
      <use x="828.617188" xlink:href="#DejaVuSans-116"/>
      <use x="867.826172" xlink:href="#DejaVuSans-121"/>
     </g>
    </g>
   </g>
   <g id="line2d_56">
    <path clip-path="url(#p1e3409ac84)" d="M 81.306818 811.9 
L 101.931887 811.822105 
L 103.405106 811.558592 
L 104.878325 810.685369 
L 106.351544 808.304005 
L 107.824763 802.856338 
L 109.297982 792.243219 
L 110.771201 774.431961 
L 112.244421 748.484055 
L 113.71764 715.566552 
L 116.664078 645.304089 
L 118.137297 619.337785 
L 119.610516 605.9 
L 121.083736 606.801018 
L 122.556955 620.911698 
L 124.030174 644.822871 
L 128.449831 732.052974 
L 129.923051 755.500205 
L 131.39627 773.856565 
L 132.869489 787.334623 
L 134.342708 796.681331 
L 135.815927 802.835847 
L 137.289146 806.700145 
L 138.762366 809.021803 
L 140.235585 810.360395 
L 141.708804 811.102924 
L 143.182023 811.500067 
L 146.128461 811.807886 
L 152.021338 811.896471 
L 233.048392 811.9 
L 816.443182 811.9 
L 816.443182 811.9 
" style="fill:none;stroke:#1f77b4;stroke-linecap:square;stroke-opacity:0.9;"/>
   </g>
   <g id="line2d_57">
    <path clip-path="url(#p1e3409ac84)" d="M 81.306818 811.9 
L 152.021338 811.820733 
L 154.967776 811.538041 
L 156.440996 811.184101 
L 157.914215 810.551912 
L 159.387434 809.478953 
L 160.860653 807.746553 
L 162.333872 805.082935 
L 163.807091 801.179972 
L 165.280311 795.726763 
L 166.75353 788.459766 
L 168.226749 779.224437 
L 169.699968 768.038316 
L 171.173187 755.14187 
L 177.066064 699.338041 
L 178.539283 688.831623 
L 180.012502 681.460893 
L 181.485721 677.772897 
L 182.958941 677.994566 
L 184.43216 682.013544 
L 185.905379 689.407081 
L 187.378598 699.510919 
L 188.851817 711.513418 
L 193.271475 750.648658 
L 194.744694 762.477648 
L 196.217913 772.971241 
L 197.691132 781.951931 
L 199.164351 789.387611 
L 200.637571 795.35662 
L 202.11079 800.010471 
L 203.584009 803.53967 
L 205.057228 806.145941 
L 206.530447 808.022208 
L 208.003666 809.340147 
L 209.476886 810.244151 
L 210.950105 810.850093 
L 212.423324 811.247246 
L 215.369762 811.661822 
L 219.78942 811.854349 
L 230.101954 811.899477 
L 816.443182 811.9 
L 816.443182 811.9 
" style="fill:none;stroke:#ff7f0e;stroke-linecap:square;stroke-opacity:0.9;"/>
   </g>
   <g id="line2d_58">
    <path clip-path="url(#p1e3409ac84)" d="M 81.306818 811.9 
L 154.967776 811.816632 
L 157.914215 811.525605 
L 159.387434 811.164408 
L 160.860653 810.522664 
L 162.333872 809.438286 
L 163.807091 807.693787 
L 165.280311 805.019405 
L 166.75353 801.109689 
L 168.226749 795.656611 
L 169.699968 788.398981 
L 171.173187 779.183268 
L 172.646406 768.026024 
L 174.119626 755.164468 
L 180.012502 699.450082 
L 181.485721 688.931143 
L 182.958941 681.533193 
L 184.43216 677.807927 
L 185.905379 677.988687 
L 187.378598 681.969879 
L 188.851817 689.334477 
L 190.325036 699.421876 
L 191.798256 711.421549 
L 196.217913 750.608957 
L 197.691132 762.463059 
L 199.164351 772.979526 
L 200.637571 781.978528 
L 202.11079 789.426825 
L 203.584009 795.402683 
L 205.057228 800.058325 
L 206.530447 803.585417 
L 208.003666 806.186985 
L 209.476886 808.057167 
L 210.950105 809.368624 
L 212.423324 810.266448 
L 213.896543 810.866937 
L 215.369762 811.259559 
L 218.316201 811.667833 
L 222.735858 811.856023 
L 233.048392 811.899515 
L 816.443182 811.9 
L 816.443182 811.9 
" style="fill:none;stroke:#2ca02c;stroke-linecap:square;stroke-opacity:0.9;"/>
   </g>
   <g id="patch_15">
    <path d="M 44.55 822.2 
L 44.55 595.6 
" style="fill:none;stroke:#000000;stroke-linecap:square;stroke-linejoin:miter;stroke-width:0.8;"/>
   </g>
   <g id="patch_16">
    <path d="M 853.2 822.2 
L 853.2 595.6 
" style="fill:none;stroke:#000000;stroke-linecap:square;stroke-linejoin:miter;stroke-width:0.8;"/>
   </g>
   <g id="patch_17">
    <path d="M 44.55 822.2 
L 853.2 822.2 
" style="fill:none;stroke:#000000;stroke-linecap:square;stroke-linejoin:miter;stroke-width:0.8;"/>
   </g>
   <g id="patch_18">
    <path d="M 44.55 595.6 
L 853.2 595.6 
" style="fill:none;stroke:#000000;stroke-linecap:square;stroke-linejoin:miter;stroke-width:0.8;"/>
   </g>
   <g id="text_52">
    <!-- Uncertainty in estimated wheat flour fortification coverage in Nigeria (Lagos) -->
    <defs>
     <path d="M 9.8125 72.90625 
L 19.671875 72.90625 
L 19.671875 8.296875 
L 55.171875 8.296875 
L 55.171875 0 
L 9.8125 0 
z
" id="DejaVuSans-76"/>
    </defs>
    <g transform="translate(217.21125 589.6)scale(0.12 -0.12)">
     <use xlink:href="#DejaVuSans-85"/>
     <use x="73.193359" xlink:href="#DejaVuSans-110"/>
     <use x="136.572266" xlink:href="#DejaVuSans-99"/>
     <use x="191.552734" xlink:href="#DejaVuSans-101"/>
     <use x="253.076172" xlink:href="#DejaVuSans-114"/>
     <use x="294.189453" xlink:href="#DejaVuSans-116"/>
     <use x="333.398438" xlink:href="#DejaVuSans-97"/>
     <use x="394.677734" xlink:href="#DejaVuSans-105"/>
     <use x="422.460938" xlink:href="#DejaVuSans-110"/>
     <use x="485.839844" xlink:href="#DejaVuSans-116"/>
     <use x="525.048828" xlink:href="#DejaVuSans-121"/>
     <use x="584.228516" xlink:href="#DejaVuSans-32"/>
     <use x="616.015625" xlink:href="#DejaVuSans-105"/>
     <use x="643.798828" xlink:href="#DejaVuSans-110"/>
     <use x="707.177734" xlink:href="#DejaVuSans-32"/>
     <use x="738.964844" xlink:href="#DejaVuSans-101"/>
     <use x="800.488281" xlink:href="#DejaVuSans-115"/>
     <use x="852.587891" xlink:href="#DejaVuSans-116"/>
     <use x="891.796875" xlink:href="#DejaVuSans-105"/>
     <use x="919.580078" xlink:href="#DejaVuSans-109"/>
     <use x="1016.992188" xlink:href="#DejaVuSans-97"/>
     <use x="1078.271484" xlink:href="#DejaVuSans-116"/>
     <use x="1117.480469" xlink:href="#DejaVuSans-101"/>
     <use x="1179.003906" xlink:href="#DejaVuSans-100"/>
     <use x="1242.480469" xlink:href="#DejaVuSans-32"/>
     <use x="1274.267578" xlink:href="#DejaVuSans-119"/>
     <use x="1356.054688" xlink:href="#DejaVuSans-104"/>
     <use x="1419.433594" xlink:href="#DejaVuSans-101"/>
     <use x="1480.957031" xlink:href="#DejaVuSans-97"/>
     <use x="1542.236328" xlink:href="#DejaVuSans-116"/>
     <use x="1581.445312" xlink:href="#DejaVuSans-32"/>
     <use x="1613.232422" xlink:href="#DejaVuSans-102"/>
     <use x="1648.4375" xlink:href="#DejaVuSans-108"/>
     <use x="1676.220703" xlink:href="#DejaVuSans-111"/>
     <use x="1737.402344" xlink:href="#DejaVuSans-117"/>
     <use x="1800.78125" xlink:href="#DejaVuSans-114"/>
     <use x="1841.894531" xlink:href="#DejaVuSans-32"/>
     <use x="1873.681641" xlink:href="#DejaVuSans-102"/>
     <use x="1908.886719" xlink:href="#DejaVuSans-111"/>
     <use x="1970.068359" xlink:href="#DejaVuSans-114"/>
     <use x="2011.181641" xlink:href="#DejaVuSans-116"/>
     <use x="2050.390625" xlink:href="#DejaVuSans-105"/>
     <use x="2078.173828" xlink:href="#DejaVuSans-102"/>
     <use x="2113.378906" xlink:href="#DejaVuSans-105"/>
     <use x="2141.162109" xlink:href="#DejaVuSans-99"/>
     <use x="2196.142578" xlink:href="#DejaVuSans-97"/>
     <use x="2257.421875" xlink:href="#DejaVuSans-116"/>
     <use x="2296.630859" xlink:href="#DejaVuSans-105"/>
     <use x="2324.414062" xlink:href="#DejaVuSans-111"/>
     <use x="2385.595703" xlink:href="#DejaVuSans-110"/>
     <use x="2448.974609" xlink:href="#DejaVuSans-32"/>
     <use x="2480.761719" xlink:href="#DejaVuSans-99"/>
     <use x="2535.742188" xlink:href="#DejaVuSans-111"/>
     <use x="2596.923828" xlink:href="#DejaVuSans-118"/>
     <use x="2656.103516" xlink:href="#DejaVuSans-101"/>
     <use x="2717.626953" xlink:href="#DejaVuSans-114"/>
     <use x="2758.740234" xlink:href="#DejaVuSans-97"/>
     <use x="2820.019531" xlink:href="#DejaVuSans-103"/>
     <use x="2883.496094" xlink:href="#DejaVuSans-101"/>
     <use x="2945.019531" xlink:href="#DejaVuSans-32"/>
     <use x="2976.806641" xlink:href="#DejaVuSans-105"/>
     <use x="3004.589844" xlink:href="#DejaVuSans-110"/>
     <use x="3067.96875" xlink:href="#DejaVuSans-32"/>
     <use x="3099.755859" xlink:href="#DejaVuSans-78"/>
     <use x="3174.560547" xlink:href="#DejaVuSans-105"/>
     <use x="3202.34375" xlink:href="#DejaVuSans-103"/>
     <use x="3265.820312" xlink:href="#DejaVuSans-101"/>
     <use x="3327.34375" xlink:href="#DejaVuSans-114"/>
     <use x="3368.457031" xlink:href="#DejaVuSans-105"/>
     <use x="3396.240234" xlink:href="#DejaVuSans-97"/>
     <use x="3457.519531" xlink:href="#DejaVuSans-32"/>
     <use x="3489.306641" xlink:href="#DejaVuSans-40"/>
     <use x="3528.320312" xlink:href="#DejaVuSans-76"/>
     <use x="3584.033203" xlink:href="#DejaVuSans-97"/>
     <use x="3645.3125" xlink:href="#DejaVuSans-103"/>
     <use x="3708.789062" xlink:href="#DejaVuSans-111"/>
     <use x="3769.970703" xlink:href="#DejaVuSans-115"/>
     <use x="3822.070312" xlink:href="#DejaVuSans-41"/>
    </g>
   </g>
   <g id="legend_3">
    <g id="patch_19">
     <path d="M 739.634375 648.46875 
L 846.2 648.46875 
Q 848.2 648.46875 848.2 646.46875 
L 848.2 602.6 
Q 848.2 600.6 846.2 600.6 
L 739.634375 600.6 
Q 737.634375 600.6 737.634375 602.6 
L 737.634375 646.46875 
Q 737.634375 648.46875 739.634375 648.46875 
z
" style="fill:#ffffff;opacity:0.8;stroke:#cccccc;stroke-linejoin:miter;"/>
    </g>
    <g id="line2d_59">
     <path d="M 741.634375 608.698437 
L 761.634375 608.698437 
" style="fill:none;stroke:#1f77b4;stroke-linecap:square;stroke-opacity:0.9;"/>
    </g>
    <g id="line2d_60"/>
    <g id="text_53">
     <!-- eats_fortified -->
     <g transform="translate(769.634375 612.198437)scale(0.1 -0.1)">
      <use xlink:href="#DejaVuSans-101"/>
      <use x="61.523438" xlink:href="#DejaVuSans-97"/>
      <use x="122.802734" xlink:href="#DejaVuSans-116"/>
      <use x="162.011719" xlink:href="#DejaVuSans-115"/>
      <use x="214.111328" xlink:href="#DejaVuSans-95"/>
      <use x="264.111328" xlink:href="#DejaVuSans-102"/>
      <use x="299.316406" xlink:href="#DejaVuSans-111"/>
      <use x="360.498047" xlink:href="#DejaVuSans-114"/>
      <use x="401.611328" xlink:href="#DejaVuSans-116"/>
      <use x="440.820312" xlink:href="#DejaVuSans-105"/>
      <use x="468.603516" xlink:href="#DejaVuSans-102"/>
      <use x="503.808594" xlink:href="#DejaVuSans-105"/>
      <use x="531.591797" xlink:href="#DejaVuSans-101"/>
      <use x="593.115234" xlink:href="#DejaVuSans-100"/>
     </g>
    </g>
    <g id="line2d_61">
     <path d="M 741.634375 623.654688 
L 761.634375 623.654688 
" style="fill:none;stroke:#ff7f0e;stroke-linecap:square;stroke-opacity:0.9;"/>
    </g>
    <g id="line2d_62"/>
    <g id="text_54">
     <!-- eats_fortifiable -->
     <g transform="translate(769.634375 627.154688)scale(0.1 -0.1)">
      <use xlink:href="#DejaVuSans-101"/>
      <use x="61.523438" xlink:href="#DejaVuSans-97"/>
      <use x="122.802734" xlink:href="#DejaVuSans-116"/>
      <use x="162.011719" xlink:href="#DejaVuSans-115"/>
      <use x="214.111328" xlink:href="#DejaVuSans-95"/>
      <use x="264.111328" xlink:href="#DejaVuSans-102"/>
      <use x="299.316406" xlink:href="#DejaVuSans-111"/>
      <use x="360.498047" xlink:href="#DejaVuSans-114"/>
      <use x="401.611328" xlink:href="#DejaVuSans-116"/>
      <use x="440.820312" xlink:href="#DejaVuSans-105"/>
      <use x="468.603516" xlink:href="#DejaVuSans-102"/>
      <use x="503.808594" xlink:href="#DejaVuSans-105"/>
      <use x="531.591797" xlink:href="#DejaVuSans-97"/>
      <use x="592.871094" xlink:href="#DejaVuSans-98"/>
      <use x="656.347656" xlink:href="#DejaVuSans-108"/>
      <use x="684.130859" xlink:href="#DejaVuSans-101"/>
     </g>
    </g>
    <g id="line2d_63">
     <path d="M 741.634375 638.610937 
L 761.634375 638.610937 
" style="fill:none;stroke:#2ca02c;stroke-linecap:square;stroke-opacity:0.9;"/>
    </g>
    <g id="line2d_64"/>
    <g id="text_55">
     <!-- eats_vehicle -->
     <g transform="translate(769.634375 642.110937)scale(0.1 -0.1)">
      <use xlink:href="#DejaVuSans-101"/>
      <use x="61.523438" xlink:href="#DejaVuSans-97"/>
      <use x="122.802734" xlink:href="#DejaVuSans-116"/>
      <use x="162.011719" xlink:href="#DejaVuSans-115"/>
      <use x="214.111328" xlink:href="#DejaVuSans-95"/>
      <use x="264.111328" xlink:href="#DejaVuSans-118"/>
      <use x="323.291016" xlink:href="#DejaVuSans-101"/>
      <use x="384.814453" xlink:href="#DejaVuSans-104"/>
      <use x="448.193359" xlink:href="#DejaVuSans-105"/>
      <use x="475.976562" xlink:href="#DejaVuSans-99"/>
      <use x="530.957031" xlink:href="#DejaVuSans-108"/>
      <use x="558.740234" xlink:href="#DejaVuSans-101"/>
     </g>
    </g>
   </g>
  </g>
 </g>
 <defs>
  <clipPath id="p859a69e44e">
   <rect height="226.6" width="808.65" x="44.55" y="26.8"/>
  </clipPath>
  <clipPath id="p82e147a18b">
   <rect height="226.6" width="808.65" x="44.55" y="311.2"/>
  </clipPath>
  <clipPath id="p1e3409ac84">
   <rect height="226.6" width="808.65" x="44.55" y="595.6"/>
  </clipPath>
 </defs>
</svg>
